<?xml version="1.0" encoding="utf-8"?>
<!-- Generator: Adobe Illustrator 21.1.0, SVG Export Plug-In . SVG Version: 6.00 Build 0)  -->
<svg version="1.1" id="Layer_1" xmlns="http://www.w3.org/2000/svg" xmlns:xlink="http://www.w3.org/1999/xlink" x="0px" y="0px"
	 viewBox="0 0 210 51.4" style="enable-background:new 0 0 210 51.4;" xml:space="preserve">
<style type="text/css">
	.st0{fill:#406AD1;}
	.st1{fill:none;}
	.st2{fill:#FFFFFF;}
	.st3{fill:url(#SVGID_1_);}
	.st4{fill:url(#SVGID_2_);}
	.st5{fill:#FF9100;}
	.st6{font-family:'OpenSans-Regular';}
	.st7{font-size:31px;}
</style>
<title>vanityBox</title>
<g id="Layer_1-2">
	<rect x="0.4" class="st0" width="210" height="50.2"/>
	<line class="st1" x1="189" y1="9.3" x2="27" y2="9.3"/>
	<path class="st2" d="M27,8.7c-0.1,0.1,0,0.3,0.2,0.2l0.2-0.3L27,8.7z"/>
	<path class="st2" d="M28.6,9.3c0.3-0.2,0.6-0.4,0.4-0.8c-0.3,0.3-0.3,0.2-0.6,0.6C28.1,9.1,28,9,28,8.9C27.9,9,27.6,8.8,27.5,9
		c0.3,0.3,0.8,0.3,1.1,0.1C28.7,9.1,28.6,9.2,28.6,9.3z"/>
	<path class="st2" d="M51.5,9.8h-0.2C51.4,9.8,51.5,9.8,51.5,9.8z"/>
	<path class="st2" d="M65.8,10c-0.1,0-0.2,0-0.2,0.1S65.8,10,65.8,10z"/>
	<path class="st2" d="M68.2,10.4h-0.1C68.1,10.4,68.2,10.4,68.2,10.4z"/>
	<path class="st2" d="M51.5,9.8l0.4,0.1C52,9.8,51.7,9.8,51.5,9.8z"/>
	<path class="st2" d="M31.8,8.5c-0.1,0-0.1,0-0.2,0.1L31.8,8.5L31.8,8.5z"/>
	<path class="st2" d="M45.3,10.1h-0.1l-0.1,0.1L45.3,10.1z"/>
	<path class="st2" d="M40.5,10.1c0.1,0,0.2-0.3,0.2-0.4c0,0.1-0.1,0.2-0.2,0.2C40.4,10,40.4,10.1,40.5,10.1z"/>
	<path class="st2" d="M32.8,9.6h-0.1H32.8z"/>
	<path class="st2" d="M48.7,10.1c0,0,0,0.1,0,0.1C48.7,10.2,48.7,10.2,48.7,10.1z"/>
	<path class="st2" d="M183.4,8L183.4,8C183.4,8,183.4,8,183.4,8z"/>
	<path class="st2" d="M189,9.4L189,9.4c-0.1,0.1-0.1,0.1-0.1,0.2L189,9.4z"/>
	<path class="st2" d="M72.7,10.7L72.7,10.7C72.5,10.7,72.6,10.7,72.7,10.7z"/>
	<path class="st2" d="M113.5,10.5c-0.5-0.2,0.8-0.3,0.1-0.6C113.6,10,112.9,10.3,113.5,10.5z"/>
	<path class="st2" d="M31.9,8.5h0.2C32,8.5,31.9,8.5,31.9,8.5z"/>
	<path class="st2" d="M113.6,9.9L113.6,9.9L113.6,9.9L113.6,9.9z"/>
	<path class="st2" d="M82.9,10.6c0,0-0.1-0.1-0.1-0.1C82.8,10.4,82.8,10.5,82.9,10.6z"/>
	<path class="st2" d="M75.3,10.1h0.2C75.4,10.1,75.3,10.1,75.3,10.1z"/>
	<path class="st2" d="M86.9,10.1c0.1,0,0.2,0,0.3,0l0,0C87.1,10.2,87,10.2,86.9,10.1z"/>
	<path class="st2" d="M91,10.1L91,10.1l-0.2-0.1L91,10.1z"/>
	<path class="st2" d="M170.9,8.2c0.1,0.1,0.1,0.2,0.2,0.2C171,8.2,171.6,8.1,170.9,8.2z"/>
	<path class="st2" d="M31.8,8.6c0-0.1,0.1-0.1,0.1-0.1h-0.1C31.7,8.5,31.7,8.6,31.8,8.6z"/>
	<path class="st2" d="M87,7.9h0.7C87.4,7.9,87.2,7.9,87,7.9z"/>
	<path class="st2" d="M141.3,8.2h0.1C141.4,8.2,141.3,8.2,141.3,8.2z"/>
	<path class="st2" d="M89.7,7.9C89.8,8,89.9,8.1,90,8.1c0,0,0.1,0,0.1-0.1L89.7,7.9z"/>
	<path class="st2" d="M171.1,8.4L171.1,8.4z"/>
	<linearGradient id="SVGID_1_" gradientUnits="userSpaceOnUse" x1="29.33" y1="9.22" x2="189.1303" y2="9.22">
		<stop  offset="0.1441" style="stop-color:#FFFFFF"/>
		<stop  offset="0.2404" style="stop-color:#FFE7C7"/>
		<stop  offset="0.3424" style="stop-color:#FFD093"/>
		<stop  offset="0.4462" style="stop-color:#FFBD66"/>
		<stop  offset="0.5496" style="stop-color:#FFAD41"/>
		<stop  offset="0.6527" style="stop-color:#FFA124"/>
		<stop  offset="0.7553" style="stop-color:#FF9810"/>
		<stop  offset="0.8574" style="stop-color:#FF9304"/>
		<stop  offset="0.9583" style="stop-color:#FF9100"/>
	</linearGradient>
	<path class="st3" d="M175.4,7.8c-0.6,0-0.3,0.4-0.4,0.6c-0.8,0.1-0.4-0.3-0.6-0.5c-0.5,0.1-0.8,0.4-1.2,0.4c0-0.1-0.1-0.1,0-0.2
		c-0.5,0.3-1.5,0-2,0.4c0,0-0.1-0.1-0.1-0.1c0.1,0.2,0.1,0.3,0.1,0.5c-0.3,0-0.5,0.2-0.6,0c0.2,0,0.2-0.1,0.3-0.2l-0.3,0.1
		c-0.3-0.4,0.4-0.1,0.4-0.4c-0.5,0.2-1.1,0.3-1.7,0.3c-0.1-0.3,1-0.1,0.4-0.4l0.7,0.1c-0.5-0.5,0.4,0-0.1-0.5
		c-0.9-0.1-1,0.2-1.9,0.1c-0.2,0.2,0.1,0.3-0.1,0.5c-1.3,0.3-1-0.8-1.9-0.4c-0.2,0.2-0.3,0.7-1,0.4l0.2-0.4c-0.9,0-0.5,0.6-1.4,0.3
		c0.2-0.1,0.7-0.1,0.6-0.2c-0.6-0.3-0.4,0.2-0.9,0.2l-0.1-0.3c-0.9,0.1-1.9,0.3-3,0.4c0.1-0.1,0.2-0.2,0-0.3c-1.3,0.1-2.7,0-4-0.2
		l-0.5,0.3c-0.1,0-0.2-0.1-0.1-0.2c-0.5-0.1,0,0.2-0.3,0.3s-0.4-0.2-0.2-0.3c-1.1,0.4-2.2,0.4-3.3,0.2l0.2-0.1
		c-0.7-0.1-0.8,0.6-1.4,0.3l0.1-0.1c-1.5-0.1-3.2,0.1-4.4-0.3c-0.2,0.4-1.5-0.2-1.6,0.4c-0.6-0.3-1.2-0.5-1.8-0.6
		c-0.3,0-0.5,0.4-0.9,0.4V8.1l-0.6,0.3l-0.3-0.4l-0.4,0.1c0.1,0,0.3,0.1,0.3,0.2c-0.5,0.1-1.1,0-1.5-0.4l-1.4,0.3
		c0-0.1,0.3-0.2,0.4-0.2c-0.8,0.3-0.1-0.3-0.8,0c0.1,0.1,0,0.2-0.1,0.2c-0.5-0.2-1.1-0.2-1.7-0.1l0.1-0.2c-1-0.1-2.2,0.1-3.4,0.1
		c0.4,0.1,0.3,0.5,0,0.5l-0.1-0.3c-0.2,0.2,0.4,0.1-0.1,0.4c-0.4,0-0.3-0.4,0-0.5l-0.5,0.1c0-0.1,0.1-0.1,0.1-0.3
		c-0.2,0.2-0.9-0.3-1.2,0V7.8c-1.2,0-1.7,0.1-2.6,0.1c0,0.3-0.4,0.2-0.7,0.4c-0.8-0.2-1.5-0.3-2.3-0.3c-0.6,0.1-0.2,0.2-0.4,0.4
		c0-0.3-0.9-0.2-0.4-0.4c-0.9,0-1.7,0.1-2.6,0.3c0.1,0.1,0.3,0.1,0.2,0.2c-0.2,0-0.5-0.1-0.5-0.2h0.1c-1.4,0.4-3.3-0.8-4.4-0.2h0.1
		l-1.2,0.3c-0.5,0,0.3-0.2-0.1-0.4c-1.3,0.4-2-0.1-3.1,0.2c-0.8-0.8-2.9,0.1-4-0.4l0.1,0.2c-0.3,0.2-0.3-0.1-0.6-0.1
		c0,0.1,0.3,0.2,0.1,0.3c-2.5,0-5-0.1-7.4-0.4c-0.9,0-0.5,0.9-1.6,0.5l0.3-0.3c-1.8,0.4-3.7,0-5.5,0.3c0.1-0.1,0.1-0.2,0.3-0.2
		C95,7.9,94,8.1,94,8.3c-0.3,0-0.1-0.2-0.2-0.3c-0.4-0.1-0.9,0.3-1.1,0.1c0,0,0.1-0.1,0.2-0.1c-0.2,0.1-1.1,0-0.9,0.3
		c-0.7-0.1-1.3,0.1-1.8,0c-0.3,0.3-1.1-0.1-1.2,0.3c0-0.4-1.2-0.4-1.6-0.1C87.3,8.2,86.8,8.2,87,8c-0.5,0-0.9,0.1-0.8,0.3
		c-0.9-0.5-1.8,0.4-2.3-0.3c-1.4,0.2-2.8,0.4-4,0.5c0-0.4,1.4,0,1.4-0.5c-1,0.3-2.1,0.5-3.1,0.5c-0.3-0.1,0.2-0.2,0.3-0.3
		c-1.2,0.2-2.4,0-3.4,0.2c0,0,0.1-0.1,0.2-0.1c-0.2,0-0.5-0.1-0.5,0.1l0.2-0.1c0.3,0.3-0.8,0.6-0.9,0.8c0.4-0.6-1.1-0.1-0.5-0.9
		c-0.1,0-0.3,0.1-0.3,0.3c-0.2,0-0.3-0.1-0.1-0.3c-0.8,0.1-0.5,0.3-1.2,0.3c0-0.1,0.1-0.1,0.2-0.2c-0.4,0.3-0.8,0.4-1.3,0.3
		c0-0.1,0-0.1,0.1-0.1c-1,0-1.7,0.5-2.8,0.3c0.3-0.4-0.4-0.1-0.4-0.5l-0.6,0.1l0.2,0.2c-0.5,0-1,0.3-1.4,0.1l0.4-0.1l-1,0.1L66,8.9
		C65.5,9,66,9.3,65.3,9.2c0.1,0-0.5,0-0.8-0.2l0,0c-0.3,0.2-0.6,0.2-0.9,0.1c-0.1-0.1,0.1-0.4,0-0.5c-0.2,0.3-1.2,0.1-1.5,0.4
		c0.1-0.1,0.1-0.2,0.1-0.3L62,9c-0.2-0.1-0.3-0.1-0.2-0.3C61,8.7,62,9.2,61.1,9c0.1,0,0-0.1,0.2-0.1c-0.9-0.1-1.7,0.2-2.5,0
		c-0.2-0.4,0.7-0.1,0.4-0.4c-1.2,0.2-2.3,0.3-3.5,0.4H56c-0.2,0.5-0.8-0.3-1.4,0c0.1,0,0.2-0.3,0.1-0.2c-0.9,0-1.8,0.1-2.7,0.3
		l0.1-0.1c-0.6-0.1-1.1-0.1-1.7-0.1c-0.1,0.1-0.4,0.1-0.2,0.3c-1.5-0.8-2.8,0.4-4.2-0.2c0.2,0,0.4-0.1,0.2-0.1l-1.1,0.1
		c0.1,0.2,0.2,0.1,0.4,0.3c-0.2,0.2-0.5,0.2-0.7,0.2c0.5-0.1,0-0.4-0.2-0.5c0,0.1,0,0.1,0,0.2c-0.6-0.4-0.1,0.5-0.9,0.2V9.1
		c-0.3,0.1-0.6,0.2-0.9,0.2c-0.1-0.3,0.3-0.1,0.3-0.3c-0.5,0-0.9,0.5-1.3,0.2c0.2-0.1,0.5-0.1,0.7-0.1c-0.2-0.2-0.5-0.3-0.8-0.3l0,0
		L41,8.6l0.2,0.1c-0.6,0.7-1.2,0.1-1.9,0.6C40,8.8,39.4,9,39.5,8.7C39.2,8.6,39,8.5,39,8.5c-0.4,0.2-0.6-0.2-1.1,0.2
		c0-0.1-0.4,0-0.3-0.2c-0.5,0.1,0.1,0.2,0.1,0.3C37,9,36,8.3,34.9,8.7C34,8.9,33.9,9.2,33,9.4C32.8,9.2,33.3,9,33.3,9
		c-0.4-0.1-0.8-0.2-1.3,0c0.1-0.1,0-0.2-0.1-0.3c-0.3,0-0.2,0.4-0.7,0.2c0.1-0.2,0.2-0.3,0.3-0.4c-0.4,0.1-0.8,0.3-1.2,0.4
		c-0.1-0.2,0.2-0.3,0.4-0.4c-0.5,0.1-1.2,0.1-1.4,0.4l0.3,0.1c-0.2,0-0.1-0.2,0-0.3C30,8.6,30.2,8.9,30.2,9L29.9,9
		c0.3,0.6,1.2-0.1,1.8-0.1l-0.2,0.4L32.1,9c0.1,0.1,0.2,0.3-0.1,0.4c0.4,0.2,0.4-0.1,0.8,0.1c0,0,0,0.1,0,0.1l0.4-0.1
		c-0.1,0.1,0.1,0.3-0.2,0.2c0.8,0.2,1.2-0.3,1.5,0h-0.1c1-0.1,0.1-0.3,0.9-0.7l0.5,0.8L36,9.5c0.1,0,0.3,0,0.3,0.2
		c0.4-0.2-0.1-0.1,0.2-0.3c0.5,0.3,1.4-0.1,1.6,0.4c0.2-0.2-0.5-0.2,0.1-0.3c0.2,0.5,0.6-0.1,1.1,0.1C39,9.7,38.6,9.6,39,9.8
		c0.3-0.5,0.9,0.1,1.3,0c0-0.4,0.9-0.1,1.5-0.3c0.6,0.2,1.3,0.3,1.9,0.3V10c0.1-0.4,0.8-0.3,1.2-0.4c0,0.2-0.1,0.3-0.4,0.4h0.4
		c0.1-0.1,0.3-0.2,0.5-0.2L45.6,10c0.6-0.1,1.3-0.1,2,0c0-0.3-0.6-0.7,0.2-0.9c0,0.1,0.1,0.4-0.2,0.4c0.1,0,0.2-0.1,0.4-0.1
		l-0.3,0.2c0.3,0.1,0.2-0.2,0.5-0.2c0,0.2,0.2,0.1,0.2,0.3s-0.2-0.1-0.3,0c0.3,0,0.6,0.1,0.8,0.3c0-0.1,0-0.3,0.2-0.3
		c0.6,0,0.2,0.2,0.5,0.3c0.1-0.1,0.5,0,0.5-0.3c0.2,0,0.2,0.1,0.3,0.2c0.3-0.1,1.4,0,1.1-0.4h-0.1l0,0c1-0.3,2.1,0.2,3.1,0v0.1
		c0.6,0,1.2-0.1,1.7-0.3c0.2,0,0.4,0.2,0.3,0.3c0.4-0.1,0.8-0.1,1.2,0c-0.5,0.2,0.2,0.1-0.5,0.1c0.6,0.1,0.7,0.2,1.3,0
		c-0.2,0.2,0.4,0.3,0.7,0.2L58.8,10c0.3,0,0.6,0,0.9,0l-0.2,0.3c1.2,0.4,2.2-0.7,3.1,0c0.3-0.2-0.7-0.2-0.4-0.4
		c0.5,0,1.1,0.5,1.3,0.5c0.8,0.2,0.7-0.5,1.5-0.4c-0.1-0.1-0.2-0.4,0.4-0.6c0.6,0,0.7,0.5,0.3,0.6c-0.1,0-0.2,0-0.2-0.1
		c-0.2,0-0.4,0.1-0.2,0.2l0.1-0.1c0.3,0.1,1,0.1,0.9,0.3c0.4-0.1,0.2-0.2-0.1-0.3c0.7,0.2,1.1,0,1.8,0.1c-0.1-0.1-0.2-0.2-0.1-0.2
		c1.1,0.1,0.5-0.2,1.2-0.3c0.4,0.2-0.2,0.4,0.6,0.3c0.4,0.1,0.1,0.3-0.1,0.4c0.7-0.2,1.2,0.1,1.6,0.2l-0.3,0.1
		c0.2,0,0.4-0.1,0.6-0.1l-0.2-0.2c0.2,0,0.4,0,0.4,0.1c0.2-0.2-0.2-0.4,0.3-0.6c0.3,0.1,0.8-0.1,0.9,0.2c-0.9-0.1,0.1,0.3-0.6,0.4
		c0.2,0,0.3,0,0.5,0c0,0,0,0.1-0.1,0.1c0.8,0.3,0.4-0.4,1.2-0.4c-0.1,0.2,0.2,0.3,0.3,0.3c-0.3,0-0.2-0.3,0.2-0.4
		c0.6,0.1,0.6-0.1,0.9-0.1l-0.3,0c0.1-0.2,0.4-0.1,0.8-0.2c0,0.1-0.3,0.1-0.2,0.2c0.4-0.3,1,0.3,1.6,0.1c0.3,0.1,0,0.3,0.3,0.4
		c0.7-0.2,0.7,0.2,1.4,0.1c-0.2-0.2-0.2-0.2,0.3-0.4l-1.2,0.2l0.7-0.4c-0.3,0-0.7,0.1-0.9,0.1C78,9.9,78,10,77.8,9.8
		c0.5,0.4,0.9-0.2,1.5,0v0.6c0.8,0.3,1.5-0.3,2.5-0.1l-0.3-0.1c0.1-0.2,0.7,0,1-0.1c0,0.2,0.2,0.3,0.3,0.4c0-0.1,0.8,0,0.9-0.4
		l0.5,0.3c0.9,0.1,1-0.6,1.8-0.5c-0.2,0.2,0.1,0.4-0.4,0.5c0.3,0,0.5,0,0.5-0.1c0.2,0.1,0.8-0.3,1-0.1c0.1-0.1,0.2-0.3,0.5-0.3v0.1
		c0,0,0.5-0.1,0.2-0.4c0.8,0.6,2.4,0,3.1,0.5c0.6-0.1,1.3-0.1,1.9-0.1c0,0.1,0,0.1-0.1,0.1c0.8,0.2,0.5-0.6,1.3-0.4
		c0.4,0.3-0.5,0.2-0.2,0.3c0.1,0.6,1-0.1,1.6,0.3h-0.1c0.4,0.2,1.1-0.2,1.8-0.2c0,0,0,0.1,0,0.1c0.7-0.3,1.4-0.5,2.1-0.5
		C99.1,9.8,99,9.7,99.1,10c0.3,0-0.1-0.4,0.5-0.5c0.2,0.1,0.7,0.3,0.7,0.5h-0.6c0.3,0.4,0.8,0,1.1,0v0.2c0.9-0.1,0.9-0.4,1.9-0.4
		l-0.1-0.1c0.5-0.4,0.4,0.2,1-0.1l0.2,0.4c0.6-0.2,1.2-0.3,1.8-0.5c-0.5,0.3-1,0.5-1.5,0.6c0.3,0,1.2,0,1.4-0.2
		c-0.1,0-0.3,0.1-0.4,0.1c0.5-0.3,1.1-0.5,1.7-0.5c-0.1,0.8,1.8,0.2,2.3,0.8c1.2-0.3,2.4,0.1,3.8,0.1c-0.5-0.6,0.4,0,0.3-0.6
		c0.3,0,0.5,0,0.5,0l1,0.4c0.2,0.2-0.3,0.1-0.3,0.3c0.7,0,0.3,0.3,0.8,0.4c-0.1-0.2,0.2-0.3,0.7-0.2l-0.6-0.3c1-0.3,0.9,0.5,1.9,0.2
		l-0.3,0.2c0.5-0.1,1.9,0,2.4-0.5c0.1,0.1,0.2,0.2,0,0.3c1.2,0.1,2.8-0.5,3.8-0.2l-0.1,0.1c0.2,0,0.4-0.3,0.7-0.1
		c0,0.1-0.1,0.1,0,0.2c0.3-0.1,0.6-0.2,0.9-0.2l-0.3,0.2c1.2,0.2,1.9-0.4,2.9-0.5c0,0.4,1,0.6,1.4,0.6v0.1c1.3-0.1,2.5-0.2,3.7-0.5
		c0.8,0.5,2.8,0.2,4.1,0.5c-0.2-0.1,0-0.3,0.3-0.4s0.9-0.3,0.8,0.1h-0.1c0.2,0.4,0.9,0.3,1.4,0.3l0.1-0.5c1.3,0.8,3.4-0.3,4.1,0.4
		c0.3-0.1,0.7-0.1,1-0.3v0.3c0.8,0.1,1.6,0.1,2.4,0l-0.2,0.2c0.6,0,0.8-0.8,1.3-0.8l0.2,0.4c1.1,0,2.1,0.4,3.2,0
		c0,0.1-0.1,0.2-0.2,0.2c0.5,0,1.9,0.3,1.7-0.3c0,0.4,1.1,0,1.7-0.1l-0.1,0.3c0.3-0.3,0.7-0.5,1.2-0.6c0.2,0,0.1,0.2-0.1,0.1
		c0.5,0.1,0.4-0.3,1.1-0.1l-0.2,0.2c0.6,0,0.5-0.1,0.8-0.3s1,0.1,1.1,0.3c0.1-0.2,0.4-0.3,0.7-0.3c0,0.1-0.1,0.1-0.1,0.2
		c0.9,0.2,1.4-0.3,2-0.1c0,0.1,0,0.1,0.1,0.2c-0.4,0-0.8,0-1.2,0c0,0.3,0.6,0.3,0.1,0.7c0.6-0.3,1.2-0.5,1.8-0.5
		c0,0,0.1,0.1,0.1,0.1h-0.1c0.1,0,0.2,0,0.4,0c0.2,0,0.3,0.1,0.5,0.1c0.1,0.2,0.7,0.1,1,0.1c0-0.3,0.4-0.2,0-0.5c0,0-0.1,0-0.2,0
		h-0.1l0,0h-0.7c0.2-0.2,0.5-0.2,0.8-0.1c0.1-0.2,0.3-0.3,0.4-0.4c0.4,0.4,1.2,0.6,1.3,0.9c0.9-0.2,2.1-0.1,2.7-0.6
		c0.2-0.1,0.3,0.1,0.4,0.2c-0.1,0.1-0.3,0-0.4,0.1c0.5-0.1,1.5-0.1,1.6-0.4c0.6,0.2-0.4,0.3,0.5,0.3L169,10c1.7,0.6,2.8-0.9,4.7-0.2
		c-0.1,0-0.2-0.1-0.2-0.1c2.2,0.3,4.5-0.3,6.6,0.2c0.6,0.1,0.7-0.1,1.1-0.3l0.1,0.3l0.6-0.4c0.9-0.3,1.6,0.7,2.7,0.3l-0.1-0.2
		c0.4,0,1.3-0.1,1.2,0.1c0,0,0.1-0.2,0.3-0.1v0.2l1-0.3c0.8,0.1-0.1,0.6,1,0.7c0.4-0.1,1.2-0.5,1.1-0.6s-0.4-0.1-0.4-0.3l0.4-0.1
		c0.1-0.5,0.4-0.9-0.6-1.3l-0.7,0.3L187.6,8h0.4c-0.3-0.2-0.5,0-0.7,0.1c-0.1-0.1-0.2-0.2-0.3-0.2l-0.6,0.4
		c-0.1-0.2,0.3-0.4-0.1-0.5c-0.3,0.2,0.3,0.4-0.2,0.5c-0.3-0.2-0.2-0.4-0.6-0.2c-0.1-0.1,0-0.2,0.2-0.2c-0.3,0.1-0.9,0.1-1.1,0.3
		c-0.3-0.3-1.1,0.1-1.1-0.4c-0.3,0.2-0.6,0.3-0.9,0.4c0.6-0.5-1.1,0-1-0.6c-0.4,0.5-1.5,0.2-2.2,0.5c0,0,0.1-0.1,0.2-0.1
		c-0.3,0-0.6-0.1-0.8-0.3c-0.1,0.4-0.7,0.5-1,0.7c-0.5-0.4,0.3-0.5,0.1-0.8c0,0.3-0.9,0.3-0.7,0.6c-0.4-0.2-0.3-0.1-0.5-0.4
		c-0.1,0.5-0.4,0.1-0.7,0.4c-0.6-0.2-0.1-0.5-0.8-0.3C174.8,7.9,175.4,7.8,175.4,7.8z M160.8,8.6L160.8,8.6h0.3H160.8z M159.6,8.6
		h0.5c0,0.1,0,0.1-0.1,0.2c0,0,0,0-0.1,0C160,8.7,159.8,8.7,159.6,8.6z M162.2,10.6c-0.2,0-0.3,0-0.3-0.1L162.2,10.6L162.2,10.6
		C162.2,10.5,162.2,10.5,162.2,10.6L162.2,10.6z"/>
	<path class="st2" d="M162.5,10.2L162.5,10.2L162.5,10.2l-0.1,0L162.5,10.2z"/>
	<path class="st2" d="M51.4,9.8L51.4,9.8L51.4,9.8L51.4,9.8z"/>
	<polygon class="st2" points="142.6,8.1 142.6,8.1 142.8,8.1 	"/>
	<path class="st2" d="M44.6,8.8C44.6,8.8,44.6,8.7,44.6,8.8C44.5,8.7,44.6,8.8,44.6,8.8z"/>
	<path class="st2" d="M41.7,8.7l-0.4-0.1C41.4,8.7,41.6,8.7,41.7,8.7z"/>
	<path class="st2" d="M39.5,8.6c0,0,0,0.1,0,0.1l0,0V8.6z"/>
	<path class="st2" d="M75.1,8.3L75.1,8.3C75.4,8.2,75.3,8.2,75.1,8.3z"/>
	<path class="st2" d="M64.5,8.9c0.1-0.1,0.2-0.1,0.3-0.1C64.7,8.8,64.5,8.8,64.5,8.9z"/>
	<path class="st2" d="M87,7.9L87,7.9z"/>
	<path class="st2" d="M65.3,8.8c-0.2,0-0.3,0-0.5,0C65,8.8,65.2,8.8,65.3,8.8z"/>
	<path class="st2" d="M29.8,8.5h-0.1l0,0H29.8z"/>
	<path class="st2" d="M29.6,8.5h-0.1C29.6,8.5,29.6,8.5,29.6,8.5z"/>
	<path class="st2" d="M29.3,8.6l0.2-0.1C29.4,8.5,29.3,8.5,29.3,8.6z"/>
	<path class="st2" d="M32.7,8.6V8.5C32.7,8.5,32.7,8.6,32.7,8.6z"/>
	<path class="st2" d="M33.6,8.6c-0.2,0-0.5-0.2-0.8-0.1v0.1C32.9,8.3,33.4,8.7,33.6,8.6z"/>
	<path class="st2" d="M37.4,9.8l-0.8-0.1c0.1,0.1,0.3,0.2,0,0.3C37.5,10.4,36.4,9.8,37.4,9.8z"/>
	<path class="st2" d="M39.7,10c-0.4,0.1,0,0.2,0,0.2C40,10.1,40,10.1,39.7,10z"/>
	<path class="st2" d="M56.7,10v0.3C56.9,10.2,56.6,10.1,56.7,10z"/>
	<polygon class="st2" points="59.9,8.7 59.6,8.5 59.5,8.7 	"/>
	<polygon class="st2" points="61.8,10.5 61.7,10.5 62.2,10.4 	"/>
	<path class="st2" d="M90.3,10.4l-0.1-0.3C90,10.1,89.9,10.5,90.3,10.4z"/>
	<path class="st2" d="M102.6,10.1c0.2,0.2,0.5,0.2,0.7,0.1C103,10.2,102.7,10,102.6,10.1z"/>
	<polygon class="st2" points="139.4,10.6 139.1,10.7 139.6,10.6 	"/>
	<polygon class="st2" points="190.2,9.6 185.3,10.1 181.1,11.7 181.3,10.3 177.2,10.3 182.2,9 183.9,7.5 186.7,8 191.9,7.1 
		188.7,8.7 	"/>
	<path class="st2" d="M191.4,7.6c0,0.1,0.2-0.3,0.3-0.4C191.6,7.2,191.4,7.7,191.4,7.6z"/>
	<polygon class="st2" points="190.2,7.9 190.3,7.8 190,8.1 	"/>
	<path class="st2" d="M189.5,7.5c-0.3,0.6,0.3,0.1,0.3,0.4L189.7,8l0.4-0.4C189.9,7.5,189.5,7.7,189.5,7.5z"/>
	<path class="st2" d="M190.4,11.2c-0.1-0.2,0-0.3-0.1,0v0.1C190.3,11.2,190.3,11.2,190.4,11.2z"/>
	<path class="st2" d="M190.3,11.2C190.2,11.3,190.4,11.4,190.3,11.2z"/>
	<path class="st2" d="M190.6,10.9v0.3c0.1,0.1,0.2,0.1,0.2,0.2C190.9,11.3,190.8,11.1,190.6,10.9z"/>
	<path class="st2" d="M190.4,10.4v0.1C190.5,10.6,190.5,10.6,190.4,10.4z"/>
	<path class="st2" d="M190.4,10.8v-0.2c-0.1-0.1-0.2-0.3,0,0.1C190.3,10.4,190.4,10.6,190.4,10.8z"/>
	<path class="st2" d="M190.3,10.7c-0.1-0.1-0.2-0.2-0.2-0.4C189.9,10.5,190.2,10.9,190.3,10.7z"/>
	<path class="st2" d="M189.1,8.1v0.2l0.2-0.2C189.1,8.2,189.2,7.9,189.1,8.1z"/>
	<path class="st2" d="M191.4,10.9c-0.1-0.1-0.2-0.3-0.3-0.5v0.2C191.2,10.7,191.3,10.8,191.4,10.9z"/>
	<path class="st2" d="M191.1,10.4v-0.3C190.9,10.1,191,10.3,191.1,10.4z"/>
	<polygon class="st2" points="190.1,9.7 190.2,10.3 190.1,9.7 	"/>
	<polygon class="st2" points="191.8,10.7 191.9,11.1 191.8,10.6 	"/>
	<path class="st2" d="M192.1,10.5c0.1,0.3,0.3,0.4,0.3,0.6c0-0.2,0-0.4,0-0.6C192.3,10.7,192.3,10.7,192.1,10.5z"/>
	<path class="st2" d="M192.3,10.2c0,0.1,0,0.2,0,0.3C192.3,10.4,192.3,10.3,192.3,10.2z"/>
	<path class="st2" d="M191.3,10.1c0.1,0.1,0.2,0.2,0.3,0.3L191.3,10.1L191.3,10.1z"/>
	<path class="st2" d="M191.3,10.1L191.3,10.1h0.1H191.3z"/>
	<path class="st2" d="M191.3,10.1L191.3,10.1C191.3,10.1,191.2,10.1,191.3,10.1z"/>
	<path class="st2" d="M190.6,9.9c0-0.3-0.1-0.6-0.3-0.8C190.4,9.3,190.5,9.6,190.6,9.9z"/>
	<path class="st2" d="M191,9.7h-0.2c0.1,0.1,0.1,0.2,0.2,0.3V9.7z"/>
	<polygon class="st2" points="191,9.5 191,9.7 191,9.7 	"/>
	<path class="st2" d="M191.9,10c0-0.2,0-0.2,0.1-0.3c-0.1,0-0.2,0-0.3,0C191.8,9.8,191.9,10,191.9,10z"/>
	<path class="st2" d="M191.6,10L191.6,10C191.6,10,191.6,9.9,191.6,10z"/>
	<path class="st2" d="M192.6,9.4L192.6,9.4L192.6,9.4L192.6,9.4z"/>
	<path class="st2" d="M191.7,9.6c-0.1,0-0.1,0.1,0,0.2C191.7,9.7,191.7,9.7,191.7,9.6C191.7,9.6,191.7,9.6,191.7,9.6z"/>
	<path class="st2" d="M192.4,9.9l-0.2-0.2C192.3,9.9,192.4,10,192.4,9.9z"/>
	<path class="st2" d="M191.7,10L191.7,10C191.7,10.1,191.7,10.1,191.7,10z"/>
	<path class="st2" d="M191.7,10c0-0.1,0-0.2,0-0.3c0,0.1,0,0.1,0,0.2V10z"/>
	<path class="st2" d="M191.6,6.8c0.2,0.4,0.2,0.8-0.1,0.4c0.3,0.7,0.6,1.4,1.1,2c-0.1-0.2-0.1-0.4-0.1-0.6c-0.1-0.2-0.5-0.3-0.6-0.7
		s0.2,0.1,0.4,0.2c-0.3-0.4-0.1-0.7-0.5-1.4v0.3C191.7,7.1,191.6,6.9,191.6,6.8z"/>
	<path class="st2" d="M192.3,9.4L192.3,9.4c0.1,0.1,0.2,0.2,0.4,0.5c0-0.2,0-0.3-0.1-0.5L192.3,9.4L192.3,9.4z"/>
	<path class="st2" d="M192.1,9.5c-0.1-0.4-0.2-0.7-0.4-1c-0.1,0.1,0.1,0.4,0.1,0.6C191.9,8.9,191.7,9.4,192.1,9.5
		c0,0-0.1,0.1-0.1,0.1c0.1,0,0.1,0.1,0.2,0.1l0,0l0,0c0,0-0.1-0.1,0,0l0,0L192.1,9.5c0.2,0.1,0.1,0.2,0.1,0.2v0.1l0,0l0.1-0.3
		C192.2,9.4,192.2,9.4,192.1,9.5z"/>
	<path class="st2" d="M190,8.2L190,8.2C190,8.2,190,8.2,190,8.2z"/>
	<path class="st2" d="M190.2,8.4c0,0.1,0.1,0.2,0,0.2s-0.1-0.2-0.2-0.3c0,0.2,0.1,0.4,0.2,0.5V8.7c0.2,0.2,0.4,0.3,0.5,0.6
		C190.6,9,190.4,8.7,190.2,8.4z"/>
	<path class="st2" d="M191.1,8.9l0.1-0.3l-0.3-0.3l0.1,0.2C190.9,8.5,191,8.7,191.1,8.9z"/>
	<polygon class="st2" points="192.7,9.5 192.9,9.9 192.7,9.3 	"/>
	<polygon class="st2" points="192.9,9.4 193.1,9.7 193.1,9.5 	"/>
	<path class="st2" d="M182,11.2h0.2H182z"/>
	<path class="st2" d="M182.2,11.1l-0.4-0.1L182.2,11.1z"/>
	<path class="st2" d="M185.4,5.2c-0.1-0.4-0.3-1-0.3-0.6v0.4C185.2,5.1,185.3,5.1,185.4,5.2z"/>
	<path class="st2" d="M181.3,9.3l0.1,0.1l-0.4-0.3L181.3,9.3z"/>
	<path class="st2" d="M183,10.5l-0.3-0.2L183,10.5z"/>
	<path class="st2" d="M183.6,11.3l0.6,0.1L183.6,11.3z"/>
	<path class="st2" d="M188.7,5.2c-0.1-0.2-0.2-0.2-0.2-0.2C188.6,5.2,188.8,5.6,188.7,5.2z"/>
	<path class="st2" d="M172.2,9.3c0.2,0.1,0.3,0.1,0.5,0.1C172.5,9.4,172.4,9.4,172.2,9.3z"/>
	<path class="st2" d="M188.3,5L188.3,5c0.1,0,0.1-0.1,0.2,0C188.4,4.8,188.3,4.7,188.3,5z"/>
	<path class="st2" d="M186.5,7.5L186.5,7.5C186.6,7.5,186.6,7.5,186.5,7.5z"/>
	<path class="st2" d="M189.6,11.6c0,0-0.1,0-0.1,0C189.5,11.6,189.5,11.7,189.6,11.6z"/>
	<path class="st2" d="M190.4,4.6C190.4,4.6,190.4,4.6,190.4,4.6z"/>
	<path class="st2" d="M191,6.2c0,0.1,0,0.1,0,0.2C191,6.3,191,6.3,191,6.2z"/>
	<path class="st2" d="M188.2,7.8L188.2,7.8C188.2,7.9,188.2,7.9,188.2,7.8z"/>
	<path class="st2" d="M190.5,4.7c0,0-0.1-0.1-0.1-0.1C190.4,4.7,190.5,4.7,190.5,4.7z"/>
	<path class="st2" d="M190.4,4.5L190.4,4.5C190.5,4.5,190.5,4.5,190.4,4.5z"/>
	<path class="st2" d="M190.3,4.6c0,0,0.1,0,0.1,0c0,0,0,0,0-0.1L190.3,4.6z"/>
	<path class="st2" d="M181.7,10L181.7,10C181.7,9.9,181.7,9.9,181.7,10z"/>
	<path class="st2" d="M184.4,9.7L184.4,9.7L184.4,9.7z"/>
	<path class="st2" d="M184.5,10.1c-0.2-0.6-0.1-0.5-0.1-0.4L184,8.4C184.1,8.9,184.3,9.5,184.5,10.1z"/>
	<radialGradient id="SVGID_2_" cx="182.0716" cy="8.8451" r="7.3814" gradientUnits="userSpaceOnUse">
		<stop  offset="0" style="stop-color:#FFFFFF"/>
		<stop  offset="5.828503e-03" style="stop-color:#FFFBF6"/>
		<stop  offset="3.765203e-02" style="stop-color:#FFE7C8"/>
		<stop  offset="7.351709e-02" style="stop-color:#FFD59D"/>
		<stop  offset="0.1121" style="stop-color:#FFC477"/>
		<stop  offset="0.154" style="stop-color:#FFB657"/>
		<stop  offset="0.2004" style="stop-color:#FFAB3B"/>
		<stop  offset="0.2527" style="stop-color:#FFA125"/>
		<stop  offset="0.3139" style="stop-color:#FF9A14"/>
		<stop  offset="0.3894" style="stop-color:#FF9509"/>
		<stop  offset="0.4955" style="stop-color:#FF9202"/>
		<stop  offset="0.7897" style="stop-color:#FF9100"/>
	</radialGradient>
	<path class="st4" d="M182.6,11.2l0.6,0.1l1.7,0.3c-1.2-0.2-1.3-0.2-1.4-0.3l-1.5-0.3L182.6,11.2l0.2,0.1c1.2,0.2-1.9-0.3-1.7-0.3
		s0.6,0.1,0.9,0.2l-0.6-0.1c0.2,0,0.3,0,0.5,0.1l-0.1-0.1h0.1l-1.2-0.3c0.4,0.1,0.2,0.1,0.6,0.1l-0.5-0.1c0.4,0.1,0.7,0.1,1.1,0.3
		c2.6,0.5-0.6-0.1,1,0.1l0.3,0.1c1.4,0.3,0.9,0.2,1.8,0.4c-0.4-0.1-2.2-0.5-2.7-0.7c0.2,0,0.3,0.1-0.1-0.1c0.8,0.2,0.6,0.1,0.6,0.1
		l1,0.3l-1.2-0.4c0.2,0,0.9,0.2,1.6,0.4c0.2,0-1.3-0.4-1.4-0.4c0.4,0.1,0.1,0-0.3-0.3c0.4,0.1,0.5,0.2,0.8,0.3l-0.6-0.3l0.3,0.1
		c-0.2-0.1-0.9-0.3-1-0.5c-0.4-0.2-0.1-0.1,0.3,0.1s0.7,0.2,0.3,0c0.2,0.1,0.4,0.2,0.7,0.4c-0.5-0.3-0.4-0.2-1-0.7l0.6,0.2
		c-0.5-0.2-1-0.6-1.4-1L180.6,9c0-0.1-0.1-0.2-0.1-0.3c0.2,0.1,0.4,0.3,0.6,0.4L181,9c0.3,0.2,0.7,0.4,0.9,0.6l-0.4-0.2
		c0.3,0.3,0.7,0.5,1.1,0.8c0,0-0.1-0.1-0.1-0.1l0.2,0.2c0.1,0-0.1-0.1-0.2-0.2l0.7,0.4l-0.3-0.2l0.6,0.2c-0.3-0.3-0.5-0.5-0.8-0.8
		c-0.1-0.1-0.2-0.3-0.2-0.4c-0.1-0.1-0.1-0.3-0.1-0.4c0.3,0.4,0.6,0.8,1,1.1c-0.5-0.4,0.1,0.3-0.1,0.2c0.1,0.1,0.3,0.2,0.4,0.3
		c-0.1-0.2-0.2-0.3-0.3-0.5c0.1,0.2,0.3,0.3,0.5,0.4c-0.7-0.7-0.3-0.6-0.5-0.9c0.2,0.3,0.4,0.6,0.3,0.6c0.5,0.5-0.6-1-0.1-0.6
		c0,0-0.1,0,0,0.1c-0.1-0.3,0.1-0.2,0.2,0.1l0,0c0.2,0,0.3-0.3,0-1.2l0.4,1.2c-0.3-1.1-0.6-2.1-0.7-3.2c0.1,0.3,0.2,0.7,0.3,1.1
		s0.3,1,0.4,1.4c0.1,0.2,0.1,0.4,0.1,0.7c0,0,0.1,0.1,0.1,0.1s0,0,0-0.1c-0.1-0.4-0.2-0.8-0.3-1.2c0.3,0.9,0.2,0.5,0.5,1.2
		c-0.1-0.4-0.2-0.9-0.2-1.3c0,0.2,0.2,1.2,0.2,1.3c0-0.4,0-0.8,0-1.1c0,0.4,0.1,0.9,0.2,1.3c0-0.2,0.1,0,0.1-0.1l-0.1-0.3
		c0.1,0.2,0.2-1.6,0.4-1.5c-0.1,0.5-0.1,1.1-0.1,1.6c0.1-0.5,0.2-1.1,0.4-1.6c0.1-0.5,0.3-1,0.6-1.5v0.3c0.1-0.1,0.1-0.2,0.2-0.3
		c-0.1,0.9-1,2.6-1.1,3.2c0,0.3,0,0.4,0,0.4c0,0.2-0.1,0.3-0.1,0.5c0,0.1,0.1,0.2,0.2,0.2c0.1-0.7,0.6-0.6,0.6-1.1
		c-0.2,0.2-0.4,0.4-0.6,0.6c0.1-0.4,0.2-0.8,0.4-1.1c0.2-0.4,0.4-0.6,0.5-0.5c0,0.5-0.1,0.9-0.2,1.4c0.1-0.2,0.4-0.4,0.4-0.2
		l-0.2,0.3c0.1,0.2,0.3-0.2,0.4-0.3s0.1-0.1,0.2,0.1c0.1,0,0.3,0.8,0.3,0.4c-0.2-1.2-0.3-2.5-0.4-3.7c0,0.1,0.3,0.7,0.4,1
		c0.2,0.6,0.1,1.4,0.2,1.9c0-0.2,0-0.3,0-0.5c0.1,0.1,0.1,0.6,0.2,0.5c-0.1-0.7,0.3,0,0-0.6c0.1-0.2,0.2,0.1,0.3,0.1
		c-0.1-0.6-0.1-1.2,0-1.7c0,0.2,0.1,0.3,0.1,0.5c0.3,0,0.5,0.3,0.7,0.2c0.1,0.2,0.2,0.4,0.2,0.6c0-0.1,0-0.4,0.1-0.4
		c0.3,0.6-0.2,0.1,0.1,0.8c0-0.3,0-0.6,0.2-0.8c-0.1-0.6-0.3-0.1-0.4,0.2c-0.2-0.7-0.1-1.5,0.1-2.2c0.2-0.2,0.2,0.5,0.2,0.4
		c0.4,0.1,0.1-1.5,0.5-1c0.1,0.5,0.2,0.9,0.3,1.4c-0.1,0.2-0.3-0.3-0.4-0.2l0.2,0.2c0,0.2-0.1,0.3-0.2,0.2c0.2,0.4,0.7,0,1.1,0.3
		c0.1-0.2,0.1-0.4,0-0.6l-0.1,0.1c-0.2-0.4,0.1-0.6-0.1-0.8c0.1-0.3,0.1-0.8,0.4-0.6l0.1,0.6c0-0.2-0.2-0.3-0.2-0.1
		c0-0.3,0.4,0.8,0.4,0l-0.2-0.4c0.1-0.3,0.1-1,0.3-0.8c-0.2-0.6,0,0.1-0.3-0.6c0.3,0.8-0.4,0-0.1,0.9c-0.3-0.8-0.3-0.3-0.6-1
		c0,0.2,0.1,0.4,0,0.3v0.2l0,0l0,0l0,0c0.1,0.1,0.1,0.2,0.1,0.3c0,0.5-0.2,0.5-0.2,0.7c-0.1-0.1,0-0.2-0.1-0.4v0.4
		c-0.1-0.4-0.4-0.7-0.2-1h-0.2c-0.1-0.2-0.3-0.3-0.4-0.1c-0.1-0.1-0.1,0.5-0.1,0.2L189.3,5V4.9c-0.3,0-0.4,0.8-0.9,0.1
		c-0.1,0.1-0.1,0.3-0.3,0.2L188,4.8c-0.1,0.2-0.4-0.3-0.4,0.1c-0.2-0.5-0.3-0.5-0.4-0.5s-0.3,0.3-0.3,0.2l0.1,0.5
		c0,0-0.1,0.1-0.1,0.3v0.4c0,0.1,0,0.1-0.1,0.1s-0.1-0.4-0.2-0.4c0-0.2,0-0.1,0.1,0c0-0.5,0-0.3-0.2-0.2s-0.4,0.4-0.6,0
		c-0.1,0.1-0.2,0.1-0.2-0.1l0,0l0,0c0-0.1-0.1-0.2-0.1-0.3c0,0.1,0.1,0.2,0.1,0.3c-0.1,0-0.2,0-0.3,0.1V5l0,0
		c-0.1-0.2-0.1,0.2,0,0.6c-0.1,0.1-0.1,0.2-0.1,0.3c-0.1-0.8-0.3,0.2-0.4-0.7c0,0.4-0.5,0.2-0.4,1.1c0-0.1-0.1-0.2,0-0.2
		c-0.1-0.1-0.3-0.2-0.3,0l-0.2-0.7c0,0.3,0,0.6,0,0.8V6.3c-0.2-0.3-0.3-0.6-0.3-1c-0.1,0.5-0.1,1-0.1,1.4L183,6.3
		c-0.1,0.1,0,0.7-0.2,0.4s-0.5-0.1-0.8,0.1c-0.3,0.3-0.7,0.5-1.1,0.5c0.4,0.4,0.3,0.3,0.1,0.3c-0.1,0-0.2-0.1-0.4-0.1
		c-0.1,0-0.1,0,0.1,0.2c-0.3-0.2-0.6-0.3-0.6-0.6c-0.2,0.3-1-0.2-0.5,0.5c-0.3-0.2-0.3-0.3-0.5-0.4c0,0.1,0.1,0.2-0.1,0.1
		s-0.2-0.2-0.2-0.3c-0.4,0.2,0.5,0.8,1.3,1.4c-0.6-0.2-0.6-0.2-0.1,0.2c-0.4-0.2-0.8-0.4-0.7-0.5c-0.1,0-1.2-0.1-0.4,0.4
		c-0.2-0.1-0.2,0-0.1,0.1c-0.3,0-0.4,0-0.6,0.1l0.2,0.1c1,0.5,0.1,0.2,0,0.3l-0.1-0.1c-1.3-0.2,0.3,0.2-1.2-0.1l0.8,0.3
		c0.8,0.3,0.5,0.2,0,0.1s-1.2-0.2-1-0.1l0.6,0.1c0.5,0.2-3-0.7-3.4-0.7c-0.1,0-0.2-0.1-0.3-0.1C172.2,8.3,175,8.9,175,9
		c-0.7-0.2-1.3-0.3-2-0.4c-0.3-0.1,0,0.1,0.3,0.3s0.5,0.3-0.4,0.2c0.5,0.1,1,0.2,1.5,0.3c0,0.1-2.8-0.3-1.1,0.1l-0.5-0.1l0.2,0.1
		l0,0l0,0l4.2,0.7l0,0l0,0c0,0,0.1,0,0.1,0c-0.1-0.1-0.1-0.1,0-0.1s0.3,0-0.1-0.1l0.1-0.1h-0.1c-0.1-0.1,0.2,0,0.6,0.1
		c-0.1,0-0.2-0.1-0.3-0.1c-0.2-0.2-0.3-0.2,0.7,0l-0.6-0.2c0.2,0.1,0-0.1-0.2-0.2s-0.4-0.3,0-0.2L177,9.1c0.5,0.1-0.1-0.2-0.5-0.4
		s-0.6-0.3,1.3,0.3l0,0l1.7,0.9c-0.5-0.4,0-0.2,0.4,0c0.3,0.2,0.7,0.3,1,0.4c0.1,0.1-0.1,0.1-0.2,0.1c-0.1,0-0.1,0-0.2,0
		c-0.1,0-0.2-0.1-0.2-0.1h0.1c-0.7-0.2-0.3,0-0.5,0.1s-0.1,0.3-0.4,0.2c0,0.2-0.1,0.5-0.3,0.7l-1.1,1.8l3.5,0.1
		c0.4,0.1,0.7,0.1,1.1,0l-0.3-0.7h0.2c0.1,0.1,0.3,0.5,0.1,0.5c0.2,0.4,0.1-0.4,0.1-0.6c0.4,0.2,0.2,0.8,0.3,0.8l0.1-0.1l-0.1-0.1
		c0-0.3-0.1-0.6,0.1-0.6s0.2,0.4,0.3,0.4s0,0.1,0.1,0h0.2l-0.3-0.5c0-0.3,0.2-0.1-0.1-0.6c0.5,0.9,1,0,1.2,0.3
		c0-0.4,0.1-0.5,0.3-0.5c-0.1-0.1-0.3-0.7-0.2-0.7c0.2,0.6,0.3,0.8,0.4,0.8s0.3,0.1,0.4,0.5c-0.3-0.6,0.2-0.2-0.1-1.1
		c0.1,0.1,0.1,0.5,0.2,0.8l0,0c0-0.3,0.1-0.2,0.3-0.1s0.4,0.3,0.6,0.1c0-0.2,0-0.5,0-0.7l0.3,0.9c0.1-0.1,0-1,0.2-0.4
		c0-0.1-0.1-0.4,0-0.4c0.9,0.8,1.5-0.9,2.5,0.7c-0.1-0.3-0.1-0.4,0-0.4c0-0.2-0.1-0.4-0.1-0.7l0.4,0.6c0-0.7,0.4-0.1,0.3-0.7l-0.1,0
		c-0.1-0.9-0.2-1.7-0.4-2.6c-0.1,0.9-0.5-1.2-0.7,0c-0.1-0.2,0-0.3,0-0.5c0,0.4-0.1,0.5-0.3,0.3V8.1c-0.4,0.1-0.6-0.2-1.1-0.5
		l0.1,0.5c-0.1-0.1-0.1-0.2-0.2-0.3c0,0.7,0.3,0,0.2,0.8c-0.2-0.9-0.7,0.1-0.9-1c-0.1,0,0.1,0.5-0.1,0.6l-0.1-0.3v0.4
		c-0.1-0.1-0.2-0.4-0.2-0.7c0,0,0.1-0.1,0.1-0.1c-0.2-0.3-0.4,0.2-0.4,0l0.2,0.2c-0.2,0.1-0.4,0.2-0.6,0.2c-0.1,0-0.3,0-0.4,0.1
		c-0.2,0-0.3,0.1-0.4,0.2c0,0.1-0.1,0.1-0.1,0.2l0.1,0.2c-0.1,0.3-0.2,0.2-0.4,0.2s-0.3-0.1-0.4,0v0c0,0.2,0,0.4-0.1,0.4
		c0-0.3-0.3-0.4-0.3-0.7c-0.2,0.5,0,0.4,0,1.2l-0.2-0.3c0,0.3,0.1,0.5,0,0.7c0-0.4-0.3-0.5-0.3-0.9c-0.6-0.6-0.2,0.9-0.8-0.1
		c0.2,1,0.5,0.4,0.5,0.7c0.2,0.3,0.1,0.8,0,0.7s-0.6-1.2-0.9-1.1V9.2c-0.2-0.2-0.1,0.4-0.3,0c0.1,0.6-0.2,0,0.1,0.8l0.2-0.3
		c-0.1,0.2,0.1,1.2-0.3,0.8c0-0.2,0-0.3,0-0.5c-0.1-0.2-0.1,0.2-0.2,0c-0.2-0.8,0.2-0.3,0.2-0.9c-0.2-0.3-0.1,0.6-0.3-0.2
		c0.3,1.1-0.3,0-0.2,0.8L181,9.3c0,0.1,0,0.3,0,0.3L180.8,9c0,0.6-0.4-0.3-0.5,0c0.3-0.1,0.3,0.5,0.5,0.8c-0.1,0.6-0.5-0.5-0.8-0.7
		l3.7,3.1c0.1,0,0.1-0.1,0.1-0.2c0.1,0.1-0.3,0.2-0.5,0c0.2-0.1,0.4-0.1,0.6-0.1c0-0.3-0.5,0-0.8-0.2c0.6,0-0.2-0.2-0.4-0.3l0.5,0.1
		c0.3-0.1-1-0.2-0.6-0.3l0.6,0.2l-0.2-0.1l0.5,0.2c-0.4-0.1-0.3-0.2-0.2-0.2l0,0c-0.3-0.1-0.7-0.2-1-0.3c0.2,0.1,0.5,0.2,0.3,0.1
		c0.3,0.1,0.7,0.2,0.3,0.1l0.5,0.2c0.3,0.1,0,0,0,0h-0.1l-0.9-0.2l0.5,0.2l-0.4-0.1l1.2,0.3l-0.6-0.1l0.7,0.2
		c0.3,0.1-1.1-0.3-0.7-0.2l-0.3-0.1c0,0,0.7,0.2-0.1,0l1.1,0.2c-0.3-0.1-1.4-0.3-1.9-0.4s1,0.2,1.3,0.3c-0.6-0.1-2-0.4-1-0.2
		C182.5,11.1,182.5,11.2,182.6,11.2z M182.1,11c0.1,0,0.7,0.2,0.2,0.1C181.3,10.8,181.8,10.9,182.1,11L182.1,11z M182.5,9.9
		c0.1,0.1,0,0.1-0.2,0C182.3,9.8,182.3,9.8,182.5,9.9L182.5,9.9z M189.8,5.1L189.8,5.1C189.7,4.9,189.7,5,189.8,5.1L189.8,5.1z
		 M190.1,5.2c0-0.1,0-0.1,0-0.2C190.1,5.2,190.1,5.2,190.1,5.2C189.9,5.1,190,5.3,190.1,5.2L190.1,5.2z M183.4,12.9l-0.1-0.1
		C183.4,12.6,183.4,12.7,183.4,12.9z"/>
	<path class="st2" d="M182.8,10.3l-0.3-0.2C182.7,10.2,182.7,10.3,182.8,10.3z"/>
	<polygon class="st2" points="183.4,11.3 183.4,11.3 183.6,11.3 	"/>
	<path class="st2" d="M187.7,9.8c-0.1-0.1-0.1-0.1-0.2-0.2C187.6,9.7,187.6,9.8,187.7,9.8z"/>
	<path class="st2" d="M190.9,4.2l-0.1,0.2c0.1,0,0.1,0.1,0.1,0.1C191,4.4,190.9,4.2,190.9,4.2z"/>
	<path class="st2" d="M191.2,7.3C191.2,7.4,191.2,7.3,191.2,7.3l0.1,0.3C191.4,7.6,191.4,7.4,191.2,7.3z"/>
	<path class="st2" d="M191.4,5.8c0.1,0.4,0.1,0.2,0.2,0.2l0,0C191.5,5.4,191.4,5.6,191.4,5.8z"/>
	<path class="st2" d="M191.6,5.9C191.6,5.9,191.6,5.9,191.6,5.9C191.6,5.7,191.6,5.9,191.6,5.9z"/>
	<path class="st2" d="M190.2,4.9c0.1,0.1-0.1-0.5,0-0.4C190.2,4.1,190.1,5.2,190.2,4.9z"/>
	<polygon class="st2" points="191.7,7.1 191.5,6.6 191.6,7 	"/>
	<path class="st2" d="M190.9,6.9l0.2,0.1c0-0.1,0-0.1,0-0.2C191,6.8,190.9,6.7,190.9,6.9z"/>
	<path class="st2" d="M191.1,6.8c0,0,0.1,0,0.1-0.1C191.1,6.7,191.1,6.8,191.1,6.8z"/>
	<polygon class="st2" points="191.5,7.3 191.4,7.2 191.3,7.2 	"/>
	<path class="st2" d="M189.4,7l-0.1,0.2c0,0.2,0.1,0.3,0.1,0.2C189.4,7.2,189.4,7.1,189.4,7z"/>
	<path class="st5" d="M190.1,8.3C190,8.2,190,8.1,189.9,8l0.1,0.6L190.1,8.3z"/>
	<path class="st2" d="M189.7,8.5c0,0.2-0.1,0.5,0.1,0.4C189.7,8.8,189.8,8.6,189.7,8.5z"/>
	<polygon class="st2" points="187.2,8.2 187.2,8.2 187.1,7.2 	"/>
	<path class="st2" d="M185.1,10.4c0,0.3,0-0.6,0.1-0.3c0-0.2,0-0.3,0-0.5C185.1,9.9,185.1,9.8,185.1,10.4z"/>
	<path class="st2" d="M185.1,9.7V9.5C185.1,9.6,185.1,9.6,185.1,9.7z"/>
	<polygon class="st2" points="190.1,12.1 190.2,12.3 190.1,12 	"/>
	<path class="st2" d="M190.2,11.4l0.1,0.6L190.2,11.4C190.3,11.4,190.3,11.5,190.2,11.4z"/>
	<path class="st2" d="M184.4,11.5l-0.3-0.1l-0.4-0.1L184.4,11.5z"/>
	<polygon class="st2" points="183.3,11.4 183.3,11.4 182.2,11.2 	"/>
	<path class="st2" d="M184.8,11.6h-0.1C184.9,11.6,183.6,11.4,184.8,11.6z"/>
	<text transform="matrix(1 0 0 1 7.5567 42.7394)" class="st2 st6 st7">Isaac’s Komet</text>
</g>
</svg>
