<svg xmlns="http://www.w3.org/2000/svg" viewBox="0 0 210 51.41"><defs><style>.cls-1{fill:#587dbf;}.cls-2{font-size:31.22px;font-family:OpenSans-Regular, Open Sans;}.cls-2,.cls-3{fill:#fff;}</style></defs><title>vanityBox</title><g id="Layer_2" data-name="Layer 2"><g id="Layer_1-2" data-name="Layer 1"><rect class="cls-1" width="210" height="50.16"/><text class="cls-2" transform="translate(3.33 42.95) scale(1.02 1)">I</text><text class="cls-2" transform="translate(12.18 42.95) scale(0.86 0.85)">SAAC</text><text class="cls-2" transform="translate(78.15 42.95) scale(1.02 1)">’</text><text class="cls-2" transform="translate(83.54 42.95) scale(0.86 0.85)">S</text><text class="cls-2" transform="translate(98.34 42.95) scale(1.02 1)"><tspan xml:space="preserve"> K</tspan></text><text class="cls-2" transform="translate(126.06 42.95) scale(0.86 0.85)">OMET</text><line class="cls-3" x1="189" y1="9.34" x2="27" y2="9.34"/><path class="cls-3" d="M27,8.68c-.09.09,0,.28.2.24l.17-.33Z"/><path class="cls-3" d="M28.58,9.29c.28-.16.6-.44.42-.75-.27.32-.34.19-.63.56-.24,0-.41-.11-.37-.23-.08.08-.37-.07-.49.14a.94.94,0,0,0,1.1.05C28.69,9.14,28.6,9.23,28.58,9.29Z"/><path class="cls-3" d="M51.55,9.81l-.15,0A.4.4,0,0,0,51.55,9.81Z"/><path class="cls-3" d="M65.79,10c-.11,0-.15,0-.16.07S65.81,10,65.79,10Z"/><path class="cls-3" d="M68.22,10.35l-.14,0C68.13,10.36,68.19,10.38,68.22,10.35Z"/><path class="cls-3" d="M51.55,9.81l.38.1C52,9.8,51.74,9.83,51.55,9.81Z"/><path class="cls-3" d="M31.75,8.49a.57.57,0,0,0-.21.09l.19,0Z"/><path class="cls-3" d="M45.28,10.08h-.12l-.1.13Z"/><path class="cls-3" d="M40.46,10.13c.11,0,.15-.27.19-.39a.35.35,0,0,1-.24.19A.46.46,0,0,0,40.46,10.13Z"/><path class="cls-3" d="M32.83,9.63l-.14,0Z"/><path class="cls-3" d="M48.73,10.14a.23.23,0,0,0,0,.1A.16.16,0,0,0,48.73,10.14Z"/><path class="cls-3" d="M183.42,8a.31.31,0,0,0,0,0S183.45,8,183.42,8Z"/><path class="cls-3" d="M189,9.42l-.08,0a1,1,0,0,0,0,.16Z"/><path class="cls-3" d="M72.67,10.71h0C72.53,10.74,72.6,10.74,72.67,10.71Z"/><path class="cls-3" d="M113.5,10.51c-.46-.25.75-.32.06-.6C113.62,10,112.92,10.34,113.5,10.51Z"/><path class="cls-3" d="M31.87,8.53h.2A.61.61,0,0,0,31.87,8.53Z"/><path class="cls-3" d="M113.55,9.91h0l-.07,0Z"/><path class="cls-3" d="M82.91,10.55a.35.35,0,0,0-.1-.12S82.84,10.49,82.91,10.55Z"/><path class="cls-3" d="M75.28,10.15l.19,0A.69.69,0,0,0,75.28,10.15Z"/><path class="cls-3" d="M86.88,10.15a.43.43,0,0,0,.28,0l0,0A.22.22,0,0,1,86.88,10.15Z"/><path class="cls-3" d="M91,10.15l-.08-.06-.13,0Z"/><path class="cls-3" d="M170.88,8.16a.81.81,0,0,1,.19.25C171,8.21,171.61,8.14,170.88,8.16Z"/><path class="cls-3" d="M31.75,8.65a.16.16,0,0,1,.12-.12l-.14,0S31.72,8.63,31.75,8.65Z"/><path class="cls-3" d="M87,7.93l.66,0A4.7,4.7,0,0,0,87,7.93Z"/><path class="cls-3" d="M141.28,8.2l.15,0A.2.2,0,0,0,141.28,8.2Z"/><path class="cls-3" d="M89.65,7.93a1,1,0,0,0,.37.19.27.27,0,0,0,.08-.07Z"/><path class="cls-3" d="M171.07,8.42h0Z"/><path class="cls-3" d="M175.39,7.75c-.62,0-.29.36-.43.57-.75.1-.35-.27-.6-.46-.47.1-.82.44-1.17.42,0-.06-.09-.08,0-.16-.49.29-1.46,0-2,.38a.21.21,0,0,1-.07-.09.88.88,0,0,1,.09.51c-.28,0-.52.23-.62,0,.17,0,.19-.09.27-.17l-.29.1c-.26-.35.4-.12.4-.38a5.27,5.27,0,0,1-1.68.3c-.09-.34,1-.11.44-.42l.68.13c-.52-.54.41,0-.06-.54-.89-.1-1,.17-1.89.07-.2.19.07.28-.13.47-1.27.34-1-.85-1.93-.4-.24.23-.33.66-1,.43l.23-.38c-.86,0-.49.55-1.4.29.16-.15.68-.13.55-.17-.59-.3-.41.22-.87.22l-.09-.34c-.92.05-1.93.3-3,.36.06-.1.23-.21,0-.31a14.28,14.28,0,0,1-4-.24l-.47.29c-.11,0-.2-.13-.09-.19-.48-.11,0,.19-.26.3s-.36-.17-.19-.26a6.67,6.67,0,0,1-3.33.22l.18-.09c-.7-.12-.79.6-1.44.33l.12-.05c-1.52-.13-3.2.14-4.35-.3-.22.42-1.5-.19-1.6.4A6.18,6.18,0,0,0,143.55,8c-.33,0-.49.37-.89.43V8.13l-.55.32-.29-.37-.38.08c.15,0,.32.14.3.23A1.73,1.73,0,0,1,140.27,8l-1.4.26c0-.12.27-.17.45-.25-.75.31-.14-.32-.82,0,.09.07,0,.18-.07.25a3.44,3.44,0,0,0-1.69-.11l.11-.21c-1-.05-2.18.1-3.35.1.42.1.32.47,0,.5l-.14-.33c-.22.2.36.12-.1.37-.43,0-.29-.37,0-.48l-.53.11c0-.1.09-.15.13-.27-.22.2-.91-.33-1.22,0l0-.1c-1.16,0-1.69.11-2.64.13,0,.28-.39.22-.67.45a13.8,13.8,0,0,0-2.31-.29c-.59.14-.17.24-.44.41,0-.26-.88-.23-.45-.42a15.84,15.84,0,0,0-2.56.26c.14.1.29.15.21.24-.23,0-.53-.11-.49-.23l.06,0c-1.43.38-3.3-.75-4.44-.21l.06,0-1.18.28c-.54,0,.33-.19-.08-.35-1.27.43-2-.06-3.06.22-.81-.76-2.88.05-4-.43l.06.18c-.28.17-.34-.1-.55-.14,0,.14.31.16.13.26a49.51,49.51,0,0,1-7.41-.42c-.9,0-.51.92-1.64.5l.32-.33c-1.81.4-3.71,0-5.49.32.11-.08.11-.18.28-.17-.38-.24-1.39,0-1.39.18-.28,0-.06-.18-.23-.28-.38-.14-.94.31-1.14.07,0,0,.11-.08.17-.1-.25.12-1.14,0-.91.25-.67-.13-1.28.12-1.81,0-.35.31-1.14-.15-1.25.29,0-.45-1.17-.36-1.59-.15.14-.14-.37-.14-.2-.33-.48,0-.92.09-.84.32-.89-.54-1.78.44-2.28-.26-1.43.24-2.75.41-4,.51,0-.45,1.42,0,1.37-.52a11.57,11.57,0,0,1-3.13.46c-.31-.06.18-.2.28-.27-1.22.19-2.36,0-3.44.2,0,0,.12-.09.23-.12-.21,0-.5-.07-.47.14l.21-.06c.34.3-.85.62-.89.78.36-.59-1.07-.15-.49-.89-.14,0-.32.14-.28.27-.21,0-.27-.12-.06-.28-.77.11-.49.33-1.19.33,0-.1.14-.14.21-.25a1.85,1.85,0,0,1-1.29.3c0-.06,0-.14.14-.14-1,0-1.72.52-2.82.33.33-.43-.38-.14-.43-.52l-.59.11.24.18c-.52,0-1,.27-1.43.14l.39-.15-1,.07.55.14c-.53.19.06.47-.64.37.14,0-.52,0-.79-.22h0a1.26,1.26,0,0,1-.91.15c-.1-.12.08-.41,0-.49-.25.31-1.22.09-1.54.42a.29.29,0,0,0,.08-.31l-.21.25c-.24-.08-.28-.12-.24-.28-.72,0,.23.47-.63.27.07,0,0-.06.18-.1-.86-.11-1.67.16-2.46,0-.23-.38.69-.09.43-.41a26.85,26.85,0,0,1-3.48.36l.21,0c-.15.53-.82-.26-1.38,0,.14,0,.18-.29.14-.24a11.73,11.73,0,0,0-2.7.3l.14-.14a14.84,14.84,0,0,0-1.66-.13c-.14.14-.42.11-.25.31-1.49-.78-2.84.42-4.16-.23.16,0,.38-.12.25-.12l-1.12.13c.09.23.15.14.38.32a1.19,1.19,0,0,1-.74.24c.51-.15,0-.37-.22-.5,0,.07,0,.15,0,.22-.59-.41-.1.46-.9.19l0-.12a2.86,2.86,0,0,1-.9.19c-.13-.27.32-.12.34-.34-.45,0-.9.51-1.31.24.19-.07.47-.08.66-.15a1.22,1.22,0,0,0-.83-.28h0L41,8.6l.2.09c-.57.7-1.16.13-1.93.58.75-.43.12-.25.18-.55-.2-.08-.49-.18-.41-.26-.36.24-.6-.19-1.12.16,0-.1-.39,0-.31-.25-.47.08.11.17.07.29-.73.33-1.71-.4-2.75.05-.9.19-1.07.52-1.9.68-.28-.16.23-.36.23-.36A2,2,0,0,0,32,9c.09-.09,0-.16-.13-.27-.34,0-.23.36-.68.21a1.37,1.37,0,0,1,.34-.39c-.41.09-.81.27-1.23.36-.11-.17.25-.26.4-.37-.47.08-1.22.15-1.37.42l.3.1c-.17,0-.09-.23,0-.28.4-.21.58.09.61.19l-.3.06c.31.57,1.2-.09,1.8-.06l-.25.42.62-.35c.13.11.22.34-.08.4.43.21.38-.15.75.08,0,0,0,.06,0,.07l.42-.12c-.08.09.07.29-.19.23.76.24,1.22-.31,1.51,0l-.06,0c1.05-.14.1-.31.89-.66l.53.75.1-.31c.11,0,.32,0,.28.16.4-.21-.07-.13.17-.33.52.28,1.44-.13,1.56.36.19-.23-.5-.18.06-.34.16.52.64-.09,1.12.15-.15.27-.6.13-.12.37.29-.46.93.1,1.33,0,0-.36.87-.15,1.55-.27a10.87,10.87,0,0,0,1.9.33l0,.06c.12-.37.77-.3,1.24-.37,0,.22-.1.31-.36.4h.44a.79.79,0,0,1,.53-.22l-.11.27A6.06,6.06,0,0,1,47.53,10c0-.26-.6-.71.2-.88,0,.14.06.38-.15.43.07,0,.25-.12.38-.06l-.32.23c.35.1.18-.19.46-.17,0,.2.2.14.16.3s-.24-.08-.35,0a1.47,1.47,0,0,1,.81.3c0-.11,0-.27.23-.29.59,0,.2.24.55.34.14-.14.52,0,.53-.29.17,0,.2.14.27.22.31-.13,1.42,0,1.08-.35l-.08,0h0c1-.29,2.08.17,3.07,0v.1a8.27,8.27,0,0,0,1.74-.28c.18,0,.41.18.34.3a1.87,1.87,0,0,1,1.16,0c-.46.17.16.15-.47.13.59.09.72.24,1.35,0-.21.25.44.32.72.24L58.85,10a4.29,4.29,0,0,1,.87,0l-.15.33c1.2.4,2.17-.69,3.09,0,.32-.23-.65-.16-.37-.44.55,0,1.13.52,1.3.52.76.18.71-.49,1.5-.36-.1-.12-.2-.44.4-.55.55,0,.68.5.33.59-.13,0-.2,0-.19-.07-.18,0-.41.09-.19.22l.07-.12c.27.12,1,.11.86.3.42-.11.18-.19-.13-.26.71.17,1.11,0,1.84.12-.12-.07-.22-.2-.11-.2,1.07.15.47-.23,1.2-.28.41.18-.15.43.58.28.45.12.09.31-.08.41.67-.23,1.25.15,1.63.19l-.35.1a2,2,0,0,1,.56-.05l-.2-.24c.21,0,.38,0,.38.14.21-.16-.16-.39.26-.61.27.12.84-.13.93.19-.86-.11.1.32-.64.37a1.15,1.15,0,0,1,.52,0s0,.07-.09.08c.83.28.38-.36,1.24-.35-.11.18.2.34.34.3-.35,0-.17-.3.15-.43.55.14.6-.1.89-.09L75,10.08c.11-.18.39-.15.77-.21,0,.14-.35.1-.21.16.43-.31,1,.32,1.55.11.27.12,0,.33.27.42.67-.23.72.24,1.42.05-.2-.24-.24-.18.26-.41l-1.15.17L78.6,10c-.35,0-.73.15-.94.11.35-.19.32-.14.15-.33.47.36.94-.21,1.49,0l0,.59c.82.26,1.47-.3,2.54-.15l-.34-.1c.14-.23.66,0,1-.13,0,.2.18.27.33.39,0-.15.78,0,.88-.38l.48.26c.86.11,1-.56,1.82-.5-.25.21.13.35-.43.51.28,0,.53,0,.53-.1.16.12.77-.27,1-.08.12-.09.16-.29.47-.28,0,0,0,.1,0,.1s.49-.13.22-.35c.85.62,2.39,0,3.13.48.61-.07,1.34-.13,1.89-.14,0,.06,0,.1-.11.08.76.18.47-.57,1.33-.36.44.32-.46.17-.18.29.12.65,1-.09,1.62.29l-.14,0c.44.22,1.08-.25,1.81-.2,0,0,0,.06,0,.1a5.77,5.77,0,0,1,2.13-.53c-.22.25-.32.13-.18.39.31,0-.09-.41.53-.49.2.14.65.26.71.54h-.59c.3.36.76,0,1.07,0l0,.16c.9-.05.92-.44,1.89-.42l-.1-.12c.53-.39.44.22,1-.07l.16.39a13.86,13.86,0,0,1,1.85-.46,6.29,6.29,0,0,1-1.54.62c.35,0,1.18,0,1.36-.22-.14,0-.32.13-.45.07a2.73,2.73,0,0,1,1.68-.46c-.12.77,1.8.19,2.3.79,1.22-.28,2.42.12,3.85.08-.51-.6.42,0,.33-.63.33,0,.46,0,.49,0l1,.37c.24.18-.32.13-.28.27.73,0,.3.26.79.42-.1-.22.25-.31.67-.23l-.58-.28c1-.33.88.51,1.9.19l-.32.19c.52-.11,1.94,0,2.45-.49.09.07.22.24,0,.28,1.25.07,2.79-.52,3.77-.22l-.1.15c.23,0,.41-.28.7-.13,0,.06-.09.15,0,.16a1.76,1.76,0,0,1,.93-.17l-.27.17c1.22.2,1.88-.41,2.9-.51,0,.44,1,.58,1.44.65l0,.06a19.87,19.87,0,0,0,3.74-.54c.82.48,2.77.2,4.09.47-.2-.08,0-.34.27-.39s.85-.31.8.1h-.11c.23.4.87.29,1.36.3l.08-.53c1.3.77,3.4-.28,4.1.41.31-.13.7-.13,1-.26l0,.28a13.07,13.07,0,0,0,2.37,0l-.22.2c.6,0,.76-.82,1.32-.83l.17.42c1.05,0,2.12.36,3.16,0a.23.23,0,0,1-.22.2c.5,0,1.92.29,1.74-.29,0,.38,1.09,0,1.66-.13l-.09.28a1.83,1.83,0,0,1,1.17-.55c.16,0,.14.22-.07.15.53.15.41-.26,1.06-.12l-.24.18c.55,0,.5-.07.8-.28s1,.07,1.12.32a.66.66,0,0,1,.69-.29c0,.1-.07.15-.13.18.91.19,1.36-.32,2-.05a.2.2,0,0,0,.11.17,10.37,10.37,0,0,1-1.25,0c0,.26.59.3.12.66a3.74,3.74,0,0,1,1.84-.49.31.31,0,0,1,.08.09l-.06,0a.63.63,0,0,0,.36,0,2.09,2.09,0,0,0,.47.08c.07.21.67.11,1,.12,0-.28.36-.24,0-.47,0,0-.06,0-.25,0l-.12,0,0,0-.73,0a.75.75,0,0,1,.79-.11,6.05,6.05,0,0,1,.41-.45c.4.39,1.17.6,1.28.85.89-.16,2.1-.1,2.66-.63.25-.07.29.15.39.23-.15.05-.32,0-.4.12.51-.14,1.5-.05,1.62-.42.64.17-.36.34.52.28l-.12.11c1.73.59,2.81-.94,4.72-.18-.13,0-.2-.07-.23-.13,2.18.33,4.49-.31,6.65.22.61.11.68-.13,1.05-.31l.13.3.64-.35c.91-.26,1.57.74,2.71.26l-.15-.2c.41,0,1.3-.12,1.24.11,0,0,.13-.21.3-.11v.16l1-.27c.78.11-.12.63,1,.66.43-.06,1.21-.46,1.05-.57s-.44-.1-.45-.26l.39-.08c.07-.47.37-.94-.58-1.27l-.67.28-.21-.23H188c-.32-.21-.52,0-.74.1a.45.45,0,0,0-.28-.25l-.65.44c-.08-.18.29-.36-.15-.46-.31.21.29.41-.21.54-.32-.21-.23-.38-.6-.2-.05-.12,0-.2.17-.25-.33.14-.88.06-1.05.31-.33-.26-1.12.07-1.09-.37a2,2,0,0,1-.89.36c.56-.53-1.14,0-1-.6-.41.47-1.49.21-2.22.47,0,0,.12-.11.19-.09a2.47,2.47,0,0,1-.8-.27c-.05.39-.69.48-1,.72-.5-.38.31-.46.15-.82,0,.32-.88.32-.71.58-.39-.23-.33-.11-.53-.44-.07.49-.36.08-.68.38-.56-.24-.14-.46-.76-.31C174.84,7.92,175.39,7.75,175.39,7.75ZM160.8,8.6h0l.3,0Zm-1.23,0h.53a.13.13,0,0,1-.13.19C160,8.74,159.76,8.68,159.57,8.6Zm2.59,1.95c-.19,0-.26,0-.29-.07l.34,0,0,0A.36.36,0,0,1,162.17,10.55Z"/><path class="cls-3" d="M162.52,10.18l.08,0-.12-.06-.07.09Z"/><path class="cls-3" d="M51.38,9.76h0l-.05,0Z"/><polygon class="cls-3" points="142.65 8.06 142.65 8.13 142.75 8.07 142.65 8.06"/><path class="cls-3" d="M44.63,8.8a.17.17,0,0,0-.09-.07S44.58,8.77,44.63,8.8Z"/><path class="cls-3" d="M41.71,8.73l-.41-.1A2.67,2.67,0,0,0,41.71,8.73Z"/><path class="cls-3" d="M39.47,8.6a.37.37,0,0,0,0,.12h0Z"/><path class="cls-3" d="M75.13,8.26h.09C75.42,8.2,75.28,8.22,75.13,8.26Z"/><path class="cls-3" d="M64.51,8.92a2.26,2.26,0,0,1,.34-.13C64.67,8.77,64.52,8.76,64.51,8.92Z"/><path class="cls-3" d="M87,7.93h0Z"/><path class="cls-3" d="M65.35,8.79a.87.87,0,0,0-.49,0A1.33,1.33,0,0,0,65.35,8.79Z"/><path class="cls-3" d="M29.75,8.47h-.11a.07.07,0,0,1,0,0Z"/><path class="cls-3" d="M29.63,8.5l-.12,0C29.56,8.53,29.61,8.53,29.63,8.5Z"/><path class="cls-3" d="M29.26,8.61l.25-.07C29.42,8.53,29.31,8.52,29.26,8.61Z"/><path class="cls-3" d="M32.72,8.6l0-.1A.17.17,0,0,0,32.72,8.6Z"/><path class="cls-3" d="M33.62,8.57c-.22,0-.54-.22-.84-.15l0,.08C32.89,8.34,33.42,8.74,33.62,8.57Z"/><path class="cls-3" d="M37.39,9.83l-.76-.08c.13.11.31.25,0,.28C37.54,10.35,36.4,9.78,37.39,9.83Z"/><path class="cls-3" d="M39.73,10c-.41.05,0,.16,0,.22C40,10.11,40,10.08,39.73,10Z"/><path class="cls-3" d="M56.67,10l0,.26C56.94,10.21,56.63,10.14,56.67,10Z"/><polygon class="cls-3" points="59.91 8.66 59.6 8.51 59.46 8.74 59.91 8.66"/><polygon class="cls-3" points="61.82 10.49 61.68 10.52 62.21 10.43 61.82 10.49"/><path class="cls-3" d="M90.27,10.4l-.09-.31C90,10.14,89.92,10.49,90.27,10.4Z"/><path class="cls-3" d="M102.55,10.07a.57.57,0,0,0,.69.1C103,10.16,102.69,10,102.55,10.07Z"/><polygon class="cls-3" points="139.39 10.59 139.14 10.69 139.61 10.61 139.39 10.59"/><polygon class="cls-3" points="190.16 9.65 185.31 10.12 181.06 11.68 181.3 10.33 177.17 10.33 182.16 9.03 183.86 7.47 186.71 8.02 191.89 7.05 188.66 8.69 190.16 9.65"/><path class="cls-3" d="M191.44,7.58c0,.06.23-.3.28-.36C191.59,7.24,191.38,7.67,191.44,7.58Z"/><polygon class="cls-3" points="190.19 7.91 190.29 7.77 189.96 8.05 190.19 7.91"/><path class="cls-3" d="M189.5,7.46c-.32.64.31.06.3.36l-.07.15.36-.45C189.9,7.5,189.5,7.69,189.5,7.46Z"/><path class="cls-3" d="M190.37,11.22c-.15-.24,0-.26-.13,0l0,.05A.12.12,0,0,1,190.37,11.22Z"/><path class="cls-3" d="M190.29,11.24c-.07.06.16.18,0,0Z"/><path class="cls-3" d="M190.58,10.92v.27c.1.14.2.12.22.25C190.85,11.27,190.76,11.13,190.58,10.92Z"/><path class="cls-3" d="M190.44,10.41v.12C190.47,10.59,190.5,10.6,190.44,10.41Z"/><path class="cls-3" d="M190.42,10.78v-.25c-.07-.1-.17-.3,0,.1C190.33,10.43,190.4,10.63,190.42,10.78Z"/><path class="cls-3" d="M190.31,10.72c-.13-.11-.24-.16-.25-.43C189.9,10.47,190.16,10.91,190.31,10.72Z"/><path class="cls-3" d="M189.07,8.06l0,.22.19-.16C189.12,8.2,189.18,7.87,189.07,8.06Z"/><path class="cls-3" d="M191.37,10.93c-.06-.14-.22-.34-.31-.51v.19A.91.91,0,0,1,191.37,10.93Z"/><path class="cls-3" d="M191.06,10.42v-.29C190.94,10.15,191,10.27,191.06,10.42Z"/><polygon class="cls-3" points="190.1 9.69 190.16 10.28 190.13 9.67 190.1 9.69"/><polygon class="cls-3" points="191.81 10.73 191.91 11.08 191.78 10.55 191.81 10.73"/><path class="cls-3" d="M192.07,10.53c.08.28.29.41.32.59a1.24,1.24,0,0,0,0-.57C192.34,10.7,192.26,10.7,192.07,10.53Z"/><path class="cls-3" d="M192.3,10.21a2.45,2.45,0,0,0,0,.34A1.23,1.23,0,0,0,192.3,10.21Z"/><path class="cls-3" d="M191.28,10.1a1.17,1.17,0,0,0,.28.34l-.24-.36Z"/><path class="cls-3" d="M191.32,10.07h0l.11,0Z"/><path class="cls-3" d="M191.27,10.1h0S191.25,10.05,191.27,10.1Z"/><path class="cls-3" d="M190.57,9.89a1.1,1.1,0,0,0-.32-.8A4.79,4.79,0,0,1,190.57,9.89Z"/><path class="cls-3" d="M191,9.66l-.16,0A1.35,1.35,0,0,1,191,10Z"/><polygon class="cls-3" points="190.97 9.51 190.97 9.66 191.03 9.67 190.97 9.51"/><path class="cls-3" d="M191.92,10c0-.19,0-.23.07-.29a.32.32,0,0,0-.26,0C191.77,9.78,191.85,10,191.92,10Z"/><path class="cls-3" d="M191.61,10v0S191.58,9.92,191.61,10Z"/><path class="cls-3" d="M192.61,9.35l0-.06,0,.07Z"/><path class="cls-3" d="M191.67,9.59c-.09,0-.07.06,0,.19a.22.22,0,0,1,.09-.13C191.7,9.6,191.68,9.56,191.67,9.59Z"/><path class="cls-3" d="M192.38,9.95l-.19-.16C192.28,9.89,192.43,10,192.38,9.95Z"/><path class="cls-3" d="M191.68,10v0C191.74,10.14,191.72,10.1,191.68,10Z"/><path class="cls-3" d="M191.68,10a1.63,1.63,0,0,0,0-.27.44.44,0,0,0,0,.17Z"/><path class="cls-3" d="M191.56,6.81c.17.36.2.75-.11.43a7.84,7.84,0,0,0,1.11,2,1,1,0,0,1-.13-.57c-.14-.17-.49-.32-.55-.69s.19.06.36.21c-.29-.41-.13-.74-.49-1.37l0,.3C191.68,7.07,191.64,6.88,191.56,6.81Z"/><path class="cls-3" d="M192.32,9.36l0,.07c.09,0,.2.16.41.39a1.17,1.17,0,0,0-.11-.47l-.26.07Z"/><path class="cls-3" d="M192.08,9.54a3.17,3.17,0,0,0-.41-1c-.13.1.06.37.06.58.18-.21,0,.25.32.38a.28.28,0,0,1-.07.16,1,1,0,0,1,.21.12l0,0h0s-.05-.07,0,0a0,0,0,0,1,0,0l-.06-.15c.11,0,.06.09.06.15l0,.06h0l.12-.33C192.22,9.4,192.16,9.45,192.08,9.54Z"/><path class="cls-3" d="M190,8.2l.05.09C190,8.23,190,8.19,190,8.2Z"/><path class="cls-3" d="M190.16,8.38c0,.06.07.22,0,.21s-.09-.18-.16-.31a.6.6,0,0,0,.22.47V8.69a2.18,2.18,0,0,1,.53.57A9.4,9.4,0,0,0,190.16,8.38Z"/><path class="cls-3" d="M191.08,8.86l.1-.29-.27-.28.11.2C190.87,8.47,191,8.7,191.08,8.86Z"/><polygon class="cls-3" points="192.73 9.53 192.91 9.95 192.73 9.32 192.73 9.53"/><polygon class="cls-3" points="192.95 9.36 193.12 9.71 193.08 9.47 192.95 9.36"/><path class="cls-3" d="M182,11.16l.24,0Z"/><path class="cls-3" d="M182.2,11.13l-.37-.08Z"/><path class="cls-3" d="M185.4,5.23c-.12-.4-.31-1-.29-.56l0,.45C185.25,5.06,185.34,5.13,185.4,5.23Z"/><path class="cls-3" d="M181.33,9.33l.15.08-.37-.3Z"/><path class="cls-3" d="M183,10.46l-.34-.16Z"/><path class="cls-3" d="M183.56,11.32l.62.15Z"/><path class="cls-3" d="M188.74,5.22c-.11-.15-.18-.21-.24-.22C188.64,5.23,188.78,5.58,188.74,5.22Z"/><path class="cls-3" d="M172.17,9.33a2.75,2.75,0,0,0,.53.13A2.31,2.31,0,0,0,172.17,9.33Z"/><path class="cls-3" d="M188.27,5l.06.09c0-.08.09-.15.16-.14C188.39,4.83,188.29,4.74,188.27,5Z"/><path class="cls-3" d="M186.54,7.51l0,0C186.57,7.5,186.56,7.5,186.54,7.51Z"/><path class="cls-3" d="M189.58,11.62a.18.18,0,0,1-.1,0S189.53,11.68,189.58,11.62Z"/><path class="cls-3" d="M190.38,4.56c.05,0,0,0,0,0Z"/><path class="cls-3" d="M191,6.2a.88.88,0,0,0,0,.21A1.12,1.12,0,0,1,191,6.2Z"/><path class="cls-3" d="M188.19,7.81h0C188.22,7.89,188.21,7.87,188.19,7.81Z"/><path class="cls-3" d="M190.5,4.74a.46.46,0,0,0-.1-.11A.51.51,0,0,0,190.5,4.74Z"/><path class="cls-3" d="M190.45,4.54l.06,0C190.5,4.5,190.49,4.46,190.45,4.54Z"/><path class="cls-3" d="M190.3,4.6a.11.11,0,0,1,.1,0,.14.14,0,0,1,0-.06Z"/><path class="cls-3" d="M181.71,10l0,0C181.73,9.88,181.71,9.92,181.71,10Z"/><path class="cls-3" d="M184.43,9.68v0h0Z"/><path class="cls-3" d="M184.47,10.08c-.17-.58-.11-.54-.05-.44L184,8.36Q184.2,9.24,184.47,10.08Z"/><path class="cls-3" d="M182.61,11.2l.64.14,1.73.34c-1.18-.24-1.27-.25-1.36-.26l-1.47-.26.51.1.12,0c1.2.23-1.94-.34-1.7-.28s.62.1.91.16l-.59-.14a3.3,3.3,0,0,1,.46.09l-.09-.07.08,0-1.19-.29c.4.07.25.06.57.13l-.52-.15a4.9,4.9,0,0,1,1.09.28c2.56.52-.56-.15,1,.14l.26.08c1.39.31.92.19,1.75.4-.4-.12-2.16-.5-2.69-.66.2,0,.3.05-.12-.08.81.21.64.15.64.13l1,.29-1.23-.38c.16,0,.93.25,1.58.45.21,0-1.26-.37-1.36-.45.44.1.08,0-.34-.26.36.1.53.21.8.3l-.64-.28.34.13c-.22-.12-.85-.34-1-.46-.44-.19-.05-.07.31.05s.69.24.27,0c.24.1.45.23.74.37-.49-.33-.35-.24-1-.7l.55.23a4.6,4.6,0,0,1-1.37-1L180.62,9a2.41,2.41,0,0,1-.12-.32,3.87,3.87,0,0,1,.62.45L181,9a4.2,4.2,0,0,1,.94.65l-.45-.23a10.31,10.31,0,0,0,1.09.76.43.43,0,0,1-.12-.12l.24.17c.07,0-.05-.05-.18-.16l.71.44-.26-.18.55.25a7.28,7.28,0,0,1-.78-.84,1.92,1.92,0,0,1-.25-.4.8.8,0,0,1-.08-.4,9.68,9.68,0,0,0,1,1.09c-.5-.42.07.31-.12.22a1.57,1.57,0,0,1,.39.31,3.14,3.14,0,0,1-.3-.49,1.51,1.51,0,0,0,.46.37c-.7-.71-.34-.59-.46-.9.21.27.4.55.29.55.53.54-.61-1-.14-.6,0,0-.06,0,0,.14-.12-.29.13-.2.25.08v0c.18,0,.33-.29,0-1.19l.44,1.22a19.11,19.11,0,0,1-.7-3.24c.06.28.19.66.31,1.08s.3,1,.4,1.39a5.69,5.69,0,0,1,.14.66s.06.09.08.09,0,0,0-.15a10.44,10.44,0,0,1-.33-1.21c.32.89.2.48.46,1.24a4.28,4.28,0,0,1-.16-1.32c0,.18.2,1.19.2,1.31a9.15,9.15,0,0,1,0-1.15,9.77,9.77,0,0,0,.16,1.33c0-.23.1,0,.12-.07l-.06-.28c.14.2.16-1.58.43-1.47a7.37,7.37,0,0,0-.1,1.58,13.35,13.35,0,0,1,.36-1.62,6,6,0,0,1,.62-1.47l0,.33q.1-.17.19-.35c-.13.86-1,2.56-1.09,3.25,0,.27,0,.39,0,.37a1.26,1.26,0,0,1-.13.47c0,.07.12.16.23.25.09-.67.57-.58.61-1.14a4.5,4.5,0,0,0-.64.59,5,5,0,0,1,.36-1.14c.19-.35.37-.6.52-.51a7.29,7.29,0,0,1-.21,1.41c.08-.22.4-.37.42-.2l-.18.33c.14.2.27-.22.39-.34s.13-.09.23.12c.08,0,.33.82.32.42a21.87,21.87,0,0,1-.35-3.71c0,.05.29.69.44,1,.22.57.07,1.45.24,1.94a1.82,1.82,0,0,1,0-.5c.11.14.08.56.21.46-.1-.67.29,0,0-.58.1-.22.17.11.32.05a4.4,4.4,0,0,1,0-1.72,3,3,0,0,0,.13.49c.28,0,.49.29.74.25a1.55,1.55,0,0,1,.21.63c0-.13,0-.36.08-.39.26.55-.16.12.09.8a1.63,1.63,0,0,1,.17-.84c-.15-.6-.28-.07-.35.2a4.33,4.33,0,0,1,.07-2.17c.17-.25.19.52.21.39.42.07.07-1.51.51-1a7.09,7.09,0,0,1,.3,1.43c-.13.23-.33-.29-.44-.24l.19.22c0,.19-.11.34-.2.2.2.45.69,0,1.07.35a1.13,1.13,0,0,0,0-.59l-.08.09c-.17-.41.07-.62-.09-.8.07-.32.13-.82.36-.61l.15.6c0-.18-.19-.34-.2-.14,0-.28.43.76.37,0l-.21-.39c.07-.33.12-1,.31-.84-.18-.58,0,.08-.27-.6.26.85-.42,0-.09.92-.27-.79-.27-.3-.55-1,0,.2.13.37,0,.3v.18h0v0s0,0,0,0a1.23,1.23,0,0,1,.13.29c0,.47-.2.49-.23.74-.1-.08,0-.23-.09-.44l0,.37c-.09-.44-.35-.69-.21-1h-.17c-.15-.23-.3-.3-.35-.1-.1-.08-.11.53-.11.17l-.22.32,0-.11c-.27,0-.41.83-.86.09-.07.13-.13.28-.31.18l-.1-.38c-.09.15-.41-.32-.39.09-.16-.5-.31-.53-.45-.46s-.29.27-.27.17l.07.5s-.06.13-.12.35l0,.45c0,.11,0,.13-.07.12s-.13-.44-.2-.42c0-.17,0-.12.05,0,0-.52,0-.33-.21-.15s-.43.4-.58,0c-.12.14-.18.08-.24-.05l0,0h0a2.94,2.94,0,0,0-.13-.27,1.3,1.3,0,0,0,.1.26.48.48,0,0,0-.31.12l0-.5h0c-.12-.2-.09.21,0,.59a.82.82,0,0,0-.14.27c-.11-.81-.26.22-.43-.66,0,.4-.53.21-.42,1.1,0-.12-.06-.18,0-.18-.12-.12-.26-.25-.3,0l-.2-.66q0,.41,0,.84l0-.07a1.61,1.61,0,0,1-.34-1,7.73,7.73,0,0,0-.1,1.43L183,6.33c-.08.09,0,.72-.16.44s-.5-.09-.77.13a1.47,1.47,0,0,1-1.06.46c.44.38.3.34.12.29a2.89,2.89,0,0,1-.35-.13c-.09,0-.11,0,.07.18-.32-.25-.55-.34-.61-.55-.16.29-1-.2-.53.46-.32-.2-.33-.33-.53-.45,0,.05.12.22-.09.1s-.18-.19-.23-.3c-.39.15.49.8,1.34,1.4-.57-.24-.62-.17-.12.24-.35-.18-.79-.35-.68-.47-.15,0-1.23-.07-.4.37-.25-.1-.22,0-.15.07-.3,0-.41,0-.57.11l.22.05c1,.53.06.16,0,.27l-.12-.05c-1.33-.23.26.21-1.23-.06l.83.28c.84.31.51.24,0,.14s-1.23-.24-1-.1l.58.13c.54.22-3-.68-3.43-.69a.42.42,0,0,1-.28-.14c-1.66-.2,1.14.35,1.1.51a12.34,12.34,0,0,0-2-.44c-.34-.05,0,.14.31.3s.47.3-.39.19a8.15,8.15,0,0,1,1.54.34c0,.09-2.84-.28-1.15.13l-.52-.08.2.11,0,0h0l4.23.73h0v0a.12.12,0,0,1,.11,0c-.1-.06-.1-.12,0-.14s.3,0-.09-.15l.07-.1-.11,0c-.08-.11.2,0,.55.06a1.59,1.59,0,0,0-.28-.11c-.22-.2-.28-.23.72,0l-.58-.23c.18.05,0-.07-.23-.2s-.42-.27,0-.16L177,9.13c.47.11-.07-.17-.48-.39s-.56-.33,1.34.34h0l1.71.94c-.46-.38,0-.2.44,0a3.83,3.83,0,0,0,1,.39c.08.09-.11.11-.23.13a.49.49,0,0,1-.21,0,.74.74,0,0,1-.24-.14l.06,0c-.67-.25-.29,0-.48.1s-.1.26-.41.2a1.58,1.58,0,0,1-.27.69l-1.12,1.84,3.47.12a3.79,3.79,0,0,0,1.11,0l-.31-.66.2,0c.11.14.26.51.12.53.21.36.1-.41.05-.56.36.18.19.84.28.83l.09-.09-.05-.07c0-.31-.12-.61.05-.64s.21.4.26.42,0,.07.07,0l.25,0-.29-.51c0-.31.23-.05-.1-.63.5.89,1,0,1.2.28,0-.45.14-.49.34-.51-.09-.1-.33-.7-.16-.68.2.64.32.75.45.81s.26.06.43.52c-.26-.58.17-.23-.15-1.08.11.07.13.47.25.76v0c0-.26.14-.19.28-.07s.41.26.6.15a2.18,2.18,0,0,1,0-.71l.29.86c.07-.09,0-1,.18-.42,0-.15-.09-.36,0-.43.86.78,1.52-.85,2.46.68-.14-.33-.07-.37,0-.39a3.26,3.26,0,0,1-.07-.67l.39.63c0-.66.35-.08.32-.71L190,11a21.81,21.81,0,0,0-.43-2.59c-.07.86-.53-1.21-.67,0-.08-.19,0-.31,0-.53,0,.41-.1.51-.26.34v-.1c-.4.14-.61-.25-1.09-.47l.08.47c-.1-.05-.14-.2-.2-.31,0,.73.28,0,.25.81-.22-.95-.69.05-.89-1-.15,0,.1.54-.05.55l-.07-.29v.38c-.11-.05-.19-.42-.22-.67,0,0,.06-.08.09-.1-.16-.34-.35.15-.41,0l.16.17a1.07,1.07,0,0,1-.59.18,2.74,2.74,0,0,0-.41.08,1,1,0,0,0-.42.23,1.19,1.19,0,0,0-.12.19l.1.2c-.15.27-.24.24-.35.19s-.26-.12-.37,0V8.76c0,.23,0,.37-.13.38,0-.27-.32-.42-.32-.73-.16.53,0,.38,0,1.24l-.17-.33c0,.34.1.51,0,.66,0-.35-.29-.49-.3-.94-.61-.64-.21.95-.77-.11.2,1,.48.43.47.67.19.29.14.77,0,.71s-.63-1.17-.89-1.05c0,0,0-.08,0-.08-.19-.21-.07.4-.34,0,.15.61-.17,0,.08.77l.18-.26c-.07.24.12,1.16-.26.82a2.08,2.08,0,0,1,0-.51c-.15-.19-.07.19-.23,0-.25-.75.24-.27.18-.89-.19-.29-.08.64-.3-.19.27,1.06-.31,0-.2.81L181,9.31c0,.08,0,.31,0,.32L180.84,9c0,.55-.44-.33-.48,0,.29-.12.26.51.51.79-.11.59-.46-.48-.76-.73l3.68,3.07c.09,0,.13-.09.1-.18.06.07-.32.17-.52,0a1.22,1.22,0,0,1,.56-.15c0-.3-.49,0-.75-.21.59,0-.21-.18-.37-.33l.48.08c.33-.1-1-.25-.58-.34l.64.23-.16-.11.53.16c-.35-.15-.29-.18-.16-.18h0a7.16,7.16,0,0,0-1-.31c.23.1.49.16.32.14.34.11.74.24.33.08l.47.16c.29.12,0,0,0,0l-.09,0-.85-.23.54.16-.44-.11,1.18.34-.58-.15.72.21c.29.08-1.06-.27-.73-.16l-.31-.07s.74.2-.15,0l1.08.25c-.3-.06-1.35-.31-1.89-.4s1,.21,1.26.28c-.6-.12-2-.38-1-.18A1.28,1.28,0,0,0,182.61,11.2Zm-.53-.23c.15,0,.68.19.16.07C181.28,10.81,181.77,10.91,182.08,11Zm.39-1.12c.12.11,0,.07-.19,0C182.27,9.78,182.32,9.78,182.46,9.85Zm7.35-4.78v0C189.68,4.92,189.73,5,189.81,5.07Zm.23.17a.48.48,0,0,0,0-.2c0,.12,0,.14-.09.11S190,5.35,190,5.24Zm-6.63,7.63-.08-.11C183.37,12.61,183.39,12.73,183.42,12.87Z"/><path class="cls-3" d="M182.84,10.33l-.27-.16A1.51,1.51,0,0,0,182.84,10.33Z"/><polygon class="cls-3" points="183.45 11.29 183.44 11.29 183.56 11.32 183.45 11.29"/><path class="cls-3" d="M187.74,9.83a.53.53,0,0,1-.16-.22C187.6,9.72,187.64,9.81,187.74,9.83Z"/><path class="cls-3" d="M190.94,4.24l-.1.15c.06,0,.1.06.14.13C191,4.41,190.9,4.25,190.94,4.24Z"/><path class="cls-3" d="M191.25,7.33c0,.06,0,0,0,.09l.11.2C191.4,7.56,191.37,7.38,191.25,7.33Z"/><path class="cls-3" d="M191.35,5.79c.08.4.14.25.21.16h0C191.47,5.39,191.41,5.59,191.35,5.79Z"/><path class="cls-3" d="M191.58,5.93s0,0,.08,0C191.63,5.68,191.61,5.87,191.58,5.93Z"/><path class="cls-3" d="M190.25,4.93c.06.09-.07-.52,0-.36C190.18,4.05,190.07,5.24,190.25,4.93Z"/><polygon class="cls-3" points="191.66 7.09 191.54 6.61 191.56 7.01 191.66 7.09"/><path class="cls-3" d="M190.9,6.86l.17.11a.3.3,0,0,1,0-.18C191,6.8,190.87,6.72,190.9,6.86Z"/><path class="cls-3" d="M191.07,6.8s.09,0,.1-.1A.18.18,0,0,0,191.07,6.8Z"/><polygon class="cls-3" points="191.5 7.28 191.44 7.18 191.33 7.16 191.5 7.28"/><path class="cls-3" d="M189.37,7l-.13.17c0,.17.08.27.12.19A.63.63,0,0,0,189.37,7Z"/><path class="cls-3" d="M190.08,8.31a1.7,1.7,0,0,1-.14-.36l.11.61Z"/><path class="cls-3" d="M189.66,8.54c0,.17-.13.53.06.45C189.7,8.82,189.83,8.65,189.66,8.54Z"/><polygon class="cls-3" points="187.19 8.2 187.23 8.18 187.1 7.17 187.19 8.2"/><path class="cls-3" d="M185.06,10.45c0,.26,0-.63.09-.31,0-.24,0-.26,0-.47C185.07,9.92,185.06,9.77,185.06,10.45Z"/><path class="cls-3" d="M185.14,9.67l0-.15A.84.84,0,0,0,185.14,9.67Z"/><polygon class="cls-3" points="190.07 12.12 190.21 12.32 190.1 11.99 190.07 12.12"/><path class="cls-3" d="M190.22,11.35l.09.64V11.4S190.26,11.49,190.22,11.35Z"/><path class="cls-3" d="M184.38,11.52l-.26-.07-.36-.09Z"/><polygon class="cls-3" points="183.29 11.38 183.31 11.39 182.16 11.18 183.29 11.38"/><path class="cls-3" d="M184.82,11.65l-.14,0C184.85,11.65,183.62,11.39,184.82,11.65Z"/></g></g></svg>