<svg xmlns="http://www.w3.org/2000/svg" xmlns:xlink="http://www.w3.org/1999/xlink" viewBox="0 0 150 40"><defs><style>.cls-1,.cls-2,.cls-3{fill:none;}.cls-2{clip-path:url(#clip-path);}.cls-2,.cls-3{clip-rule:evenodd;}.cls-4{fill:#fff;}.cls-5{clip-path:url(#clip-path-41);}.cls-6{fill:#0b7bf7;}.cls-7{clip-path:url(#clip-path-42);}.cls-8{clip-path:url(#clip-path-43);}.cls-9{clip-path:url(#clip-path-44);}.cls-10{clip-path:url(#clip-path-45);}.cls-11{fill:#5fbc1f;}.cls-12{clip-path:url(#clip-path-46);}.cls-13{clip-path:url(#clip-path-47);}.cls-14{clip-path:url(#clip-path-48);}.cls-15{clip-path:url(#clip-path-49);}.cls-16{clip-path:url(#clip-path-50);}.cls-17{clip-path:url(#clip-path-51);}.cls-18{clip-path:url(#clip-path-52);}.cls-19{clip-path:url(#clip-path-53);}.cls-20{clip-path:url(#clip-path-54);}.cls-21{fill:#90d5f9;}.cls-22{clip-path:url(#clip-path-55);}.cls-23{clip-path:url(#clip-path-56);}.cls-24{clip-path:url(#clip-path-57);}.cls-25{clip-path:url(#clip-path-58);}.cls-26{clip-path:url(#clip-path-59);}.cls-27{clip-path:url(#clip-path-60);}.cls-28{clip-path:url(#clip-path-61);}.cls-29{clip-path:url(#clip-path-62);}.cls-30{clip-path:url(#clip-path-63);}.cls-31{clip-path:url(#clip-path-64);}.cls-32{clip-path:url(#clip-path-65);}.cls-33{clip-path:url(#clip-path-66);}.cls-34{clip-path:url(#clip-path-67);}.cls-35{clip-path:url(#clip-path-68);}.cls-36{clip-path:url(#clip-path-69);}.cls-37{clip-path:url(#clip-path-70);}.cls-38{clip-path:url(#clip-path-71);}.cls-39{clip-path:url(#clip-path-72);}.cls-40{clip-path:url(#clip-path-73);}.cls-41{clip-path:url(#clip-path-74);}.cls-42{clip-path:url(#clip-path-75);}.cls-43{clip-path:url(#clip-path-76);}.cls-44{clip-path:url(#clip-path-77);}.cls-45{clip-path:url(#clip-path-78);}.cls-46{clip-path:url(#clip-path-79);}.cls-47{clip-path:url(#clip-path-80);}.cls-48{clip-path:url(#clip-path-81);}.cls-49{fill:#032a74;}</style><clipPath id="clip-path"><rect class="cls-1" x="7.87" y="4.22" width="101.02" height="32"/></clipPath><clipPath id="clip-path-41"><path class="cls-2" d="M22.83,30.86c0,.86-1.29,1.11-1.91.39a.88.88,0,0,1,.75-1.49,1.12,1.12,0,0,1,1.16,1.1"/></clipPath><clipPath id="clip-path-42"><path class="cls-2" d="M33,30.19a1.58,1.58,0,0,1-1.08.84l-1,.13c-1.82.23-3.74.37-5.65.43-1.13-.07-1.15-1.06-.68-1.48a1.22,1.22,0,0,1,.74-.29c2-.06,4.05-.21,6-.46l1-.13c.9-.05.75.7.63,1"/></clipPath><clipPath id="clip-path-43"><path class="cls-2" d="M35.94,29.51c-.39.87-1.38,1.39-1.61.85s.38-1.55,1.17-1.78c.63-.1.63.48.44.93"/></clipPath><clipPath id="clip-path-44"><path class="cls-2" d="M40.29,27.39a6.94,6.94,0,0,1-.55,1,6,6,0,0,1-2.58,1.47c-.56.11-.25-.78.11-1.28a1.48,1.48,0,0,1,.65-.59,6.51,6.51,0,0,0,2.74-1.56l0,0s0,.18-.4,1"/></clipPath><clipPath id="clip-path-45"><path class="cls-2" d="M26.47,27.47a1.14,1.14,0,0,1-1.08.85,72,72,0,0,1-7.24-.13,1.14,1.14,0,0,1-.75-2A1,1,0,0,1,18,26.1c2.37.16,4.91.21,7.45.14a1,1,0,0,1,1.06,1.23"/></clipPath><clipPath id="clip-path-46"><path class="cls-2" d="M41.75,23.23l-.27,1.06a1.33,1.33,0,0,1-.23.46l0,0a5.74,5.74,0,0,1,.5-2.22A1.48,1.48,0,0,0,42,22l-.24,1.27"/></clipPath><clipPath id="clip-path-47"><path class="cls-2" d="M26.05,33.67a1,1,0,0,1-.91.57,56.11,56.11,0,0,1-5.69-.11c-1-.14-1.34-1-.9-1.33a.91.91,0,0,1,.44-.09,61.34,61.34,0,0,0,6.25.11c.9,0,.89.64.81.85"/></clipPath><clipPath id="clip-path-48"><path class="cls-2" d="M29.27,33.37c-.35.77-1.65,1-1.86.37-.12-.39.28-1.06,1.15-1.17s.87.45.71.8"/></clipPath><clipPath id="clip-path-49"><path class="cls-2" d="M36.26,32a2.83,2.83,0,0,1-.92.77,23.48,23.48,0,0,1-4.29,1c-.74,0-.55-.57-.29-.89a1.76,1.76,0,0,1,1-.58,25.32,25.32,0,0,0,4.71-1.08c.36-.07.16.31.06.47a2.35,2.35,0,0,1-.23.32"/></clipPath><clipPath id="clip-path-50"><path class="cls-2" d="M37.66,31.22c-.47.59-1,1.12-1,1A6,6,0,0,1,38,30.44s.14-.06.09.07a3.33,3.33,0,0,1-.46.71"/></clipPath><clipPath id="clip-path-51"><path class="cls-2" d="M30.42,35.32a2,2,0,0,1-1,.49l-.65.09c-1.25.16-2.56.25-3.86.29-.71,0-.76-.5-.52-.75a1,1,0,0,1,.65-.26c1.51,0,3-.16,4.45-.34l.76-.1c.65,0,.29.41.24.47l-.1.11"/></clipPath><clipPath id="clip-path-52"><path class="cls-2" d="M32.51,34.84c-.5.45-1.34.85-1.33.58s.81-1,1.44-1.15c.38-.07.23.19.17.27a1.26,1.26,0,0,1-.28.3"/></clipPath><clipPath id="clip-path-53"><path class="cls-2" d="M35.72,33.31c-.4.32-.92.74-1.34,1A5.84,5.84,0,0,1,33,35h-.09a4,4,0,0,1,1.47-1.21,5.53,5.53,0,0,0,1.86-1l-.53.47"/></clipPath><clipPath id="clip-path-54"><path class="cls-2" d="M22.91,8.13c-.12.84-1,1.13-1.35.64a1.12,1.12,0,0,1,.71-1.69c.53,0,.69.64.64,1.05"/></clipPath><clipPath id="clip-path-55"><path class="cls-2" d="M30.2,7.68c.08.2.2.66-.29.81l-.75.1c-1.42.18-2.91.29-4.39.33-.92-.08-.95-1.23-.53-1.63a.57.57,0,0,1,.36-.15c1.28,0,2.57-.14,3.79-.29L29,6.76c.67,0,1.09.73,1.16.92"/></clipPath><clipPath id="clip-path-56"><path class="cls-2" d="M32.22,7.18c.39.57.28,1.06-.22,1-.8-.16-1.55-1.48-1.15-1.77l.09,0c.44-.06,1,.46,1.28.84"/></clipPath><clipPath id="clip-path-57"><path class="cls-2" d="M35.43,5.67c.14.13.59.56.54.77a4.64,4.64,0,0,1-2,1.13c-.72.1-1.66-1.34-1.48-1.56l.06,0a3.94,3.94,0,0,0,1.73-1c.2-.08.85.4,1.16.68"/></clipPath><clipPath id="clip-path-58"><path class="cls-2" d="M35.41,5c.42.34.87.78.85.89A7.38,7.38,0,0,1,34.4,4.39v0a2.71,2.71,0,0,1,1,.62"/></clipPath><clipPath id="clip-path-59"><path class="cls-2" d="M19,15.32a1.11,1.11,0,0,1-1.05.83,44.46,44.46,0,0,1-6-.81c-.93-.35-.38-1.89.36-2.13a.75.75,0,0,1,.3,0,41.55,41.55,0,0,0,5.63.76c1,.2.74,1.36.74,1.37"/></clipPath><clipPath id="clip-path-60"><path class="cls-2" d="M22.64,15.34a1.07,1.07,0,0,1-1.88.69,1.25,1.25,0,0,1,.87-2,1.15,1.15,0,0,1,1,1.32"/></clipPath><clipPath id="clip-path-61"><path class="cls-2" d="M32.88,14.69a.91.91,0,0,1-.7,1l-1,.13c-1.93.25-4,.39-6,.46a1.14,1.14,0,0,1-.65-2,1.06,1.06,0,0,1,.55-.2c1.9-.06,3.81-.2,5.63-.43l.94-.13c1.06,0,1.21,1.15,1.21,1.16"/></clipPath><clipPath id="clip-path-62"><path class="cls-2" d="M35.75,14c.24.89-.33,1.53-1,1.14s-1.05-2-.21-2.22c.62-.09,1.09.57,1.22,1.08"/></clipPath><clipPath id="clip-path-63"><path class="cls-2" d="M40.21,11.88a1.81,1.81,0,0,1,.21,1,6.47,6.47,0,0,1-2.73,1.54c-.87.13-1.31-1.48-1-2a.44.44,0,0,1,.18-.15,6,6,0,0,0,2.57-1.46c.25-.13.68.73.78,1"/></clipPath><clipPath id="clip-path-64"><path class="cls-2" d="M40.26,10.92a4.87,4.87,0,0,1,.5,1.26A9.44,9.44,0,0,1,39.69,10v0h0a4.9,4.9,0,0,1,.56.93"/></clipPath><clipPath id="clip-path-65"><path class="cls-2" d="M29,11.25a.87.87,0,0,1-1.41.88c-.74-.55-.66-1.8.12-2h.09A1.28,1.28,0,0,1,29,11.25"/></clipPath><clipPath id="clip-path-66"><path class="cls-2" d="M36.13,9.87c.11.21.32.73,0,.94a25.92,25.92,0,0,1-4.67,1.07,1.21,1.21,0,0,1-1-1.86.93.93,0,0,1,.27-.12,24.07,24.07,0,0,0,4.24-1c.55-.08,1.07.72,1.18.94"/></clipPath><clipPath id="clip-path-67"><path class="cls-2" d="M37.46,9.11c.42.62.48,1.19.12,1.13-.52-.08-1.66-1.66-1.25-2,.27-.1.79.36,1.13.86"/></clipPath><clipPath id="clip-path-68"><path class="cls-2" d="M38.29,7.77l.3.39a.94.94,0,0,1,0,1.22c-.37.2-1.47-1.55-1.37-1.75a.89.89,0,0,0-.11-1.26c.36.41.86,1,1.2,1.4"/></clipPath><clipPath id="clip-path-69"><path class="cls-2" d="M9.25,22c0,.84-.51,1.19-.95.71-.63-.69-.55-2.34.11-2.35l.14,0c.55.24.72,1.12.7,1.62"/></clipPath><clipPath id="clip-path-70"><path class="cls-2" d="M18.62,23.5a1,1,0,0,1-1,.85,47.38,47.38,0,0,1-6.45-.87c-1.08-.38-1-2.05-.33-2.31a.85.85,0,0,1,.32,0,48.84,48.84,0,0,0,6.44.87,1.31,1.31,0,0,1,1,1.48"/></clipPath><clipPath id="clip-path-71"><path class="cls-2" d="M26.67,19.39a1.14,1.14,0,0,1-1.05,1,75.39,75.39,0,0,1-7.71-.13,1.19,1.19,0,0,1-.43-2.15,1.09,1.09,0,0,1,.58-.16,73.79,73.79,0,0,0,7.48.13,1.18,1.18,0,0,1,1.13,1.34"/></clipPath><clipPath id="clip-path-72"><path class="cls-2" d="M41.88,15.77a1.21,1.21,0,0,1-.27.93l0,0c-.36-.12-.68-1.93-.5-2.23a1.11,1.11,0,0,0,.22-1c.2.68.45,1.6.59,2.31"/></clipPath><clipPath id="clip-path-73"><path class="cls-2" d="M35.83,18.24a1.06,1.06,0,0,1-.71,1.09c-.63.12-1.29.24-2,.35a1.2,1.2,0,0,1-.82-2,.94.94,0,0,1,.52-.27c.68-.1,1.33-.21,1.93-.34,1-.06,1.07,1.18,1.07,1.2"/></clipPath><clipPath id="clip-path-74"><path class="cls-2" d="M40.71,16.37c.17.88-.07,1.59-.45,1.33s-.79-2-.3-2.39c.35-.15.65.53.75,1.06"/></clipPath><clipPath id="clip-path-75"><path class="cls-2" d="M30.46,27.15c-.18,1-1.59,1.5-2.15.7A1.27,1.27,0,0,1,29.38,26a1,1,0,0,1,1.08,1.15"/></clipPath><clipPath id="clip-path-76"><path class="cls-2" d="M39.1,25.46a1.75,1.75,0,0,1-.76,1.05c-.34.12-.71.23-1.1.34-.8.11-.62-1.06-.2-1.66a1.07,1.07,0,0,1,.56-.46c.4-.12.78-.23,1.13-.36.71-.12.37,1.07.37,1.09"/></clipPath><clipPath id="clip-path-77"><path class="cls-2" d="M40.8,24.49c-.21.88-.69,1.56-.86,1.24a2.82,2.82,0,0,1,.69-2.28c.3-.14.32.43.17,1"/></clipPath><clipPath id="clip-path-78"><path class="cls-2" d="M35.92,25a9.46,9.46,0,0,1-1.45,2.47,1.36,1.36,0,0,1-.83.58h0a.68.68,0,0,1-.65-.25c-1.2-1.63-2.16-3.42-3.3-5.09L29,23.85a1.18,1.18,0,0,1-.92.56c-2.19.15-4.42.19-6.58.15a1.2,1.2,0,0,1-.64-2.15,1.13,1.13,0,0,1,.61-.18c2,0,4,0,6-.11.38-.63.89-1.47,1.26-2.1a1.08,1.08,0,0,1,.85-.57c.36,0,1.13,0,4.48,5.64l.34-.59c.6-1,1.39-.75,1.56-.11a1.45,1.45,0,0,1,0,.62"/></clipPath><clipPath id="clip-path-79"><path class="cls-2" d="M42.06,19.64a3.38,3.38,0,0,1-.18,1.19A4.7,4.7,0,0,1,40.18,22c-.14.05-.27,0-.4-.28A15,15,0,0,0,38.34,19l-.15.59c-.27.85-.89.87-1.22.31a1.7,1.7,0,0,1-.18-1.06,22.31,22.31,0,0,1,.51-2.26c0-.18.11-.55.45-.66.81-.17,2.63,3.63,2.64,3.67a4.26,4.26,0,0,0,1.45-1.09l0,0c.2.09.18,1.06.18,1.17"/></clipPath><clipPath id="clip-path-80"><path class="cls-2" d="M37.37,22c-.06,1.08-.95,1.75-1.5,1.12a1.58,1.58,0,0,1,.6-2.3c.67-.11.93.62.9,1.18"/></clipPath><clipPath id="clip-path-81"><path class="cls-3" d="M50.67,24.37c.09,3,2.21,4.92,5.85,4.92,2.87,0,5.64-1.68,5.64-4.86,0-2-.8-3.35-3.25-4.07l-3.64-1.05c-1.25-.36-1.73-1-1.73-1.89,0-1.23,1.1-2.25,2.8-2.25a2.6,2.6,0,0,1,2.9,2.64h2.51c0-2.34-1.38-4.86-5.35-4.86-3.61,0-5.55,2.16-5.55,4.74a3.87,3.87,0,0,0,3.17,4l2.71.74c2.09.57,2.75,1.2,2.75,2.22s-.66,2.25-3.08,2.25a3,3,0,0,1-3.22-2.55Zm14.82-3.23a8.42,8.42,0,0,1,16.83,0,8.42,8.42,0,0,1-16.83,0Zm8.42-5.67a5.59,5.59,0,0,0-5.55,5.67,5.55,5.55,0,1,0,11.1,0,5.6,5.6,0,0,0-5.55-5.67ZM86.36,6.15v18.1c0,3.27,1.65,4.68,4.12,4.68h1.11V26.41h-.81c-.86,0-1.73-.6-1.73-2.37V6.15Zm7.45,15a8.42,8.42,0,0,1,16.83,0,8.42,8.42,0,0,1-16.83,0Zm8.41-5.67a5.6,5.6,0,0,0-5.55,5.67,5.56,5.56,0,1,0,11.11,0,5.6,5.6,0,0,0-5.56-5.67ZM115,28.93h2.69V20.06c0-2.85,1.49-4.41,3.73-4.41a5.43,5.43,0,0,1,1.22.15V13c-2.27,0-3.55.15-4.89,2.58h-.06V13.31H115V28.93Z"/></clipPath></defs><title>Asset 2</title><g id="Layer_2" data-name="Layer 2"><g id="Layer_1-2" data-name="Layer 1"><polyline class="cls-4" points="0 0 150 0 150 40 0 40"/><g class="cls-5"><rect class="cls-6" x="19.81" y="28.9" width="3.89" height="3.64"/></g><g class="cls-7"><rect class="cls-6" x="23.49" y="28.36" width="10.49" height="4.09"/></g><g class="cls-8"><rect class="cls-6" x="33.42" y="27.71" width="3.5" height="3.74"/></g><g class="cls-9"><rect class="cls-6" x="35.99" y="25.53" width="5.56" height="5.19"/></g><g class="cls-10"><rect class="cls-11" x="16.19" y="25.23" width="11.17" height="3.99"/></g><g class="cls-12"><rect class="cls-11" x="40.32" y="21.09" width="2.53" height="4.55"/></g><g class="cls-13"><rect class="cls-6" x="17.5" y="31.84" width="9.45" height="3.29"/></g><g class="cls-14"><rect class="cls-6" x="26.53" y="31.7" width="3.67" height="3.28"/></g><g class="cls-15"><rect class="cls-6" x="29.66" y="30.31" width="7.84" height="4.29"/></g><g class="cls-16"><rect class="cls-6" x="35.75" y="29.55" width="3.25" height="3.53"/></g><g class="cls-17"><rect class="cls-6" x="23.43" y="33.87" width="8.1" height="3.19"/></g><g class="cls-18"><rect class="cls-6" x="30.31" y="33.39" width="3.42" height="2.97"/></g><g class="cls-19"><rect class="cls-6" x="32.05" y="31.97" width="5.06" height="3.91"/></g><g class="cls-20"><rect class="cls-21" x="20.52" y="6.21" width="3.26" height="3.66"/></g><g class="cls-22"><rect class="cls-21" x="23.11" y="5.9" width="8.03" height="3.89"/></g><g class="cls-23"><rect class="cls-21" x="29.88" y="5.47" width="3.45" height="3.55"/></g><g class="cls-24"><rect class="cls-21" x="31.59" y="4.11" width="5.24" height="4.33"/></g><g class="cls-25"><rect class="cls-21" x="33.53" y="3.51" width="3.6" height="3.24"/></g><g class="cls-26"><rect class="cls-21" x="10.65" y="12.32" width="9.28" height="4.69"/></g><g class="cls-27"><rect class="cls-21" x="19.64" y="13.15" width="3.88" height="4.12"/></g><g class="cls-28"><rect class="cls-21" x="23.29" y="12.67" width="10.46" height="4.49"/></g><g class="cls-29"><rect class="cls-21" x="33.15" y="12.05" width="3.52" height="4.07"/></g><g class="cls-30"><rect class="cls-21" x="35.72" y="10.03" width="5.6" height="5.31"/></g><g class="cls-31"><rect class="cls-21" x="38.82" y="9.13" width="2.81" height="3.91"/></g><g class="cls-32"><rect class="cls-21" x="26.24" y="9.29" width="3.67" height="3.92"/></g><g class="cls-33"><rect class="cls-21" x="29.37" y="8.06" width="7.79" height="4.69"/></g><g class="cls-34"><rect class="cls-21" x="35.38" y="7.37" width="3.3" height="3.74"/></g><g class="cls-35"><rect class="cls-21" x="36.22" y="5.5" width="3.45" height="4.76"/></g><g class="cls-36"><rect class="cls-11" x="7" y="19.49" width="3.11" height="4.3"/></g><g class="cls-37"><rect class="cls-11" x="9.47" y="20.28" width="10.02" height="4.94"/></g><g class="cls-38"><rect class="cls-11" x="16.11" y="17.06" width="11.43" height="4.21"/></g><g class="cls-39"><rect class="cls-11" x="40.15" y="12.59" width="2.61" height="5"/></g><g class="cls-40"><rect class="cls-11" x="31.13" y="16.18" width="5.57" height="4.36"/></g><g class="cls-41"><rect class="cls-11" x="38.85" y="14.42" width="2.78" height="4.2"/></g><g class="cls-42"><rect class="cls-11" x="27.28" y="25.13" width="4.06" height="3.99"/></g><g class="cls-43"><rect class="cls-11" x="35.82" y="23.5" width="4.23" height="4.23"/></g><g class="cls-44"><rect class="cls-11" x="39.01" y="22.56" width="2.74" height="4.11"/></g><g class="cls-45"><rect class="cls-11" x="19.5" y="18.58" width="17.32" height="10.35"/></g><g class="cls-46"><rect class="cls-11" x="35.91" y="15.05" width="7.02" height="7.87"/></g><g class="cls-47"><rect class="cls-11" x="34.74" y="19.92" width="3.5" height="4.29"/></g><g class="cls-48"><rect class="cls-49" x="49.6" y="5.07" width="74.15" height="25.29"/></g></g></g></svg>