<svg id="Layer_1" data-name="Layer 1" xmlns="http://www.w3.org/2000/svg" viewBox="0 0 24 24"><title>and</title><path d="M16,4a8,8,0,0,0-4,1.08,8,8,0,1,0,0,13.84A8,8,0,1,0,16,4ZM8,19A7,7,0,1,1,11.06,5.72,7.94,7.94,0,0,0,9.71,7.07l-.06.08a8,8,0,0,0-.49.72L9.07,8a8,8,0,0,0-.76,1.77L8.26,10c-.06.24-.11.48-.15.72,0,.09,0,.18,0,.27a7.37,7.37,0,0,0,0,2c0,.09,0,.18,0,.27q.06.37.15.72c0,.08,0,.16.06.24A8,8,0,0,0,9.07,16l.09.14a8,8,0,0,0,.49.72l.06.08a8,8,0,0,0,1.35,1.36A6.93,6.93,0,0,1,8,19Zm8,0a7,7,0,0,1-3.06-.72,7.94,7.94,0,0,0,1.35-1.36l.06-.08a7.86,7.86,0,0,0,.49-.72l.09-.14a8,8,0,0,0,.76-1.77l.06-.24c.06-.24.11-.48.15-.72,0-.09,0-.18,0-.27A8,8,0,0,0,16,12a8.17,8.17,0,0,0-.07-1c0-.09,0-.18,0-.27,0-.24-.09-.48-.15-.72,0-.08,0-.16-.06-.24A8,8,0,0,0,14.93,8l-.09-.14a7.85,7.85,0,0,0-.49-.72l-.06-.08a8,8,0,0,0-1.35-1.36A6.93,6.93,0,0,1,16,5a7,7,0,0,1,0,14Z"/></svg>