<?xml version="1.0" encoding="utf-8"?>
<!-- Generator: Adobe Illustrator 17.1.0, SVG Export Plug-In . SVG Version: 6.00 Build 0)  -->
<!DOCTYPE svg PUBLIC "-//W3C//DTD SVG 1.1//EN" "http://www.w3.org/Graphics/SVG/1.1/DTD/svg11.dtd">
<svg version="1.1" id="icon" xmlns="http://www.w3.org/2000/svg" xmlns:xlink="http://www.w3.org/1999/xlink" x="0px" y="0px"
	 viewBox="0 0 40 40" enable-background="new 0 0 40 40" xml:space="preserve">
<path id="taxsonomy" d="M-477.5,28l-6.5,0v-1.7c0-4.1-3.2-7.3-7.2-7.3H-505v-7h6.3c1.2,0,2.2-1,2.2-2.2V2.2c0-1.2-0.8-2.2-2-2.2
	l-15,0.1c-1.2,0-2,0.7-2,1.9v8c0,1.2,0.8,2,2,2h6.5v16l-6.5,0c-1.2,0-2,0.7-2,1.9v8c0,1.2,0.8,2,2,2h14.8c1.2,0,2.2-1,2.2-2.2v-7.6
	c0-1.2-0.8-2.2-2-2.2l-6.5,0v-7h13.7c2.9,0,5.2,2.3,5.2,5.3V28l-6.5,0c-1.2,0-2,0.7-2,1.9v8c0,1.2,0.8,2,2,2h14.8
	c1.2,0,2.2-1,2.2-2.2v-7.6C-475.5,29-476.3,28-477.5,28z M-499.5,31v6l-13,0v-6L-499.5,31z M-512.5,9V3l13,0v6L-512.5,9z M-478.5,37
	l-13,0v-6l13,0V37z"/>
<g>
	<g>
		<path d="M-300.2,35.4l-9.2-8.8c1.9-2.7,3.1-5.9,3.1-9.5c0-8.9-7.2-16.1-16.1-16.1s-16.1,7.2-16.1,16.1s7.2,16.1,16.1,16.1
			c3.6,0,6.9-1.2,9.6-3.2l9.2,8.8c0.5,0.5,1.1,0.7,1.7,0.7s1.2-0.2,1.7-0.7C-299.3,37.8-299.3,36.3-300.2,35.4z M-322.4,30.1
			c-7.2,0-13.1-5.9-13.1-13.1S-329.6,4-322.4,4s13.1,5.9,13.1,13.1S-315.2,30.1-322.4,30.1z"/>
	</g>
</g>
<g>
	<polygon fill="#009CFF" points="-141.7,6.5 -151.2,6.5 -151.2,18.7 -155.9,18.7 -146.4,28.5 -137,18.7 -141.7,18.7 	"/>
	<polygon fill="#009CFF" points="-129.3,14.8 -136.2,14.8 -136.2,16.4 -130.9,16.4 -129.4,31.3 -163.6,31.3 -162.1,16.4 
		-156.8,16.4 -156.8,14.8 -163.7,14.8 -166.5,33.5 -126.5,33.5 	"/>
</g>
<g>
	<g>
		<polygon points="13.6,27.5 18,27.5 18,22.5 13,22.5 13,27 3.7,20 13,13 13,17.5 18,17.5 18,12.5 13.6,12.5 20.6,3.2 27.6,12.5 
			23,12.5 23,17.5 28,17.5 28,13 37.3,20 28,27 28,22.5 23,22.5 23,27.5 27.6,27.5 20.6,36.8 		"/>
		<path fill="#FFFFFF" d="M20.6,4l6,8h-4.1v6h6v-4l8,6l-8,6v-4h-6v6h4.1l-6,8l-6-8h3.9v-6h-6v4l-8-6l8-6v4h6v-6h-3.9L20.6,4
			 M20.6,2.3l-0.8,1.1l-6,8l-0.7,0.9l-1.2,0.9l-8,6L2.8,20l1.1,0.8l8,6l1.2,0.9l0.7,0.9l6,8l0.8,1.1l0.8-1.1l6-8l0.9-1.1l0.9-0.7
			l8-6l1.1-0.8l-1.1-0.8l-8-6l-0.9-0.7l-0.9-1.1l-6-8L20.6,2.3L20.6,2.3z M23.5,13h3.1h0.9v1v3h-4V13L23.5,13z M13.5,13h1.1h2.9v4
			h-4v-3V13L13.5,13z M23.5,23h4v3v1h-0.9h-3.1V23L23.5,23z M13.5,23h4v4h-2.9h-1.1v-1V23L13.5,23z"/>
	</g>
</g>
</svg>
