<?xml version="1.0" encoding="utf-8"?>
<!-- Generator: Adobe Illustrator 17.1.0, SVG Export Plug-In . SVG Version: 6.00 Build 0)  -->
<!DOCTYPE svg PUBLIC "-//W3C//DTD SVG 1.1//EN" "http://www.w3.org/Graphics/SVG/1.1/DTD/svg11.dtd">
<svg version="1.1" id="icon" xmlns="http://www.w3.org/2000/svg" xmlns:xlink="http://www.w3.org/1999/xlink" x="0px" y="0px"
	 viewBox="0 0 40 40" enable-background="new 0 0 40 40" xml:space="preserve">
<path id="taxsonomy" d="M-311,28l-6.5,0v-1.7c0-4.1-3.2-7.3-7.2-7.3h-13.7v-7h6.3c1.2,0,2.2-1,2.2-2.2V2.2c0-1.2-0.8-2.2-2-2.2
	l-15,0.1c-1.2,0-2,0.7-2,1.9v8c0,1.2,0.8,2,2,2h6.5v16l-6.5,0c-1.2,0-2,0.7-2,1.9v8c0,1.2,0.8,2,2,2h14.8c1.2,0,2.2-1,2.2-2.2v-7.6
	c0-1.2-0.8-2.2-2-2.2l-6.5,0v-7h13.7c2.9,0,5.2,2.3,5.2,5.3V28l-6.5,0c-1.2,0-2,0.7-2,1.9v8c0,1.2,0.8,2,2,2h14.8
	c1.2,0,2.2-1,2.2-2.2v-7.6C-309,29-309.8,28-311,28z M-333,31v6l-13,0v-6L-333,31z M-346,9V3l13,0v6L-346,9z M-312,37l-13,0v-6l13,0
	V37z"/>
<g>
	<g>
		<path d="M-133.7,35.4l-9.2-8.8c1.9-2.7,3.1-5.9,3.1-9.5c0-8.9-7.2-16.1-16.1-16.1s-16.1,7.2-16.1,16.1s7.2,16.1,16.1,16.1
			c3.6,0,6.9-1.2,9.6-3.2l9.2,8.8c0.5,0.5,1.1,0.7,1.7,0.7s1.2-0.2,1.7-0.7C-132.8,37.8-132.8,36.3-133.7,35.4z M-155.9,30.1
			c-7.2,0-13.1-5.9-13.1-13.1S-163.1,4-155.9,4s13.1,5.9,13.1,13.1S-148.7,30.1-155.9,30.1z"/>
	</g>
</g>
<g>
	<polygon fill="#009CFF" points="24.8,6.5 15.3,6.5 15.3,18.7 10.6,18.7 20.1,28.5 29.5,18.7 24.8,18.7 	"/>
	<polygon fill="#009CFF" points="37.2,14.8 30.3,14.8 30.3,16.4 35.6,16.4 37.1,31.3 2.9,31.3 4.4,16.4 9.7,16.4 9.7,14.8 2.8,14.8 
		0,33.5 40,33.5 	"/>
</g>
</svg>
