<svg xmlns="http://www.w3.org/2000/svg" xmlns:xlink="http://www.w3.org/1999/xlink" viewBox="0 0 42.55 49.84"><defs><style>.cls-1{fill:url(#linear-gradient);}.cls-2{fill:url(#linear-gradient-2);}.cls-3{fill:url(#linear-gradient-3);}.cls-4{fill:#ea00ff;}.cls-5{fill:url(#linear-gradient-4);}.cls-6{fill:url(#linear-gradient-5);}.cls-7{fill:url(#linear-gradient-6);}.cls-8{fill:url(#linear-gradient-7);}.cls-9{fill:url(#linear-gradient-8);}.cls-10{fill:url(#linear-gradient-9);}</style><linearGradient id="linear-gradient" x1="6.5" y1="4.06" x2="21.12" y2="13.92" gradientUnits="userSpaceOnUse"><stop offset="0" stop-color="#ff00f1"/><stop offset="0.54" stop-color="#fe00f6"/><stop offset="1" stop-color="#fb00ff"/></linearGradient><linearGradient id="linear-gradient-2" x1="8.73" y1="44.94" x2="12.73" y2="40.93" gradientUnits="userSpaceOnUse"><stop offset="0" stop-color="#ac00ff"/><stop offset="1" stop-color="#8d00ff"/></linearGradient><linearGradient id="linear-gradient-3" x1="1.83" y1="26.32" x2="21.49" y2="14.03" gradientUnits="userSpaceOnUse"><stop offset="0" stop-color="#cc10de"/><stop offset="1" stop-color="#e706f3"/></linearGradient><linearGradient id="linear-gradient-4" x1="38.43" y1="24.91" x2="45.59" y2="27.38" gradientUnits="userSpaceOnUse"><stop offset="0" stop-color="#8d00ff"/><stop offset="1" stop-color="#ac00ff"/></linearGradient><linearGradient id="linear-gradient-5" x1="-3.04" y1="27.38" x2="4.12" y2="24.91" gradientUnits="userSpaceOnUse"><stop offset="0" stop-color="#cf00ff"/><stop offset="1" stop-color="#b800ff"/></linearGradient><linearGradient id="linear-gradient-6" x1="21.28" y1="49.84" x2="21.28" y2="36.21" gradientUnits="userSpaceOnUse"><stop offset="0" stop-color="#9800ff"/><stop offset="1" stop-color="#7900ff"/></linearGradient><linearGradient id="linear-gradient-7" x1="29.82" y1="40.93" x2="33.83" y2="44.94" gradientUnits="userSpaceOnUse"><stop offset="0" stop-color="#7a00ff"/><stop offset="1" stop-color="#7900ff"/></linearGradient><linearGradient id="linear-gradient-8" x1="21.26" y1="13.73" x2="40.87" y2="26.46" gradientUnits="userSpaceOnUse"><stop offset="0" stop-color="#b300ff"/><stop offset="1" stop-color="#cb00ff"/></linearGradient><linearGradient id="linear-gradient-9" x1="21.28" y1="13.7" x2="21.28" y2="36.21" gradientUnits="userSpaceOnUse"><stop offset="0" stop-color="#a800ff"/><stop offset="1" stop-color="#b600ff"/></linearGradient></defs><title>Asset 1</title><g id="Layer_2" data-name="Layer 2"><g id="Layer_1-2" data-name="Layer 1"><polygon class="cls-1" points="21.28 0 21.28 13.7 0 13.7 21.28 0"/><polygon class="cls-2" points="8.02 36.21 0 36.21 21.28 49.84 8.02 36.21"/><polygon class="cls-3" points="21.28 13.7 8.02 36.21 0 13.7 21.28 13.7"/><polygon class="cls-4" points="21.28 0 21.28 13.7 42.55 13.7 21.28 0"/><polygon class="cls-5" points="42.55 13.7 42.55 36.21 34.54 36.21 42.55 13.7"/><polygon class="cls-6" points="0 13.7 0 36.21 8.02 36.21 0 13.7"/><polygon class="cls-7" points="8.02 36.21 21.28 49.84 34.54 36.21 8.02 36.21"/><polygon class="cls-8" points="34.54 36.21 42.55 36.21 21.28 49.84 34.54 36.21"/><polygon class="cls-9" points="21.28 13.7 34.54 36.21 42.55 13.7 21.28 13.7"/><polygon class="cls-10" points="21.28 13.7 34.54 36.21 8.02 36.21 21.28 13.7"/></g></g></svg>