<svg xmlns="http://www.w3.org/2000/svg" viewBox="0 0 81 19.8"><defs><style>.cls-1{fill:#4f80d9;}.cls-2,.cls-3{font-size:12px;font-family:OpenSans-Regular, Open Sans;}.cls-2,.cls-3,.cls-4{fill:#fff;}.cls-3{letter-spacing:0em;}</style></defs><title>Asset 1</title><g id="Layer_2" data-name="Layer 2"><g id="Layer_1-2" data-name="Layer 1"><rect class="cls-1" width="81" height="19"/><text class="cls-2" transform="translate(2.5 16.55)">I</text><text class="cls-2" transform="translate(5.84 16.55) scale(0.85)">SAAC</text><text class="cls-2" transform="translate(30.78 16.55)">’</text><text class="cls-3" transform="translate(32.82 16.55) scale(0.85)">S</text><text class="cls-2" transform="translate(38.42 16.55)"><tspan xml:space="preserve"> K</tspan></text><text class="cls-2" transform="translate(48.9 16.55) scale(0.85)">OMET</text><line class="cls-4" x1="77" y1="3.5" x2="27.5" y2="3.5"/><path class="cls-4" d="M27.5,2.83c0,.09,0,.28.06.24l.05-.33Z"/><path class="cls-4" d="M28,3.45a1.2,1.2,0,0,0,.13-.75c-.08.32-.1.19-.19.56-.07,0-.13-.11-.11-.23,0,.08-.11-.07-.15.13s.21.27.34.05A.5.5,0,0,1,28,3.45Z"/><path class="cls-4" d="M35,4l0,0A.08.08,0,0,0,35,4Z"/><path class="cls-4" d="M39.35,4.15a.07.07,0,0,0,0,.07S39.36,4.17,39.35,4.15Z"/><path class="cls-4" d="M40.09,4.51l0,0S40.08,4.54,40.09,4.51Z"/><path class="cls-4" d="M35,4l.12.1C35.13,4,35.06,4,35,4Z"/><path class="cls-4" d="M29,2.65a.2.2,0,0,0-.06.09l.06,0Z"/><path class="cls-4" d="M33.09,4.23h0s0,.08,0,.13Z"/><path class="cls-4" d="M31.61,4.28s0-.27.06-.39c0,.12,0,.17-.07.19A1.37,1.37,0,0,0,31.61,4.28Z"/><path class="cls-4" d="M29.28,3.79l0,0Z"/><path class="cls-4" d="M34.14,4.29a.58.58,0,0,0,0,.1A.4.4,0,0,0,34.14,4.29Z"/><path class="cls-4" d="M75.29,2.18s0,0,0,.05S75.31,2.18,75.29,2.18Z"/><path class="cls-4" d="M77,3.57l0,0c0,.05,0,.11,0,.16Z"/><path class="cls-4" d="M41.45,4.87h0S41.43,4.89,41.45,4.87Z"/><path class="cls-4" d="M53.93,4.66c-.14-.25.23-.32,0-.6C54,4.17,53.75,4.5,53.93,4.66Z"/><path class="cls-4" d="M29,2.69H29A.06.06,0,0,0,29,2.69Z"/><path class="cls-4" d="M53.95,4.06h0l0,0Z"/><path class="cls-4" d="M44.59,4.7a.55.55,0,0,0,0-.12A.36.36,0,0,0,44.59,4.7Z"/><path class="cls-4" d="M42.25,4.3l.06,0A.1.1,0,0,0,42.25,4.3Z"/><path class="cls-4" d="M45.8,4.3s0,.06.08,0v0S45.83,4.35,45.8,4.3Z"/><path class="cls-4" d="M47.06,4.3l0-.06,0,0Z"/><path class="cls-4" d="M71.46,2.32a1.45,1.45,0,0,1,.06.25C71.5,2.37,71.69,2.3,71.46,2.32Z"/><path class="cls-4" d="M29,2.81c0-.07,0-.11,0-.12l0,0A.28.28,0,0,0,29,2.81Z"/><path class="cls-4" d="M45.85,2.09l.2,0A.47.47,0,0,0,45.85,2.09Z"/><path class="cls-4" d="M62.42,2.36l0,0S62.43,2.32,62.42,2.36Z"/><path class="cls-4" d="M46.64,2.09a.49.49,0,0,0,.11.19.33.33,0,0,0,0-.07Z"/><path class="cls-4" d="M71.52,2.57h0Z"/><path class="cls-4" d="M72.84,1.9c-.19,0-.09.36-.13.57-.23.11-.11-.27-.18-.46-.14.1-.25.44-.36.42a.26.26,0,0,1,0-.16c-.15.29-.45,0-.62.38a.36.36,0,0,1,0-.09,2.73,2.73,0,0,1,0,.51c-.09,0-.16.23-.19,0,.05,0,.06-.09.08-.17l-.09.1c-.08-.35.12-.12.12-.38-.17.11-.38.4-.51.3,0-.34.31-.11.13-.42l.21.13c-.16-.54.13,0,0-.54-.27-.1-.31.17-.58.07-.06.19,0,.28,0,.47-.39.34-.3-.85-.59-.4-.07.23-.1.66-.3.43l.07-.38c-.26,0-.15.55-.43.29,0-.15.21-.13.17-.17-.18-.3-.13.22-.26.22l0-.34c-.28.05-.59.3-.9.36,0-.1.07-.21,0-.31a1.47,1.47,0,0,1-1.22-.24L67,2.4s-.06-.13,0-.19c-.15-.11,0,.19-.08.3s-.11-.17-.06-.26c-.26.25-.74.54-1,.22l.05-.09c-.21-.12-.24.6-.44.33l0-.05c-.46-.13-1,.14-1.33-.3-.07.42-.46-.19-.49.4-.26-.29-.19-.4-.56-.59-.1,0-.15.37-.27.43V2.29l-.17.32-.09-.37-.12.08a.27.27,0,0,1,.09.23c-.18.14-.44-.21-.44-.37l-.43.26c0-.12.08-.17.14-.25-.23.31,0-.32-.25,0,0,.07,0,.18,0,.25A.39.39,0,0,0,61,2.29l0-.21a7.59,7.59,0,0,0-1,.1c.13.1.1.47,0,.5l0-.33c-.07.2.11.12,0,.37-.13,0-.09-.37,0-.48l-.16.11a1.63,1.63,0,0,1,0-.27c-.07.2-.28-.33-.37,0V2a7.64,7.64,0,0,0-.81.13c0,.28-.12.22-.21.45-.21-.09-.45-.31-.71-.29s-.05.24-.13.41c0-.26-.27-.23-.14-.42a1.71,1.71,0,0,0-.78.26c0,.1.09.15.07.24s-.16-.11-.15-.23l0,0c-.44.38-1-.75-1.36-.21l0,0-.36.28c-.17,0,.1-.19,0-.35-.39.43-.61-.06-.93.22-.25-.76-.88.05-1.21-.43l0,.18c-.09.17-.1-.1-.17-.14,0,.14.09.16,0,.26-.73.21-1.51-.26-2.26-.42-.27,0-.16.92-.5.5L50,2c-.55.4-1.13,0-1.68.32,0-.08,0-.18.09-.17-.11-.24-.42,0-.43.18-.08,0,0-.18-.07-.28s-.29.31-.35.07c0,0,0-.08.05-.1s-.35,0-.28.25c-.2-.13-.39.12-.55,0-.11.31-.35-.15-.38.29,0-.45-.36-.36-.49-.15,0-.14-.11-.14-.06-.33a.25.25,0,0,0-.26.32c-.27-.54-.54.44-.7-.26a5.42,5.42,0,0,1-1.23.51c0-.45.43,0,.42-.52-.37.19-.59.57-1,.46-.1-.06.05-.2.09-.27-.37.19-.72,0-1.05.2a.21.21,0,0,1,.07-.12c-.07,0-.15-.07-.14.14l.06-.06c.1.3-.26.62-.27.78.11-.59-.33-.15-.15-.89a.34.34,0,0,0-.09.27c-.06,0-.08-.12,0-.28-.23.11-.15.33-.36.33,0-.1,0-.14.07-.25-.11.19-.22.39-.39.3,0-.06,0-.14,0-.14-.31,0-.52.52-.86.33.1-.43-.11-.14-.13-.52l-.18.11.07.18c-.16,0-.3.27-.44.14l.12-.15-.3.07.17.14c-.16.19,0,.47-.19.37,0,0-.16,0-.24-.22h0c-.08.12-.16.24-.28.15s0-.41,0-.49c-.08.31-.37.09-.47.42a.82.82,0,0,0,0-.31l-.07.25c-.07-.08-.08-.12-.07-.28-.22,0,.07.47-.19.27,0,0,0-.06.05-.1-.26-.11-.51.16-.75,0-.07-.38.21-.09.13-.41-.35.07-.72.45-1.06.36l.06,0c0,.53-.25-.26-.42,0a.5.5,0,0,0,0-.24c-.23-.09-.47.13-.82.3l0-.14c-.14-.12-.36-.07-.51-.13,0,.14-.13.11-.08.31-.45-.78-.87.42-1.27-.23,0,0,.12-.12.08-.12l-.34.13c0,.23,0,.14.12.32s-.14.24-.23.24c.15-.15,0-.37-.07-.5,0,.07,0,.15,0,.22-.18-.41,0,.46-.28.19V3.24c-.09.06-.18.22-.28.19,0-.27.1-.12.1-.34-.14,0-.27.51-.4.24.06-.07.14-.08.2-.15-.14-.31-.15-.23-.25-.28h0l-.24-.14.06.09c-.17.7-.35.13-.59.58.23-.43,0-.25.06-.55-.06-.08-.15-.18-.12-.26-.11.24-.18-.19-.34.16,0-.1-.12,0-.09-.25-.14.08,0,.17,0,.29-.22.33-.52-.4-.84.05-.28.19-.33.52-.58.68-.09-.16.07-.36.07-.36s-.24-.12-.37,0a.4.4,0,0,0,0-.27c-.11,0-.07.36-.21.21a2.11,2.11,0,0,1,.11-.39c-.12.09-.25.27-.37.36,0-.17.08-.26.12-.37-.14.08-.37.15-.42.42l.09.1c-.05,0,0-.23,0-.28.12-.21.18.09.19.19l-.09.06c.09.57.37-.09.55-.06l-.08.42.19-.35c0,.11.07.34,0,.4.13.21.12-.15.23.08a.07.07,0,0,1,0,.07l.13-.12c0,.09,0,.29-.06.23.23.24.37-.31.46,0l0,0c.32-.14,0-.31.27-.66l.16.75,0-.31s.1,0,.09.16c.12-.21,0-.13.05-.33.16.28.44-.13.48.36.06-.23-.15-.18,0-.34,0,.52.2-.09.34.15,0,.27-.18.13,0,.37.09-.46.28.1.41,0,0-.36.27-.15.47-.27,0,.12.39.2.58.33V4.2c0-.37.23-.3.38-.37a.58.58,0,0,1-.11.4h.14A.3.3,0,0,1,33.21,4l0,.27c.18,0,.36-.32.59-.14,0-.26-.18-.71.06-.88,0,.14,0,.38,0,.43s.07-.11.12-.06l-.1.23c.11.1.06-.19.14-.17,0,.2.06.14.05.3s-.07-.08-.11,0a.45.45,0,0,1,.25.3c0-.11,0-.27.07-.29s.06.24.17.34c0-.14.16,0,.16-.29.05,0,.06.14.08.22.09-.13.44,0,.33-.35l0,0h0c.31-.29.63.17.94,0V4c.18-.11.4-.07.53-.28.05,0,.13.18.1.3.14-.07.15-.19.35,0-.14.17,0,.15-.14.13.18.09.22.24.41,0-.07.25.14.32.22.24l-.13-.18a.41.41,0,0,1,.27,0l0,.33c.37.4.66-.69.94,0,.1-.23-.2-.16-.11-.44.17,0,.35.52.4.52.23.18.22-.49.46-.36,0-.12-.06-.44.12-.55.17,0,.21.5.1.59s-.06,0-.06-.07a.15.15,0,0,0-.06.22l0-.12c.08.12.32.11.26.3.13-.11.05-.19,0-.26.22.17.34,0,.56.12,0-.07-.07-.2,0-.2.33.15.14-.23.37-.28.13.18,0,.43.18.28.14.12,0,.31,0,.41.2-.23.38.15.5.19l-.11.1a.21.21,0,0,1,.17-.05L41,4.69c.06,0,.12,0,.12.14.06-.16,0-.39.08-.61.08.12.26-.13.28.19-.26-.11,0,.32-.19.37a.12.12,0,0,1,.16,0,.09.09,0,0,1,0,.08c.25.28.12-.36.38-.35,0,.18.06.34.1.3s-.05-.3,0-.43c.17.14.18-.1.27-.09l-.1-.06c0-.18.12-.15.24-.21,0,.14-.11.1-.06.16.13-.31.29.32.48.11.08.12,0,.33.08.42.2-.23.22.24.43.05-.06-.24-.07-.18.08-.41L43,4.52l.23-.35c-.11,0-.22.15-.29.11.11-.19.1-.14,0-.33.14.36.29-.21.46,0v.59c.25.26.45-.3.77-.15l-.11-.1c0-.23.2,0,.31-.13a.76.76,0,0,0,.1.39c0-.15.24,0,.27-.38l.15.26c.26.11.3-.56.56-.5-.08.21,0,.35-.13.51.08,0,.16,0,.16-.1,0,.12.24-.27.31-.08,0-.09,0-.29.14-.28a.27.27,0,0,1,0,.1c0-.1.15-.13.07-.35.26.62.73,0,1,.48a2.55,2.55,0,0,1,.58-.14c0,.06,0,.1,0,.08.23.18.14-.57.41-.36s-.14.17-.06.29c0,.65.32-.09.5.29l0,0c.14.22.33-.25.55-.2a.29.29,0,0,0,0,.1,1.09,1.09,0,0,1,.65-.53c-.07.25-.1.13-.06.39.1,0,0-.41.16-.49a1.21,1.21,0,0,1,.22.54h-.18c.09.36.23,0,.33,0v.16c.28-.05.28-.44.58-.42l0-.12c.16-.39.14.22.3-.07l0,.39a2.54,2.54,0,0,1,.57-.46,2.09,2.09,0,0,1-.47.62c.11,0,.36,0,.42-.22,0,0-.1.13-.14.07.13-.31.3-.46.51-.46,0,.77.55.19.7.79.37-.28.74.12,1.18.08-.15-.6.13,0,.1-.63.1,0,.14,0,.15,0l.31.37c.07.18-.1.13-.09.27.22,0,.09.26.24.42,0-.22.08-.31.2-.23l-.18-.28c.31-.33.27.51.58.19l-.1.19c.16-.11.59,0,.75-.49,0,.07.07.24,0,.28.38.07.85-.52,1.15-.22l0,.15c.07,0,.12-.28.21-.13s0,.15,0,.16.19-.26.28-.17l-.08.17c.37.2.57-.41.89-.51a.67.67,0,0,0,.44.65v.06c.44.05.74-.36,1.14-.54.25.48.85.2,1.25.47A.41.41,0,0,1,61,4.48c.09.09.26-.31.25.1h0c.07.4.27.29.42.3l0-.53c.4.77,1-.28,1.25.41.1-.13.21-.13.31-.26v.28a1.25,1.25,0,0,0,.72,0l-.07.2c.18,0,.23-.82.4-.83l.05.42c.32,0,.65.36,1,0,0,.06,0,.18-.07.2.15,0,.59.29.53-.29,0,.38.33,0,.51-.13l0,.28c.15-.36.15-.45.36-.55,0,0,0,.22,0,.15.16.15.13-.26.32-.12l-.07.18c.17,0,.15-.07.25-.28s.32.07.34.32c0-.15.11-.36.21-.29a.26.26,0,0,1,0,.18c.28.19.41-.32.61-.05a.37.37,0,0,0,0,.17,1,1,0,0,1-.38,0c0,.26.18.3,0,.66.14-.19.39-.61.56-.49a.49.49,0,0,1,0,.09l0,0s.08,0,.11,0a.28.28,0,0,0,.14.08c0,.21.21.11.29.12,0-.28.11-.24,0-.47,0,0,0,0-.08,0l0,0v0l-.22,0c.07-.14.14-.26.24-.11,0-.18.1-.37.12-.45.12.39.36.6.39.85.27-.16.64-.1.81-.63.08-.07.09.15.12.23s-.1,0-.12.12c.15-.14.46-.05.5-.42.2.17-.11.34.16.28l0,.11c.53.59.86-.94,1.44-.18A.21.21,0,0,1,72.21,4c.67.33,1.37-.31,2,.22.19.11.21-.13.32-.31l0,.3.2-.35c.28-.26.48.74.83.26l0-.2c.13,0,.4-.12.38.11,0,0,0-.21.09-.11v.16l.31-.27c.24.11,0,.63.31.66.13-.06.37-.46.32-.57s-.13-.1-.14-.26L77,3.59c0-.47.11-.94-.18-1.27l-.2.28-.07-.23h.17c-.1-.21-.16,0-.23.1a.48.48,0,0,0-.09-.25l-.2.44c0-.18.09-.36,0-.46-.09.21.09.41-.07.54-.1-.21-.07-.38-.18-.2a.3.3,0,0,1,.05-.25c-.1.14-.27.06-.32.31-.1-.26-.34.07-.33-.37,0,.11-.18.35-.27.36.17-.53-.35,0-.3-.6-.13.47-.46.21-.68.47,0,0,0-.11.06-.09s-.16-.18-.24-.27c0,.39-.21.48-.32.72-.15-.38.09-.46,0-.82,0,.32-.27.32-.22.58a.86.86,0,0,1-.16-.44c0,.49-.11.08-.21.38-.17-.24,0-.46-.23-.31C72.67,2.08,72.84,1.9,72.84,1.9Zm-4.46.85h0l.09,0Zm-.37,0h.16c0,.1,0,.2,0,.19S68.06,2.84,68,2.76ZM68.8,4.7c-.06,0-.08,0-.09-.07l.1,0v0A.82.82,0,0,1,68.8,4.7Z"/><path class="cls-4" d="M68.91,4.33l0,0,0-.06,0,.09Z"/><path class="cls-4" d="M34.95,3.92h0l0,0Z"/><polygon class="cls-4" points="62.84 2.22 62.84 2.29 62.87 2.23 62.84 2.22"/><path class="cls-4" d="M32.89,3a.17.17,0,0,0,0-.07A.22.22,0,0,0,32.89,3Z"/><path class="cls-4" d="M32,2.89l-.13-.1A.47.47,0,0,0,32,2.89Z"/><path class="cls-4" d="M31.31,2.75a1,1,0,0,0,0,.12h0Z"/><path class="cls-4" d="M42.21,2.42h0C42.29,2.35,42.25,2.37,42.21,2.42Z"/><path class="cls-4" d="M39,3.08a.72.72,0,0,1,.1-.13C39,2.92,39,2.92,39,3.08Z"/><path class="cls-4" d="M45.83,2.08h0Z"/><path class="cls-4" d="M39.22,2.95a.1.1,0,0,0-.15,0S39.17,3,39.22,2.95Z"/><path class="cls-4" d="M28.34,2.62h0a.18.18,0,0,1,0,0Z"/><path class="cls-4" d="M28.3,2.66l0,0S28.3,2.69,28.3,2.66Z"/><path class="cls-4" d="M28.19,2.76l.08-.07S28.21,2.68,28.19,2.76Z"/><path class="cls-4" d="M29.25,2.75v-.1A.47.47,0,0,0,29.25,2.75Z"/><path class="cls-4" d="M29.52,2.72c-.07,0-.16-.22-.26-.15v.08C29.3,2.5,29.46,2.9,29.52,2.72Z"/><path class="cls-4" d="M30.67,4l-.23-.08c0,.11.09.25,0,.28C30.72,4.51,30.37,3.94,30.67,4Z"/><path class="cls-4" d="M31.39,4.14c-.12.05,0,.16,0,.22C31.46,4.26,31.48,4.24,31.39,4.14Z"/><path class="cls-4" d="M36.57,4.14V4.4C36.65,4.36,36.55,4.3,36.57,4.14Z"/><polygon class="cls-4" points="37.55 2.82 37.46 2.66 37.42 2.9 37.55 2.82"/><polygon class="cls-4" points="38.14 4.64 38.1 4.68 38.26 4.59 38.14 4.64"/><path class="cls-4" d="M46.83,4.55l0-.31C46.74,4.29,46.73,4.65,46.83,4.55Z"/><path class="cls-4" d="M50.59,4.23c0,.16.15.26.21.1S50.63,4.19,50.59,4.23Z"/><polygon class="cls-4" points="61.84 4.74 61.77 4.85 61.91 4.76 61.84 4.74"/><polygon class="cls-4" points="76.9 5.6 75.3 5.2 74.07 6.3 73.95 4.66 72.53 3.83 74.05 3.2 74.4 1.59 75.47 2.85 77.11 2.69 76.24 4.09 76.9 5.6"/><path class="cls-4" d="M76.29,5.86c.08,0,.26-.11.21-.12l-.31.12Z"/><path class="cls-4" d="M76.79,5.47a3.37,3.37,0,0,0-.7.26c.3-.1.18,0,.54-.17,0,0-.08.08-.19.13.08,0-.05.06.14,0s.22-.17,0-.12A1.48,1.48,0,0,1,76.79,5.47Z"/><path class="cls-4" d="M77.08,3.61h0Z"/><path class="cls-4" d="M76.39,2.11s0,0,0-.07A.13.13,0,0,0,76.39,2.11Z"/><path class="cls-4" d="M76.17,1.76v0S76.17,1.74,76.17,1.76Z"/><path class="cls-4" d="M77.08,3.61l.11,0C77.1,3.57,77.11,3.61,77.08,3.61Z"/><path class="cls-4" d="M75.93,5.5l.09,0h0Z"/><path class="cls-4" d="M77.12,4h0l.14,0Z"/><path class="cls-4" d="M77.18,4.28l-.42,0H77Z"/><path class="cls-4" d="M76.93,4.94h0Z"/><path class="cls-4" d="M77.28,3.91l.1,0Z"/><path class="cls-4" d="M76.66,4.18v0A.24.24,0,0,0,76.66,4.18Z"/><polygon class="cls-4" points="76.88 5.67 76.87 5.68 76.83 5.83 76.88 5.67"/><path class="cls-4" d="M76.09,1.41h0S76.1,1.39,76.09,1.41Z"/><path class="cls-4" d="M72.9,2.42c.16.21.14.29.32.52A5.08,5.08,0,0,0,72.9,2.42Z"/><path class="cls-4" d="M76,5.47v0S75.94,5.47,76,5.47Z"/><polygon class="cls-4" points="73.22 2.93 73.22 2.94 73.24 2.96 73.22 2.93"/><path class="cls-4" d="M75.85,1.45l-.09.09Z"/><path class="cls-4" d="M75.82,2V2A.13.13,0,0,0,75.82,2Z"/><path class="cls-4" d="M75.34,1.45s0,0,0,0l0,0S75.37,1.42,75.34,1.45Z"/><path class="cls-4" d="M75.07,1.14l0,0h0Z"/><path class="cls-4" d="M74.72,4.13a2.22,2.22,0,0,1,.11.24C74.76,4.17,74.81,4,74.72,4.13Z"/><path class="cls-4" d="M76.07,5.43l-.12,0h0Z"/><path class="cls-4" d="M73.63,2.87V2.8A.08.08,0,0,0,73.63,2.87Z"/><path class="cls-4" d="M75.06,4.12h0S75.09,4.11,75.06,4.12Z"/><path class="cls-4" d="M73.46,2.67a1,1,0,0,0,.12-.15l-.06,0Z"/><path class="cls-4" d="M74.84,4.37h0Z"/><path class="cls-4" d="M75.37,3.58c-.12,0,0,.37,0,.59s-.1-.3-.18-.52c-.07.08-.06.44-.12.41a.66.66,0,0,1,0-.17A.18.18,0,0,1,75,4c0,.14-.17.11-.12.46l0-.09c.08.18.14.37.19.51s0,.28-.06,0c0,0,0-.11,0-.19v.13c-.16-.32,0-.16-.1-.42,0,.18,0,.52-.06.46-.16-.31.07-.21-.13-.44l.13.06c-.27-.47.07,0-.22-.52-.17,0-.07.29-.23.3.06.2.14.25.21.44,0,.42-.57-.63-.45-.13.1.22.35.57.13.46L74,4.74c-.14.07.28.49,0,.37C73.94,5,74,5,74,4.93c-.27-.16.11.2.07.23l-.23-.25c0,.1.05.35,0,.47a1.08,1.08,0,0,0-.21-.23c0,.21-.24.15-.46.09l.07.11,2.11.85h-.16a.45.45,0,0,1,.19,0c.11-.06-.19,0-.3,0s.17,0,.25,0c-.25-.07-.55-.21-.25-.32h.09c.11-.08-.61,0-.34-.12h.05c.06-.08,0-.16,0-.24s0-.22.24-.35c-.42.05.17-.31-.41-.16.28-.22.38-.21.56-.51,0-.07-.36.06-.43,0l.3-.14-.32.06.35-.23-.08,0a.62.62,0,0,1-.22.17c-.11,0,.07-.21.22-.36l.1-.09-.45,0A.87.87,0,0,1,75,3.77c-.39.13.26-.22-.1-.1a1.41,1.41,0,0,1-.22.16c.11-.15,0-.23-.17-.22l.18-.14c-.13-.14-.43-.13-.61-.24a.69.69,0,0,1-.3.41L74,3.35c-.15.15,0,.13-.23.3,0-.06.16-.33.27-.4l-.14,0a2.38,2.38,0,0,1,.17-.22c-.14.15,0-.37-.18-.08l0-.09c-.1-.06-.2,0-.3,0-.14.24-.14.17-.28.35,0-.11,0-.34-.06-.37s-.14.2-.24.33c.13-.22,0-.25.17-.38h-.1L73,4.9A.64.64,0,0,0,73,4.64a.92.92,0,0,1-.11-.21s.09.08.13.19v0c0-.41.59.56.5,0V4.4c.07,0,0,.19.14.32,0-.46.35-.08.37-.39.27.3.4.23.5.14s.17-.21.45-.06l-.15-.13c-.09-.15.14.05.21.07-.12-.1-.18-.1-.23-.18A.35.35,0,0,1,75,4c.07-.33.46-.5.68-.88.09-.17-.86-.38-.41-.45l.31.14c-.15-.25-.14-.29-.1-.39a.22.22,0,0,0-.08-.3c.07,0,.17,0,.16.07.24,0,0-.14-.15-.18,0,0,.17,0,.28,0s-.28-.16,0-.13a.23.23,0,0,1,.09,0c-.09,0,0-.09-.12-.12l-2.23.55h0l2.15-.53-2.14.53,2.12-.53h0l-2.06.51h0v0l.05,0s.08,0,0,.09c.26-.17,0,.18.3-.09-.35.29-.2.33,0,.22-.11.08-.08.12-.24.23,0,0,.13,0,.3-.14-.35.42.44-.15,0,.35a4.54,4.54,0,0,1,.79.14c-.28.37-.17-.14-.47.24.27,0,.56-.22.62,0s-.12.16-.17.22c.18,0,.23.21.35.26a.56.56,0,0,0,.16-.12.49.49,0,0,1-.09.13s.06.06.13-.15l-.05.06a6.63,6.63,0,0,1,.4-.82c-.24.61.1.14-.2.91a.74.74,0,0,0,.12-.29s0,.12-.06.28c.16-.13.16-.35.27-.35a2.56,2.56,0,0,1-.09.26c.1-.2.18-.41.25-.33s0,.14,0,.14c.17,0,.28-.55.43-.37,0,.44.06.14.09.51a1,1,0,0,0,.08-.12c0-.06,0-.12,0-.18s.08-.27.14-.16l0,.16.09-.08-.07-.14c0-.2-.05-.47,0-.37s.05,0,.1.22h0c0-.12,0-.25.08-.16s0,.41,0,.49c0-.31.11-.1.11-.43a2.42,2.42,0,0,0,0,.31V3.12a.72.72,0,0,1,.05.27c.08,0-.07-.47,0-.27a.77.77,0,0,1,0,.1c.07.07.12-.06.18-.09l-.42-.67s0,0-.06,0c-.33-.18,0-.11-.32-.25,0,.13.26.44.12.49h0c.44.29-.27-.07-.08.11a1.43,1.43,0,0,0-.19-.14c-.11,0,0,.2.11.39L76.24,3c-.12,0-.13.08-.23.11.11.08.07.1.26.17-.4-.09-.37.06-.3.17s.17.22-.21.22c0,0-.09-.07-.1-.06l0,.17a2.32,2.32,0,0,0,.36,0c.13,0,.23.09.21.12a1.25,1.25,0,0,0-.55-.06l.24,0c-.49,0,.5.08.15.11L76,4l.15.07s.06,0,0,0c-.29,0-.15,0-.4-.06,0,.06.61.12.33.15-.09,0-.1-.05-.2-.07-.32,0-.23.05-.27.09h0l-.11.11.08,0c.77,0,.2.14.71.17-.48,0-.26,0-.58.06a.62.62,0,0,1-.25.1c.27,0-.15.13.23.12-.1,0,0,.06-.23.1.11.05.16-.06.28-.08.36,0-.28.36.21.34.21,0,.52-.11.7-.09a1,1,0,0,1-.33.12c-.11.1-.07.12,0,.12a1.14,1.14,0,0,0-.24.12s.33-.12.22,0L76,5.48c.1,0,.28,0,.38,0a1.39,1.39,0,0,1-.35.11.68.68,0,0,0,.44,0l.08-.07a.87.87,0,0,1-.26.11c-.21,0,.06-.09.15-.13h.07c.51-.26-.13-.08-.13-.14l.39-.14-.34.08a1.22,1.22,0,0,1,.37-.15c.17-.12-.15,0,0-.1l.07,0h-.13c.08,0,.27-.12.22-.08.19-.17-.34,0-.06-.14h0c-.17,0-.28.12-.65.18L77,4.59l-.29.1s0,0,.14-.07a3.2,3.2,0,0,0-.32.09c.25-.12-.19-.1.29-.22-.24,0-.16.08-.34.07.52-.12-.11,0,.11-.12s.15,0,.38,0c-.48,0,.08-.07,0-.08-.38,0-.19,0-.34-.09a.45.45,0,0,0,.22-.07l.14,0H77c-.4,0-.3-.08-.36-.13l.42.09v0A.59.59,0,0,1,76.9,4l.28.06s-.29-.14-.08-.13a3.48,3.48,0,0,1-.86-.29,2.66,2.66,0,0,1,.41.15s-.1-.06,0,0l.21.1c.11,0-.18-.08-.15-.09.19.07.14,0,.29.09s-.09,0,0,0a.85.85,0,0,1,.32.06A1.2,1.2,0,0,1,77,3.78s.23.08.33.11c-.12-.06,0,0-.25-.15a1,1,0,0,1,.2.09c-.11-.07,0-.09-.27-.23h0c-.2-.23.25-.09.2-.24l.08.05c-.06-.11,0-.15-.14-.3a.72.72,0,0,1,.27.13c0-.08-.13-.14,0-.11s.14.07.08.11c.1,0,.25.07,0-.13.2.15.29.13.25.07l-.18-.06a0,0,0,0,1,0-.05l.79-.52L77,2l0,0,0-.33c-.16-.39-.15.71-.31,0,0,.23.08.16.08.43a3.62,3.62,0,0,1-.18-.51c-.1-.18,0,.49-.12.37a1.43,1.43,0,0,1,0,.55A1.26,1.26,0,0,1,76.38,2s0,0,0,.07a.33.33,0,0,0,0-.22v.12c0-.12-.12-.1-.12-.29a.3.3,0,0,0,0,.25c-.09-.16-.12,0-.15-.11a1.52,1.52,0,0,1,0,.2c-.06-.14,0,.23-.07.29,0-.18,0-.44,0-.28a2.5,2.5,0,0,1,0-.42c0,.23,0-.15,0-.19l0-.1c0,.06,0,.06,0,.06l0,.24a.61.61,0,0,1,0-.14c0,.16-.06.4-.12.62,0-.12-.08.14,0-.19,0,.11.08-.33.11-.38s0,0,0,0l0-.09c.06-.29-.1.37-.13.36a3,3,0,0,0,.09-.31s-.09.31-.15.45c0-.14-.07.11-.08.09v.07c-.07.16-.08.17-.12.21h0a.47.47,0,0,1,0-.1.14.14,0,0,0,0-.06l0,.05c-.1.16.13-.41,0-.23.05-.13.16-.33.2-.41-.13.2.12-.24,0-.08a2.19,2.19,0,0,1-.24.36l.12-.12L75.64,2s.11-.11.09-.06a1.47,1.47,0,0,0-.18.31c.17-.35-.16.14-.05-.11l.34-.51c.14-.24-.22.21-.16,0l-.06.09c-.16.17,0,0-.12.05l.27-.29c-.11.1,0,0-.31.23a2.35,2.35,0,0,0,.17-.2c0-.14-.49.29-.5.18.18-.12.26-.24.42-.29,0,0,0-.07-.11,0,.08-.09-.25.11-.13,0-.07,0-.23.18-.24.14l.07-.06a1.1,1.1,0,0,0-.28.21c.41-.46-.19-.16.16-.56h-.12L73.56,1l.2.42a.32.32,0,0,1,0,.11c-.06,0-.1,0-.07,0-.2,0,.54.17.32.21s-.16-.08-.28-.08c-.64-.13.06.12-.32.1l0,0c-.23,0,.22.16.16.22l-.1,0a1,1,0,0,1,.47.33,1.45,1.45,0,0,0-.38-.1s.41.08.46.16a2.35,2.35,0,0,1-.53-.08v0c-.35-.07,0,0-.06,0l-.15,0s.41.18.37.24l.11,0c.35.2-.21-.06,0,.1l-.37-.17a1.85,1.85,0,0,1,.39.36c-.26-.2-.38-.32-.54-.42s0,.06.19.18c0,0-.12-.09-.06-.07.28.19.4.33.38.38-.44-.32-.39-.24-.44-.24a1,1,0,0,1-.29-.21c.18.23-.17-.06-.16,0,.37.49,0,0,.35.54,0,0,0,0,0,0a3.28,3.28,0,0,1-.24-.3c-.09-.15-.05-.12-.12-.24A2.71,2.71,0,0,1,72.65,2c.1.19.14.28.1.21l.13.25c.09.32-.19-.48-.17-.14l0-.19c0,.13-.18.07,0,.55a.8.8,0,0,1-.11-.26c-.15,0-.07.59-.27.35l0-.14s.07.28,0,.15a.6.6,0,0,0-.06-.15.65.65,0,0,1,0,.2l-.87,2.07L72,4.73s0,0,0,0l-.11.13c0,.23.37-.26.51-.29a1,1,0,0,0-.2.64l0,.05c.09.12.41-.18.59-.28-.23.42,0,.22-.19.43a3.33,3.33,0,0,1,.3-.28c-.06.07.27-.19-.05.08h0c-.31.28-.22.21-.22.22l.46-.34c-.22.19-.25.22-.21.21s.31-.08-.11.13A2.17,2.17,0,0,1,73,5.39l-.28.11c-.07,0-.1.06,0,.06l-.2,0a5.67,5.67,0,0,1,.83-.13l-.42.07s-.35.15,0,.23a.66.66,0,0,1-.2,0c0,.05-.27.22.31.15-.38,0,0,.11.14.16h-.28c.36,0,.46,0,.56.08s-.22,0-.15,0c-.14.06.27,0,.12.1h-.18c0,.06.08,0,.29.06h0l.84.59V6.67c0-.06.15,0,.31.19-.1-.12-.21-.29-.14-.26a.69.69,0,0,1,.11.15c.2.08-.11-.33.12-.17l.12.12c-.06,0-.11.07-.12.05a2.9,2.9,0,0,1,.45.48c-.09-.18-.31-.55-.19-.49l.06.06v0s0,0,0-.06.07,0,.09,0c.15.15.13,0,.16,0-.19-.21-.13-.2-.31-.35,0,0,0,0,0,.05a.07.07,0,0,0,0,0v0l0,.06c-.08-.12-.14-.23,0-.13l-.27-.37c.29.27.49.37.66.55a2.07,2.07,0,0,0-.28-.6c0-.07.1.12.15.18a.6.6,0,0,0,.05.12,1.42,1.42,0,0,0-.14-.44c.11.12.15.33.16.24l0,.11c.14.21.09.08,0-.13s-.07-.47,0-.41a1,1,0,0,1,.1.22,1.21,1.21,0,0,1,0-.14c.11.2.15.13.22.09s.17,0,.18.23c0,.11.06-.12.13-.29l-.06.3.15-.32c.15-.23,0,.76.21.32l0-.2s.16-.08.09.14c0,0,.06-.2.05-.1l0,.15.16-.24c.05.13-.16.61-.06.66A1.66,1.66,0,0,0,76.8,6s0-.11,0-.26l.06-.07a4.84,4.84,0,0,0,.24-1.25L77,4.7l0-.22h.06c0-.21,0,0-.1.08a1.21,1.21,0,0,0,0-.25l-.17.42a1.8,1.8,0,0,0,.1-.45c-.08.19-.07.4-.15.52,0-.21.07-.38,0-.21a.8.8,0,0,1,.08-.24c-.07.13-.1,0-.18.27,0-.26-.13,0,0-.39a1.13,1.13,0,0,1-.17.33c.18-.5-.11-.06,0-.6-.13.46-.3.14-.45.38,0,0,0-.11,0-.08S76,4,76,3.95a3.28,3.28,0,0,1-.21.69c-.07-.41.06-.46,0-.84,0,.32-.16.29-.13.57a2.14,2.14,0,0,1-.1-.48c0,.51-.06.07-.09.37-.11-.28-.07-.49-.16-.36A.42.42,0,0,1,75.37,3.58ZM73.89,5.46h0v0Zm-.09.09,0,0c.07.07.13.15.12.15A.66.66,0,0,0,73.8,5.54Zm1.49,1.28s0,0-.07,0a.11.11,0,0,0,0,0l0,0Z"/><path class="cls-4" d="M75.07,6.52v0l-.05,0,.05.07Z"/><path class="cls-4" d="M77,3.6h0l0,0Z"/><polygon class="cls-4" points="75.21 4.3 75.14 4.33 75.2 4.32 75.21 4.3"/><path class="cls-4" d="M75.72,3.88h0Z"/><path class="cls-4" d="M75.63,4.23l-.08.06Z"/><path class="cls-4" d="M75.62,4.54h0Z"/><path class="cls-4" d="M75.09,4h0C75,4,75,4,75.09,4Z"/><path class="cls-4" d="M76.63,3.16a1.15,1.15,0,0,1,0,.14S76.64,3.32,76.63,3.16Z"/><polygon class="cls-4" points="73.64 2.88 73.64 2.88 73.64 2.87 73.64 2.88"/><path class="cls-4" d="M76.56,3.29c0,.05,0,0,.05,0S76.57,3.25,76.56,3.29Z"/><path class="cls-4" d="M76,5.69h0l0,0Z"/><path class="cls-4" d="M76,5.69h0Z"/><path class="cls-4" d="M76.13,5.68h-.08S76.05,5.71,76.13,5.68Z"/><path class="cls-4" d="M76,5.36l-.09,0Z"/><path class="cls-4" d="M75.92,5.29s-.18.14-.11.14l.08,0C75.74,5.45,76.08,5.24,75.92,5.29Z"/><path class="cls-4" d="M76.95,4.51l-.06.07a.82.82,0,0,1,.27-.08C77.45,4.35,76.93,4.58,76.95,4.51Z"/><path class="cls-4" d="M77,4.33a.85.85,0,0,0,.23,0A.61.61,0,0,0,77,4.33Z"/><path class="cls-4" d="M77.51,3.26l.22.14S77.64,3.35,77.51,3.26Z"/><polygon class="cls-4" points="77.12 3.37 77.17 3.52 77.16 3.29 77.12 3.37"/><polygon class="cls-4" points="76.75 1.57 76.76 1.54 76.71 1.63 76.75 1.57"/><path class="cls-4" d="M75.3,1l-.23.21C75.13,1.22,75.4,1,75.3,1Z"/><path class="cls-4" d="M73.48,2.37c-.15-.05-.25-.08-.1,0S73.52,2.4,73.48,2.37Z"/><polygon class="cls-4" points="72.73 5.39 72.64 5.45 72.72 5.4 72.73 5.39"/></g></g></svg>