<svg xmlns="http://www.w3.org/2000/svg" viewBox="0 0 847.03 1242.32"><defs><style>.cls-1,.cls-2{fill:none;stroke:#231f20;}.cls-1{stroke-miterlimit:10;stroke-width:30px;}.cls-2{stroke-linecap:round;stroke-linejoin:round;stroke-width:9px;}</style></defs><title>or</title><g id="Layer_2" data-name="Layer 2"><g id="Layer_1-2" data-name="Layer 1"><rect class="cls-1" x="15" y="15" width="817.03" height="1212.32"/><path class="cls-2" d="M219.13,620.41c.59-.59-17.08-15.91-16.5-16.5,1.28-1.28,48.39-12.81,49.66-14.09,3.8-3.8-111.52-103.92-107.72-107.72,4.17-4.17,142.48,87.08,146.65,82.91C296.6,559.65,132.81,417.33,138.18,412c6-6,193.35,141.58,199.32,135.62,6.67-6.67-198.31-185-191.64-191.64,7.5-7.5,236.47,187.57,244,180.07C397.77,528.07,155,317,162.91,309.1c9.1-9.1,280.86,235.06,290,226,9.38-9.38-277.15-258.4-267.78-267.78,11.37-11.37,343.7,302.63,355.06,291.27S200.92,242.21,212.37,230.76c14.12-14.12,420.09,384.43,434.21,370.3S232,214.58,246.07,200.55c13.82-13.82,411.69,375.61,425.51,361.79,13.59-13.59-402.06-374.88-388.47-388.47C296.39,160.6,679.71,533,693,519.74c12.75-12.75-377-351.53-364.28-364.28,12.12-12.12,364.6,324.85,376.72,312.73,11.42-11.42-337-314.18-325.6-325.6,10.46-10.46,318.44,275.66,328.89,265.21,9.4-9.4-277.87-259.07-268.47-268.47C448.06,131.52,685.18,336.2,693,328.39c6-6-180-167.91-174-174"/><path class="cls-2" d="M243,644.33c.86-.86-24.31-22.6-23.45-23.45,4.11-4.11,140.94,85.37,145.05,81.25,3.94-3.94-115-107.1-111-111,5.33-5.33,175.55,122.38,180.88,117,5-5-148.22-138.22-143.22-143.22,6-6,193.7,141.77,199.68,135.79,5.38-5.38-160-149.26-154.64-154.64,6.1-6.1,197,145.46,203.13,139.37,5.21-5.21-155.58-145.15-150.37-150.37,5.66-5.66,184.81,132.25,190.47,126.59C584,657.21,447.75,538.78,452.2,534.33,456.95,529.58,611.29,639,616,634.23c2.64-2.64-77.91-72.62-75.26-75.26"/><path class="cls-2" d="M243.64,1040.29c1.4-1.4-42.22-39.42-40.82-40.82,4.69-4.69,157.24,102.87,161.93,98.18,7.73-7.73-228.52-213.05-220.78-220.78,9.11-9.11,281.13,235.48,290.24,226.37,10.37-10.37-305.89-285.15-295.52-295.52,11.25-11.25,340.66,299.26,351.91,288C502.65,1083.66,134.78,764,146.85,752c12.63-12.63,378.73,340.33,391.36,327.7C551.36,1066.52,149.8,717.6,163,704.44c13.49-13.49,402.63,365.76,416.12,352.27C592.9,1042.89,172,677.24,185.79,663.42c14-14,416.15,380.24,430.14,366.26S198.08,640,212.18,625.93s420.63,385.15,434.77,371c10.42-10.42-307.79-287-297.38-297.38,10.23-10.23,312.11,268.82,322.33,258.59,8.74-8.74-258.6-241.12-249.86-249.86,8.4-8.4,261.41,214.29,269.81,205.89,7.4-7.4-219.42-204.62-212-212,6.85-6.85,218.2,168.25,225.05,161.4,6.14-6.14-181.78-169.49-175.64-175.64,5.3-5.3,174.55,121.28,179.85,116,4.76-4.76-140.89-131.36-136.13-136.13,3.24-3.24,115.61,58.36,118.85,55.12,2.92-2.92-85-79.12-82-82"/><circle class="cls-1" cx="423.52" cy="818.81" r="285.28"/><circle class="cls-1" cx="423.52" cy="423.52" r="285.28"/></g></g></svg>