<?xml version="1.0" encoding="utf-8"?>
<!-- Generator: Adobe Illustrator 17.1.0, SVG Export Plug-In . SVG Version: 6.00 Build 0)  -->
<!DOCTYPE svg PUBLIC "-//W3C//DTD SVG 1.1//EN" "http://www.w3.org/Graphics/SVG/1.1/DTD/svg11.dtd">
<svg version="1.1" id="icon" xmlns="http://www.w3.org/2000/svg" xmlns:xlink="http://www.w3.org/1999/xlink" x="0px" y="0px"
	 viewBox="0 0 32 32" enable-background="new 0 0 32 32" xml:space="preserve">
<path id="shape_8_" d="M0.9,8.3l6.4,2.8l2.8-6.4L3.7,1.9L0.9,8.3z M3,21h7v-7H3V21z M31.2,6.9l0-7l-7,0l0,7L31.2,6.9z M3,30h7v-7H3
	V30z M12,21h7v-7h-7V21z M21,30h7v-7h-7V30z M12,30h7v-7h-7V30z M21.5,19.4l6.9,1.1l1.1-6.9l-6.9-1.1L21.5,19.4z M12.2,5l1.8,6.8
	l6.8-1.8L19,3.2L12.2,5z"/>
</svg>
