<?xml version="1.0" encoding="utf-8"?>
<!-- Generator: Adobe Illustrator 17.1.0, SVG Export Plug-In . SVG Version: 6.00 Build 0)  -->
<!DOCTYPE svg PUBLIC "-//W3C//DTD SVG 1.1//EN" "http://www.w3.org/Graphics/SVG/1.1/DTD/svg11.dtd">
<svg version="1.1" id="icon" xmlns="http://www.w3.org/2000/svg" xmlns:xlink="http://www.w3.org/1999/xlink" x="0px" y="0px"
	 viewBox="0 0 32 32" enable-background="new 0 0 32 32" xml:space="preserve">
<path id="shape_4_" d="M30.3,18.2L27,17.4c0,0-0.1,0-0.1-0.1c0.1-0.4,0.1-0.9,0.1-1.3c0-0.4,0-0.9-0.1-1.3c0,0,0.1,0,0.1-0.1
	l3.3-0.9c0.4-0.1,0.6-0.5,0.5-0.9l-0.4-1.5c-0.1-0.4-0.5-0.6-0.9-0.5l-3.2,0.9c0,0-0.1,0-0.2,0c-0.3-0.8-0.8-1.5-1.3-2.2
	c0,0,0-0.1,0.1-0.1l2.4-2.4c0.3-0.3,0.3-0.8,0-1.1l-1.1-1.1c-0.3-0.3-0.8-0.3-1.1,0l-2.4,2.4c0,0-0.1,0-0.1,0.1
	c-0.7-0.5-1.4-0.9-2.2-1.3c0-0.1,0-0.1,0-0.2l0.9-3.2c0.1-0.4-0.1-0.8-0.5-0.9l-1.5-0.4c-0.4-0.1-1,0.1-1.1,0.5L17,6v9h5l-6,7l-6-7
	h5V6l-1-4.3c-0.1-0.4-0.6-0.6-1-0.5l-1.6,0.4c-0.4,0.1-0.7,0.5-0.6,0.9l0.9,3.2c0,0,0,0.1,0,0.2c-0.8,0.3-1.5,0.8-2.2,1.3
	c0,0-0.1,0-0.1-0.1L6.9,4.8c-0.3-0.3-0.8-0.3-1.1,0L4.8,5.9c-0.3,0.3-0.3,0.8,0,1.1l2.4,2.4c0,0,0,0.1,0.1,0.1
	c-0.5,0.7-0.9,1.4-1.3,2.2c-0.1,0-0.1,0-0.2,0l-3.2-0.9c-0.4-0.1-0.8,0.1-0.9,0.5l-0.4,1.5c-0.1,0.4,0.1,0.8,0.5,0.9L5,14.6
	c0,0,0.1,0,0.1,0.1C5.1,15.1,5,15.6,5,16c0,0.4,0,0.9,0.1,1.3c0,0-0.1,0-0.1,0.1l-3.3,0.9c-0.4,0.1-0.6,0.5-0.5,0.9l0.4,1.5
	c0.1,0.4,0.5,0.6,0.9,0.5l3.2-0.9c0,0,0.1,0,0.2,0c0.3,0.8,0.8,1.5,1.3,2.2c0,0,0,0.1-0.1,0.1l-2.4,2.4c-0.3,0.3-0.3,0.8,0,1.1
	l1.1,1.1c0.3,0.3,0.8,0.3,1.1,0l2.4-2.4c0,0,0.1,0,0.1-0.1c0.7,0.5,1.4,0.9,2.2,1.3c0,0.1,0,0.1,0,0.2l-0.9,3.2
	c-0.1,0.4,0.1,0.8,0.5,0.9l1.5,0.4c0.4,0.1,0.8-0.1,0.9-0.5l0.9-3.3c0,0,0-0.1,0.1-0.1c0.4,0.1,0.9,0.1,1.3,0.1s0.9,0,1.3-0.1
	c0,0,0,0.1,0.1,0.1l0.9,3.3c0.1,0.4,0.5,0.6,0.9,0.5l1.5-0.4c0.4-0.1,0.6-0.5,0.5-0.9l-0.9-3.2c0,0,0-0.1,0-0.2
	c0.8-0.3,1.5-0.8,2.2-1.3c0,0,0.1,0,0.1,0.1l2.4,2.4c0.3,0.3,0.8,0.3,1.1,0l1.1-1.1c0.3-0.3,0.3-0.8,0-1.1l-2.4-2.4
	c0,0,0-0.1-0.1-0.1c0.5-0.7,0.9-1.4,1.3-2.2c0.1,0,0.1,0,0.2,0l3.2,0.9c0.4,0.1,0.8-0.1,0.9-0.5l0.4-1.5
	C30.9,18.8,30.7,18.3,30.3,18.2z"/>
</svg>
