<?xml version="1.0" encoding="utf-8"?>
<!-- Generator: Adobe Illustrator 17.1.0, SVG Export Plug-In . SVG Version: 6.00 Build 0)  -->
<!DOCTYPE svg PUBLIC "-//W3C//DTD SVG 1.1//EN" "http://www.w3.org/Graphics/SVG/1.1/DTD/svg11.dtd">
<svg version="1.1" id="icon" xmlns="http://www.w3.org/2000/svg" xmlns:xlink="http://www.w3.org/1999/xlink" x="0px" y="0px"
	 viewBox="0 0 32 32" enable-background="new 0 0 32 32" xml:space="preserve">
<path id="shape" d="M14,19.4L12.6,18L6,24.6L7.4,26L14,19.4z M8.3,28.6C7,30,4.7,30,3.4,28.6C2,27.3,2,25,3.4,23.7l2.8-2.8l-1.7-1.7
	L1.7,22c-2.3,2.3-2.3,6,0,8.3s6,2.3,8.3,0l2.8-2.8l-1.7-1.7L8.3,28.6z M18.3,13.7c-2.3-2.3-6-2.3-8.3,0l-2.8,2.8l1.7,1.7l2.8-2.8
	c1.4-1.4,3.6-1.4,4.9,0c1.4,1.4,1.4,3.6,0,4.9l-2.8,2.8l1.7,1.7l2.8-2.8C20.6,19.7,20.6,16,18.3,13.7z M18,8V4.7
	C18,2.2,15.4,0,12.4,0H0v2h12.6C14.3,2,16,3.4,16,5.1V8H0v10h2v-8h28v16H18v2h14V8H18z"/>
</svg>
