<?xml version="1.0" encoding="utf-8"?>
<!-- Generator: Adobe Illustrator 17.1.0, SVG Export Plug-In . SVG Version: 6.00 Build 0)  -->
<!DOCTYPE svg PUBLIC "-//W3C//DTD SVG 1.1//EN" "http://www.w3.org/Graphics/SVG/1.1/DTD/svg11.dtd">
<svg version="1.1" id="icon" xmlns="http://www.w3.org/2000/svg" xmlns:xlink="http://www.w3.org/1999/xlink" x="0px" y="0px"
	 viewBox="0 0 32 32" enable-background="new 0 0 32 32" xml:space="preserve">
<path id="shape_1_" d="M26,18v1h5v-1H26z M12.9,24.1c-1.5,1.5-4,1.5-5.5,0s-1.5-4,0-5.5l3.1-3.1l-1.9-1.9l-3.1,3.1
	c-2.6,2.6-2.6,6.7,0,9.3s6.7,2.6,9.3,0l3.1-3.1L16,21L12.9,24.1z M10.3,9.1L6.8,5.6L6.1,6.2l3.5,3.5L10.3,9.1z M13,1h-1v5h1V1z
	 M6,12H1v1h5V12z M21.7,21.9l3.5,3.5l0.7-0.7l-3.5-3.5L21.7,21.9z M21.5,15.5l1.9,1.9l3.1-3.1c2.6-2.6,2.6-6.7,0-9.3s-6.7-2.6-9.3,0
	l-3.1,3.1L16,10l3.1-3.1c1.5-1.5,4-1.5,5.5,0c1.5,1.5,1.5,4,0,5.5L21.5,15.5z M19,30h1v-5h-1V30z"/>
</svg>
