<?xml version="1.0" encoding="utf-8"?>
<!-- Generator: Adobe Illustrator 17.1.0, SVG Export Plug-In . SVG Version: 6.00 Build 0)  -->
<!DOCTYPE svg PUBLIC "-//W3C//DTD SVG 1.1//EN" "http://www.w3.org/Graphics/SVG/1.1/DTD/svg11.dtd">
<svg version="1.1" id="icon" xmlns="http://www.w3.org/2000/svg" xmlns:xlink="http://www.w3.org/1999/xlink" x="0px" y="0px"
	 viewBox="0 0 32 32" enable-background="new 0 0 32 32" xml:space="preserve">
<path d="M28.9,12.7h-4c-0.2-0.8-0.6-1.5-1-2.2l2.7-2.7c0.6-0.6,0.6-1.6,0-2.3l-1.1-1.1c-0.6-0.6-1.6-0.6-2.3,0l-2.7,2.7
	c-0.7-0.4-1.5-0.7-2.4-1V2.6C18,1.7,17.3,1,16.4,1h-1.6c-0.9,0-1.6,0.7-1.6,1.6v3.5c-0.9,0.2-1.8,0.6-2.6,1.1L8.3,5
	C7.7,4.3,6.7,4.3,6,5L4.9,6.1c-0.6,0.6-0.6,1.7,0,2.3l2.3,2.3c-0.5,0.9-0.9,1.8-1.1,2.8h-3c-0.9,0-1.6,0.7-1.6,1.6v1.6
	c0,0.9,0.7,1.6,1.6,1.6h3.2c0.3,1,0.7,1.9,1.3,2.7l-2.2,2.2c-0.6,0.6-0.6,1.7,0,2.3l1.1,1.1c0.6,0.6,1.7,0.6,2.3,0l2.4-2.4
	c0.8,0.4,1.7,0.7,2.7,0.9v3.4c0,0.9,0.7,1.6,1.6,1.6h1.6c0.9,0,1.6-0.7,1.6-1.6v-3.8c0.8-0.3,1.6-0.7,2.3-1.2l2.6,2.6
	c0.6,0.6,1.6,0.6,2.3,0l1.1-1.1c0.6-0.6,0.6-1.6,0-2.3l-2.8-2.8c0.3-0.7,0.6-1.5,0.8-2.3h3.8c0.9,0,1.6-0.7,1.6-1.6v-1.6
	C30.5,13.4,29.8,12.7,28.9,12.7 M15.6,19.5c-2.2,0-4-1.8-4-4c0-2.2,1.8-4,4-4c2.2,0,4,1.8,4,4C19.6,17.7,17.8,19.5,15.6,19.5"/>
</svg>
