<?xml version="1.0" encoding="utf-8"?>
<!-- Generator: Adobe Illustrator 17.1.0, SVG Export Plug-In . SVG Version: 6.00 Build 0)  -->
<!DOCTYPE svg PUBLIC "-//W3C//DTD SVG 1.1//EN" "http://www.w3.org/Graphics/SVG/1.1/DTD/svg11.dtd">
<svg version="1.1" id="icon" xmlns="http://www.w3.org/2000/svg" xmlns:xlink="http://www.w3.org/1999/xlink" x="0px" y="0px"
	 viewBox="0 0 32 32" enable-background="new 0 0 32 32" xml:space="preserve">
<path id="shape_2_" d="M14,19.4L12.6,18L6,24.6L7.4,26L14,19.4z M8.3,28.6C7,30,4.7,30,3.4,28.6C2,27.3,2,25,3.4,23.7l2.8-2.8
	l-1.7-1.7L1.7,22c-2.3,2.3-2.3,6,0,8.3c2.3,2.3,6,2.3,8.3,0l2.8-2.8l-1.7-1.7L8.3,28.6z M18.3,13.7c-2.3-2.3-6-2.3-8.3,0l-2.8,2.8
	l1.7,1.7l2.8-2.8c1.4-1.4,3.6-1.4,4.9,0c1.4,1.4,1.4,3.6,0,4.9l-2.8,2.8l1.7,1.7l2.8-2.8C20.6,19.7,20.6,16,18.3,13.7z M25.6,23.4
	c2-2.5,3.2-5.6,3.2-9c0-8-6.5-14.4-14.4-14.4S0,6.5,0,14.4c0,1.2,0.2,2.4,0.5,3.6h2.1C2.2,16.9,2,15.7,2,14.4C2,7.6,7.6,2,14.4,2
	c6.8,0,12.4,5.6,12.4,12.4c0,6.3-4.7,11.5-10.8,12.3v2c2.8-0.3,5.4-1.4,7.5-3.2l6.4,6.4h0.2l1.9-1.9v-0.3L25.6,23.4z"/>
</svg>
