<?xml version="1.0" encoding="utf-8"?>
<!-- Generator: Adobe Illustrator 17.1.0, SVG Export Plug-In . SVG Version: 6.00 Build 0)  -->
<!DOCTYPE svg PUBLIC "-//W3C//DTD SVG 1.1//EN" "http://www.w3.org/Graphics/SVG/1.1/DTD/svg11.dtd">
<svg version="1.1" id="icon" xmlns="http://www.w3.org/2000/svg" xmlns:xlink="http://www.w3.org/1999/xlink" x="0px" y="0px"
	 viewBox="0 0 32 32" enable-background="new 0 0 32 32" xml:space="preserve">
<path id="shape_9_" d="M25,14h-5v5h5V14z M18,11h-5v5h5V11z M25,0h-5v5h5V0z M20.3,8.1l1.9,4.6l4.6-1.9l-1.9-4.6L20.3,8.1z M18.7,5
	L14,3.3L12.3,8L17,9.7L18.7,5z M6,17h5v-5H6V17z M13,23h5v-5h-5V23z M27.3,18L16,27.5L4.7,18H0l16,14l16-14H27.3z M11,5.5L7.5,2
	L4,5.5L7.5,9L11,5.5z"/>
</svg>
