<?xml version="1.0" encoding="utf-8"?>
<!-- Generator: Adobe Illustrator 17.1.0, SVG Export Plug-In . SVG Version: 6.00 Build 0)  -->
<!DOCTYPE svg PUBLIC "-//W3C//DTD SVG 1.1//EN" "http://www.w3.org/Graphics/SVG/1.1/DTD/svg11.dtd">
<svg version="1.1" id="icon" xmlns="http://www.w3.org/2000/svg" xmlns:xlink="http://www.w3.org/1999/xlink" x="0px" y="0px"
	 viewBox="0 0 32 32" enable-background="new 0 0 32 32" xml:space="preserve">
<path id="shape_5_" d="M29.9,6.8l-3.8,3.8L22,9.7l-0.9-4.2l3.8-3.8c-0.6-0.2-1.2-0.3-1.8-0.3c-4,0-7.2,3.2-7.2,7.2
	c0,0.8,0.2,1.6,0.4,2.4L3.3,23.9c-1.5,1.5-1.7,3.9-0.4,5.2c1.3,1.3,3.7,1.2,5.2-0.4l13.1-13c0,0,0.1-0.1,0.1-0.1
	c0.6,0.1,1.1,0.2,1.7,0.2c4,0,7.2-3.2,7.2-7.2C30.2,8,30.1,7.4,29.9,6.8z"/>
</svg>
