<?xml version="1.0" encoding="utf-8"?>
<!-- Generator: Adobe Illustrator 17.1.0, SVG Export Plug-In . SVG Version: 6.00 Build 0)  -->
<!DOCTYPE svg PUBLIC "-//W3C//DTD SVG 1.1//EN" "http://www.w3.org/Graphics/SVG/1.1/DTD/svg11.dtd">
<svg version="1.1" id="icon" xmlns="http://www.w3.org/2000/svg" xmlns:xlink="http://www.w3.org/1999/xlink" x="0px" y="0px"
	 viewBox="0 0 32 32" enable-background="new 0 0 32 32" xml:space="preserve">
<path id="shape_10_" d="M15,10.9c-1.2,0.5-1.8,1.8-1.3,3c0.5,1.2,1.8,1.8,3,1.3c1.2-0.5,1.8-1.8,1.3-3C17.5,10.9,16.2,10.4,15,10.9z
	 M25,18V1H7v17H1.3L16,31l14.7-13H25z M24.1,15.5l-0.4,0.9c-0.2,0.5-0.7,0.7-1.2,0.5l-2-0.8c-0.3,0.4-0.6,0.8-1,1.1l0.8,2
	c0.2,0.5,0,1-0.5,1.2L19,20.8c-0.5,0.2-1,0-1.2-0.5l-0.7-1.8c-0.5,0.1-1.1,0.2-1.6,0.1l-0.8,1.8c-0.2,0.5-0.7,0.7-1.2,0.5l-0.9-0.4
	c-0.5-0.2-0.7-0.7-0.5-1.2l0.7-1.7c-0.5-0.3-0.9-0.7-1.3-1.1l-1.7,0.7c-0.5,0.2-1,0-1.2-0.5l-0.3-0.9c-0.2-0.5,0-1,0.5-1.2l1.6-0.7
	c-0.1-0.6-0.1-1.2,0-1.7l-1.8-0.7c-0.5-0.2-0.7-0.7-0.5-1.2l0.4-0.9C8.6,9,9.2,8.8,9.7,9l1.7,0.7c0.3-0.4,0.7-0.8,1.2-1.1l-0.8-1.9
	c-0.2-0.5,0-1,0.5-1.2l0.9-0.4c0.5-0.2,1,0,1.2,0.5l0.8,1.9c0.5-0.1,1-0.1,1.5,0l0.9-2.1c0.2-0.5,0.7-0.7,1.2-0.5l0.9,0.4
	C20,5.5,20.3,6,20,6.5l-0.8,2c0.4,0.3,0.7,0.6,1,1l2.2-0.9c0.5-0.2,1,0,1.2,0.5l0.4,0.9c0.2,0.5,0,1-0.5,1.2L21.4,12
	c0.1,0.5,0.1,0.9,0.1,1.4l2.1,0.9C24.1,14.5,24.3,15.1,24.1,15.5z"/>
</svg>
