<?xml version="1.0" encoding="utf-8"?>
<!-- Generator: Adobe Illustrator 17.1.0, SVG Export Plug-In . SVG Version: 6.00 Build 0)  -->
<!DOCTYPE svg PUBLIC "-//W3C//DTD SVG 1.1//EN" "http://www.w3.org/Graphics/SVG/1.1/DTD/svg11.dtd">
<svg version="1.1" id="icon" xmlns="http://www.w3.org/2000/svg" xmlns:xlink="http://www.w3.org/1999/xlink" x="0px" y="0px"
	 viewBox="0 0 32 32" enable-background="new 0 0 32 32" xml:space="preserve">
<g>
	<path d="M21.8,18.1h-3c-0.2-0.6-0.4-1.1-0.7-1.6l2-2c0.5-0.5,0.5-1.2,0-1.7L19.2,12c-0.5-0.5-1.2-0.5-1.7,0l-2,2
		c-0.5-0.3-1.1-0.5-1.8-0.7v-2.6c0-0.7-0.5-1.2-1.2-1.2h-1.2c-0.7,0-1.2,0.5-1.2,1.2v2.6c-0.7,0.2-1.3,0.4-1.9,0.8l-1.7-1.7
		c-0.5-0.5-1.2-0.5-1.7,0l-0.8,0.8c-0.5,0.5-0.5,1.2,0,1.7l1.7,1.7C5.4,17.3,5.1,18,5,18.7H2.8c-0.7,0-1.2,0.5-1.2,1.2v1.2
		c0,0.7,0.5,1.2,1.2,1.2h2.4c0.2,0.7,0.5,1.4,1,2l-1.6,1.6c-0.5,0.5-0.5,1.2,0,1.7l0.8,0.8c0.5,0.5,1.2,0.5,1.7,0l1.8-1.8
		c0.6,0.3,1.3,0.5,2,0.6v2.5c0,0.7,0.5,1.2,1.2,1.2h1.2c0.7,0,1.2-0.5,1.2-1.2v-2.8c0.6-0.2,1.2-0.5,1.7-0.9l1.9,1.9
		c0.5,0.5,1.2,0.5,1.7,0l0.8-0.8c0.5-0.5,0.5-1.2,0-1.7l-2.1-2.1c0.3-0.5,0.5-1.1,0.6-1.7h2.8c0.7,0,1.2-0.5,1.2-1.2v-1.2
		C23,18.7,22.4,18.1,21.8,18.1 M12,23.2c-1.6,0-3-1.3-3-3c0-1.6,1.3-3,3-3c1.6,0,3,1.3,3,3C14.9,21.8,13.6,23.2,12,23.2"/>
	<path d="M29.3,3.8l-1.7,0.8c-0.3-0.3-0.5-0.5-0.9-0.7l0.6-1.7c0.1-0.4-0.1-0.8-0.4-1L26.2,1c-0.4-0.1-0.8,0.1-1,0.4l-0.6,1.7
		c-0.4,0-0.8,0-1.2,0.1l-0.7-1.5c-0.2-0.4-0.6-0.5-1-0.4L21,1.6c-0.4,0.2-0.5,0.6-0.4,1l0.7,1.5c-0.3,0.3-0.6,0.6-0.9,1L19,4.6
		c-0.4-0.1-0.8,0.1-1,0.4l-0.3,0.7c-0.1,0.4,0.1,0.8,0.5,1l1.4,0.5c0,0.5,0,0.9,0.1,1.4l-1.3,0.6c-0.4,0.2-0.5,0.6-0.4,1l0.3,0.7
		c0.2,0.4,0.6,0.5,1,0.4l1.4-0.6c0.3,0.4,0.7,0.7,1.1,0.9l-0.5,1.4c-0.1,0.4,0.1,0.8,0.5,1l0.7,0.3c0.4,0.1,0.8-0.1,1-0.5l0.6-1.5
		c0.4,0,0.9,0,1.3-0.2l0.7,1.4c0.2,0.4,0.6,0.5,1,0.4l0.7-0.3c0.4-0.2,0.5-0.6,0.4-1l-0.7-1.6c0.3-0.3,0.5-0.6,0.7-0.9l1.6,0.6
		c0.4,0.1,0.8-0.1,1-0.5L31,9.4c0.1-0.4-0.1-0.8-0.5-1l-1.8-0.7c0-0.4,0-0.7-0.1-1.1l1.6-0.8c0.4-0.2,0.5-0.6,0.4-1l-0.3-0.7
		C30.1,3.8,29.7,3.7,29.3,3.8 M25,9.4c-0.9,0.4-2.1,0-2.5-0.9c-0.4-0.9,0-2.1,0.9-2.5c0.9-0.4,2.1,0,2.5,0.9
		C26.3,7.8,25.9,8.9,25,9.4"/>
</g>
</svg>
