<?xml version="1.0" standalone="no"?>
<!DOCTYPE svg PUBLIC "-//W3C//DTD SVG 1.1//EN" "http://www.w3.org/Graphics/SVG/1.1/DTD/svg11.dtd" >
<svg xmlns="http://www.w3.org/2000/svg" xmlns:xlink="http://www.w3.org/1999/xlink" version="1.1">
<metadata>
Created by FontForge 20161003 at Tue Apr 10 16:05:52 2018
 By www-data
@runestro
</metadata>
<defs>
<font id="525icons" horiz-adv-x="512" >
  <font-face 
    font-family="525icons"
    font-weight="400"
    font-stretch="normal"
    units-per-em="512"
    panose-1="0 0 0 0 0 0 0 0 0 0"
    ascent="480"
    descent="-32"
    bbox="-1 -34 608 481"
    underline-thickness="0"
    underline-position="0"
    unicode-range="U+0001-FFFD"
  />
<missing-glyph 
 />
    <glyph glyph-name=".notdef" unicode="&#xfffd;" 
 />
    <glyph glyph-name="glyph1" horiz-adv-x="0" 
d="M0 0v0v0v0z" />
    <glyph glyph-name="glyph1" horiz-adv-x="0" 
d="M0 0v0v0v0z" />
    <glyph glyph-name="uni0001" horiz-adv-x="0" 
d="M0 0v0v0v0z" />
    <glyph glyph-name="space" unicode=" " horiz-adv-x="256" 
d="M0 0v0v0v0z" />
    <glyph glyph-name="uniE600" unicode="&#xe600;" 
d="M352 391q62 0 105 -11.5t43 -27.5t-43 -27t-105 -11q-11 0 -22.5 0.5t-22.5 1.5v73q11 1 22.5 1.5t22.5 0.5zM352 301q62 0 105 11.5t43 27.5v-65q0 -16 -43 -27t-105 -11q-11 0 -22.5 0.5t-22.5 1.5v64q11 -1 22.5 -1.5t22.5 -0.5v0zM352 224q62 0 105 11.5t43 27.5v-65
q0 -16 -43 -27t-105 -11q-11 0 -22.5 0.5t-22.5 1.5v64q11 -1 22.5 -1.5t22.5 -0.5zM352 147q62 0 105 11.5t43 26.5v-64q0 -16 -43 -27t-105 -11q-11 0 -22.5 0.5t-22.5 1.5v64q11 -1 22.5 -1.5t22.5 -0.5zM12 410l283 45v-462l-283 45v372v0zM224 138l-47 158l-36 -2
l-48 -148l33 -2l4 16l5 17l47 -2l4 -17l5 -18l33 -2v0zM175 202l-34 1l14 51l3 14v0q3 -17 7.5 -33t9.5 -33v0z" />
    <glyph glyph-name="uniE601" unicode="&#xe601;" 
d="M16 41l288 -57v480l-288 -56v-367zM118 300l1 0.5l1 0.5q4 0 39.5 5.5t36.5 5.5t1.5 -0.5t0.5 -1.5v-14.5v-14.5q0 -1 -0.5 -1.5t-1.5 -0.5q-6 -1 -22.5 -2t-21.5 -1h-2t-1 -1q-1 0 -1.5 -0.5t-0.5 -1.5v-15.5v-15.5v-1v-1v0q4 0 23 1t23 1l0.5 -0.5t0.5 -1.5v-5.5v-5.5
v-9.5v-9.5v-0.5v-0.5h-23.5t-23.5 1v-1.5v-1.5v-15.5v-15.5q0 -2 0.5 -2.5t2.5 -0.5q5 0 26 -1.5t23 -1.5t2.5 -0.5t0.5 -2.5v-14.5v-14.5q0 -2 -0.5 -2h-1.5q-4 0 -41 5t-40 5l-0.5 1l-0.5 1v152v0zM512 356q0 5 -3.5 8.5t-9.5 3.5h-88h-88h-1.5h-1.5v-19v-19h4h3
q5 0 8.5 -1.5t5.5 -5.5l1.5 -1.5l1.5 -1.5q3 -4 6.5 -8t7.5 -9v-0.5v-0.5q-1 -3 -3 -6.5t-4 -5.5q-1 -1 -2.5 -1h-2.5q-3 3 -6 5t-7 4q0 1 -1 1h-1q-3 1 -5.5 1h-5.5v0v-32.5v-31.5q0 -1 0.5 -1.5t0.5 -1.5q3 -1 5 -3l4 -4q5 -4 10 -7t11 -6q4 -3 4 -5t-4 -4v-1h-1
t-1.5 -0.5t-1.5 -0.5q-4 2 -8.5 4t-8.5 4q-3 1 -5 2.5t-5 3.5v-35v-34q4 -1 7.5 -1t7.5 3q8 5 15 11.5t13 13.5t11.5 14.5t9.5 15.5q0 2 1.5 2t3.5 -1q3 -2 4 -5t-1 -7q-2 -3 -3.5 -6l-3.5 -7q-4 -5 -7.5 -11t-6.5 -11q-4 -5 -7.5 -10t-7.5 -10q-4 -4 -8 -8.5t-9 -8.5
q-2 -3 -5 -4.5t-7 -0.5h-3.5h-3.5v-18v-18h74h105q6 0 9.5 3.5t3.5 8.5v132v132v0zM480 124q0 -3 -2 -5t-5 -2q-14 -1 -28 -1h-28q-3 0 -6 1t-6 3q-2 3 -3.5 5t-3.5 4q-3 3 -5 6t-5 6l-1.5 1.5l-1.5 1.5q2 3 3.5 5.5t2.5 5.5q2 2 4 2.5t4 -1.5q3 -2 5.5 -4t5.5 -3
q1 -1 2 -1.5t3 -0.5h14.5h14.5q3 0 3.5 0.5t0.5 3.5v14t1 14q0 3 -1 5l-2 4q-2 2 -4 4.5t-4 4.5q-4 4 -7.5 8t-7.5 8q-7 6 -14.5 11.5t-16.5 9.5q-3 1 -3 3t2 4l2 2t3 1q1 1 2 0.5l3 -1.5q8 -4 16 -8.5t15 -9.5q6 -4 11.5 -8t10.5 -8q5 -3 9.5 -7t8.5 -9q2 -2 4 -4.5t3 -4.5
q1 -1 1 -1.5v-1.5v-28.5v-28.5v0zM480 272v-4v-4q-1 -3 -2.5 -5.5t-3.5 -4.5q-4 -3 -8 -6.5t-8 -6.5q-2 -1 -3.5 -2.5t-3.5 -1.5q-1 1 -1.5 1h-1.5q-2 1 -3.5 2t-3.5 2t-2.5 3t1.5 5q1 2 3 4.5t4 4.5q1 2 1.5 4t0.5 3q-1 8 -1 15v14q0 2 -0.5 3t-3.5 1h-12.5h-12.5
q-5 1 -8 -1l-6 -4q-5 -4 -9 -8t-8 -7q-3 -4 -6.5 -7t-6.5 -7t-5.5 -7.5t-4.5 -7.5q-2 -2 -2.5 -3.5t-1.5 -3.5q-1 -3 -2.5 -3t-3.5 1q-3 2 -3.5 5.5t0.5 5.5q4 6 7.5 12.5t6.5 12.5l10 14l10 14q4 5 9 10.5t10 9.5q1 0 1 0.5t1 1.5q1 2 3.5 2.5t4.5 0.5h14h14v0h14.5h14.5
q4 0 6 -2.5t2 -5.5v-25.5v-24.5v0z" />
    <glyph glyph-name="uniE602" unicode="&#xe602;" 
d="M500 275v-102h-26v102h26v0zM500 160v-103h-26v103h26v0zM12 410l283 45v-462l-283 45v372v0zM207 139v159l-28 -2v-86v-21v0q-14 26 -29 52l-30 52l-32 -2v-145l28 -1v81v14l-1 10h1q15 -27 30.5 -54.5t30.5 -54.5l30 -2v0zM307 404h155v-13h38v-103h-38v-244h-155v39
h129v25h-129v26h129v26h-129v25h129v26h-129v26h129v26h-129v25h129v26h-129v26h129v25h-129v39v0z" />
    <glyph glyph-name="uniE603" unicode="&#xe603;" 
d="M299 -18q-72 15 -143.5 29.5t-143.5 29.5v92v92v92.5v92.5q71 13 143 26.5t144 27.5v-120.5v-120.5v-120.5v-120.5v0zM222 224q0 8 -0.5 16t-2.5 16q-3 9 -7 17.5t-11 15.5q-5 6 -12 10t-15 6q-6 2 -12 2.5t-12 -0.5q-8 -1 -15 -4t-13 -8q-7 -5 -12 -11.5t-8 -14.5
q-5 -10 -7.5 -20.5t-2.5 -21.5v-10t1 -10q1 -8 3 -16t6 -16q3 -6 7.5 -12t10.5 -11q11 -9 23 -11.5t25 0.5q9 1 16.5 5t13.5 11q7 6 11.5 14t7.5 17t4 18t1 19v-1zM317 104h1.5h1.5h76h76h3.5t2.5 1q8 1 13 4.5t7 11.5q1 2 1.5 5t0.5 5v85.5v85.5v0v1v0.5v0.5
q-1 0 -1.5 -0.5l-1.5 -1.5q-35 -22 -69.5 -44.5t-69.5 -45.5q-2 -2 -5 -2t-5 2q-7 5 -14 9.5t-14 9.5q-1 0 -1.5 0.5t-1.5 0.5v-64v-64v0zM317 360v-45.5v-45.5q0 -1 0.5 -1.5t1.5 -0.5q8 -5 15.5 -10t15.5 -9q1 -1 2.5 -1t3.5 1q11 7 22.5 14.5t22.5 14.5q24 16 48.5 32
t48.5 32l1.5 1.5t0.5 1.5q-1 6 -4 9.5t-7 6.5q-2 1 -3.5 1.5t-3.5 0.5h-81.5h-81.5h-0.5h-1.5v-1.5v-0.5v0zM188 249q-2 4 -4 8.5t-5 8.5q-8 10 -20.5 10t-20.5 -8q-3 -3 -5.5 -6.5t-3.5 -8.5q-3 -5 -4 -10.5t-1 -11.5q-1 -7 -0.5 -15t2.5 -15q1 -5 3.5 -10t6.5 -10
q5 -6 11.5 -8.5t14.5 -1.5q6 1 10.5 4t7.5 8q3 3 5 7.5t3 8.5q2 7 2.5 13t0.5 14q0 5 -1 11l-2 12v0z" />
    <glyph glyph-name="uniE604" unicode="&#xe604;" 
d="M474 340v-270h-167v26h129v25h-129v26h129v26h-129v18q6 -3 12.5 -4.5t13.5 -1.5q27 0 45.5 19t18.5 46h-64v64q-7 0 -13.5 -1.5t-12.5 -3.5v31h167v0zM346 263h64q0 26 -18.5 45t-45.5 19v-64zM307 365h193v-231h-13v218h-180v13v0zM12 410l283 45v-462l-283 45v372v0z
M143 195h15q12 1 24.5 6t19.5 15q9 15 8.5 36t-12.5 33q-15 14 -39 11.5t-45 -3.5v-148l30 -2l-1 52v0zM144 268h11q5 -1 10 -1.5t8 -3.5q7 -7 4.5 -22t-11.5 -19q-3 0 -5.5 -0.5t-5.5 -0.5h-12l1 47v0z" />
    <glyph glyph-name="uniE605" unicode="&#xe605;" 
d="M12 410l283 45v-462l-283 45v372v0zM140 199h14q13 0 25.5 5.5t19.5 15.5q9 15 8.5 35.5t-12.5 32.5q-16 15 -39.5 12t-44.5 -4v-147l29 -2v52v0zM140 272h12q4 -1 9 -1.5t9 -3.5q7 -7 4.5 -22.5t-12.5 -18.5q-2 -1 -4.5 -1h-5.5h-12v47v0zM500 404v-360h-193v91l45 -45
l64 63l-64 64l-45 -45v142h103v-77h-38l51 -52l51 52h-38v103h-129v64h193v0z" />
    <glyph glyph-name="uniE606" unicode="&#xe606;" 
d="M307 340h129v-296h-129v26h103v26h-103v25h103v26h-103v26h103v25h-103v26h103v90h-103v26v0zM500 147h-51v202l-84 55h135v-257v0zM12 410l283 45v-462l-283 45v372v0zM140 195h14q13 1 25.5 6t19.5 15q9 15 8.5 36t-12.5 32q-16 15 -39.5 12.5t-44.5 -4.5v-147l29 -2
v52v0zM140 268h12q4 -1 9 -1.5t9 -3.5q7 -7 4.5 -22t-12.5 -19q-2 0 -4.5 -0.5t-5.5 -0.5h-12v47v0z" />
    <glyph glyph-name="uniE607" unicode="&#xe607;" 
d="M513 224q0 -18 -11.5 -32t-29.5 -18q-9 -29 -29 -51.5t-46 -35.5q-4 -19 -18 -31t-33 -12q-12 0 -22 5t-17 13v68q7 8 17 12.5t22 4.5q16 0 29 -9t19 -24q17 11 30.5 26.5t20.5 34.5q-15 5 -25 18.5t-10 30.5t10 30.5t25 18.5q-7 19 -20.5 34.5t-30.5 26.5
q-6 -15 -19 -24t-29 -9q-12 0 -22 4.5t-17 12.5v68q7 8 17 13t22 5q19 0 33 -12t18 -31q26 -13 46 -35.5t29 -51.5q18 -4 29.5 -18t11.5 -32v0zM12 410l283 45v-462l-283 45v372v0zM101 151q14 -5 29 -9t29 0q11 3 20 11t11 19q3 14 -2.5 28.5t-16.5 23.5q-10 7 -24.5 12.5
t-14.5 17.5q0 14 21 14t32 -7l1 16v16q-21 5 -46.5 1t-34.5 -23q-6 -13 -2 -29.5t15 -25.5q11 -8 26 -14t16 -20q1 -11 -15.5 -12.5t-25.5 2.5l-9 5l-9 7v-16v-17v0z" />
    <glyph glyph-name="uniE608" unicode="&#xe608;" 
d="M297 224v-116v-116q0 -5 -1 -6t-7 -1q-8 2 -50 9.5t-89 16.5t-85.5 16t-41.5 7q-3 1 -4.5 2.5t-1.5 4.5v91v90v90.5v90.5q0 8 1.5 9t9.5 3q7 1 47 8t86 15.5t85 16t43 7.5q6 1 7 0.5t1 -7.5v-115v-116v0zM187 271v15.5v14.5q0 1 -1.5 2.5t-2.5 1.5q-11 3 -21 3t-20 -3
q-14 -3 -23.5 -12t-12.5 -24q-3 -14 0.5 -26.5t15.5 -21.5q6 -5 12 -8.5t12 -7.5l8 -6t6 -7q6 -8 2.5 -16t-12.5 -9q-5 -1 -11 -0.5t-11 2.5q-6 2 -12 5.5t-13 7.5v-15.5v-15.5q0 -1 1 -2t2 -1q15 -9 31 -10.5t32 3.5q23 8 28.5 33t-11.5 42q-6 6 -13.5 11t-14.5 10
q-3 2 -7.5 4.5t-7.5 5.5q-4 4 -5.5 9t0.5 10q1 6 5.5 9t9.5 3q9 1 17.5 0t16.5 -7v0v0zM380 72v10v9h-30h-35q-3 0 -4.5 1t-1.5 5v15q0 4 1.5 5t4.5 1h39h26v9.5v9.5q-10 0 -34 0.5t-31 -0.5q-4 0 -5 1.5t-1 4.5v7.5v7.5t1.5 5t4.5 1h39h26v9.5v9.5q-3 0 -27 0.5t-37 -0.5
q-4 0 -5.5 1.5t-1.5 5.5v24q0 5 1.5 7t5.5 2h172q4 0 5.5 -2t1.5 -6v-84.5v-84.5q0 -7 -3.5 -11t-10.5 -4h-83h-82q-4 0 -5.5 1.5t-1.5 4.5v29q0 3 1.5 5t4.5 1h38.5h26.5v0v0zM395 164h84v19h-83zM479 118v19h-83v-19h83zM396 72h83v19h-83v-19zM480 234h-11.5t-9.5 5
q-20 21 -40 41l-40 40v0.5v0.5q-8 10 -13.5 9.5t-13.5 -8.5q-9 -8 -18.5 -16.5t-18.5 -16.5l-2 -2t-3 -2v118q0 4 1 5.5t4 1.5h82h82q8 0 12 -4.5t4 -11.5v-65.5v-65.5q0 -1 -0.5 -1.5t-0.5 -2.5q-6 7 -11.5 12.5l-11.5 11.5q-9 10 -18 19.5t-18 18.5q-3 4 -6 4t-7 -3
q-9 -9 -9.5 -13t8.5 -13l29.5 -29.5t28.5 -29.5l0.5 -0.5t0.5 -2.5v0v0zM458 382q-7 0 -12 -5t-5 -11q1 -6 5.5 -11t11.5 -5q6 0 11 4.5t4 11.5q0 7 -4 11.5t-11 4.5v0v0z" />
    <glyph glyph-name="uniE609" unicode="&#xe609;" 
d="M307 404h193v-360h-193v39h155v25h-155v26h155v26h-155v25h155v26h-155v26h155v26h-155v25h155v26h-155v26h155v25h-155v39v0zM12 410l283 45v-462l-283 45v372v0zM242 299l-30 -1l-21 -123v0q-4 30 -10.5 60t-13.5 60l-32 -1l-26 -117l-1 1q-3 28 -9 56.5t-11 56.5
l-33 -1l35 -144l35 -2l24 113h1q3 -29 10 -58l14 -58l33 -2l35 160v0z" />
    <glyph glyph-name="uniE60A" unicode="&#xe60a;" 
d="M307 404h193v-360h-193v26h65v51h-65v13h65v51h-65v13h65v52h-65v13h65v51h-65v13h65v51h-65v26v0zM474 70v51h-90v-51h90v0zM474 185h-90v-51h90v51v0zM474 250h-90v-52h90v52v0zM474 314h-90v-51h90v51zM474 378h-90v-51h90v51zM12 407l283 51v-468l-283 51v366v0z
M213 140l-43 92l42 89l-34 -2l-22 -53l-3 -8l-1 -7h-1q-3 17 -9.5 33.5t-12.5 32.5l-36 -1l38 -85l-42 -85l36 -2l22 56l3 12h1q4 -18 11.5 -35.5t14.5 -34.5l36 -2v0z" />
    <glyph glyph-name="uniE60B" unicode="&#xe60b;" 
d="M39 67l97 37v252l180 49v-374l-265 33l265 -93l157 36v434l-157 36l-277 -96v-314v0z" />
    <glyph glyph-name="uniE60C" unicode="&#xe60c;" 
d="M346 404h141v-141q0 -16 -11 -27.5t-27 -11.5h-116l51 51h52v77h-77v-45l-52 -51v109q0 16 11.5 27.5t27.5 11.5v0zM89 198h161l-52 -51h-96v-129h128v103l52 52v-167q0 -16 -11.5 -27.5t-27.5 -11.5h-193v193q0 16 11.5 27t27.5 11v0zM25 481h205q22 0 37 -15t15 -36
v-177l-65 64v100h-128v-129h100l64 -64h-177q-21 0 -36 15t-15 36v206v0zM462 198q15 0 26.5 -11t11.5 -27v-167h-154q-16 0 -27.5 11t-11.5 27v138l52 -51v-74h90v103h-61l-52 51h126v0z" />
    <glyph glyph-name="uniE60D" unicode="&#xe60d;" 
d="M32 448h209v-209h-209v32.5v72v72v32.5zM480 448v-209h-209v209h209zM480 0h-209l1 209h208v-209zM32 0v209h209v-209h-209z" />
    <glyph glyph-name="uniE60E" unicode="&#xe60e;" 
d="M512 448l-112 32l-218 -201l-134 98l-48 -24v-257l48 -24l134 98l218 -202l112 32v448zM65 172v107l58 -54l-29 -26.5zM258 224l142 102v-202z" />
    <glyph glyph-name="uniE60F" unicode="&#xe60f;" 
d="M320 480v-117q0 -5 3 -8t8 -3h117v-149h-299q-8 0 -15 -7q-6 -6 -6 -15v-106q0 -9 6 -15q7 -7 15 -7h299v-74q0 -5 -3 -8t-8 -3h-384q-4 0 -7 3t-3 8v490q0 5 3 8t7 3h267v0zM448 373h-96q-4 0 -8 3q-3 4 -3 8v96zM256 416h-149v-21h149v21zM256 373h-149v-21h149v21z
M256 331h-149v-22h149v22zM256 288h-149v-21h149v21zM320 160v-64l-21 -21h-22l-21 21v64l21 21h22zM363 160v-64h42v-21h-42l-22 21v64l22 21h42v-21h-42zM235 160v-64l-22 -21h-42v106h42zM427 181v-42h21v42h-21zM491 181h-22v-42h22v42zM213 96v64h-21v-64h21v0zM299 96
v64h-22v-64h22zM448 139v-22h21v22h-21zM427 75h21v42h-21v-42zM491 75v42h-22v-42h22z" />
    <glyph glyph-name="uniE610" unicode="&#xe610;" 
d="M320 480v-117q0 -5 3 -8t8 -3h117v-149h-299q-8 0 -15 -7q-6 -6 -6 -15v-106q0 -9 6 -15q7 -7 15 -7h299v-74q0 -5 -3 -8t-8 -3h-384q-4 0 -7 3t-3 8v490q0 5 3 8t7 3h267v0zM448 373h-96q-4 0 -8 3q-3 4 -3 8v96zM235 416l-75 -43h-53v-64h53l75 -42v149v0zM213 181h22
v-106h-22v64h-21v-64h-21v106h21v-21h21v21v0zM299 181l21 -21v-43l-21 -21h-22v-21h-21v106h43v0zM405 181v-106h-64v21h43v21h-43v22h43v21h-43v21h64v0zM299 117v43h-22v-43h22z" />
    <glyph glyph-name="uniE611" unicode="&#xe611;" 
d="M320 480v-117q0 -5 3 -8t8 -3h117v-149h-299q-8 0 -15 -7q-6 -6 -6 -15v-106q0 -9 6 -15q7 -7 15 -7h299v-74q0 -5 -3 -8t-8 -3h-384q-4 0 -7 3t-3 8v490q0 5 3 8t7 3h267v0zM448 373h-96q-4 0 -8 3q-3 4 -3 8v96zM235 416l-75 -43h-53v-64h53l75 -42v149v0zM213 181h22
v-106h-22v21h-21v-21h-21v106h21v-64h21v64v0zM299 181l21 -21v-85h-21v21h-22v-21h-21v85l21 21h22zM384 181h21v-106h-21v21h-21v-21h-22v106h22v-64h21v64zM299 160h-22v-43h22v43z" />
    <glyph glyph-name="uniE612" unicode="&#xe612;" 
d="M448 203h-299q-8 0 -15 -7q-6 -6 -6 -15v-106q0 -9 6 -15q7 -7 15 -7h299v-74q0 -5 -3 -8t-8 -3h-384q-4 0 -7 3t-3 8v490q0 5 3 8t7 3h267v-117q0 -5 3 -8t8 -3h117v-149v0zM341 480v-96q0 -4 3 -8q4 -3 8 -3h96zM213 341l-106 65v-130zM213 181l22 -21v-85h-22v21h-21
v-21h-21v85l21 21h21v0zM277 96h22v-21h-43v106h21v-85v0zM320 181v-85h-21v85h21zM363 181v-106h-22v106h22zM213 160h-21v-43h21v43v0z" />
    <glyph glyph-name="uniE613" unicode="&#xe613;" 
d="M448 203h-299q-8 0 -15 -7q-6 -6 -6 -15v-106q0 -9 6 -15q7 -7 15 -7h299v-74q0 -5 -3 -8t-8 -3h-384q-4 0 -7 3t-3 8v490q0 5 3 8t7 3h267v-117q0 -5 3 -8t8 -3h117v-149v0zM341 480v-96q0 -4 3 -8q4 -3 8 -3h96zM213 341l-106 65v-130zM213 160h-21v21h-21v-106h21v64
h21v-64h22v106h-22v-21v0zM299 181l21 -21v-43l-21 -21h-22v-21h-21v106h43v0zM384 117h-21v64h-22v-85h43v-21h21v106h-21v-64v0zM299 117v43h-22v-43h22z" />
    <glyph glyph-name="uniE614" unicode="&#xe614;" 
d="M448 203h-299q-8 0 -15 -7q-6 -6 -6 -15v-106q0 -9 6 -15q7 -7 15 -7h299v-74q0 -5 -3 -8t-8 -3h-384q-4 0 -7 3t-3 8v490q0 5 3 8t7 3h267v-117q0 -5 3 -8t8 -3h117v-149v0zM341 480v-96q0 -4 3 -8q4 -3 8 -3h96zM213 341l-106 65v-130zM213 160h-21v21h-21v-106h21v64
h21v-64h22v106h-22v-21v0zM320 160v-64l-21 -21h-22l-21 21v64l21 21h22zM384 75h-43v106h22v-85h21v-21v0zM405 96h-21v85h21v-85zM299 96v64h-22v-64h22z" />
    <glyph glyph-name="uniE615" unicode="&#xe615;" 
d="M320 480v-117q0 -5 3 -8t8 -3h117v-149h-299q-8 0 -15 -7q-6 -6 -6 -15v-106q0 -9 6 -15q7 -7 15 -7h299v-74q0 -5 -3 -8t-8 -3h-384q-4 0 -7 3t-3 8v490q0 5 3 8t7 3h267v0zM448 373h-96q-4 0 -8 3q-3 4 -3 8v96zM256 297v110q0 2 -1 4l-4 4q-2 1 -4 1h-131q-4 0 -7 -3
q-2 -3 -2 -6v-110q0 -3 2 -6q3 -3 7 -3h131q3 0 6 3t3 6zM128 395h107v-77l-31 49l-21 -36l-55 -13v77v0zM160 380q-8 0 -13 -5t-5 -13q0 -4 2 -9q3 -4 7 -6t9 -2q7 0 12 5q6 5 6 12q0 4 -2 7q-1 4 -4 6q-2 3 -5 4q-4 1 -7 1v0zM213 181l22 -21v-43l-22 -21h-21v-21h-21v106
h42v0zM256 181v-106h21v85h22v21h-43v0zM341 181h64v-21h-42v-64h21v43h21v-64h-64v106v0zM213 117v43h-21v-43h21v0zM299 75h21v85h-21v-85z" />
    <glyph glyph-name="uniE616" unicode="&#xe616;" 
d="M320 480v-117q0 -5 3 -8t8 -3h117v-149h-299q-8 0 -15 -7q-6 -6 -6 -15v-106q0 -9 6 -15q7 -7 15 -7h299v-74q0 -5 -3 -8t-8 -3h-384q-4 0 -7 3t-3 8v490q0 5 3 8t7 3h267v0zM448 373h-96q-4 0 -8 3q-3 4 -3 8v96zM256 297v110q0 2 -1 4l-4 4q-2 1 -4 1h-131q-4 0 -7 -3
q-2 -3 -2 -6v-110q0 -3 2 -6q3 -3 7 -3h131q3 0 6 3t3 6zM128 395h107v-77l-31 49l-21 -36l-55 -13v77v0zM160 380q-8 0 -13 -5t-5 -13q0 -4 2 -9q3 -4 7 -6t9 -2q7 0 12 5q6 5 6 12q0 4 -2 7q-1 4 -4 6q-2 3 -5 4q-4 1 -7 1v0zM213 181l22 -21v-43l-22 -21h-21v-21h-21v106
h42v0zM277 181h43v-21h-43v-21h-21v21zM405 160v-64l-21 -21h-43v106h43zM213 117v43h-21v-43h21v0zM384 160h-21v-64h21v64zM277 117v22h22v-22h-22zM299 96v21h21v-21l-21 -21h-43v21h43z" />
    <glyph glyph-name="uniE617" unicode="&#xe617;" 
d="M320 480v-117q0 -5 3 -8t8 -3h117v-149h-299q-8 0 -15 -7q-6 -6 -6 -15v-106q0 -9 6 -15q7 -7 15 -7h299v-74q0 -5 -3 -8t-8 -3h-384q-4 0 -7 3t-3 8v490q0 5 3 8t7 3h267v0zM448 373h-96q-4 0 -8 3q-3 4 -3 8v96zM256 297v110q0 2 -1 4l-4 4q-2 1 -4 1h-131q-4 0 -7 -3
q-2 -3 -2 -6v-110q0 -3 2 -6q3 -3 7 -3h131q3 0 6 3t3 6zM128 395h107v-77l-31 49l-21 -36l-55 -13v77v0zM160 380q-8 0 -13 -5t-5 -13q0 -4 2 -9q3 -4 7 -6t9 -2q7 0 12 5q6 5 6 12q0 4 -2 7q-1 4 -4 6q-2 3 -5 4q-4 1 -7 1v0zM235 181v-85l-22 -21h-21l-21 21v43h21v-43
h21v85h22v0zM299 181l21 -21v-43l-21 -21h-22v-21h-21v106h43v0zM341 181h64v-21h-42v-64h21v43h21v-64h-64v106v0zM277 160v-43h22v43h-22z" />
    <glyph glyph-name="uniE618" unicode="&#xe618;" 
d="M320 480v-117q0 -5 3 -8t8 -3h117v-149h-299q-8 0 -15 -7q-6 -6 -6 -15v-106q0 -9 6 -15q7 -7 15 -7h299v-74q0 -5 -3 -8t-8 -3h-384q-4 0 -7 3t-3 8v490q0 5 3 8t7 3h267v0zM448 373h-96q-4 0 -8 3q-3 4 -3 8v96zM256 297v110q0 2 -1 4l-4 4q-2 1 -4 1h-131q-4 0 -7 -3
q-2 -3 -2 -6v-110q0 -3 2 -6q3 -3 7 -3h131q3 0 6 3t3 6zM128 395h107v-77l-31 49l-21 -36l-55 -13v77v0zM160 380q-8 0 -13 -5t-5 -13q0 -4 2 -9q3 -4 7 -6t9 -2q7 0 12 5q6 5 6 12q0 4 -2 7q-1 4 -4 6q-2 3 -5 4q-4 1 -7 1v0zM171 181h64v-21h-43v-64h21v43h22v-64h-64
v106v0zM256 75h21v106h-21v-106zM320 160v-21h43v-22h-43v-42h-21v85l21 21h43v-21h-43z" />
    <glyph glyph-name="uniE619" unicode="&#xe619;" 
d="M320 480v-117q0 -5 3 -8t8 -3h117v-149h-299q-8 0 -15 -7q-6 -6 -6 -15v-106q0 -9 6 -15q7 -7 15 -7h299v-74q0 -5 -3 -8t-8 -3h-384q-4 0 -7 3t-3 8v490q0 5 3 8t7 3h267v0zM448 373h-96q-4 0 -8 3q-3 4 -3 8v96zM256 416h-64v-43l-43 -42h-42v-64h64v42l42 43h43v64z
M235 373h-22v22h22v-22v0zM128 309h21v-21h-21v21v0zM213 181l22 -21v-85h-22v21h-21v-21h-21v85l21 21h21v0zM256 75h21v106h-21v-106zM213 160h-21v-43h21v43v0z" />
    <glyph glyph-name="uniE61A" unicode="&#xe61a;" 
d="M320 480v-117q0 -5 3 -8t8 -3h117v-149h-299q-8 0 -15 -7q-6 -6 -6 -15v-106q0 -9 6 -15q7 -7 15 -7h299v-74q0 -5 -3 -8t-8 -3h-384q-4 0 -7 3t-3 8v490q0 5 3 8t7 3h267v0zM448 373h-96q-4 0 -8 3q-3 4 -3 8v96zM256 416h-64v-43l-43 -42h-42v-64h64v42l42 43h43v64z
M235 373h-22v22h22v-22v0zM128 309h21v-21h-21v21v0zM192 181h43v-21h-43v-21h43v-22h-43v-21h43v-21h-43l-21 21v64zM299 181l21 -21v-43l-21 -21h-22v-21h-21v106h43v0zM363 181h42v-21h-42v-21h-22v21zM299 117v43h-22v-43h22zM363 117v22h21v-22h-21zM384 96v21h21v-21
l-21 -21h-43v21h43z" />
    <glyph glyph-name="uniE61B" unicode="&#xe61b;" 
d="M320 480v-117q0 -5 3 -8t8 -3h117v-149h-299q-8 0 -15 -7q-6 -6 -6 -15v-106q0 -9 6 -15q7 -7 15 -7h299v-74q0 -5 -3 -8t-8 -3h-384q-4 0 -7 3t-3 8v490q0 5 3 8t7 3h267v0zM448 373h-96q-4 0 -8 3q-3 4 -3 8v96zM256 416h-107v-43h-42v-106h106v42h43v107zM235 331h-64
v64h64v-64zM149 309h43v-21h-64v64h21v-43v0zM213 181l22 -21v-43l-22 -21h-21v-21h-21v106h42v0zM320 160v-64l-21 -21h-43v106h43zM341 181v-106h22v42h42v22h-42v21h42v21h-64v0zM213 117v43h-21v-43h21v0zM299 160h-22v-64h22v64z" />
    <glyph glyph-name="uniE61C" unicode="&#xe61c;" 
d="M320 480v-117q0 -5 3 -8t8 -3h117v-149h-299q-8 0 -15 -7q-6 -6 -6 -15v-106q0 -9 6 -15q7 -7 15 -7h299v-74q0 -5 -3 -8t-8 -3h-384q-4 0 -7 3t-3 8v490q0 5 3 8t7 3h267v0zM448 373h-96q-4 0 -8 3q-3 4 -3 8v96zM107 395h128q0 4 -1 8q-1 3 -1 5q-1 2 -3 4q-2 1 -3 2
q-2 1 -4 1q-3 1 -5 1h-5h-85h-5t-4 -1q-3 0 -4 -1l-4 -2l-2 -4t-2 -5v-8v0zM235 373h-128v-21h128v21zM235 331h-128v-22h128v22zM128 267h85h5h5q2 1 4 1l3 3q2 1 3 3q0 3 1 6q1 4 1 8h-128v-8l2 -6q1 -2 2 -3q2 -2 4 -3q1 0 4 -1h4h5v0zM192 181h43v-21h-43v-21h-21v21z
M320 160v-64h-21v64h-22v-64h-21v64l21 21h22zM405 96v-21h-42l-22 21v85h22v-85h42zM192 117v22h21v-22h-21zM213 96v21h22v-21l-22 -21h-42v21h42v0zM277 96h22v-43h-22v43z" />
    <glyph glyph-name="uniE61D" unicode="&#xe61d;" 
d="M320 480v-117q0 -5 3 -8t8 -3h117v-149h-299q-8 0 -15 -7q-6 -6 -6 -15v-106q0 -9 6 -15q7 -7 15 -7h299v-74q0 -5 -3 -8t-8 -3h-384q-4 0 -7 3t-3 8v490q0 5 3 8t7 3h267v0zM448 373h-96q-4 0 -8 3q-3 4 -3 8v96zM239 326l20 5q1 6 1 11q0 4 -1 10l-20 5v1q-2 6 -6 12v1
l11 18q-6 8 -15 15l-18 -11h-1q-6 4 -12 6h-1l-5 20q-6 1 -11 1q-4 0 -10 -1l-5 -20h-1q-7 -2 -13 -6v0l-19 11q-8 -6 -14 -15l11 -18v-1q-4 -6 -6 -12v-1l-21 -5v-10v-11l21 -5v-1q2 -6 6 -12v-1l-11 -18q6 -8 14 -15l19 11v0q7 -4 13 -6h1l5 -21h10h11l5 21h1q6 2 12 6h1
l18 -11q8 6 15 15l-11 18v1q4 6 6 12v1zM181 373q14 0 23 -9t9 -22q0 -7 -2 -13q-3 -6 -7 -10q-5 -4 -10 -7q-6 -2 -13 -2q-13 0 -22 9t-9 22q0 14 9 23t22 9v0zM192 181h43v-21h-43v-21h43v-22h-43v-21h43v-21h-43l-21 21v64zM256 181v-42h21v42h-21zM320 181h-21v-42h21
v42zM363 181h42v-21h-42v-21h42v-22h-42v-21h42v-21h-42l-22 21v64zM277 139v-22h22v22h-22zM256 75h21v42h-21v-42zM320 75v42h-21v-42h21z" />
    <glyph glyph-name="uniE61E" unicode="&#xe61e;" 
d="M320 480v-117q0 -5 3 -8t8 -3h117v-149h-299q-4 0 -8 -2t-7 -5t-4 -6q-2 -4 -2 -9v-106q0 -6 3 -11t8 -8t10 -3h299v-74q0 -5 -3 -8t-8 -3h-384q-4 0 -7 3t-3 8v490q0 5 3 8t7 3h267v0zM448 373h-96q-4 0 -8 3q-3 4 -3 8v96zM175 413l-73 -42v-16l73 -44v33l-32 19l32 18
v32zM260 371l-72 42v-32l32 -18l-32 -19v-33l72 44v16zM192 181h43v-21h-43v-64h43v-21h-43l-21 21v64zM277 181h43v-21h-43v-21h-21v21zM363 181h42v-21h-42v-21h-22v21zM277 117v22h22v-22h-22zM363 117v22h21v-22h-21zM299 96v21h21v-21l-21 -21h-43v21h43zM384 96v21h21
v-21l-21 -21h-43v21h43z" />
    <glyph glyph-name="uniE61F" unicode="&#xe61f;" 
d="M320 480v-117q0 -5 3 -8t8 -3h117v-149h-299q-4 0 -8 -2t-7 -5t-4 -6q-2 -4 -2 -9v-106q0 -6 3 -11t8 -8t10 -3h299v-74q0 -5 -3 -8t-8 -3h-384q-4 0 -7 3t-3 8v490q0 5 3 8t7 3h267v0zM448 373h-96q-4 0 -8 3q-3 4 -3 8v96zM175 413l-73 -42v-16l73 -44v33l-32 19l32 18
v32zM260 371l-72 42v-32l32 -18l-32 -19v-33l72 44v16zM213 181h22v-85l-21 -21h-22l-21 21v43h21v-43h21v85v0zM277 160v-21h-21v21l21 21h43v-21h-43zM277 117v22h22v-22h-22zM299 96v21h21v-21l-21 -21h-43v21h43z" />
    <glyph glyph-name="uniE620" unicode="&#xe620;" 
d="M320 480v-117q0 -5 3 -8t8 -3h117v-149h-299q-4 0 -8 -2t-7 -5t-4 -6q-2 -4 -2 -9v-106q0 -6 3 -11t8 -8t10 -3h299v-74q0 -5 -3 -8t-8 -3h-384q-4 0 -7 3t-3 8v490q0 5 3 8t7 3h267v0zM448 373h-96q-4 0 -8 3q-3 4 -3 8v96zM175 413l-73 -42v-16l73 -44v33l-32 19l32 18
v32zM260 371l-72 42v-32l32 -18l-32 -19v-33l72 44v16zM213 181l22 -21v-43l-22 -21h-21v-21h-21v106h42v0zM299 181h21v-106h-21v42h-22v-42h-21v106h21v-42h22v42zM384 181l21 -21v-43l-21 -21h-21v-21h-22v106h43v0zM213 117v43h-21v-43h21v0zM384 117v43h-21v-43h21z
" />
    <glyph glyph-name="uniE621" unicode="&#xe621;" 
d="M320 480v-117q0 -5 3 -8t8 -3h117v-149h-299q-4 0 -8 -2t-7 -5t-4 -6q-2 -4 -2 -9v-106q0 -6 3 -11t8 -8t10 -3h299v-74q0 -5 -3 -8t-8 -3h-384q-4 0 -7 3t-3 8v490q0 5 3 8t7 3h267v0zM448 373h-96q-4 0 -8 3q-3 4 -3 8v96zM175 413l-73 -42v-16l73 -44v33l-32 19l32 18
v32zM260 371l-72 42v-32l32 -18l-32 -19v-33l72 44v16zM213 139h-21v42h-21v-106h21v42h21v-42h22v106h-22v-42v0zM256 181v-21h21v-85h22v85h21v21h-64v0zM384 160h-21v21h-22v-106h22v64h21v-64h21v106h-21v-21zM491 96v-21h-43l-21 21v85h21v-85h43z" />
    <glyph glyph-name="uniE622" unicode="&#xe622;" 
d="M320 480v-117q0 -5 3 -8t8 -3h117v-149h-299q-4 0 -8 -2t-7 -5t-4 -6q-2 -4 -2 -9v-106q0 -6 3 -11t8 -8t10 -3h299v-74q0 -5 -3 -8t-8 -3h-384q-4 0 -7 3t-3 8v490q0 5 3 8t7 3h267v0zM448 373h-96q-4 0 -8 3q-3 4 -3 8v96zM175 413l-73 -42v-16l73 -44v33l-32 19l32 18
v32zM260 371l-72 42v-32l32 -18l-32 -19v-33l72 44v16zM213 181l22 -21v-85h-22v21h-21v-21h-21v85l21 21h21v0zM277 181h43v-21h-43v-21h-21v21zM384 181l21 -21v-43l-21 -21h-21v-21h-22v106h43v0zM213 160h-21v-43h21v43v0zM384 117v43h-21v-43h21zM277 117v22h22v-22
h-22zM299 96v21h21v-21l-21 -21h-43v21h43z" />
    <glyph glyph-name="uniE623" unicode="&#xe623;" 
d="M320 480v-117q0 -5 3 -8t8 -3h117v-149h-299q-4 0 -8 -2t-7 -5t-4 -6q-2 -4 -2 -9v-106q0 -6 3 -11t8 -8t10 -3h299v-74q0 -5 -3 -8t-8 -3h-384q-4 0 -7 3t-3 8v490q0 5 3 8t7 3h267v0zM448 373h-96q-4 0 -8 3q-3 4 -3 8v96zM213 416h-106v-32h5q0 3 1 5t2 3t3 2q3 0 5 1
h5h21v-91l-10 -5v-11h42v11l-10 5v91h21h5q2 -1 5 -1q2 -1 3 -2t2 -3t1 -5h5v32v0zM192 181h21l22 -21v-64l-22 -21h-21l-21 21v64zM256 181v-21h21v-85h22v85h21v21h-64v0zM363 160v-21h42v-22h-42v-42h-22v85l22 21h42v-21h-42zM192 160v-64h21v64h-21z" />
    <glyph glyph-name="uniE624" unicode="&#xe624;" 
d="M320 480v-117q0 -5 3 -8t8 -3h117v-149h-299q-4 0 -8 -2t-7 -5t-4 -6q-2 -4 -2 -9v-106q0 -6 3 -11t8 -8t10 -3h299v-74q0 -5 -3 -8t-8 -3h-384q-4 0 -7 3t-3 8v490q0 5 3 8t7 3h267v0zM448 373h-96q-4 0 -8 3q-3 4 -3 8v96zM288 469h-43v-10h-32v-22h43v22h32v10z
M288 427h-43v-11h-32v-21h43v21h32v11zM288 384h-43v-11h-32v-21h43v21h32v11zM288 341h-43v-10h-32v-22h43v22h32v10zM288 299h-43v-11h-32v-21h43v21h32v11v0zM288 256h-43v-11h-32v-21h43v21h32v11zM213 160v-21h22v21l-22 21h-42v-21h42v0zM256 75h21v106h-21v-106z
M341 181l22 -21v-43l-22 -21h-21v-21h-21v106h42v0zM341 117v43h-21v-43h21zM192 139v-22h21v22h-21zM192 75h43v21h-43v21h-21v-21z" />
    <glyph glyph-name="uniE625" unicode="&#xe625;" 
d="M320 480v-117q0 -5 3 -8t8 -3h117v-149h-299q-4 0 -8 -2t-7 -5t-4 -6q-2 -4 -2 -9v-106q0 -6 3 -11t8 -8t10 -3h299v-74q0 -5 -3 -8t-8 -3h-384q-4 0 -7 3t-3 8v490q0 5 3 8t7 3h267v0zM448 373h-96q-4 0 -8 3q-3 4 -3 8v96zM288 469h-43v-10h-32v-22h43v22h32v10z
M288 427h-43v-11h-32v-21h43v21h32v11zM288 384h-43v-11h-32v-21h43v21h32v11zM288 341h-43v-10h-32v-22h43v22h32v10zM288 299h-43v-11h-32v-21h43v21h32v11v0zM288 256h-43v-11h-32v-21h43v21h32v11zM213 117v43h-21v-43l21 -21h-21v-21h-21v106h42l22 -21v-43h-22v0z
M299 181l21 -21v-85h-21v21h-22v-21h-21v85l21 21h22zM384 117v43h-21v-43l21 -21h-21v-21h-22v106h43l21 -21v-43h-21v0zM299 160h-22v-43h22v43zM213 75v21h22v-21h-22v0zM384 75v21h21v-21h-21z" />
    <glyph glyph-name="uniE626" unicode="&#xe626;" 
d="M320 480v-117q0 -5 3 -8t8 -3h117v-149h-299q-8 0 -15 -7q-6 -6 -6 -15v-106q0 -9 6 -15q7 -7 15 -7h299v-74q0 -5 -3 -8t-8 -3h-384q-4 0 -7 3t-3 8v490q0 5 3 8t7 3h267v0zM448 373h-96q-4 0 -8 3q-3 4 -3 8v96zM256 416h-64v-43l-43 -42h-42v-64h64v42l42 43h43v64v0z
M235 373h-22v22h22v-22v0zM128 309h21v-21h-21v21v0zM192 181h43v-21h-43v-21h-21v21zM277 96h22v-21h-43v106h21v-85v0zM320 181v-85h-21v85h21zM341 181h64v-21h-42v-64h21v43h21v-64h-64v106v0zM192 117v22h21v-22h-21zM213 96v21h22v-21l-22 -21h-42v21h42v0z" />
    <glyph glyph-name="uniE627" unicode="&#xe627;" 
d="M320 480v-117q0 -5 3 -8t8 -3h117v-149h-299q-8 0 -15 -7q-6 -6 -6 -15v-106q0 -6 3 -11t8 -8t10 -3h299v-74q0 -5 -3 -8t-8 -3h-384q-4 0 -7 3t-3 8v490q0 5 3 8t7 3h267v0zM448 373h-96q-4 0 -8 3q-3 4 -3 8v96zM256 416h-149v-21h149v21zM256 373h-149v-21h149v21z
M256 331h-149v-22h149v22v0zM256 288h-149v-21h149v21zM171 181v-21h21v-85h21v85h22v21h-64v0zM277 181h-21v-42h21v42zM299 139h21v42h-21v-42zM341 181v-21h22v-85h21v85h21v21h-64v0zM299 117h-22v22h22v-22zM256 75h21v42h-21v-42zM299 75h21v42h-21v-42z" />
    <glyph glyph-name="uniE628" unicode="&#xe628;" 
d="M510 275v-102h-39v-77h-462v256h462v-77h39v0zM60 301v-154h360v154h-360v0z" />
    <glyph glyph-name="uniE629" unicode="&#xe629;" 
d="M510 275v-102h-39v-77h-462v256h462v-77h39v0zM60 301v-154h360v154h-360v0zM73 160v128h64l64 -128h-128v0z" />
    <glyph glyph-name="uniE62A" unicode="&#xe62a;" 
d="M510 275v-102h-39v-77h-462v256h462v-77h39v0zM60 301v-154h360v154h-360v0zM73 160v128h64l64 -128h-128v0zM157 288h102l64 -128h-102z" />
    <glyph glyph-name="uniE62B" unicode="&#xe62b;" 
d="M510 275v-102h-39v-77h-462v256h462v-77h39v0zM60 301v-154h360v154h-360v0zM73 160v128h64l64 -128h-128v0zM157 288h102l64 -128h-102zM407 288v-128h-64l-64 128h128v0z" />
    <glyph glyph-name="uniE62C" unicode="&#xe62c;" 
d="M266 224v-128h-52v128h-25q-16 0 -27.5 11.5t-11.5 27.5v89h39v52h38v-52h26v52h38v-52h39v-89q0 -16 -11.5 -27.5t-27.5 -11.5h-25v0zM510 275v-102h-39v-77h-192v51h141v154h-77v51h128v-77h39v0zM60 301v-154h141v-51h-192v256h128v-51h-77v0z" />
    <glyph glyph-name="uniE62D" unicode="&#xe62d;" 
d="M260 407l175 -146l-29 -35l-176 146l15 17.5l15 17.5v0zM192 312l207 -97l-19 -41l-207 96l19 42v0zM153 208l223 -47l-9 -45l-223 47l9 45v0zM139 105h228v-46h-228v46v0zM458 -32h-410v183h45v-137h320v137h45v-183v0zM443 269l-136 184l37 27l136 -183z" />
    <glyph glyph-name="uniE62E" unicode="&#xe62e;" 
d="M183 428q0 5 2 8t11 3h159q21 0 33.5 -17.5t20.5 -50.5l9 -36h28q3 76 6 110.5l3 34.5l-39.5 -4t-69.5 -4h-204l-109 4v-29l37 -7q19 -4 25.5 -10.5t8.5 -23.5l1 -49.5t1 -135.5t-1 -134.5l-1 -48.5q0 -16 -7.5 -23t-26.5 -11l-37 -7v-29l109 3h183q30 0 83 -1.5l53 -1.5
q1 19 8.5 80.5t9.5 70.5h-26l-27 -62q-16 -37 -38.5 -44.5t-49.5 -7.5h-103q-26 0 -39 10.5t-13 33.5v158h42t61 -2q14 -1 23 -7.5t14 -26.5l9 -36h29l-2 91l5 92h-30l-10 -41q-5 -19 -11 -25.5t-27 -8.5q-26 -2 -64.5 -2h-38.5v187v0z" />
    <glyph glyph-name="uniE62F" unicode="&#xe62f;" 
d="M400 308q-2 -3 -5.5 -4t-6.5 -2l-78 -22l-78 -22l-78 -22t-79 -22q-12 -4 -23 -9.5t-21 -13.5q-29 -25 -31 -62t24 -64q16 -17 35.5 -25t41.5 -8h95h94.5h95h94.5q15 0 23.5 8t8.5 23v22v21q0 14 -2 16t-16 2h-92h-92.5h-92.5h-93h-7t-9 3q5 1 9.5 2.5t8.5 2.5
q77 22 153.5 43.5t153.5 43.5q12 3 24 8.5t22 13.5q31 25 33 62.5t-26 65.5q-16 16 -35.5 23.5t-41.5 7.5h-95h-94h-94h-94q-15 0 -23 -8t-9 -23v-20v-20q0 -15 2.5 -17.5t16.5 -2.5h92h91.5h91.5h92q3 1 7 1t7 -2v0v0v0z" />
    <glyph glyph-name="uniE630" unicode="&#xe630;" 
d="M259 355q-53 0 -91.5 -37.5t-39.5 -91.5q0 -54 37.5 -92.5t91.5 -38.5q54 -1 92.5 37t38.5 91q1 54 -37 92.5t-92 39.5zM258 159q-28 0 -47 19.5t-19 46.5q1 28 20.5 47t46.5 19q27 -1 46 -20.5t19 -46.5t-19.5 -46t-46.5 -19v0zM256 480h-0.5h-0.5v0h-234
q-8 0 -14.5 -6.5t-6.5 -14.5v-235q0 -53 20 -99.5t55 -81.5t81.5 -55t99.5 -20t99.5 20t81.5 55t55 81.5t20 99.5t-20 99.5t-55 81.5t-81.5 55t-99.5 20zM80 228q1 73 53.5 124.5t125.5 51.5q74 -1 125.5 -53.5t51.5 -126.5q-1 -73 -53.5 -125t-126.5 -51q-73 1 -125 53.5
t-51 125.5v1z" />
    <glyph glyph-name="uniE631" unicode="&#xe631;" 
d="M388 172q-3 -11 -10.5 -25.5t-33.5 -14.5h-50h-34q-2 0 -3 -0.5t-4 -2.5l-17 -20t-114 -132q-7 -9 -17.5 -9t-15.5 2q-4 2 -10 8.5t-6 21.5v373v61q0 13 10 29.5t38 16.5h48.5h224.5q30 0 39.5 -16.5t3.5 -48.5q-5 -21 -12.5 -60t-15.5 -78t-14 -70t-7 -35v0zM378 406
q2 8 -2.5 13t-10.5 5h-30.5h-188.5q-8 0 -12.5 -5.5t-4.5 -11.5v-339l0.5 -0.5t1.5 0.5q60 73 74.5 90.5l14.5 17.5q7 8 12 10.5t15 2.5h61h12q8 0 12.5 5t4.5 8q1 4 5.5 28.5t6.5 30.5q1 7 -4 12.5t-11 5.5h-14.5h-76.5q-9 0 -14.5 6t-5.5 15v13q0 9 5.5 14.5t14.5 5.5
h90.5h16.5q5 0 10.5 4.5t6.5 8.5l11 60v0zM388 172q1 4 7 35t14 70t15.5 78t12.5 60z" />
    <glyph glyph-name="uniE632" unicode="&#xe632;" 
d="M441 142v0h-1q-4 3 -8 5t-11 4q-8 3 -22 7.5t-40 13.5q-3 1 -5.5 2t-5.5 2q28 6 43 10t22 6q9 2 13.5 3.5t8.5 4.5h1q9 7 14 17t5 21q0 1 -0.5 2t-0.5 2q-1 14 -9.5 29.5t-15.5 25.5q-8 12 -19 25t-23 19v0q-5 2 -10 3t-10 1q-6 0 -12 -1.5t-11 -5.5q-5 -3 -8 -6.5
t-8 -10.5q-5 -6 -13.5 -18t-24.5 -34l-2 -2l-2 -2v0.5v1.5l-5.5 93.5t-6.5 84.5v1v2q-4 11 -12.5 19.5t-20.5 11.5v0q-3 0 -6.5 0.5t-7.5 0.5q-17 0 -37 -5l-28 -7q-21 -7 -35.5 -14t-21.5 -14v0q-9 -9 -12 -20t0 -22l1 -2l1 -3q1 -1 14 -22t84 -133q0 -1 0.5 -1.5l0.5 -0.5
q-26 10 -41.5 16.5t-22.5 9.5q-9 3 -14 4.5t-10 1.5h-0.5h-0.5q-11 0 -21 -5.5t-16 -15.5v0q-2 -3 -6 -12t-6 -32q-1 -12 -1 -24.5t1 -22.5v-1q1 -9 3 -16t4 -13q6 -10 15.5 -16.5t21.5 -7.5h1.5h0.5q5 0 9.5 1.5t12.5 3.5t21.5 6.5l37.5 12.5q-17 -21 -28 -33.5t-16 -18.5
q-5 -7 -8 -11.5t-5 -9.5q-2 -4 -2.5 -9t0.5 -9q0 -7 2.5 -13t7.5 -11v-1q8 -9 22.5 -16.5t26.5 -12.5q8 -3 24.5 -8t30.5 -5h5t4 1h1q12 2 21 9t12 18l1 1q1 4 1.5 9t0.5 12q1 8 1 23.5v41.5v4.5v4.5l1 -1q14 -24 23 -38.5t14 -22.5t8.5 -12t7.5 -7q5 -5 12 -7t14 -2
q4 0 8.5 0.5t8.5 2.5q12 5 24.5 17.5t21.5 23.5t18 26t11 28q1 13 -3 23.5t-13 18.5v0zM293 227l9.5 13l9.5 13q31 43 37.5 51.5t8.5 10.5q2 1 4.5 1.5t4.5 0.5t4 -0.5t4 -0.5q12 -7 31 -35t21 -42v-1v0q0 -5 -1.5 -9t-5.5 -6q-2 -2 -13.5 -5t-69.5 -17q-10 -2 -16.5 -3.5
l-6.5 -1.5q-1 -1 -2.5 -1h-2.5q-4 0 -8.5 2.5t-7.5 7.5q-4 5 -4 11.5t4 10.5v0zM120 405q-1 4 0 8t5 8q9 10 45.5 20.5t56.5 10.5h4h3q5 -1 8.5 -4t4.5 -8t5.5 -78t5.5 -96q1 -20 -4.5 -25.5t-8.5 -5.5q-1 -1 -2.5 -1h-2.5q-5 0 -11 3.5t-13 14.5l-14.5 23.5t-32.5 51.5
t-33 52t-16 26zM102 130v0v0q-5 0 -8.5 2.5t-5.5 6.5q-2 3 -3 8t-1 11q-2 19 0 42.5t7 31.5q3 4 6.5 6.5t7.5 2.5h0.5h0.5q2 0 13.5 -4.5t66.5 -27.5l22 -9q5 -2 8.5 -7.5t3.5 -12.5q-1 -6 -4.5 -11t-9.5 -7l-15 -4.5l-15 -4.5q-48 -16 -59.5 -19.5t-14.5 -3.5v0zM257 116
v-16v-16v-64.5t-1 -13.5q-2 -4 -5 -6.5t-8 -3.5h-2h-2q-17 0 -46 11t-38 21q-1 2 -2.5 4.5t-1.5 5.5v3t1 3q1 3 8.5 12.5t46.5 54.5l7.5 9l7.5 9q3 3 6.5 5t7.5 2q3 0 5 -0.5t4 -1.5q6 -2 9.5 -7t2.5 -11v0zM429 105q-2 -14 -23 -41.5t-34 -32.5q-2 -1 -4 -1h-3q-3 0 -5 0.5
t-4 2.5q-3 2 -10 12.5t-37 60.5l-12 19q-4 6 -3 12.5t5 11.5q3 4 7 6t8 2q2 0 3.5 -0.5t2.5 -0.5q0 -1 15 -6l15 -5q52 -16 62 -19.5t12 -5.5q3 -3 4.5 -7t0.5 -9v1z" />
    <glyph glyph-name="uniE633" unicode="&#xe633;" 
d="M314 -32q-14 0 -23 5.5t-17 18.5l-81 126l-37 -38v-60q0 -21 -13.5 -36.5t-32.5 -15.5t-32.5 15.5t-13.5 36.5v408q0 21 13.5 36.5t32.5 15.5t32.5 -15.5t13.5 -36.5v-229l115 124q10 11 19.5 17t21.5 6q19 0 30 -14.5t11 -32.5q0 -13 -6 -24t-15 -21l-73 -71l86 -133
q6 -10 9 -18t3 -16q0 -22 -13 -35t-30 -13v0v0zM435 82q-23 0 -39 16.5t-16 39.5t16 39.5t39 16.5t39.5 -16.5t16.5 -39.5t-16.5 -39.5t-39.5 -16.5z" />
    <glyph glyph-name="uniE634" unicode="&#xe634;" 
d="M483 306q-29 29 -70 29t-70 -29l-157 -157q-7 -7 -7 -17.5t7 -17.5t17.5 -7t17.5 7l157 157q15 14 35.5 14t34.5 -14q15 -14 15 -34.5t-15 -35.5l-154 -154q14 -15 34.5 -15t35.5 15l119 119q29 29 29 70t-29 70v0zM431 254q-7 7 -17.5 7t-17.5 -7l-157 -158
q-15 -14 -35.5 -14t-34.5 14q-8 8 -18 8t-17 -8q-8 -7 -8 -17t8 -18q29 -29 69.5 -29t69.5 29l158 158q7 7 7 17t-7 18v0zM378 411q-29 29 -69.5 29t-69.5 -29l-158 -157q-7 -8 -7 -18t7 -17q7 -8 17.5 -8t17.5 8l157 157q15 14 35.5 14t34.5 -14q8 -7 18 -7t17 7t7 17
t-7 18v0zM326 358q-7 7 -17.5 7t-17.5 -7l-157 -157q-15 -14 -35.5 -14t-34.5 14q-15 15 -15 35.5t15 34.5l154 154q-14 15 -34.5 15t-35.5 -15l-119 -119q-29 -29 -29 -70t29 -70t70 -29t70 29l157 157q7 8 7 18t-7 17v0z" />
    <glyph glyph-name="uniE635" unicode="&#xe635;" 
d="M506 77q-2 15 -8.5 27.5t-16.5 23.5q-10 10 -18.5 20.5t-16.5 22.5q-14 23 -22.5 47.5t-11.5 52.5q-1 19 1 39t7 39q3 12 3 24t-3 24q-10 40 -45.5 59.5t-74.5 7.5q-25 -7 -41 -24t-24 -42q-4 -15 -10 -29.5t-14 -28.5q-24 -40 -58.5 -65.5t-78.5 -37.5q-35 -9 -54 -35.5
t-19 -55.5q1 -5 1.5 -9.5t0.5 -8.5q8 -40 42.5 -61.5t73.5 -12.5q20 5 40.5 7t41.5 1q14 -1 28.5 -4t28.5 -8q25 -9 46.5 -22.5t39.5 -31.5q15 -14 32 -21t36 -7q16 0 30 4.5t27 13.5v0q22 17 31.5 40t5.5 51v0zM279 101q-39 0 -66.5 27.5t-27.5 65.5t27.5 65.5t65.5 27.5
q39 0 66.5 -27t27.5 -66q0 -38 -27 -65.5t-66 -27.5v0z" />
    <glyph glyph-name="uniE636" unicode="&#xe636;" 
d="M460 392q-62 -3 -89.5 -39.5t-50.5 -84.5h87v-88h-120q-17 -41 -36 -79t-46.5 -67t-64 -46.5t-88.5 -19.5v88q78 4 111.5 69.5t63.5 143t77.5 143t155.5 68.5v-88v0z" />
    <glyph glyph-name="uniE637" unicode="&#xe637;" 
d="M78 247q-1 0 3.5 -10t5.5 -10q15 -28 46 -45t81 -22q-7 -5 -14 -14.5t-8 -21.5q-9 -6 -25 -7.5t-30 2.5q-20 7 -33.5 32.5t-43.5 20.5q-6 -1 -5.5 -4.5t6.5 -7.5q9 -6 17 -14t15 -24q5 -12 18.5 -28t47.5 -16q13 0 21.5 1.5l8.5 1.5v-22v-34q0 -13 -12.5 -19t-12.5 -13
q0 -2 5 -2.5t10 -0.5q10 0 25 7.5t15 21.5v39v34q0 15 5.5 20l5.5 5v-52.5t-3 -62.5q-3 -12 -7.5 -14t-4.5 -7q0 -8 17.5 -2.5t25.5 23.5q6 13 5.5 65.5l-0.5 52.5h9v-25.5v-41.5t0.5 -34t10.5 -28q6 -6 21 -13t15 4q0 6 -7.5 12.5t-7.5 22.5v99q9 0 10 -16l1 -16v-61l2 -12
t23 -19q7 -2 18.5 -2t11.5 4q1 4 -11.5 11t-12.5 19v18v44q0 33 -5.5 48.5t-21.5 25.5q49 5 80.5 19.5t46.5 46.5q1 0 4.5 10t2.5 10q3 13 5 27.5t2 31.5q0 46 -15.5 66t-20.5 27q7 36 2.5 53t-8.5 23q-12 4 -38.5 -7.5t-43.5 -22.5q-28 8 -76.5 7t-70.5 -10
q-41 29 -62.5 31l-21.5 2l-8 -23t3 -59q-14 -17 -23 -33t-9 -48q0 -18 2.5 -34t7.5 -30v0v0v0z" />
    <glyph glyph-name="uniE638" unicode="&#xe638;" 
d="M256 480q-53 0 -99.5 -20t-81.5 -55t-55 -81.5t-20 -99.5t20 -99.5t55 -81.5t81.5 -55t99.5 -20t99.5 20t81.5 55t55 81.5t20 99.5t-20 99.5t-55 81.5t-81.5 55t-99.5 20zM378 42q-2 10 -11.5 53.5t-30.5 102.5q51 9 90.5 1t45.5 -10q-7 -46 -32 -84t-62 -63v0v0v0z
M322 233q-1 3 -2 5.5t-2 5.5q-4 8 -7.5 16t-7.5 16q61 24 90 52.5t32 33.5q23 -28 36 -63t14 -73q-6 1 -52 7.5t-101 -0.5v0v0v0zM286 308q-26 50 -51.5 86t-29.5 42q12 3 25 4.5t26 1.5q42 0 79 -14.5t66 -40.5q-3 -4 -29.5 -30.5t-85.5 -48.5v0v0zM42 268q11 51 43 91.5
t78 62.5q4 -6 29 -42.5t52 -84.5q-77 -20 -136 -23.5t-66 -3.5v0zM262 261q5 -9 9.5 -18t8.5 -19q-2 0 -4.5 -1t-4.5 -1q-84 -28 -129 -83t-48 -62q-27 30 -42 67.5t-15 79.5v3v3q8 0 75.5 3.5t149.5 27.5v0v0v0zM293 188h1h1q23 -60 33.5 -105.5t12.5 -60.5
q-19 -8 -40.5 -12.5t-44.5 -4.5q-38 0 -72.5 12t-61.5 34q3 6 41 55t130 82v0v0v0z" />
    <glyph glyph-name="uniE639" unicode="&#xe639;" 
d="M268 480q73 0 129 -46t56 -122q0 -72 -38 -137t-120 -65q-19 0 -40.5 9.5t-30.5 27.5q-18 -70 -26 -97t-47 -80l-5 -2l-2 3q-2 15 -3.5 29.5t-1.5 28.5q0 47 16.5 108t26.5 106q-6 12 -8 26t-2 26q0 24 15.5 47.5t41.5 23.5q19 0 29.5 -13t10.5 -31q0 -30 -13.5 -58.5
t-13.5 -57.5q0 -20 14 -32.5t33 -12.5q53 0 73 58t20 98q0 55 -35 84t-87 29q-61 0 -102.5 -39.5t-41.5 -101.5q0 -30 12 -46t12 -23q0 -6 -4 -21.5t-12 -15.5q-1 0 -2.5 0.5t-2.5 0.5q-33 10 -46.5 46t-13.5 66q0 43 18 77t47.5 58t67 36.5t76.5 12.5v0z" />
    <glyph glyph-name="uniE63A" unicode="&#xe63a;" 
d="M495 199l-3 5q-5 7 -9.5 13t-10.5 10t-12 7t-12 5q17 9 28.5 20t16.5 26q4 11 3 21t-7 20v2q-6 10 -15 17.5t-22 10.5q-9 2 -17.5 2h-16.5l-24 -5l8 18q6 17 4 33.5t-11 31.5l-2 4q-8 13 -20 21.5t-28 12.5q-17 5 -32.5 3t-30.5 -10t-25.5 -20t-15.5 -29v-1v-5l-3 5
l-7 13q-9 13 -20 21.5t-24 12.5q-12 2 -22 1t-20 -6q-12 -7 -18.5 -18t-8.5 -26q-3 -16 -0.5 -31t10.5 -30l5 -7l-17 6q-16 4 -31 1.5t-30 -10.5q-16 -8 -26 -19.5t-17 -26.5q-5 -15 -4.5 -29.5t7.5 -28.5q4 -5 8.5 -10t8.5 -8q6 -7 14 -10.5t18 -5.5l5 -1l-11 -10
q-7 -6 -11.5 -14t-7.5 -16q-3 -9 -1.5 -18.5t6.5 -19.5q3 -4 6 -7.5t7 -6.5q4 -4 9.5 -6.5t11.5 -2.5q12 -3 24.5 -2.5t25.5 4.5l-12 -21l-4 -10q-5 -17 -3.5 -32.5t9.5 -30.5q3 -6 7.5 -11.5t8.5 -10.5q7 -6 15 -10t17 -6q16 -5 32 -4t32 9q15 9 25 21.5t14 28.5l1 4
q10 -11 20 -18.5t21 -10.5t21.5 -2t19.5 7t15.5 14.5t9.5 20.5t3 24t-3 25q6 -4 11.5 -6.5t11.5 -4.5q17 -5 32.5 -4t30.5 9t24.5 20.5t14.5 29.5q4 16 2.5 31.5t-9.5 30.5v0zM391 318l9 4q10 4 19 5.5t19 0.5q9 -2 15.5 -6t9.5 -10l3 -9l-2 -8q-3 -9 -11.5 -16.5
t-21.5 -13.5q-6 -3 -11.5 -4.5t-12.5 -2.5l-88 -11l-1 5l-2 3l3 3l72 60v0zM270 408q3 11 10 19t17 13q9 6 19.5 7t20.5 -3q12 -3 20 -8.5t12 -15.5q3 -5 4.5 -11.5t1.5 -13.5l-2 -15q-2 -6 -5 -11.5t-6 -10.5l-64 -78q-5 3 -10.5 6t-10.5 6l-7 80l-1 29l1 7v0zM147 406
q1 10 4.5 16.5t10.5 10.5q3 2 7.5 2.5t8.5 -2.5q10 -2 18 -9.5t14 -20.5q3 -6 5.5 -11.5t3.5 -11.5l14 -85l-10 -3l-64 69l-4 7q-4 10 -6.5 19t-1.5 19v0zM77 235l-7 1q-10 2 -16.5 6t-11.5 13q-4 8 -4 16t3 16q4 10 11 18t17 12q10 5 19.5 6.5t20.5 -0.5l19 -8l63 -46
q-4 -5 -7 -10.5t-4 -11.5v0l-103 -12v0zM241 43v-7q-4 -9 -10.5 -17t-16.5 -12q-10 -5 -20 -6.5t-19 1.5q-11 3 -19 9t-12 15q-3 5 -5 11t-2 13l4 16q1 6 4 11t7 9l60 72q5 -3 10.5 -5t11.5 -3q1 -18 3 -37.5t4 -40.5v0v-29v0zM218 187q-7 6 -11 15t-4 18q0 10 4 18t11 16
q6 6 14.5 9.5t18.5 3.5t18.5 -3.5t14.5 -9.5q8 -8 11 -16t3 -18q0 -9 -3 -18t-11 -15q-7 -7 -15 -11t-18 -4t-18.5 4t-14.5 11zM350 61q-1 -9 -4.5 -16t-9.5 -9q-4 -3 -8 -3.5t-9 0.5q-10 2 -18 10t-14 21l-9 24l-10 62l12 4l9 5l30 -30l19 -23l3 -7q5 -10 7.5 -18.5
t1.5 -19.5v0zM473 145q-3 -11 -9 -18.5t-15 -12.5q-10 -5 -20 -6t-20 3q-7 1 -11.5 4t-8.5 7l-75 62l5 11l2 9l81 7l29 1l7 -1q8 -3 15 -8t11 -13q6 -6 8.5 -13.5t2.5 -17.5l-2 -14v0z" />
    <glyph glyph-name="uniE63B" unicode="&#xe63b;" 
d="M400 304q-26 0 -45 -19t-19 -45t19 -45t45 -19t45 19t19 45t-19 45t-45 19zM400 352v0q46 0 79 -33t33 -79t-33 -79t-79 -33t-79 33t-33 79t33 79t79 33zM0 240q0 46 33 79t79 33t79 -33t33 -79t-33 -79t-79 -33t-79 33t-33 79z" />
    <glyph glyph-name="uniE63C" unicode="&#xe63c;" 
d="M70 339v-84v-83.5v-83v-82.5h43.5h43.5v134.5v135.5h19h18v-5v-3v-89.5v-89.5q0 -8 1 -17l2 -18q1 -7 3 -14t5 -13q8 -14 21.5 -19t28.5 -6q18 -1 36.5 -1t36.5 3q3 1 3.5 3t0.5 4v27.5v27.5v0.5t-1 1.5h-14.5h-15.5q-5 0 -9 3t-6 8q-1 6 -2 11.5t-1 11.5q-1 41 -1 83v84
v3.5v3.5h25.5h24.5v31.5v31.5h-25h-25v54.5v54.5h-44h-44v-55v-54h-62h-62v0v0zM431 127q1 10 2 19t1 18q2 19 3 37l2 36q1 16 2 32.5t1 32.5v69.5v69.5v3.5v3.5h-45h-44v-2v-2q1 -37 -0.5 -75t2.5 -75q1 -9 2 -17.5t0 -17.5q0 -15 1.5 -29.5t2.5 -29.5q1 -13 1.5 -26
t1.5 -26q0 -5 0.5 -10.5t1.5 -10.5h32.5h32.5v0zM442 89h-45h-44v-42v-41h44.5h44.5v41.5v41.5zM157 448h-44h-43v-37.5v-37.5h43.5h43.5v37.5v37.5z" />
    <glyph glyph-name="uniE63D" unicode="&#xe63d;" 
d="M461 480h-410q-21 0 -36 -15t-15 -36v-410q0 -21 15 -36t36 -15h410q21 0 36 15t15 36v410q0 21 -15 36t-36 15zM401 186h-109v-109h-72v109h-109v73h109v108h72v-108h109v-73v0z" />
    <glyph glyph-name="uniE63E" unicode="&#xe63e;" 
d="M287 -29q-3 1 -12 2t-18 1t-20 -1.5l-11 -1.5l-6 -1l4 216q-4 7 -9.5 16.5t-12.5 21.5q-14 25 -33 57.5t-38.5 66t-39.5 65.5t-36 56l-7 11l13 -3q10 -2 17 -3t14 -1t15 1t17 3l4 1l2 -3q19 -34 44.5 -76t51.5 -84q7 -13 15 -26t16 -25l6 10l6 10q33 54 68 111t47 80l3 5
l26 -17q18 2 34.5 9l16.5 7q-10 -16 -32.5 -53t-48.5 -81t-51.5 -87.5t-41.5 -71.5l4 -218z" />
    <glyph glyph-name="uniE63F" unicode="&#xe63f;" 
d="M334 480q32 0 54 -21.5t22 -52.5q0 -32 -22 -53.5t-53 -21.5t-53 21.5t-22 52.5t21.5 53t52.5 22v0zM479 225q-14 -3 -27 -6.5t-26 -4.5q-22 -2 -43 -1.5t-43 0.5q-6 0 -12 -0.5t-11 -2.5q-8 -2 -10.5 -9t1.5 -14q4 -6 8.5 -11t9.5 -10q41 -35 68.5 -78t43.5 -94v-1v-2
q-14 -5 -28.5 -11t-29.5 -12l-6 12l-6 12q-19 35 -46 62t-60 49q-3 1 -5.5 3t-5.5 3q-6 2 -10.5 1t-9.5 -6q-16 -16 -34 -30.5t-39 -25.5q-27 -14 -55.5 -20.5t-58.5 -9.5q-1 0 -3.5 1t-2.5 2q-3 15 -6 29.5t-5 29.5q10 2 19.5 4.5t19.5 4.5q41 13 72.5 37.5t53.5 61.5
q5 9 7.5 19t5.5 20q8 24 18.5 46.5t28.5 40.5q9 9 11.5 9t12.5 -7q22 -19 48 -27.5t54 -11.5q22 -3 44.5 -2t45.5 5q3 1 5 -0.5t2 -4.5q2 -10 4.5 -20.5t4.5 -20.5q1 -4 -0.5 -6t-4.5 -3v0v0z" />
    <glyph glyph-name="uniE640" unicode="&#xe640;" 
d="M252 480q-23 0 -46 -4t-45 -13l4.5 -3.5t11.5 -10.5q8 -7 17 -15t20 -17q10 -10 21.5 -20t24.5 -21q12 -11 23.5 -21.5t21.5 -19.5q11 -10 19.5 -18t15.5 -15l10.5 -10.5t3.5 -4.5v175q-8 3 -16.5 6t-16.5 5q-9 2 -17.5 3.5t-15.5 1.5q-8 1 -17 1.5t-19 0.5v0v0v0z
M139 451q-32 -16 -57.5 -39.5t-44.5 -53.5q-18 -31 -27.5 -64t-9.5 -70q0 -15 2.5 -32t6.5 -34l227 206q-1 1 -7.5 6.5t-17.5 16.5q-12 11 -24 21.5t-23 21.5q-12 10 -18.5 15.5l-6.5 5.5v0v0v0zM386 446v-319h108q7 23 11.5 45t5.5 42t-1 41t-7 43q-3 11 -7.5 22.5
t-10.5 22.5q-7 12 -14.5 23t-15.5 20q-8 10 -17 19t-18 17t-17.5 14t-16.5 10v0v0v0zM126 3v223q0 -1 -2.5 -4t-8.5 -9q-5 -5 -11.5 -11t-14.5 -13q-7 -6 -15 -13t-15 -13q-7 -7 -14 -12.5t-13 -10.5l-11 -10q14 -42 40.5 -73.5t64.5 -53.5v0v0zM158 96v-109q12 -6 26 -10
t31 -6t34.5 -2t34.5 2q17 1 32 4.5t27 8.5q14 6 26.5 12.5t24.5 13.5q12 8 23.5 17.5t22.5 20.5q12 11 21.5 23t17.5 25h-321v0z" />
    <glyph glyph-name="uniE641" unicode="&#xe641;" 
d="M205 480h73v-118h119v-92h-119v-131q0 -22 0.5 -35.5t2.5 -19.5q2 -7 7.5 -13t11.5 -9q9 -5 18.5 -8t20.5 -3q20 0 39 6.5t39 19.5v-81q-17 -8 -31.5 -13.5t-28.5 -8.5q-13 -3 -27.5 -4.5t-29.5 -1.5q-18 0 -30 2t-25 7q-14 4 -25.5 10.5t-20.5 14.5q-10 8 -16.5 17
t-10.5 18q-3 9 -5 22.5t-2 30.5v180h-70v73q15 5 31 12t27 16t19.5 20t15.5 24q6 13 10.5 29t6.5 36v0v0v0z" />
    <glyph glyph-name="uniE642" unicode="&#xe642;" 
d="M85 378v0v0h47q2 0 3.5 1.5t1.5 3.5v22v30v1q0 7 1.5 13t3.5 11l2 3h-0.5h-0.5l-92 -92l-0.5 -0.5l-0.5 -0.5q2 1 3.5 2l1.5 1q6 2 13.5 3.5t16.5 1.5v0zM455 388q-3 15 -11 23.5t-16 10.5q-8 4 -25.5 7t-39.5 6q-18 2 -37.5 2h-31.5q-2 10 -8.5 19t-14.5 12
q-22 9 -50 8.5t-37 -2.5q-7 -2 -13.5 -6t-11.5 -10q-3 -4 -4.5 -9.5t-1.5 -13.5v-12.5v-17.5v-15.5v-6.5q0 -8 -5.5 -13.5t-12.5 -5.5h-48q-8 0 -13.5 -1t-10.5 -3q-4 -2 -7.5 -5t-5.5 -6q-5 -6 -6.5 -13.5t-1.5 -16.5l0.5 -6.5t2.5 -18.5q1 -10 10 -61.5t19 -72.5
q4 -8 8 -12.5t11 -7.5q18 -8 50 -15t50 -9q19 -3 31 -4t19 13l1 3.5t3 8.5q6 18 7.5 34t1.5 27q0 2 1 2t1 -2q0 -8 3 -30t25 -30q8 -3 24.5 -5.5t34.5 -4.5q17 -2 28 -14t11 -54q0 -26 -8.5 -33t-36.5 -7q-23 0 -33 3t-10 21q0 15 11.5 16.5t22.5 1.5q5 0 3.5 3.5t-1.5 13.5
q0 9 3 14t-3 5q-37 1 -58 -7.5t-21 -55.5q0 -42 19.5 -54.5t72.5 -12.5q42 0 61.5 10t36.5 63q4 11 11 43t12 86q3 34 -1.5 113t-9.5 105v0zM358 236h-10t-9 -1q1 10 6.5 20.5t21.5 9.5q17 0 21 -12.5t4 -23.5q-7 3 -15.5 5t-18.5 2v0z" />
    <glyph glyph-name="uniE643" unicode="&#xe643;" 
d="M148 384q12 0 22 -1t19 -3q10 -2 17.5 -5t14.5 -8q7 -4 12 -10t9 -14q3 -7 5 -16.5t2 -20.5q0 -12 -3 -21.5t-8 -17.5t-13 -14.5t-19 -11.5q15 -5 25.5 -12t17.5 -18q7 -10 10.5 -22.5t3.5 -27.5q0 -12 -2 -22.5t-7 -18.5q-4 -9 -10.5 -16t-14.5 -13q-8 -5 -16.5 -9.5
t-18.5 -6.5q-10 -3 -20.5 -4t-21.5 -1h-152v314h148v0zM139 257q10 0 17.5 2t13.5 7q6 4 9 11.5t3 16.5q0 6 -1 10.5t-3 8.5q-2 3 -5 6t-6 4q-3 2 -7 3.5t-8 2.5q-5 1 -9.5 1.5t-8.5 0.5h-65v-74h70v0zM143 123q5 0 10 0.5t10 1.5q4 1 8 2.5t8 4.5q3 2 6 5t5 7t3 9.5t1 11.5
q0 12 -3.5 20.5t-9.5 14.5q-7 5 -16 7.5t-20 2.5h-76v-87h74v0zM362 124q7 -7 17 -10t23 -3q10 0 18 2t15 7t11 10t6 10h55q-7 -20 -17 -35t-24 -23q-13 -9 -29.5 -13.5t-36.5 -4.5q-13 0 -25 2t-23 6q-11 5 -20 11t-17 14q-7 8 -13 17.5t-10 20.5t-6 23t-2 25t2 25t6 23
t10 20.5t14 17.5t17 14.5t20 11.5q11 4 22.5 6.5t24.5 2.5q15 0 27.5 -3t23.5 -8q11 -6 20 -13.5t16 -17.5q7 -9 11.5 -20t8.5 -23q3 -12 4 -24.5t0 -26.5h-164q0 -13 4 -25t11 -19v0zM434 244q-6 6 -15 9.5t-20 3.5q-8 0 -14 -1.5t-11 -3.5q-5 -3 -9 -6t-7 -7t-5 -8l-4 -8
q-1 -4 -1.5 -8t-0.5 -7h101q-1 12 -4.5 21t-9.5 15v0zM334 363v-31h127v31h-127v0z" />
    <glyph glyph-name="uniE644" unicode="&#xe644;" 
d="M0 480v-512h512v512h-512zM410 275h-103v-102h-102v-103h-103v308h308v-103v0z" />
    <glyph glyph-name="uniE645" unicode="&#xe645;" 
d="M126 144q1 -1 2.5 -5t2.5 -7q6 -15 15 -28t21 -25q11 -12 24.5 -21t28.5 -15q16 -6 32 -9.5t33 -3.5t33.5 3.5t31.5 9.5t28.5 15t25.5 21q11 12 20 25t16 28q6 16 9.5 32.5t3.5 32.5q0 17 -3.5 33.5t-9.5 32.5q-7 15 -16 28t-20 25q-12 12 -25.5 21t-28.5 15t-31.5 9.5
t-33.5 3.5t-34 -3.5t-32 -9.5q-12 -5 -30 -17t-30 -24v0v137h232q6 1 7 7t1 9t-1 9.5t-7 6.5h-251q-5 0 -8 -3.5t-3 -7.5v-194q0 -5 5 -8t10 -4q11 -3 14.5 -0.5t6.5 6.5l1 1q4 6 12.5 15t9.5 9q19 20 44 30t53 10q27 0 52 -10t45 -30q19 -19 29.5 -44t10.5 -52
q0 -28 -10.5 -53t-29.5 -44t-44.5 -29.5t-53.5 -10.5q-18 0 -35.5 5t-33.5 14v118q0 12 5 24t14 22q10 11 23 17t27 6q15 0 28 -5.5t23 -14.5q9 -10 14.5 -22.5t5.5 -26.5q0 -30 -20.5 -50.5t-50.5 -20.5q-5 0 -13 2t-9 2q-6 2 -8.5 -4t-3.5 -8q-3 -11 -0.5 -14t3.5 -4
q10 -3 17 -3.5t15 -0.5q42 0 72 29.5t30 71.5t-30 71.5t-72 29.5q-20 0 -38.5 -8t-33.5 -22q-14 -13 -21.5 -30.5t-7.5 -35.5v-1v-40.5v-56.5v0q-8 9 -15.5 21.5t-12.5 26.5q-2 5 -6.5 5t-10.5 -2q-3 -1 -8.5 -3.5t-4.5 -8.5v0v0zM246 171q0 -2 1.5 -4.5t3.5 -3.5v0
q3 -3 5 -4t4 -1t3 0.5l1 0.5l9.5 9.5l9.5 9.5l18 -17q1 -2 2.5 -2.5t2.5 -0.5q2 0 4.5 1.5t4.5 3.5q6 6 5 9t-2 5l-18 18l18 19q3 3 1.5 6.5t-4.5 5.5q-4 4 -7.5 5t-5.5 -1l-19 -19l-19 19q0 1 -1 1.5t-2 0.5q-2 0 -4.5 -1.5t-4.5 -3.5q-4 -5 -5 -8t1 -5l19 -19l-19 -19
q-1 -1 -1.5 -2t-0.5 -3v0zM286 425q-22 0 -44.5 -4.5t-40.5 -11.5q-2 -1 -3 -2.5t-1 -3.5t0.5 -4.5t1.5 -6.5q1 -2 4 -7.5t9 -2.5q18 6 37 10t37 4q21 0 41 -4t38 -12q15 -6 29.5 -15.5t29.5 -22.5l3 -1.5t2 -0.5q3 0 6 2.5t5 4.5q4 5 6 9t-2 8q-15 13 -31 24t-36 19
q-22 9 -44.5 13.5t-45.5 4.5h-1zM448 54v0q-2 3 -4.5 4.5t-4.5 2.5h-4t-3 -2l-2 -2q-14 -14 -30 -24.5t-34 -18.5q-19 -8 -39 -12t-40 -4q-21 0 -40.5 4t-38.5 12q-18 8 -34.5 18.5t-30.5 24.5q-14 15 -25 31t-18 34q-7 17 -9.5 29t-3.5 16v1v0q-1 5 -5.5 6t-10.5 0
q-3 0 -9 -2t-5 -8v0q2 -14 6 -27.5t9 -26.5q9 -21 21.5 -39.5t28.5 -34.5t34.5 -28.5t39.5 -21.5q22 -9 44.5 -13.5t46.5 -4.5q23 0 46 4.5t44 13.5t39.5 21.5t34.5 28.5l1 0.5t1 1.5q2 2 2 5.5t-7 10.5v0z" />
    <glyph glyph-name="uniE646" unicode="&#xe646;" 
d="M507 326l-4.5 19.5t-15.5 31.5q-15 15 -29.5 18t-22.5 4q-53 4 -116 4.5l-63 0.5v0l-62.5 -0.5t-116.5 -4.5q-8 -1 -22.5 -4t-28.5 -18q-12 -12 -16.5 -31.5l-4.5 -19.5l-2.5 -25.5t-2.5 -57.5v-38q0 -31 2.5 -57l2.5 -26l4.5 -19.5t15.5 -31.5q15 -15 31.5 -17.5
t25.5 -4.5q31 -3 102.5 -4l71.5 -1l62.5 1t116.5 4q8 1 22.5 4t28.5 18q12 12 16.5 31.5l4.5 19.5l2.5 26t2.5 57v38q0 31 -2.5 57zM203 158v143l138 -72l-138 -71v0z" />
    <glyph glyph-name="uniE647" unicode="&#xe647;" 
d="M283 277l35 -16l52 15v37q-1 46 -34 78.5t-80 32.5q-46 0 -79.5 -32.5t-34.5 -78.5v-165q0 -11 -8 -19t-19 -8q-12 0 -19.5 8t-7.5 19v70h-88v-35v-36q0 -47 33.5 -80.5t81.5 -33.5q47 0 80 33t34 79v164q0 11 8 19t19 8t19 -8t8 -19v-32v0zM424 218v-73q0 -12 -7.5 -20
t-19.5 -8q-11 0 -19 8t-8 20v71l-52 -15l-35 16v-71q0 -47 33.5 -80t81.5 -33q47 0 80.5 33.5t33.5 80.5v36v35h-88v0z" />
    <glyph glyph-name="uniE648" unicode="&#xe648;" 
d="M0 480v-512h512v512h-512zM480 0h-224v224h-224v224h224v-224h224v-224z" />
    <glyph glyph-name="uniE649" unicode="&#xe649;" 
d="M296 -32v233h78l12 91h-90v59q0 19 8 31.5t37 12.5h48v81q-6 1 -25.5 2.5t-44.5 1.5q-52 0 -84.5 -31t-32.5 -89v-67h-79v-91h79v-234h94z" />
    <glyph glyph-name="uniE64A" unicode="&#xe64a;" 
d="M512 383q-14 -6 -29 -10.5t-31 -6.5q16 10 28 25t18 33q-15 -9 -32 -15.5t-35 -9.5q-14 15 -34 24t-43 9q-43 0 -74 -30.5t-31 -74.5q0 -6 1 -12l2 -12q-65 3 -121 32.5t-95 77.5q-7 -12 -11 -25.5t-4 -27.5q0 -27 13 -50t34 -37q-13 0 -25 3.5t-22 9.5v-1v-1
q0 -38 24 -66.5t60 -36.5l-14 -2t-14 -1q-5 0 -10 0.5t-10 1.5q10 -32 37 -52.5t62 -20.5q-27 -21 -60.5 -33t-70.5 -12h-12.5t-12.5 1q35 -22 76 -34.5t85 -12.5q72 0 128 27t94 70t57.5 96.5t19.5 105.5v6.5v6.5q15 12 28 25.5t24 29.5v0z" />
    <glyph glyph-name="uniE64B" unicode="&#xe64b;" 
d="M451 280h-25q-12 0 -20.5 8.5t-9.5 19.5q0 60 -42.5 100t-102.5 40h-73q-61 0 -103.5 -42.5t-42.5 -102.5v-158q0 -60 42.5 -102.5t103.5 -42.5h156q61 0 103.5 42.5t42.5 102.5v102q0 12 -8.5 22.5t-20.5 10.5v0zM172 336h84q12 0 20 -8t8 -20t-8 -20t-20 -8h-84
q-12 0 -20 8t-8 20t8 20t20 8zM340 112h-168q-12 0 -20 8t-8 20t8 20t20 8h168q12 0 20 -8t8 -20t-8 -20t-20 -8z" />
    <glyph glyph-name="uniE64C" unicode="&#xe64c;" 
d="M82 372v-72h-82v-174h133v246h-51v0zM82 167h-31v92h31v-92zM154 300h51v-174h-51v174v0zM154 372h51v-52h-51v52v0zM225 300v-174h82v-21h-82v-41h133v236h-133v0zM307 167h-30v92h30v-92zM379 300v-174h82v-21h-82v-41h133v236h-133zM461 167h-31v92h31v-92z" />
    <glyph glyph-name="uniE64D" unicode="&#xe64d;" 
d="M250 80l-41 6t-85 52q-25 25 -47 59.5t-39 65.5t-27 53l-10 22l-1 4.5t2 8.5q3 3 9 4l6 1h73l4 -1t8 -4q3 -2 4.5 -5l1.5 -3l8 -18t19 -39q23 -39 35.5 -50.5t20.5 -7.5q11 6 10.5 40l-0.5 34l-0.5 13.5t-6.5 21.5q-5 6 -12 8.5t-11 2.5q-3 0 1 5.5t10 8.5q10 5 27 6
t37 1q16 0 23 -1t13 -3q19 -4 18 -23.5t-1 -61.5v-29t10 -23q4 -2 16 6t37 52q12 20 20.5 39.5l8.5 19.5l1.5 3.5t4.5 5.5q4 1 7 1h3l77 1h12t15 -8t-6.5 -27t-33.5 -51q-39 -51 -42.5 -61.5t28.5 -39.5q30 -28 40 -42.5t10 -16.5q13 -21 -2.5 -25.5l-15.5 -4.5l-69 -1
l-9.5 0.5t-24.5 10.5q-19 13 -36.5 37t-31.5 20q-15 -5 -17 -26l-2 -21l-0.5 -5t-3.5 -9q-3 -3 -8.5 -4.5l-5.5 -1.5h-31v0v0z" />
    <glyph glyph-name="uniE64E" unicode="&#xe64e;" 
d="M256 434q51 0 67 -0.5t36 -1.5q19 0 30 -3t18 -5q9 -4 16 -8.5t13 -10.5q7 -7 11.5 -14t7.5 -16q3 -7 5.5 -18t3.5 -29q1 -21 1.5 -37t0.5 -67t-0.5 -67t-1.5 -36q-1 -19 -3.5 -30t-5.5 -18q-3 -9 -7.5 -15.5t-11.5 -13.5q-6 -7 -13 -11.5t-16 -7.5q-7 -3 -18 -5.5
t-30 -3.5q-20 -1 -36 -1.5t-67 -0.5t-67 0.5t-36 1.5q-19 1 -30 3.5t-18 5.5q-9 3 -16 7.5t-13 11.5q-7 7 -11.5 13.5t-7.5 15.5q-3 7 -5.5 18t-3.5 30q-1 20 -1.5 36t-0.5 67t0.5 67t1.5 36q1 19 3.5 30t5.5 18q3 9 7.5 16t11.5 13q6 7 13 11.5t16 8.5q7 2 18 5t30 3
q20 1 36 1.5t67 0.5v0zM256 480q-52 0 -68.5 -0.5t-36.5 -0.5q-21 -1 -35.5 -4.5t-27.5 -7.5q-12 -5 -23 -12t-22 -18t-18 -22t-12 -23q-4 -13 -7.5 -27.5t-3.5 -34.5q-1 -21 -1.5 -37.5t-0.5 -68.5t0.5 -68.5t1.5 -36.5q0 -21 3.5 -35.5t7.5 -27.5q5 -12 12 -23t18 -22
t22 -18t23 -11q13 -5 27.5 -8t34.5 -4q21 -1 37.5 -1.5t68.5 -0.5t68.5 0.5t36.5 1.5q21 1 35.5 4t26.5 7q13 5 24 12t22 18q10 11 17 22t12 23q5 13 8 27.5t4 34.5q1 21 1.5 37.5t0.5 68.5t-0.5 68.5t-1.5 36.5q-1 21 -4 35.5t-8 26.5q-4 13 -11 24t-18 22t-22 18t-23 11
q-13 5 -27.5 8.5t-34.5 3.5q-21 1 -37.5 1.5t-68.5 0.5v0v0zM256 356q-54 0 -92.5 -39t-38.5 -93t38.5 -92.5t92.5 -38.5t92.5 38.5t38.5 92.5t-38.5 92.5t-92.5 39.5zM256 139q-35 0 -60 25t-25 60t25 60t60 25t60 -25t25 -60t-25 -60t-60 -25zM423 361q0 -13 -9 -22
t-21 -9q-13 0 -22 9t-9 22q0 12 9 21t22 9q12 0 21 -9t9 -21z" />
    <glyph glyph-name="uniE64F" unicode="&#xe64f;" horiz-adv-x="416" 
d="M96 299v-150h100l124 -124v398l-124 -124h-100v0z" />
    <glyph glyph-name="uniE650" unicode="&#xe650;" horiz-adv-x="448" 
d="M64 299v-150h100l124 -124v398l-124 -124h-100v0zM400 224q0 33 -17.5 59.5t-44.5 40.5v-200q27 14 44.5 40.5t17.5 59.5z" />
    <glyph glyph-name="uniE651" unicode="&#xe651;" 
d="M32 299v-150h100l124 -124v398l-124 -124h-100v0zM368 224q0 33 -17.5 59.5t-44.5 40.5v-200q27 14 44.5 40.5t17.5 59.5zM306 442v-51q54 -16 89 -62t35 -105t-35 -105t-89 -62v-51q75 17 124.5 77.5t49.5 140.5t-49.5 140.5t-124.5 77.5v0z" />
    <glyph glyph-name="uniE652" unicode="&#xe652;" 
d="M368 224q0 33 -17.5 59.5t-44.5 40.5v-55l61 -61q0 4 0.5 8t0.5 8zM430 224q0 -18 -3.5 -34t-9.5 -32l37 -37q13 23 19.5 49t6.5 54q0 80 -49.5 140.5t-124.5 77.5v-51q54 -16 89 -62t35 -105v0zM64 448l-32 -32l118 -117h-118v-150h100l124 -124v167l106 -105
q-13 -10 -27 -17.5t-29 -12.5v-51q26 6 49 17.5t43 27.5l50 -51l32 32l-416 416v0zM256 423l-52 -52l52 -52v104z" />
    <glyph glyph-name="uniE653" unicode="&#xe653;" 
d="M109 34q-6 -3 -9.5 -1t-3.5 9v364q0 7 3.5 9t9.5 -1l302 -182q5 -4 5 -8.5t-5 -7.5l-302 -182v0z" />
    <glyph glyph-name="uniE654" unicode="&#xe654;" 
d="M216 48q0 -7 -3 -11.5t-8 -4.5h-89q-5 0 -8 4.5t-3 11.5v352q0 7 3 11.5t8 4.5h89q5 0 8 -4.5t3 -11.5v-352zM407 48q0 -7 -3 -11.5t-8 -4.5h-89q-5 0 -8 4.5t-3 11.5v352q0 7 3 11.5t8 4.5h89q5 0 8.5 -4.5t3.5 -11.5v-352h-1z" />
    <glyph glyph-name="uniE655" unicode="&#xe655;" 
d="M448 48q0 -7 -4.5 -11.5t-11.5 -4.5h-352q-7 0 -11.5 4.5t-4.5 11.5v352q0 7 4.5 11.5t11.5 4.5h352q7 0 11.5 -4.5t4.5 -11.5v-352v0z" />
    <glyph glyph-name="uniE656" unicode="&#xe656;" 
d="M64 40v368q0 7 3 8.5t8 -3.5l177 -178l2 -2t1 -3v178q0 7 3.5 8.5t8.5 -3.5l177 -178q5 -5 5 -11.5t-5 -10.5l-178 -178q-4 -5 -7.5 -3.5t-3.5 8.5v177q0 -1 -1 -2l-2 -2l-177 -178q-5 -5 -8 -3.5t-3 8.5v0z" />
    <glyph glyph-name="uniE657" unicode="&#xe657;" 
d="M32 40v368q0 6 3.5 7.5t7.5 -3.5l178 -177q1 -1 1.5 -2t1.5 -2v177q0 6 3 7.5t8 -3.5l178 -177q1 -1 1.5 -2t1.5 -2v169q0 6 4.5 11t11.5 5h32q6 0 11 -5t5 -11v-352q0 -6 -5 -11t-11 -5h-32q-7 0 -11.5 5t-4.5 11v169q-1 -1 -1.5 -2t-1.5 -2l-178 -177q-4 -5 -7.5 -3.5
t-3.5 7.5v177q0 -1 -1 -2l-2 -2l-178 -177q-4 -5 -7.5 -3.5t-3.5 7.5v0z" />
    <glyph glyph-name="uniE658" unicode="&#xe658;" 
d="M128 40v368q0 6 3.5 7.5t7.5 -3.5l178 -177q1 -1 1.5 -2t1.5 -2v169q0 6 4.5 11t11.5 5h32q7 0 11.5 -5t4.5 -11v-352q0 -6 -4.5 -11t-11.5 -5h-32q-7 0 -11.5 5t-4.5 11v169q-1 -1 -1.5 -2t-1.5 -2l-178 -177q-4 -5 -7.5 -3.5t-3.5 7.5z" />
    <glyph glyph-name="uniE659" unicode="&#xe659;" 
d="M245 381q4 4 10.5 4t11.5 -4l177 -162q5 -4 3.5 -7t-7.5 -3h-368q-6 0 -7.5 3t3.5 7l27.5 25.5t60.5 55.5t61 55.5zM80 64q-7 0 -11.5 4.5t-4.5 11.5v64q0 7 4.5 11.5t11.5 4.5h352q7 0 11.5 -4.5t4.5 -11.5v-64q0 -7 -4.5 -11.5t-11.5 -4.5h-352z" />
    <glyph glyph-name="uniE65A" unicode="&#xe65a;" 
d="M370 189q7 5 10 14t3 22q0 8 -1.5 14.5t-4.5 12.5q-3 5 -7.5 9t-10.5 6t-11.5 3t-11.5 1h-9v-93h10q10 0 18.5 2.5t15.5 8.5h-1zM455 480h-398q-24 0 -40.5 -16.5t-16.5 -40.5v-398q0 -24 16.5 -40.5t40.5 -16.5h398q24 0 40.5 16.5t16.5 40.5v398q0 24 -16.5 40.5
t-40.5 16.5zM185 139v57h-57v-57h-43v170h43v-71h57v71h43v-170h-43v0zM404 161q-12 -11 -28 -17t-35 -6h-57v172h60q18 0 33.5 -6t26.5 -18q12 -12 18 -27.5t6 -34.5t-6 -35t-18 -27v-1z" />
    <glyph glyph-name="uniE65B" unicode="&#xe65b;" 
d="M464 30v296l-156 154h-208q-21 0 -36.5 -15t-15.5 -36v-410q0 -21 15 -36t37 -15h312q9 0 16.5 2.5t14.5 7.5l-115 114q-16 -10 -34 -16t-38 -6q-54 0 -92 37.5t-38 90.5t38 90.5t92 37.5t92 -37.5t38 -90.5q0 -19 -5.5 -37t-16.5 -33l100 -98v0zM178 198q0 -31 23 -53.5
t55 -22.5t55 22.5t23 53.5q0 32 -23 54.5t-55 22.5t-55 -22.5t-23 -54.5z" />
    <glyph glyph-name="uniE65C" unicode="&#xe65c;" 
d="M461 403h-234l-22 77h-154q-21 0 -36 -15t-15 -36v-333q0 -21 15 -36t36 -15h179l26 -77h205q21 0 36 15t15 36v333q0 21 -15 36t-36 15zM132 158q-43 0 -73.5 30.5t-30.5 73.5q0 44 30.5 74.5t73.5 30.5q20 0 38 -7t32 -20l2 -2l-31 -30l-2 1q-5 5 -14.5 10t-24.5 5
q-25 0 -42.5 -18t-17.5 -44q0 -25 17.5 -43.5t42.5 -18.5q27 0 39.5 13t15.5 25h-57v39h101v-1q1 -4 1.5 -8t0.5 -8q0 -45 -28 -73.5t-73 -28.5v0zM287 201q6 -11 13.5 -22t16.5 -21l-14 -14l-8 28.5zM306 221h-25l-8 26h102l-8 -21t-32 -49q-10 12 -17 23.5t-12 20.5z
M486 19q0 -10 -7.5 -17.5t-17.5 -7.5h-179l51 51l-21 71l24 23l68 -69l19 19l-69 69q17 19 30 42t19 48h32v26h-93v27h-27v-27h-50l-30 104h226q10 0 17.5 -7.5t7.5 -18.5v-333v0z" />
    <glyph glyph-name="uniE65D" unicode="&#xe65d;" 
d="M256 -32q-52 0 -99 20q-48 20 -82 55q-34 34 -55 81q-20 48 -20 100t20 99q20 48 55 82q34 34 81 55q48 20 100 20t99 -20q48 -20 82 -55q34 -34 55 -81q20 -48 20 -100t-20 -99q-20 -48 -55 -82q-34 -34 -81 -55q-48 -20 -100 -20zM352 288q0 26 -19 45q-18 19 -45 19
h-64q-26 0 -45 -19q-19 -18 -19 -45v-128q0 -26 19 -45q18 -19 45 -19h64q26 0 45 19q19 18 19 45v128zM224 320h64q13 0 23 -9q9 -10 9 -23v-117l-106 147q5 2 10 2zM288 128h-64q-13 0 -22 9q-10 9 -10 23v128v4l114 -158q-8 -6 -18 -6z" />
    <glyph glyph-name="uniE65E" unicode="&#xe65e;" 
d="M256 -32q-52 0 -99 20q-48 20 -82 55q-34 34 -55 81q-20 48 -20 100t20 99q20 48 55 82q34 34 81 55q48 20 100 20t99 -20q48 -20 82 -55q34 -34 55 -81q20 -48 20 -100t-20 -99q-20 -48 -55 -82q-34 -34 -81 -55q-48 -20 -100 -20zM304 128h-16v160q0 32 -21 48t-59 16
v0q-6 0 -11 -5q-5 -4 -5 -11q0 -6 5 -11q4 -5 11 -5v0q22 0 35 -9t13 -23v-160h-48q-6 0 -11 -5q-5 -4 -5 -11q0 -6 5 -11q4 -5 11 -5h96q6 0 11 5q5 4 5 11q0 6 -5 11q-4 5 -11 5z" />
    <glyph glyph-name="uniE65F" unicode="&#xe65f;" 
d="M256 -32q-52 0 -99 20q-48 20 -82 55q-34 34 -55 81q-20 48 -20 100t20 99q20 48 55 82q34 34 81 55q48 20 100 20t99 -20q48 -20 82 -55q34 -34 55 -81q20 -48 20 -100t-20 -99q-20 -48 -55 -82q-34 -34 -81 -55q-48 -20 -100 -20zM224 192h64q26 0 45 19q19 18 19 45
v32q0 26 -19 45q-18 19 -45 19h-64q-26 0 -45 -19q-19 -18 -19 -45q0 -6 5 -11q4 -5 11 -5q6 0 11 5q5 4 5 11q0 13 9 22q9 10 23 10h64q13 0 23 -9q9 -10 9 -23v-32q0 -13 -9 -23q-9 -9 -23 -9h-64q-26 0 -45 -19q-19 -18 -19 -45v-48q0 -6 5 -11q4 -5 11 -5h160q6 0 11 5
q5 4 5 11q0 6 -5 11q-4 5 -11 5h-136q-3 0 -6 2q-2 2 -2 6v24q0 13 9 22q9 10 23 10z" />
    <glyph glyph-name="uniE660" unicode="&#xe660;" 
d="M256 -32q-52 0 -99 20q-48 20 -82 55q-34 34 -55 81q-20 48 -20 100t20 99q20 48 55 82q34 34 81 55q48 20 100 20t99 -20q48 -20 82 -55q34 -34 55 -81q20 -48 20 -100t-20 -99q-20 -48 -55 -82q-34 -34 -81 -55q-48 -20 -100 -20zM352 192q0 28 -22 48q22 19 22 48
q0 26 -19 45q-18 19 -45 19h-64q-26 0 -45 -19q-19 -18 -19 -45q0 -6 5 -11q4 -5 11 -5q6 0 11 5q5 4 5 11q0 13 9 22q9 10 23 10h64q13 0 22 -9q10 -10 10 -23t-9 -23q-10 -9 -23 -9h-16q-6 0 -11 -5q-5 -4 -5 -11q0 -6 5 -11q4 -5 11 -5h16q13 0 22 -9q10 -10 10 -23v-32
q0 -13 -9 -23q-10 -9 -23 -9h-64q-13 0 -23 9q-9 9 -9 23q0 6 -5 11q-4 5 -11 5q-6 0 -11 -5q-5 -4 -5 -11q0 -26 19 -45q18 -19 45 -19h64q26 0 45 19q19 18 19 45v32z" />
    <glyph glyph-name="uniE661" unicode="&#xe661;" 
d="M256 -32q-69 0 -128 34t-94 93q-34 59 -34 129q0 69 34 128t93 94q59 34 129 34q69 0 128 -34t94 -93q34 -59 34 -129q0 -69 -34 -128t-93 -94q-59 -34 -129 -34zM352 336q0 6 -5 11q-4 5 -11 5q-6 0 -11 -5q-5 -4 -5 -11v-80q0 -13 -9 -23q-9 -9 -23 -9h-64q-13 0 -22 9
q-10 9 -10 23v80q0 6 -5 11q-4 5 -11 5q-6 0 -11 -5q-5 -4 -5 -11v-80q0 -26 19 -45q18 -19 45 -19h64q17 0 32 8v-88q0 -6 5 -11q4 -5 11 -5q6 0 11 5q5 4 5 11v224z" />
    <glyph glyph-name="uniE662" unicode="&#xe662;" 
d="M256 -32q-52 0 -99 20q-48 20 -82 55q-34 34 -55 81q-20 48 -20 100t20 99q20 48 55 82q34 34 81 55q48 20 100 20t99 -20q48 -20 82 -55q34 -34 55 -81q20 -48 20 -100t-20 -99q-20 -48 -55 -82q-34 -34 -81 -55q-48 -20 -100 -20zM352 192q0 26 -19 45q-18 19 -45 19
h-88q-3 0 -6 2q-2 2 -2 6v48q0 3 2 5q2 3 6 3h136q6 0 11 5q5 4 5 11q0 6 -5 11q-4 5 -11 5h-160q-6 0 -11 -5q-5 -4 -5 -11v-80q0 -13 9 -23q9 -9 23 -9h96q13 0 23 -9q9 -10 9 -23v-32q0 -13 -9 -23q-9 -9 -23 -9h-64q-13 0 -23 9q-9 9 -9 23q0 6 -5 11q-4 5 -11 5
q-6 0 -11 -5q-5 -4 -5 -11q0 -26 19 -45q18 -19 45 -19h64q26 0 45 19q19 18 19 45v32z" />
    <glyph glyph-name="uniE663" unicode="&#xe663;" 
d="M256 -32q-52 0 -99 20q-48 20 -82 55q-34 34 -55 81q-20 48 -20 100t20 99q20 48 55 82q34 34 81 55q48 20 100 20t99 -20q48 -20 82 -55q34 -34 55 -81q20 -48 20 -100t-20 -99q-20 -48 -55 -82q-34 -34 -81 -55q-48 -20 -100 -20zM352 192q0 26 -19 45q-18 19 -45 19
h-64q-17 0 -32 -8v40q0 13 9 22q9 10 23 10h64q13 0 22 -9q10 -10 10 -23q0 -6 5 -11q4 -5 11 -5q6 0 11 5q5 4 5 11q0 26 -19 45q-18 19 -45 19h-64q-26 0 -45 -19q-19 -18 -19 -45v-128q0 -26 19 -45q18 -19 45 -19h64q26 0 45 19q19 18 19 45v32zM288 128h-64
q-13 0 -23 9q-9 9 -9 23v32q0 13 9 22q9 10 23 10h64q13 0 22 -9q10 -10 10 -23v-32q0 -13 -9 -23q-10 -9 -23 -9z" />
    <glyph glyph-name="uniE664" unicode="&#xe664;" 
d="M256 -32q-52 0 -99 20q-48 20 -82 55q-34 34 -55 81q-20 48 -20 100t20 99q20 48 55 82q34 34 81 55q48 20 100 20t99 -20q48 -20 82 -55q34 -34 55 -81q20 -48 20 -100t-20 -99q-20 -48 -55 -82q-34 -34 -81 -55q-48 -20 -100 -20zM288 352h-112q-6 0 -11 -5
q-5 -4 -5 -11q0 -6 5 -11q4 -5 11 -5h112q13 0 23 -9q9 -10 9 -23q2 -21 -8 -40q-14 -26 -64 -120q-8 -11 -8 -16q0 -6 5 -11t11 -5t11 5q5 4 5 11l72 136q8 15 8 40q0 26 -19 45q-18 19 -45 19z" />
    <glyph glyph-name="uniE665" unicode="&#xe665;" 
d="M256 -32q-52 0 -99 20q-48 20 -82 55q-34 34 -55 81q-20 48 -20 100t20 99q20 48 55 82q34 34 81 55q48 20 100 20t99 -20q48 -20 82 -55q34 -34 55 -81q20 -48 20 -100t-20 -99q-20 -48 -55 -82q-34 -34 -81 -55q-48 -20 -100 -20zM352 192q0 28 -21 48q21 19 21 48
q0 26 -19 45q-18 19 -45 19h-64q-26 0 -45 -19q-19 -18 -19 -45q0 -29 21 -48q-21 -19 -21 -48v-32q0 -26 19 -45q18 -19 45 -19h64q26 0 45 19q19 18 19 45v32zM288 128h-64q-13 0 -23 9q-9 9 -9 23v32q0 13 9 22q9 10 23 10h64q13 0 23 -9q9 -10 9 -23v-32q0 -13 -9 -23
q-9 -9 -23 -9zM288 256h-64q-13 0 -23 9q-9 9 -9 23q0 13 9 22q9 10 23 10h64q13 0 23 -9q9 -10 9 -23t-9 -23q-9 -9 -23 -9z" />
    <glyph glyph-name="uniE666" unicode="&#xe666;" 
d="M256 -32q-69 0 -128 34t-94 93q-34 59 -34 129q0 69 34 128t93 94q59 34 129 34q69 0 128 -34t94 -93q34 -59 34 -129q0 -69 -34 -128t-93 -94q-59 -34 -129 -34zM352 288q0 26 -19 45q-18 19 -45 19h-64q-26 0 -45 -19q-19 -18 -19 -45v-32q0 -26 19 -45q18 -19 45 -19
h64q17 0 32 8v-40q0 -13 -9 -22q-9 -10 -23 -10h-64q-13 0 -22 9q-10 10 -10 23q0 6 -5 11q-4 5 -11 5q-6 0 -11 -5q-5 -4 -5 -11q0 -26 19 -45q18 -19 45 -19h64q26 0 45 19q19 18 19 45v128zM288 224h-64q-13 0 -22 9q-10 10 -10 23v32q0 13 9 23q10 9 23 9h64q13 0 23 -9
q9 -9 9 -23v-32q0 -13 -9 -22q-9 -10 -23 -10z" />
    <glyph glyph-name="uniE667" unicode="&#xe667;" 
d="M171 247h170v61q0 17 -6 31.5t-19 26.5q-12 12 -27 18t-33 6t-33 -6t-27 -18q-13 -12 -19 -26.5t-6 -31.5v-61v0zM447 216v-185q0 -7 -2 -12t-7 -10q-4 -4 -10 -6.5t-12 -2.5h-320q-6 0 -12 2t-10 7q-5 4 -7.5 9.5t-2.5 12.5v185q0 6 2.5 11.5t7.5 10.5q4 4 10 6.5
t12 2.5h11v61q0 30 11 55.5t33 46.5t48 31.5t57 10.5t57 -10.5t48 -31.5q22 -22 33 -47t11 -55v-61h11q6 0 12 -2.5t10 -6.5q5 -5 7 -10.5t2 -11.5v0z" />
    <glyph glyph-name="uniE668" unicode="&#xe668;" 
d="M415 239q6 0 12 -2t10 -6q5 -5 7.5 -10t2.5 -12v-180q0 -6 -2.5 -11.5t-7.5 -9.5q-4 -5 -9.5 -7t-12.5 -2h-318q-6 0 -12 2t-10 7q-5 4 -7.5 9.5t-2.5 11.5v180q0 7 2.5 12t7.5 10q4 4 10 6t12 2h11v101q0 29 11 53.5t32 45.5q22 20 48 30.5t57 10.5t57 -10.5t48 -30.5
q22 -21 32.5 -45.5t10.5 -53.5q0 -4 -1.5 -7.5t-4.5 -6.5t-7 -4.5t-8 -1.5h-21q-4 0 -8 1.5t-7 4.5t-4.5 6.5t-1.5 7.5q0 16 -6.5 30.5t-18.5 25.5q-12 12 -27 18t-33 6q-17 0 -32 -6t-28 -18q-12 -11 -18.5 -25.5t-6.5 -30.5v-100z" />
    <glyph glyph-name="uniE669" unicode="&#xe669;" 
d="M486 428q2 0 4.5 -0.5t5.5 -0.5q2 -1 4 -2.5t4 -3.5q2 -1 3.5 -3t2.5 -4t1.5 -4.5t0.5 -4.5v-413q0 -3 -0.5 -5t-1.5 -4t-2.5 -4t-3.5 -4t-4 -3l-4 -2q-3 -1 -5.5 -1.5t-4.5 -0.5h-459q-3 0 -5.5 0.5t-5.5 1.5l-4 2t-4 3t-3.5 4t-2.5 4t-1.5 4t-0.5 5v413q0 2 0.5 4
t1.5 5q1 2 2.5 4t3.5 3q2 2 4 3l4 2q3 1 5.5 1.5t5.5 0.5h19v-34q0 -5 1.5 -10t3.5 -10q2 -4 5 -8t7 -8q4 -3 8.5 -6t9.5 -5q6 -2 11 -3t11 -1h3q6 0 11.5 1t10.5 3t9.5 5t7.5 6q4 4 7 8t5 8q2 5 3.5 10t1.5 10v35h188v-35q0 -5 1 -10t3 -10l6 -8t7 -8q3 -3 7.5 -6t9.5 -5
q6 -2 11 -3t11 -1h3q4 0 8.5 0.5t8.5 2.5q4 1 7.5 2.5t6.5 3.5q4 2 7 4.5t5 5.5q3 3 5 6.5t3 6.5q1 2 2 4.5t2 4.5t1.5 4.5t0.5 4.5v36h20v-1zM471 9v295h-430v-295h430zM105 480q3 0 6 -0.5t5 -1.5t4.5 -2.5t3.5 -2.5q2 -2 3.5 -4t2.5 -4q1 -3 1.5 -5.5t0.5 -4.5v-61
q0 -2 -0.5 -4.5t-1.5 -5.5q-1 -2 -2.5 -4t-2.5 -4q-2 -1 -4.5 -2.5t-4.5 -2.5t-5 -1.5t-6 -0.5h-2q-3 0 -5.5 0.5t-4.5 1.5q-3 1 -5 2.5t-4 2.5q-2 2 -3.5 4t-2.5 4q-1 3 -1.5 5.5t-0.5 4.5v61q0 2 0.5 4.5t1.5 4.5q1 3 2.5 5t3.5 3q2 2 4 3.5t4 2.5q3 1 5.5 1.5t5.5 0.5h1
h1zM409 480q3 0 5.5 -0.5t4.5 -1.5q3 -1 5 -2.5t4 -2.5q2 -2 3.5 -4t2.5 -4q1 -3 1.5 -5.5t0.5 -4.5v-61q0 -2 -0.5 -4.5t-1.5 -5.5q-1 -2 -2.5 -4t-3.5 -4q-2 -1 -4 -2.5t-4 -2.5q-3 -1 -5.5 -1.5t-5.5 -0.5h-2q-3 0 -5.5 0.5t-5.5 1.5t-5 2.5t-4 2.5q-2 2 -3 4l-2 4
q-2 3 -2.5 5.5t-0.5 4.5v61q0 2 0.5 4.5t1.5 4.5q2 3 3 5t3 3q2 2 4 3.5t5 2.5t5.5 1.5t5.5 0.5h1h1z" />
    <glyph glyph-name="uniE66A" unicode="&#xe66a;" 
d="M381 384q-1 3 -1.5 5.5t-0.5 4.5v61q0 2 0.5 4.5t1.5 4.5q2 3 3 5t3 3q2 2 4 3.5t5 2.5t5.5 1.5t5.5 0.5h1h1q3 0 5.5 -0.5t4.5 -1.5q3 -1 5 -2.5t4 -2.5q2 -2 3.5 -4t2.5 -4q1 -3 1.5 -5.5t0.5 -4.5v-61q0 -2 -0.5 -4.5t-1.5 -5.5q-1 -2 -2.5 -4t-3.5 -4q-2 -1 -4 -2.5
t-4 -2.5q-3 -1 -5.5 -1.5t-5.5 -0.5h-2q-3 0 -5.5 0.5t-5.5 1.5t-5 2.5t-4 2.5q-2 2 -3 4t-3 4zM84 376q2 -1 4 -2.5t4 -2.5q3 -1 5.5 -1.5t5.5 -0.5h2q3 0 6 0.5t5 1.5t4.5 2.5t3.5 2.5q2 2 3.5 4t2.5 4q1 3 1.5 5.5t0.5 4.5v61q0 2 -0.5 4.5t-1.5 4.5q-1 3 -2.5 5t-2.5 3
q-2 2 -4.5 3.5t-4.5 2.5t-5 1.5t-6 0.5h-1h-1q-3 0 -5.5 -0.5t-4.5 -1.5q-3 -1 -5 -2.5t-4 -2.5q-2 -2 -3.5 -4t-2.5 -4q-1 -3 -1.5 -5.5t-0.5 -4.5v-61q0 -2 0.5 -4.5t1.5 -5.5q1 -2 2.5 -4t3.5 -4zM512 405v-413q0 -3 -0.5 -5t-1.5 -4t-2.5 -4t-3.5 -4t-4 -3l-4 -2
q-3 -1 -5.5 -1.5t-4.5 -0.5h-459q-3 0 -5.5 0.5t-5.5 1.5l-4 2t-4 3t-3.5 4t-2.5 4t-1.5 4t-0.5 5v412q0 3 0.5 5t1.5 5q1 2 2.5 4t3.5 3q2 2 4 3l4 2q3 1 5.5 1.5t5.5 0.5h19v-34q0 -5 1.5 -10t3.5 -10q2 -4 5 -8t7 -8q4 -3 8.5 -6t9.5 -5q6 -2 11 -3t11 -1h3q6 0 11.5 1
t10.5 3t9.5 5t7.5 6q4 4 7 8t5 8q2 5 3.5 10t1.5 10v34h188v-34q0 -5 1 -10t3 -10l6 -8t7 -8q3 -3 7.5 -6t9.5 -5q6 -2 11 -3t11 -1h3q4 0 8.5 0.5t8.5 1.5q4 2 7.5 3.5t6.5 3.5q4 2 7 4.5t5 5.5q3 3 5 6.5t3 6.5q1 2 2 4.5t2 4.5t1.5 4.5t0.5 4.5v35h20q2 0 4.5 -0.5
t5.5 -0.5q2 -1 4 -2.5t4 -3.5q2 -1 3.5 -3t2.5 -4t1.5 -4.5t0.5 -4.5zM155 116h89v87h-89v-87zM134 203h-93v-87h92zM154 95v-86h90v86h-89h-1zM265 9h92v86h-91zM357 116v87h-91v-87h91zM378 116h93v87h-92zM379 308v-84h92v84h-92zM266 308v-84h91v84h-91zM155 308v-84h89
v84h-89zM41 308v-84h92v84h-92zM41 9h92v86h-92v-86zM471 9v86h-92v-86h92z" />
    <glyph glyph-name="uniE66B" unicode="&#xe66b;" 
d="M153 252q-6 8 -12.5 14.5l-13.5 13.5q-33 39 -24 91t49 80q39 29 91.5 29t91.5 -30q1 0 1.5 -0.5l1.5 -1.5q17 21 39.5 27t47.5 5v-29.5v-30.5h-14.5h-13.5q-7 -1 -14 -3t-15 -3q3 -5 5.5 -9t4.5 -8q24 -53 -0.5 -102.5t-80.5 -62.5q-18 -4 -36 -4.5t-36 -1.5
q-8 0 -15.5 -1t-14.5 -3q-6 -2 -10.5 -6t-4.5 -11q-1 -6 2.5 -11t10.5 -7q11 -3 22.5 -5t22.5 -4q25 -2 49 -4t48 -5q8 -1 16 -3.5t16 -5.5q49 -17 54.5 -62.5t-19.5 -74.5q-13 -16 -30.5 -26.5t-36.5 -16.5q-32 -10 -65 -11.5t-66 1.5q-18 2 -35.5 6t-33.5 12q-19 9 -32 23
t-15 36q-1 7 -0.5 14.5t1.5 14.5q0 1 2 3t3 2q19 0 37 -0.5t37 -1.5h0.5h0.5v-1.5v-0.5q-2 -18 4.5 -28t23.5 -15q20 -7 40.5 -7.5t41.5 1.5q11 1 21 4t20 7q9 4 16 11t7 18q0 12 -7 18.5t-16 11.5q-17 8 -34.5 11t-35.5 4q-25 2 -49.5 5t-47.5 12q-10 3 -19.5 8t-17.5 11
q-14 11 -17 27.5t5 33.5q8 14 19.5 23.5t25.5 16.5q1 1 2.5 1.5l1.5 0.5v0zM247 290q25 0 43 17.5t19 42.5q0 26 -17.5 44t-42.5 19q-27 0 -46 -17.5t-19 -43.5t18 -43.5t45 -18.5z" />
    <glyph glyph-name="uniE66C" unicode="&#xe66c;" horiz-adv-x="544" 
d="M128 448h-96q-13 0 -22.5 -9.5t-9.5 -22.5v-384q0 -13 9.5 -22.5t22.5 -9.5h96q13 0 22.5 9.5t9.5 22.5v384q0 13 -9.5 22.5t-22.5 9.5zM96 76q0 -5 -3.5 -8.5t-8.5 -3.5h-8q-5 0 -8.5 3.5t-3.5 8.5v8q0 5 3.5 8.5t8.5 3.5h8q5 0 8.5 -3.5t3.5 -8.5v-8zM128 160h-96v160
h96v-160zM128 352h-96v32h96v-32zM320 448h-96q-13 0 -22.5 -9.5t-9.5 -22.5v-384q0 -13 9.5 -22.5t22.5 -9.5h96q13 0 22.5 9.5t9.5 22.5v384q0 13 -9.5 22.5t-22.5 9.5zM288 76q0 -5 -3.5 -8.5t-8.5 -3.5h-8q-5 0 -8.5 3.5t-3.5 8.5v8q0 5 3.5 8.5t8.5 3.5h8q5 0 8.5 -3.5
t3.5 -8.5v-8zM320 160h-96v160h96v-160zM320 352h-96v32h96v-32zM512 448h-96q-13 0 -22.5 -9.5t-9.5 -22.5v-384q0 -13 9.5 -22.5t22.5 -9.5h96q13 0 22.5 9.5t9.5 22.5v384q0 13 -9.5 22.5t-22.5 9.5zM480 76q0 -5 -3.5 -8.5t-8.5 -3.5h-8q-5 0 -8.5 3.5t-3.5 8.5v8
q0 5 3.5 8.5t8.5 3.5h8q5 0 8.5 -3.5t3.5 -8.5v-8zM512 160h-96v160h96v-160zM512 352h-96v32h96v-32z" />
    <glyph glyph-name="uniE66D" unicode="&#xe66d;" horiz-adv-x="544" 
d="M112 416h-96q-7 0 -11.5 -4.5t-4.5 -11.5v-352q0 -7 4.5 -11.5t11.5 -4.5h96q6 0 11 4.5t5 11.5v352q0 7 -5 11.5t-11 4.5zM96 320h-64v32h64v-32zM271 416h-96q-7 0 -11.5 -4.5t-4.5 -11.5v-352q0 -7 4.5 -11.5t11.5 -4.5h96q6 0 11 4.5t5 11.5v352q0 7 -5 11.5t-11 4.5
zM255 320h-64v32h64v-32zM379 384l-84 -42q-6 -3 -8 -9t1 -12l141 -280q3 -6 9.5 -8t11.5 1l84 42q6 3 8 9t-1 12l-141 280q-3 6 -9 8t-12 -1v0v0v0z" />
    <glyph glyph-name="uniE66E" unicode="&#xe66e;" 
d="M448 288h-64q-13 0 -22.5 -9.5t-9.5 -22.5v-64q0 -14 9.5 -23.5t22.5 -9.5h64q14 0 23 9.5t9 22.5v65q0 13 -9 22.5t-23 9.5zM448 191h-64v64h64v-64zM288 288h-64q-13 0 -22.5 -9.5t-9.5 -22.5v-64q0 -14 9.5 -23.5t22.5 -9.5h64q13 0 22.5 9.5t9.5 22.5v65
q0 13 -9 22.5t-23 9.5zM288 191h-64v64h64v-64zM128 288h-64q-13 0 -22.5 -9.5t-9.5 -22.5v-64q0 -14 9.5 -23.5t22.5 -9.5h64q13 0 22.5 9.5t9.5 22.5v65q0 13 -9.5 22.5t-22.5 9.5zM128 191h-64v64h64v-64v0zM448 448h-64q-13 0 -22.5 -9.5t-9.5 -22.5v-64
q0 -13 9.5 -22.5t22.5 -9.5h64q14 0 23 9.5t9 22.5v64q0 13 -9 22.5t-23 9.5v0zM448 352h-64v64h64v-64zM288 448h-64q-13 0 -22.5 -9.5t-9.5 -22.5v-64q0 -13 9.5 -22.5t22.5 -9.5h64q13 0 22.5 9.5t9.5 22.5v64q0 13 -9 22.5t-23 9.5v0zM288 352h-64v64h64v-64zM128 448
h-64q-13 0 -22.5 -9.5t-9.5 -22.5v-64q0 -13 9.5 -22.5t22.5 -9.5h64q13 0 22.5 9.5t9.5 22.5v64q0 13 -9.5 22.5t-22.5 9.5v0zM128 352h-64v64h64v-64v0zM448 127h-64q-13 0 -22.5 -9.5t-9.5 -22.5v-64q0 -13 9.5 -22.5t22.5 -9.5h64q14 0 23 9.5t9 22.5v64q0 13 -9 22.5
t-23 9.5v0zM448 31h-64v64h64v-64zM288 127h-64q-13 0 -22.5 -9.5t-9.5 -22.5v-64q0 -13 9.5 -22.5t22.5 -9.5h64q13 0 22.5 9.5t9.5 22.5v64q0 13 -9 22.5t-23 9.5v0zM288 31h-64v64h64v-64zM128 127h-64q-13 0 -22.5 -9.5t-9.5 -22.5v-64q0 -13 9.5 -22.5t22.5 -9.5h64
q13 0 22.5 9.5t9.5 22.5v64q0 13 -9.5 22.5t-22.5 9.5v0zM128 31h-64v64h64v-64v0z" />
    <glyph glyph-name="uniE66F" unicode="&#xe66f;" 
d="M128 448h-64q-13 0 -22.5 -9.5t-9.5 -22.5v-64q0 -13 9.5 -22.5t22.5 -9.5h64q13 0 22.5 9.5t9.5 22.5v64q0 13 -9.5 22.5t-22.5 9.5v0v0zM288 448h-64q-13 0 -22.5 -9.5t-9.5 -22.5v-64q0 -13 9.5 -22.5t22.5 -9.5h64q13 0 22.5 9.5t9.5 22.5v64q0 13 -9.5 22.5
t-22.5 9.5v0v0zM448 448h-64q-13 0 -22.5 -9.5t-9.5 -22.5v-64q0 -13 9.5 -22.5t22.5 -9.5h64q13 0 22.5 9.5t9.5 22.5v64q0 13 -9.5 22.5t-22.5 9.5v0v0zM128 288h-64q-13 0 -22.5 -9.5t-9.5 -22.5v-64q0 -13 9.5 -22.5t22.5 -9.5h64q13 0 22.5 9.5t9.5 22.5v64
q0 13 -9.5 22.5t-22.5 9.5zM288 288h-64q-13 0 -22.5 -9.5t-9.5 -22.5v-64q0 -13 9.5 -22.5t22.5 -9.5h64q13 0 22.5 9.5t9.5 22.5v64q0 13 -9.5 22.5t-22.5 9.5zM448 128h-64q-13 0 -22.5 -9.5t-9.5 -22.5v-64q0 -13 9.5 -22.5t22.5 -9.5h64q13 0 22.5 9.5t9.5 22.5v64
q0 13 -9.5 22.5t-22.5 9.5v0zM448 32h-64v64h64v-64v0zM448 288h-64q-13 0 -22.5 -9.5t-9.5 -22.5v-64q0 -13 9.5 -22.5t22.5 -9.5h64q13 0 22.5 9.5t9.5 22.5v64q0 13 -9.5 22.5t-22.5 9.5v0zM448 192h-64v64h64v-64v0zM288 128h-64q-13 0 -22.5 -9.5t-9.5 -22.5v-64
q0 -13 9.5 -22.5t22.5 -9.5h64q13 0 22.5 9.5t9.5 22.5v64q0 13 -9.5 22.5t-22.5 9.5zM288 32h-64v64h64v-64v0zM128 128h-64q-13 0 -22.5 -9.5t-9.5 -22.5v-64q0 -13 9.5 -22.5t22.5 -9.5h64q13 0 22.5 9.5t9.5 22.5v64q0 13 -9.5 22.5t-22.5 9.5zM128 32h-64v64h64v-64z
" />
    <glyph glyph-name="uniE670" unicode="&#xe670;" horiz-adv-x="544" 
d="M272 446q20 0 39 -3t37 -10t34.5 -16.5t30.5 -20.5q14 -12 26.5 -26t22.5 -31q10 -16 17 -33.5t11 -36.5h43q2 0 4 -0.5t4 -2.5l2 -4t1 -4v-68q0 -2 -1 -4l-2 -4q-2 -2 -4 -2.5t-4 -0.5h-43q-4 -19 -11 -36.5t-17 -33.5q-10 -17 -22.5 -31t-26.5 -26q-14 -11 -30.5 -20.5
t-34.5 -16.5t-37 -10t-39 -3t-39 3t-37 10t-34.5 16.5t-30.5 20.5q-14 12 -26.5 26t-22.5 31q-10 16 -17 33.5t-10 36.5h-44q-2 0 -4 0.5t-4 2.5l-2 4t-1 4v68q0 2 1 4l2 4q2 2 4 2.5t4 0.5h43q4 19 11 36.5t17 33.5q10 17 22.5 31t26.5 26q14 11 30.5 20.5t34.5 16.5t37 10
t39 3v0v0zM272 363q-23 0 -43 -6.5t-38 -19.5t-30.5 -30t-19.5 -38h262q-7 21 -19.5 38t-30.5 30t-38.5 19.5t-42.5 6.5v0v0zM403 179h-262q7 -21 19.5 -38t30.5 -30t38 -19.5t43 -6.5q22 0 42.5 6.5t38.5 19.5t30.5 30t19.5 38v0v0z" />
    <glyph glyph-name="uniE671" unicode="&#xe671;" horiz-adv-x="384" 
d="M192 480q-66 0 -113 -47t-47 -113q0 -18 4 -35t11 -32l122 -264q4 -10 10 -15.5t13 -5.5t13 5.5t11 15.5l121 264q7 15 11 32t4 35q0 66 -47 113t-113 47v0zM192 224q-40 0 -68 28t-28 68t28 68t68 28t68 -28t28 -68t-28 -68t-68 -28z" />
    <glyph glyph-name="uniE672" unicode="&#xe672;" 
d="M304 432q0 -20 -14 -34t-34 -14t-34 14t-14 34t14 34t34 14t34 -14t14 -34zM288 352h-64q-13 0 -22.5 -9.5t-9.5 -22.5v-128h32v-128h64v128h32v128q0 13 -9.5 22.5t-22.5 9.5zM320 157v-33q56 -6 92 -22.5t36 -37.5q0 -26 -56 -45t-136 -19q-79 0 -135.5 19t-56.5 45
q0 21 36 37.5t92 22.5v33q-65 -8 -112.5 -30.5t-47.5 -62.5q0 -50 70 -73t154 -23t154 23t70 73q0 40 -47.5 62.5t-112.5 30.5z" />
    <glyph glyph-name="uniE673" unicode="&#xe673;" 
d="M447 415q33 -34 33 -81q0 -46 -33 -80l-41 -40q-21 -22 -51 -29q-30 -8 -58 0l69 69l20 20l20 20q17 17 17 40q0 24 -17 40q-16 17 -40 17q-23 0 -40 -17l-20 -20l-89 -89q-8 28 0 58q7 30 29 51l40 41q34 33 81 33t80 -33v0zM206 134l140 140q9 9 9 20q0 12 -9 20
q-9 9 -20 9q-12 -1 -20 -9l-140 -140q-9 -9 -9 -20q0 -12 9 -20q9 -9 20 -9q12 1 20 9v0zM186 73l109 110q8 -28 0 -58q-7 -30 -29 -51l-40 -41q-34 -33 -80 -33q-47 0 -81 33q-33 33 -33 81q0 47 33 80l41 40q21 22 51 29q30 8 58 0l-109 -109q-17 -17 -17 -40
q0 -24 17 -41q16 -16 40 -16q23 0 40 16v0z" />
    <glyph glyph-name="uniE674" unicode="&#xe674;" 
d="M256 261q35 0 67 3t62 9t54 15t41 21v-48q0 -10 -7.5 -19.5t-22.5 -17.5t-35.5 -15t-46.5 -12q-25 -5 -53.5 -7.5t-58.5 -2.5t-58 2.5t-54 7.5t-46.5 12t-35.5 15t-22.5 17.5t-7.5 19.5v48q18 -12 41.5 -21t53.5 -15t62 -9t67 -3v0v0zM256 41q35 0 67 3t62 9q30 7 54 16
t41 21v-49q0 -10 -7.5 -19t-22.5 -17q-15 -9 -35.5 -15.5t-46.5 -11.5q-25 -5 -53.5 -7.5t-58.5 -2.5t-58 2.5t-54 7.5t-46.5 11.5t-35.5 15.5q-15 8 -22.5 17t-7.5 19v49q17 -12 41 -21t54 -15q30 -7 62 -10t67 -3v0zM256 151q35 0 67 3t62 9t54 15t41 21v-48
q0 -10 -7.5 -19t-22.5 -18q-15 -8 -35.5 -14.5t-46.5 -11.5q-25 -5 -53.5 -7.5t-58.5 -2.5t-58 2.5t-54 7.5t-46.5 11.5t-35.5 14.5q-15 9 -22.5 18t-7.5 19v48q17 -11 41 -20.5t54 -15.5t62 -9t67 -3v0v0zM256 480q30 0 58 -2.5t54 -7.5t46.5 -11.5t35.5 -15.5
q15 -8 22.5 -17t7.5 -19v-37q0 -10 -7.5 -19t-22.5 -17q-15 -9 -35.5 -15.5t-46.5 -11.5t-54 -7.5t-58 -2.5t-58 2.5t-54 7.5t-46.5 11.5t-35.5 15.5q-15 8 -22.5 17t-7.5 19v37q0 10 7.5 19t22.5 17q15 9 35.5 15.5t46.5 11.5q25 5 53.5 7.5t58.5 2.5v0v0z" />
    <glyph glyph-name="uniE675" unicode="&#xe675;" 
d="M493 204q8 8 14 18.5t5 27.5q-3 9 -7.5 15.5t-10.5 10.5q-8 5 -18 8.5t-22 3.5h-114q0 3 1 10.5t2 11.5v2q4 19 5.5 37.5t-7.5 37.5q-7 23 -26 42t-46 19q-5 0 -10 -1l-10 -2v0q-15 -6 -19.5 -15t-0.5 -23q2 -10 5.5 -25t-3.5 -34l-23 -51.5t-37 -63.5q-1 -1 -4.5 -2.5
t-4.5 -1.5q-1 8 -6.5 18t-29.5 9h-104q-15 0 -18.5 -8.5t-3.5 -21.5v-198q0 -14 3 -21t20 -7h103q18 0 26 6.5t9 21.5q6 -8 19 -16t29 -8h195q16 0 28.5 7t19.5 18q5 8 6.5 18t-1.5 20q8 2 17 9t15 17q3 7 1 16t-8 21q11 8 19 19t8 23q0 9 -5 17t-11 15v0zM120 32h-8
q-5 0 -8.5 3.5t-3.5 8.5l-1.5 21.5t-2.5 31.5q-1 22 -0.5 68.5l0.5 46.5q0 5 3.5 8.5t8.5 3.5h8q5 0 8.5 -3.5t3.5 -8.5l-0.5 -44.5t0.5 -65.5q1 -11 2.5 -34l1.5 -23q0 -6 -3.5 -9.5t-8.5 -3.5zM454 199q12 -9 17.5 -17t3.5 -15q-1 -9 -10.5 -15t-14.5 -8l-10 -3l7 -7
q6 -8 9.5 -15.5t0.5 -13.5q-3 -7 -11.5 -12t-20.5 -6l-10 -1l4 -8l4.5 -12.5t-1.5 -20.5q-3 -5 -9.5 -7t-15.5 -2h-168q-30 0 -37 6t-11 13q-7 11 -9.5 68.5t0.5 68.5q1 2 6.5 5.5t9.5 6.5q13 13 30 46.5t31 63.5q0 1 5 12.5t6 19.5q1 2 1.5 4t0.5 4q2 12 1.5 24t-3.5 24v0
q0 1 -1 6.5t1 7.5q1 1 3.5 1.5t4.5 1.5h2h2q4 0 9 -2t15 -13q17 -16 17.5 -43t-2.5 -44q-1 -3 -2.5 -15t-1.5 -15q0 -2 -3 -16t0 -15h145q14 0 19.5 -5t7.5 -13q1 -9 -5.5 -17.5t-14.5 -10.5l-13 -4l11 -7v0z" />
    <glyph glyph-name="uniE676" unicode="&#xe676;" 
d="M256 -32q-52 0 -99 20q-48 20 -82 55q-34 34 -55 81q-20 48 -20 100t20 99q20 48 55 82q34 34 81 55q48 20 100 20t99 -20q48 -20 82 -55q34 -34 55 -81q20 -48 20 -100t-20 -99q-20 -48 -55 -82q-34 -34 -81 -55q-48 -20 -100 -20zM176 64h160q6 0 11 5q5 4 5 11
q0 6 -5 11q-4 5 -11 5h-160q-6 0 -11 -5q-5 -4 -5 -11q0 -6 5 -11q4 -5 11 -5zM411 256l-139 121q-6 7 -16 7q-9 0 -15 -7l-140 -121q-7 -7 -4 -19q4 -13 16 -13h79v-64q0 -13 9 -23q10 -9 23 -9h64q13 0 23 9q9 9 9 23v64h79q11 0 15 12q4 13 -3 20z" />
    <glyph glyph-name="uniE677" unicode="&#xe677;" 
d="M256 -32q-69 0 -128 34t-94 93q-34 59 -34 129q0 52 20 99q20 48 55 82q34 34 81 55q48 20 100 20t99 -20q48 -20 82 -55q34 -34 55 -81q20 -48 20 -100q0 -69 -34 -128t-93 -94q-59 -34 -129 -34zM176 64h160q6 0 11 5q5 4 5 11q0 6 -5 11q-4 5 -11 5h-160q-6 0 -11 -5
q-5 -4 -5 -11q0 -6 5 -11q4 -5 11 -5zM399 288h-78v64q0 13 -10 23q-9 9 -22 9h-65q-13 0 -22 -9q-10 -9 -10 -23v-64h-79q-11 0 -15 -12q-4 -13 2 -20l140 -121q7 -7 16 -7t16 7l139 121q7 7 4 19q-4 13 -16 13z" />
    <glyph glyph-name="uniE678" unicode="&#xe678;" 
d="M160 247l58 -57q-3 -8 -2 -15.5t7 -13.5q8 -8 18.5 -8t17.5 8q8 7 8 18t-8 18q-4 5 -10.5 7t-12.5 0l-59 60q-3 3 -8 3t-9 -3q-3 -4 -3 -9t3 -8v0v0zM456 283l-52 56l-12 -11q-22 22 -50 37t-60 21v29h-76v-28q-75 -13 -125 -71.5t-50 -136.5q0 -44 16.5 -82t45.5 -67
t67.5 -45.5t81.5 -16.5q44 0 82.5 16.5t67 45t45 67t16.5 82.5q0 23 -4.5 44t-12.5 41l20 19v0zM257 19v17q0 5 -3.5 8.5t-8.5 3.5t-8.5 -3.5t-3.5 -8.5v-17q-60 3 -103 45t-48 101h21q5 0 8.5 3.5t3.5 8.5t-3.5 8.5t-8.5 3.5h-21q4 61 47 104t104 47v-27q0 -5 3.5 -8.5
t8.5 -3.5t8.5 3.5t3.5 8.5v26q59 -5 100.5 -47.5t45.5 -102.5h-17q-4 0 -7.5 -3.5t-3.5 -8.5t3.5 -8t7.5 -3h16q-5 -59 -46 -100.5t-100 -46.5v0h1zM216 179q0 -10 7.5 -17.5t18.5 -7.5t18.5 7.5t7.5 17.5q0 11 -7.5 18.5t-18.5 7.5t-18.5 -7.5t-7.5 -18.5zM464 295l-51 54
l19 19l52 -54zM293 432h-98q-5 0 -8.5 3.5t-3.5 8.5v24q0 5 3.5 8.5t8.5 3.5h98q5 0 8.5 -3.5t3.5 -8.5v-24q0 -5 -3.5 -8.5t-8.5 -3.5z" />
    <glyph glyph-name="uniE679" unicode="&#xe679;" horiz-adv-x="384" 
d="M193 428q11 -12 26 -26q16 -13 32 -28q17 -15 34 -31q16 -16 29 -35q13 -18 22 -39q8 -20 8 -44q0 -21 -7 -36q-6 -16 -17 -27q-10 -10 -24 -16q-14 -5 -28 -5t-26 3t-22 11q1 -8 3 -17q3 -10 8 -19q4 -10 11 -19t16 -17v-19h-132v19q9 7 16 17q6 9 11 18q5 10 8 19
q2 10 3 18q-9 -7 -22 -11q-12 -3 -26 -3t-28 5q-13 5 -24 16t-17 26q-7 16 -7 37q0 23 8 44t22 39q13 19 29 35q17 16 33 31q17 15 33 28q15 14 26 26h2z" />
    <glyph glyph-name="uniE67A" unicode="&#xe67a;" horiz-adv-x="384" 
d="M126 64v19q7 5 13 14q7 9 12 20q6 12 9 26t3 31q-4 -3 -9 -5q-5 -3 -10 -5q-5 -1 -11 -2t-14 -1q-16 0 -31 5q-14 5 -25 16q-10 10 -17 24q-6 15 -6 33q0 16 6 30q5 14 16 25q10 10 25 17q14 6 31 6q-4 13 -4 27q0 16 6 30q5 15 16 25q10 11 24 17t32 6q17 0 32 -6
q14 -6 24 -17q10 -10 16 -25q6 -14 6 -30q0 -14 -4 -27q17 0 31 -6q15 -6 25 -17t16 -25t6 -30q0 -18 -6 -33q-6 -14 -17 -24t-25 -16q-14 -5 -31 -5h-14q-6 1 -11 3t-10 5q-4 2 -9 5q0 -16 3 -31q3 -14 8 -25q5 -12 12 -21q7 -8 14 -14v-19h-132z" />
    <glyph glyph-name="uniE67B" unicode="&#xe67b;" horiz-adv-x="384" 
d="M267 363q15 0 29 -6q14 -5 24 -16q11 -11 17 -27q7 -17 7 -39q0 -25 -8 -47q-8 -21 -21 -40t-30 -36q-16 -17 -33 -32q-16 -15 -32 -29t-27 -27h-2q-11 13 -27 27q-15 14 -32 29t-33 32q-17 16 -30 35t-21 41t-8 47q0 22 7 39q6 16 17 27q10 11 24 16q14 6 29 6
q14 0 25 -4q12 -4 21 -10t16 -15q7 -8 12 -16h2q5 8 12 16t16 15q9 6 21 10q11 4 25 4z" />
    <glyph glyph-name="uniE67C" unicode="&#xe67c;" horiz-adv-x="384" 
d="M68 243l124 179l124 -179l-124 -179z" />
    <glyph glyph-name="uniE67D" unicode="&#xe67d;" 
d="M480 288h-241q-17 29 -46 46.5t-65 17.5q-53 0 -90.5 -37.5t-37.5 -90.5t37.5 -90.5t90.5 -37.5q36 0 65 17.5t46 46.5h17l32 32h32v-32h32l32 32h32v-32h32l64 64zM96 179q-19 0 -32 13t-13 32t13 32t32 13t32 -13t13 -32t-13 -32t-32 -13zM256 240v16h192l8 -16h-200z
" />
    <glyph glyph-name="uniE67E" unicode="&#xe67e;" 
d="M168 452l-11 -347q-12 7 -26 9.5t-29 0.5q-32 -6 -52.5 -31t-17.5 -55q4 -30 29.5 -47.5t58.5 -12.5q29 5 48.5 25.5t21.5 47.5v0v0v0v1.5v1.5q0 13 2 63.5t4 105.5t3.5 98l1.5 43l244 30l-11 -247q-12 7 -26.5 10.5t-30.5 0.5q-32 -5 -52.5 -30.5t-17.5 -55.5
q4 -30 29.5 -47.5t58.5 -12.5q29 5 49 26.5t21 48.5v0q0 6 2.5 67.5t5 134.5t5 134t2.5 66l-312 -28v0z" />
    <glyph glyph-name="uniE67F" unicode="&#xe67f;" 
d="M0 224q0 17 2 34t7 34q4 16 10.5 31.5t14.5 29.5q9 14 18.5 27t21.5 25t24.5 22t27.5 18q14 8 29 14.5t32 11.5q16 4 33.5 6.5t35.5 2.5t35 -2.5t33 -6.5q17 -5 32.5 -11.5t29.5 -14.5q14 -9 27 -18.5t25 -21.5q11 -12 21 -25t18 -27q9 -14 15.5 -29.5t10.5 -31.5
q5 -16 7 -33t2 -35t-2.5 -35t-6.5 -33q-5 -17 -11.5 -32t-14.5 -29q-8 -15 -18 -28t-22 -24q-12 -12 -25 -22t-27 -18t-29.5 -14.5t-31.5 -11.5q-17 -4 -34 -6.5t-34 -2.5q-18 0 -35 2.5t-33 6.5q-17 5 -32 11.5t-29 14.5q-15 8 -28 18t-24 22q-12 12 -22 24.5t-18 27.5
q-8 14 -14.5 29t-11.5 32q-5 16 -7 33t-2 35v0v0v0zM39 224q0 12 2.5 22.5t6.5 20.5t10 18t13 14q7 7 15 12t17 9q10 3 19 5t19 2q13 0 25 -2.5t21 -6.5q10 -5 18 -10.5t15 -13.5q7 -7 12.5 -15t9.5 -18q4 -9 7.5 -18.5t6.5 -18.5q2 -10 5.5 -19.5t8.5 -18.5q4 -9 9.5 -17.5
t12.5 -15.5t15.5 -13t17.5 -10q10 -5 21 -7t24 -2q11 0 20.5 2t19.5 5q9 4 17 9t15 12t12.5 15t10.5 17q4 10 6 20.5t2 21.5q0 15 -2 29.5t-6 28.5t-9 26.5t-12 24.5q-7 13 -15.5 24t-17.5 21q-10 10 -21 19t-23 16t-25 13t-27 9q-14 4 -29 6t-30 2q-24 0 -45.5 -4.5
t-41.5 -12.5q-19 -9 -36.5 -21t-31.5 -27q-15 -15 -26 -32.5t-19 -36.5q-9 -20 -13 -41t-4 -43v0v0v0zM141 185q4 0 8 0.5t7 2.5q4 1 7 3.5t6 4.5q2 3 4.5 6t3.5 7q2 3 2.5 7t0.5 8t-0.5 7.5t-2.5 7.5q-1 3 -3 6.5t-5 5.5q-3 3 -6 5t-7 4q-3 1 -7 2t-8 1t-8 -1t-7 -2
q-4 -2 -6.5 -4t-5.5 -5l-4 -6l-4 -6q-1 -4 -2 -7.5t-1 -7.5q0 -8 2.5 -15t8.5 -13q5 -6 12 -8.5t15 -2.5v0v0zM370 185q-9 0 -15.5 2.5t-11.5 8.5q-6 6 -8.5 13t-2.5 15q0 4 0.5 7.5t2.5 6.5q1 4 3 7t5 6q2 3 5 5t7 4q3 1 7 2t8 1t8 -1t7 -2q4 -2 7 -4t6 -5l4 -6l4 -6
q1 -4 2 -7.5t1 -7.5t-1 -8l-2 -8l-4 -6l-4 -6q-3 -2 -6 -4.5t-7 -3.5q-4 -2 -7.5 -2.5t-7.5 -0.5v0v0v0z" />
    <glyph glyph-name="uniE680" unicode="&#xe680;" 
d="M256 265q17 0 29 -12t12 -29t-12 -29t-29 -12t-29 12t-12 29t12 29t29 12zM500 224h-163q0 23 -11.5 42.5t-31.5 29.5l77 143q58 -30 93.5 -87.5t35.5 -127.5v0zM175 224h-163q0 70 35.5 127.5t93.5 87.5l77 -143q-20 -10 -31.5 -29.5t-11.5 -42.5v0zM256 -20
q-31 0 -60 7.5t-55 21.5l77 143q8 -4 18 -6.5t20 -2.5t20 2.5t18 6.5l77 -143q-26 -14 -55 -21.5t-60 -7.5v0z" />
    <glyph glyph-name="uniE681" unicode="&#xe681;" 
d="M396 325q24 0 45 -9q22 -10 37 -26q16 -16 25 -37q9 -22 9 -46t-8 -45q-9 -22 -24 -38q-14 -16 -35 -26q-21 -9 -45 -9h-8l-1 5q0 4 -2 11l-5 10l-99 112q-6 7 -13 10q-8 4 -16 4q-9 0 -16 -3q-7 -4 -12 -10l-100 -114q-3 -3 -4 -10q-2 -6 -3 -10q-1 -5 0 -5h-25
q-21 0 -39 11q-17 10 -28 29q-10 18 -10 38q0 28 17 50q18 21 44 27q-1 8 -1 15q0 30 12 57q11 27 31 47t47 32q27 11 57 11q44 0 80 -24t54 -63q18 6 36 6v0zM259 207l96 -113q1 -2 1 -3q-1 -2 -3 -2h-57v-112q0 -4 -2 -6t-6 -2h-64q-8 0 -8 8v112h-57q-2 0 -3 2q0 1 1 3
l96 113q1 2 3 2t3 -2z" />
    <glyph glyph-name="uniE682" unicode="&#xe682;" 
d="M512 207q0 24 -9 46q-9 21 -25 37q-15 16 -37 26q-21 9 -45 9q-18 0 -36 -5q-18 38 -54 62t-80 24q-30 0 -57 -11q-27 -12 -47 -32t-31 -47q-12 -27 -12 -57q0 -7 1 -15q-26 -6 -44 -27q-17 -22 -17 -50q0 -20 10 -38q11 -19 28 -29q18 -11 39 -11h35q0 6 2 10q4 7 11 11
q7 5 15 5h32v86q0 15 9 25q9 9 24 9h64q15 0 25 -9q9 -8 9 -25v-86h31q8 0 15 -4q7 -5 11 -12q2 -4 3 -10h14q24 0 45 10q22 9 37 25q16 16 25 38q9 21 9 45v0zM253 -29l-96 113q-1 1 -1 3q1 2 3 2h57v112q0 4 2 6t6 2h64q4 0 6 -2t2 -6v-112h57q2 0 3 -2q0 -1 -1 -3
l-96 -113q-1 -2 -3 -2t-3 2v0z" />
    <glyph glyph-name="uniE683" unicode="&#xe683;" 
d="M201 399v-56q-52 8 -94.5 -24t-50.5 -85q-7 -52 24.5 -95t84.5 -51q9 -1 18 -1t18 1v-55q-75 -8 -134 40.5t-66 124.5q-8 75 40 134t124 67q9 1 18 1t18 -1v0zM369 244q10 49 51.5 78t91.5 21v56q-75 8 -134 -40.5t-66 -124.5q-8 -75 40 -134t123 -67q10 -1 19 -1t18 1
v55q-50 -7 -91 22t-52 78h106v56h-106v0z" />
    <glyph glyph-name="uniE684" unicode="&#xe684;" 
d="M503 341v0q-7 0 -8.5 4t-1.5 7v54q0 4 -3.5 7t-7.5 3h-158q-30 0 -43 -7.5t-16 -11.5l-1 -1l-3 -4v0v0q-3 -5 -5.5 -4t-3.5 2l-6 7l-3 4q-4 4 -14.5 9.5t-29.5 5.5h-169q-4 0 -7.5 -3t-3.5 -7v-53q0 -7 -3 -9.5t-5 -2.5h-2q-2 0 -5.5 -2t-3.5 -10v-253q0 -5 3.5 -8
t8.5 -3h154q36 0 54 -10t23 -15l3 -4l6.5 -4.5t13.5 4.5v0l3 2l2 3l0.5 0.5l1.5 1.5q6 6 22.5 14t46.5 8h158q5 0 8.5 3t3.5 8v255q0 7 -3.5 8.5t-5.5 1.5v0zM469 116q0 -4 -3 -6.5t-7 -2.5h-130q-35 0 -49.5 -10.5l-14.5 -10.5l-2 -2l-1 -2v0v0q-3 -4 -7 -2l-4 2l-3 4
q-1 2 -15 11.5t-45 9.5h-135q-4 0 -7 2.5t-3 6.5v269q0 4 3 6.5t7 2.5h104q59 0 72.5 -23t13.5 -32v-188q0 -10 4 -13t6 -3h6q3 0 6.5 2.5t3.5 10.5v193v0q0 12 9 32.5t45 20.5h136q4 0 7 -2.5t3 -6.5v-269v0z" />
    <glyph glyph-name="uniE685" unicode="&#xe685;" 
d="M32 448h208v-224q0 -47 -15 -86.5t-46 -72.5t-67.5 -49t-80.5 -16v74q29 0 53.5 11t45.5 33q20 22 30 48.5t10 57.5h-138v35v77v77v35v0zM272 448h208v-224q0 -47 -15 -86.5t-46 -72.5q-30 -33 -67 -49t-80 -16v74q28 0 53 11t45 33t30.5 48.5t10.5 57.5h-139v35v77v77
v35v0z" />
    <glyph glyph-name="uniE686" unicode="&#xe686;" 
d="M256 381q-42 0 -80.5 -11.5t-71.5 -32.5t-59.5 -50.5t-44.5 -65.5q18 -35 44.5 -64.5t59.5 -51t71.5 -33t80.5 -11.5t80.5 11.5t72 33t60 51t43.5 64.5q-17 36 -43.5 65.5t-60 50.5t-72 32.5t-80.5 11.5zM383 296q22 -14 41 -33t33 -42q-14 -22 -33 -41.5t-41 -33.5
q-29 -18 -61 -27.5t-66 -9.5q-33 0 -65.5 9.5t-60.5 27.5q-23 14 -42 33.5t-33 41.5q14 23 33 42t42 33q1 1 2.5 2t3.5 2q-4 -10 -6 -21t-2 -23q0 -53 37.5 -90.5t90.5 -37.5t90.5 37.5t37.5 90.5q0 12 -2 23t-5 21q1 -1 2.5 -2t3.5 -2v0zM256 272q0 -20 -14 -34t-34 -14
t-34 14t-14 34t14 34t34 14t34 -14t14 -34z" />
    <glyph glyph-name="uniE687" unicode="&#xe687;" 
d="M133 177l-19 -71q0 -1 -0.5 -1.5t-2.5 -0.5h-35q-1 0 -1.5 0.5t-0.5 2.5l67 234q1 3 1.5 7t0.5 13q0 1 0.5 1.5t1.5 0.5h50q1 0 1.5 -0.5t0.5 -1.5l75 -254q1 -2 0.5 -2.5t-2.5 -0.5h-39q-1 0 -2 0.5t-1 1.5l-19 71h-76v0zM199 215q-5 20 -14.5 55t-13.5 56h-1
q-3 -21 -11.5 -52.5t-15.5 -58.5h56zM326 191q0 -24 12 -38.5t39 -14.5q10 0 19.5 1.5t18.5 5.5q1 1 2 0.5t1 -2.5v-29q0 -2 -0.5 -3t-1.5 -2q-10 -4 -21.5 -6.5t-26.5 -2.5q-46 0 -65.5 29.5t-19.5 67.5q0 42 20.5 72t58.5 30q39 0 54 -26t15 -53q0 -8 -0.5 -14.5
t-1.5 -9.5q0 -2 -0.5 -2.5t-2.5 -1.5q-3 0 -13.5 -0.5t-25.5 -0.5h-61v0zM373 223h13t5 1v2v2q0 9 -6 22.5t-25 13.5q-16 0 -24 -12.5t-10 -28.5h47v0z" />
    <glyph glyph-name="uniE688" unicode="&#xe688;" 
d="M169 177l-18 -71l-1.5 -1.5t-2.5 -0.5h-34q-2 0 -2.5 0.5t-0.5 2.5l67 235q1 3 1.5 6.5t1.5 12.5q0 1 0.5 2l0.5 1h50q1 0 1.5 -0.5t1.5 -2.5l75 -254q0 -2 -0.5 -2.5t-1.5 -0.5h-39q-2 0 -2.5 0.5l-1.5 1.5l-19 71h-76v0zM235 215q-5 20 -14 55t-14 56v0q-4 -21 -12 -52
t-15 -59h55zM341 346q0 11 7 17.5t17 6.5q11 0 17.5 -6.5t6.5 -17.5q0 -12 -6.5 -18t-17.5 -6t-17.5 6t-6.5 18v0zM344 292q0 2 0.5 2.5t1.5 0.5h37q2 0 2.5 -0.5t0.5 -2.5v-185q0 -2 -0.5 -2.5t-2.5 -0.5h-36q-2 0 -2.5 0.5t-0.5 2.5v185v0z" />
    <glyph glyph-name="uniE689" unicode="&#xe689;" 
d="M133 177l-18 -71l-1.5 -1.5t-2.5 -0.5h-35q-1 0 -1.5 0.5t-0.5 2.5l67 235q1 3 1.5 6.5t0.5 12.5q0 1 0.5 1.5t1.5 0.5h50q1 0 1.5 -0.5t0.5 -1.5l75 -254q1 -2 0.5 -2.5t-2.5 -0.5h-39q-1 0 -2 0.5t-1 1.5l-19 71h-76v0zM199 215q-5 20 -14.5 55t-13.5 56h-1
q-3 -21 -11 -52t-16 -59h56zM431 143q0 -2 0.5 -8t1.5 -16q0 -1 -0.5 -1.5l-1.5 -1.5q-16 -5 -33.5 -10t-38.5 -5q-27 0 -48 13.5t-21 54.5v124q0 1 0.5 2t1.5 1h37q2 0 2.5 -1t0.5 -2v-119q0 -18 7.5 -27t25.5 -9q7 0 13.5 1.5t10.5 2.5v151q0 1 0.5 2t2.5 1h37q2 0 2 -1
v-2v-150v0z" />
    <glyph glyph-name="uniE68A" unicode="&#xe68a;" 
d="M119 360q0 1 0.5 2t1.5 1q8 0 27 0.5t37 0.5q54 0 69 -24t15 -43q0 -22 -8 -34.5t-16 -18.5q11 -6 23.5 -20.5t12.5 -41.5q0 -37 -27 -58t-72 -21q-19 0 -35 0.5t-25 0.5q-2 0 -2.5 1t-0.5 2v253v0zM160 259h24q8 0 16.5 -0.5t12.5 -1.5q7 5 11 13t4 21q0 18 -11.5 27
t-32.5 9h-12.5t-11.5 -1v-67v0zM160 140h10.5h11.5q23 0 39.5 9.5t16.5 31.5q0 14 -7 23.5t-22 13.5q-5 2 -10.5 3t-12.5 1h-26v-82v0zM313 256v7.5t-1 15.5q0 2 0.5 2.5t1.5 0.5q11 5 34 11t52 6q1 0 2 -0.5t1 -2.5v-34q0 -1 -0.5 -1.5t-2.5 -0.5q-11 0 -24.5 -1t-19.5 -4
v-148q0 -2 -1 -2.5t-2 -0.5h-37q-2 0 -2.5 0.5t-0.5 2.5v149v0z" />
    <glyph glyph-name="uniE68B" unicode="&#xe68b;" 
d="M47 359q0 2 0.5 2.5t2.5 0.5q6 1 23.5 1h37.5q59 0 88.5 -34.5t29.5 -90.5q0 -78 -40.5 -106.5t-80.5 -28.5h-32.5h-26.5q-1 0 -1.5 1t-0.5 3v252v0zM89 141q5 -1 10 -1h10q33 0 54.5 23.5t21.5 73.5q1 48 -21 68.5t-53 20.5h-11.5t-10.5 -1v-184v0zM388 104
q-2 0 -2.5 0.5t-1.5 2.5q-8 49 -15 84t-10 59h-1q-4 -22 -11 -57.5t-19 -85.5q0 -2 -1 -2.5t-2 -0.5h-38q-2 0 -3 0.5t-2 2.5l-41 185q0 1 0.5 2t2.5 1h38q1 0 2 -0.5t1 -1.5q11 -63 16 -97t7 -47h2q2 15 8.5 49t19.5 94q1 2 1 2.5t2 0.5h40q2 0 2.5 -0.5t0.5 -2.5
q10 -57 16.5 -93t8.5 -51h1q3 19 8 49.5t18 95.5q0 1 0.5 1.5t1.5 0.5h36q1 0 2 -0.5t0 -2.5l-46 -186q0 -1 -1 -1.5t-3 -0.5h-38v0z" />
    <glyph glyph-name="uniE68C" unicode="&#xe68c;" 
d="M111 107q0 -1 -1 -2t-2 -1h-37q-2 0 -2.5 0.5t-0.5 2.5v253q0 2 0.5 2.5t2.5 0.5h129q2 0 2.5 -0.5t0.5 -2.5l4 -32q1 -2 0 -2.5t-3 -0.5h-93v-74h83q2 0 2.5 -0.5t0.5 -2.5v-33q0 -1 -0.5 -1.5t-2.5 -0.5h-83v-106v0zM372 104q-2 0 -2.5 0.5t-1.5 2.5q-8 49 -15 84
t-10 59h-1q-3 -22 -10.5 -57.5t-18.5 -85.5q-1 -2 -2 -2.5t-2 -0.5h-38q-2 0 -3 0.5t-1 2.5l-42 185q0 1 0.5 2t2.5 1h38q1 0 2 -0.5t1 -1.5q11 -63 16.5 -97t6.5 -47h2q2 15 8.5 49t19.5 94q1 2 1.5 2.5t1.5 0.5h40q2 0 2.5 -0.5t0.5 -2.5q10 -57 16.5 -93t8.5 -51h1
q3 19 8 49.5t18 95.5q0 1 0.5 1.5t2.5 0.5h35q1 0 2 -0.5t0 -2.5l-46 -185q0 -2 -0.5 -2.5t-3.5 -0.5h-38v0z" />
    <glyph glyph-name="uniE68D" unicode="&#xe68d;" 
d="M180 107q0 -2 -0.5 -2.5t-2.5 -0.5h-36q-2 0 -2.5 0.5t-0.5 2.5v253q0 2 0.5 2.5t2.5 0.5h36q2 0 2.5 -0.5t0.5 -2.5v-253v0zM222 198q0 42 26 71t70 29h6.5h6.5v63q0 1 0.5 1.5t1.5 0.5h38q2 0 2.5 -0.5t0.5 -1.5v-220v-11t1 -13q0 -1 -0.5 -1.5l-1.5 -1.5
q-15 -7 -31 -10.5t-31 -3.5q-39 0 -64 24.5t-25 73.5v0zM331 260q-3 1 -6.5 1.5t-7.5 0.5q-23 0 -37.5 -16.5t-14.5 -45.5q0 -33 14.5 -47.5t34.5 -14.5q4 0 8.5 0.5t8.5 2.5v119v0z" />
    <glyph glyph-name="uniE68E" unicode="&#xe68e;" 
d="M130 104q-2 0 -3 1t-1 3v253q0 1 1 2t2 1h38q1 0 1.5 -0.5t0.5 -2.5v-218h97q1 0 1.5 -0.5t0.5 -1.5l-6 -34q0 -1 -1 -2t-2 -1h-129v0zM304 257v7.5t-1 15.5q0 1 0.5 1.5l1.5 1.5q11 4 34.5 10t52.5 6q1 0 1.5 -0.5t0.5 -1.5v-34q0 -2 -0.5 -2.5t-1.5 -0.5
q-11 1 -25 -0.5t-20 -3.5v-149q0 -1 -1 -2t-2 -1h-37q-1 0 -2 1t-1 2v150v0z" />
    <glyph glyph-name="uniE68F" unicode="&#xe68f;" 
d="M120 360q0 1 0.5 2t1.5 1q12 0 27.5 0.5t33.5 0.5q49 0 71.5 -23.5t22.5 -58.5q0 -45 -28.5 -65t-68.5 -20h-10.5h-7.5v-90q0 -2 -1 -2.5t-2 -0.5h-36q-2 0 -2.5 0.5t-0.5 2.5v253v0zM162 235q4 -1 8 -1h11q21 0 37 9.5t16 37.5q0 23 -13 34t-37 11h-13h-9v-91v0z
M313 256q0 2 -0.5 7.5t-1.5 15.5q0 2 0.5 2.5t1.5 0.5q11 5 34.5 10.5t51.5 5.5h2.5t0.5 -2v-34q0 -1 -0.5 -1.5t-2.5 -0.5q-11 0 -24.5 -1t-19.5 -4v-148q0 -2 -0.5 -2.5t-2.5 -0.5h-37q-1 0 -1.5 0.5t-0.5 2.5v149v0z" />
    <glyph glyph-name="uniE690" unicode="&#xe690;" 
d="M110 360q0 1 2 2t3 1q12 0 27.5 0.5t33.5 0.5q49 0 70 -23.5t21 -58.5q0 -45 -28.5 -65t-68.5 -20h-10.5h-7.5v-90q0 -2 -0.5 -2.5t-2.5 -0.5h-36q-2 0 -2.5 0.5t-0.5 2.5v253v0zM152 235q4 -1 8 -1h11q21 0 37 9.5t16 37.5q0 23 -13 34t-37 11h-13h-9v-91v0zM355 263
q-14 0 -19.5 -6t-5.5 -11q0 -7 5 -12.5t24 -15.5q27 -13 37.5 -27t10.5 -33q0 -28 -19 -43t-48 -15q-16 0 -28.5 3t-19.5 7q-2 1 -2 2v2v35q0 2 0.5 2.5t1.5 -0.5q11 -8 23.5 -11t24.5 -3q14 0 20 5t6 13q0 6 -5.5 12.5t-23.5 15.5q-25 12 -36 25.5t-11 34.5q0 23 17 39
t48 16q15 0 25.5 -2t16.5 -4q1 -1 1.5 -2.5t0.5 -2.5v-32q0 -2 -1 -2.5t-2 0.5q-8 4 -19 7t-22 3v0z" />
    <glyph glyph-name="uniE691" unicode="&#xe691;" 
d="M312 160v114h69v-22h-44v-26h42v-20h-42v-46h-25zM422 160h-26v81h26v-81zM410 279q3 0 5.5 -1t4.5 -3l2 -4t1 -5t-1 -5l-2 -4q-2 -2 -4.5 -2.5t-5.5 -1.5q-3 1 -5.5 1.5t-4.5 2.5t-3 4t-1 5t1 5t3 4t4.5 3t5.5 1v0zM256 383q34 0 63 -12.5t51 -35.5h30q46 0 78.5 -32.5
t32.5 -78.5q0 -47 -32.5 -79.5t-78.5 -32.5h-30q-22 -22 -51 -35t-63 -13t-63 13t-51 35h-30q-46 0 -78.5 32.5t-32.5 79.5q0 46 32.5 78.5t78.5 32.5h30q22 23 51 35.5t63 12.5zM400 303h-96q-24 0 -21.5 -39.5t-7.5 -39.5q-14 0 -12.5 -40t-22.5 -40h160q33 0 56.5 23
t23.5 57q0 33 -23.5 56t-56.5 23zM108 160l10 49l4 16l3 18v0l3 -18l3 -16l10 -49h28l29 114h-26l-10 -47l-6 -40v0l-3 19l-4 19l-9 49h-27l-10 -47l-8 -40v0l-3 19l-4 21l-8 47h-28l27 -114h29v0zM231 160v81h-25v-81h25zM220 279q-3 0 -5.5 -1t-4.5 -3t-3 -4t-1 -5t1 -5
t3 -4q1 -2 3.5 -2.5t5.5 -1.5q4 1 6.5 1.5t3.5 2.5q2 2 3 4t1 5t-1 5t-3 4q-1 2 -3.5 3t-5.5 1v0z" />
    <glyph glyph-name="uniE692" unicode="&#xe692;" 
d="M256 52q-3 0 -9 5t-15 14q-10 10 -14.5 16t-4.5 9q0 4 4 7.5t12 6.5t15 4.5t12 1.5t12 -1.5t15 -4.5t12 -6.5t4 -7.5q0 -3 -4.5 -9t-14.5 -16q-9 -9 -15 -14t-9 -5v0zM326 123l-2.5 1.5l-7.5 4.5q-5 4 -11.5 7t-14.5 7q-9 3 -17 4.5t-17 1.5q-8 0 -16.5 -1.5t-16.5 -4.5
q-9 -4 -15.5 -7t-11.5 -7l-7.5 -4.5l-2.5 -1.5q-3 0 -9 5t-16 14q-9 10 -14 16t-5 9q0 1 0.5 2.5t1.5 3.5q10 10 23 18t28 13q16 6 31 9t30 3t30 -3t31 -9q15 -5 28 -13t23 -18q1 -2 2 -3.5t1 -2.5q0 -3 -5 -9t-15 -16q-10 -9 -16 -14t-9 -5v0v0zM398 194q-2 0 -3.5 0.5
t-2.5 1.5q-18 14 -34.5 24t-31.5 16q-15 7 -32.5 10t-37.5 3q-11 0 -22 -1.5t-22 -4.5q-12 -3 -21.5 -6t-17.5 -8q-9 -4 -16 -8l-14 -8q-6 -4 -11.5 -7.5t-8.5 -6.5q-4 -2 -6 -3.5l-2 -1.5q-3 0 -9 4.5t-15 14.5q-10 10 -15 16t-5 8t0.5 3.5t2.5 2.5q17 17 38 30.5t45 23.5
q25 9 49.5 14t49.5 5t50 -5t49 -14q25 -10 45.5 -23.5t38.5 -30.5q1 -1 1.5 -2.5t0.5 -3.5t-5 -8t-14 -16q-10 -9 -16 -14t-8 -5v0v0zM468 265q-1 0 -2.5 0.5t-2.5 1.5q-24 20 -48 35.5t-49 26.5q-25 10 -52.5 15t-57.5 5t-57.5 -5t-52.5 -15q-25 -11 -49 -26.5t-47 -35.5
q-2 -1 -3.5 -1.5t-2.5 -0.5q-2 0 -8 4.5t-16 14.5t-15 16t-5 8t0.5 3.5t2.5 2.5q24 25 53 43.5t63 31.5q33 14 67.5 20.5t69.5 6.5t69.5 -6.5t67.5 -20.5q34 -13 63 -31.5t53 -43.5q2 -1 2.5 -2.5t0.5 -3.5t-5 -8t-15 -16t-16 -14.5t-8 -4.5v0v0z" />
    <glyph glyph-name="uniE693" unicode="&#xe693;" 
d="M400 256h-16q0 -36 -30 -66t-66 -30h-32v-99q14 -5 23 -17t9 -28q0 -20 -14 -34t-34 -14t-34 14t-14 34q0 15 9 28q8 12 23 17v35h-32q-37 0 -66 30q-30 29 -30 66v2q-14 5 -23 18q-9 12 -9 28q0 19 14 33t34 14t34 -13q14 -14 14 -34q0 -15 -9 -28q-9 -12 -23 -17v-3
q0 -26 19 -45q18 -19 45 -19h32v256h-27q-5 5 -5 12q0 8 5 13l30 65q5 6 13 6q7 0 13 -5l29 -65q6 -6 6 -13q0 -8 -6 -13h-26v-192h32q26 0 45 19q19 18 19 45h-16q-7 0 -12 4q-4 5 -4 12v63q0 7 4 12q5 4 12 4h64q6 0 11 -4t5 -11v-64q0 -7 -5 -11q-5 -5 -11 -5z" />
    <glyph glyph-name="uniE694" unicode="&#xe694;" 
d="M143 337h68v-68h-68v68zM312 337h68v-68h-68v68zM53 450h406v-215h23v-237h-452v237h23v215v0zM75 427v-192h362v192h-362v0zM358 77h-57v-19h-10q-18 0 -37 20t-27 27h150v-28l57 38l-57 38v-29h-179q8 8 22.5 28t32.5 20h11q3 -8 10.5 -13.5t16.5 -5.5q12 0 20.5 8.5
t8.5 19.5q0 12 -8.5 20.5t-20.5 8.5q-9 0 -16.5 -5.5t-10.5 -13.5h-11q-32 0 -50 -29t-31 -38h-25q-3 13 -13 21t-23 8q-16 0 -27 -11t-11 -27t11 -27t27 -11q13 0 23 8t13 20h53q13 -9 36.5 -37.5t54.5 -28.5h10v-19h57v57v0z" />
    <glyph glyph-name="uniE695" unicode="&#xe695;" horiz-adv-x="448" 
d="M93 352q-14 -13 -13.5 -16.5t1.5 -4.5t51.5 -49l50.5 -48l2.5 -3t2.5 -7v0q0 -4 -2.5 -7l-2.5 -3l-50.5 -48t-51.5 -49t-1.5 -4.5t13.5 -16.5q13 -14 17 -14t5 1l77 73v0v0l0.5 0.5l0.5 0.5q2 1 6.5 5.5t4.5 -2.5v-30.5v-59.5v-59v-29v-2q0 -5 4 -8.5t9 -3.5q3 0 5.5 1
t4.5 3v0l21.5 20t47 45t48 46t24.5 23q4 4 4 8.5t-3 8.5l-96 92l-2.5 3t-2.5 6t2.5 6l2.5 3l96 92q3 4 3 8.5t-4 8.5q-2 2 -24.5 23t-48 46t-47 45l-21.5 20v0q-2 2 -4.5 3t-5.5 1q-5 0 -9 -3.5t-4 -8.5v-2v-29v-59v-59.5v-30.5q0 -7 -4.5 -2.5t-6.5 5.5h-0.5t-0.5 1v0v0
l-77 73q-1 1 -5 1t-17 -14v0zM253 380q0 5 4.5 0.5t6.5 -5.5l35 -34q2 -2 2.5 -4t0.5 -4t-0.5 -4.5t-2.5 -3.5q-2 -2 -18.5 -18l-16.5 -16q-2 -2 -6.5 -5.5t-4.5 3.5v42.5v48.5v0zM253 159q0 7 4.5 3.5t6.5 -5.5l17 -16t18 -18q2 -1 2.5 -3.5t0.5 -4.5t-0.5 -4t-2.5 -4
l-35 -34q-2 -1 -6.5 -5.5t-4.5 0.5v48.5v42.5v0z" />
    <glyph glyph-name="uniE696" unicode="&#xe696;" 
d="M448 480h-384q-13 0 -22.5 -9.5t-9.5 -22.5v-448q0 -13 9.5 -22.5t22.5 -9.5h384q13 0 22.5 9.5t9.5 22.5v448q0 13 -9.5 22.5t-22.5 9.5zM160 32h-64v64h64v-64zM160 128h-64v64h64v-64zM160 224h-64v64h64v-64zM288 32h-64v64h64v-64zM288 128h-64v64h64v-64zM288 224
h-64v64h64v-64zM416 32h-64v64h64v-64zM416 128h-64v64h64v-64zM416 224h-64v64h64v-64zM416 352h-320v64h320v-64z" />
    <glyph glyph-name="uniE697" unicode="&#xe697;" 
d="M448 320h-320v33h320v-33zM288 288h160v-160h-160v160zM320 160h96v96h-96v-96zM512 417v0v-305q0 -11 -3.5 -19.5t-10.5 -15.5t-15.5 -10.5t-18.5 -3.5h-416q-10 0 -18.5 3.5t-15.5 10.5t-10.5 15.5t-3.5 18.5v274h64v32h448zM64 353h-32v-241q0 -4 1 -6.5t4 -5.5
q2 -2 5 -3.5t6 -1.5t6 1.5t5 3.5q3 3 4 5.5t1 5.5v242v0zM480 385h-384v-273q0 -5 -0.5 -9t-2.5 -8h371q3 0 6 1.5t5 3.5q3 3 4 5.5t1 5.5v274zM256 160h-128v-32h128v32zM256 224h-128v-32h128v32zM256 288h-128v-32h128v32z" />
    <glyph glyph-name="uniE698" unicode="&#xe698;" 
d="M165 432l-109 46v-426l109 113v267v0zM210 349l110 -147l-264 -150l110 -83l290 184v115l-246 81v0z" />
    <glyph glyph-name="uniE699" unicode="&#xe699;" 
d="M396 -31l-357 70v268l357 73l77 -25v-358zM116 246v-57h76v69l-76 -12v0zM192 98v78h-76v-67zM307 275l-102 -16v-70h102v86v0zM307 80v96h-102v-80zM294 442q16 4 33.5 -2.5t17.5 -21.5v-36l-25 -6v22q0 11 -7.5 16t-18.5 2l-12 -4v-43l-26 -6v39q-11 -3 -18.5 -6
t-7.5 -14v-25l-25 -6v37q0 16 17.5 25.5t33.5 14.5v6q0 11 -7.5 16.5t-18.5 3.5l-38 -9q-10 -3 -17.5 -12t-7.5 -19v-70l-26 -6v82q0 16 11.5 29.5t26.5 17.5l64 12q16 4 27.5 -5t11.5 -25v-11l12 4v0z" />
    <glyph glyph-name="uniE69A" unicode="&#xe69a;" 
d="M89 72l1.5 1.5t0.5 1.5q3 16 10 29.5t16 26.5q18 30 40.5 56t46.5 50q12 12 24 24.5t24 24.5q1 0 2 1l2 2q0 -1 1 -1.5t1 -1.5q32 -30 62 -62t57 -67q15 -17 26 -36.5t18 -40.5q0 -2 1 -4t1 -3v0l-10 -10t-10 -9q-24 -21 -52 -34.5t-59 -17.5q-58 -9 -107.5 7.5
t-90.5 57.5l-2.5 2.5l-2.5 2.5v0v0v0zM89 72q-3 3 -5.5 6.5t-5.5 7.5q-19 24 -30.5 51.5t-14.5 58.5q-6 52 8.5 97t49.5 84q8 9 17.5 11.5t21.5 -0.5q17 -5 32.5 -15t29.5 -21q5 -5 11 -10.5t11 -10.5q-5 -6 -9.5 -10.5t-8.5 -9.5q-22 -25 -42 -51.5t-35 -55.5
q-14 -24 -22 -50.5t-10 -54.5q0 -6 1 -11.5t1 -11.5v-2v-2v0v0v0zM424 73q0 3 0.5 7t0.5 7q3 23 -1 44.5t-14 42.5q-16 35 -37.5 66t-47.5 60q-7 7 -14 14.5t-14 15.5q4 3 7.5 6.5t7.5 6.5q15 13 31 24t34 18q4 2 8 3.5t7 1.5q8 1 14 -1.5t12 -7.5q22 -24 37 -51.5t21 -60.5
q11 -54 -2 -102t-48 -91q-1 0 -1.5 -1t-0.5 -2v0v0v0zM256 368q-14 8 -28 17t-28 17q-10 6 -20 10t-21 5h-10h-9q26 16 55.5 24t61.5 8q31 0 60.5 -8.5t56.5 -25.5q-19 4 -35.5 -2t-32.5 -14q-13 -7 -25.5 -15.5t-24.5 -15.5v0z" />
    <glyph glyph-name="uniE69B" unicode="&#xe69b;" 
d="M307 337q1 -5 1 -10v-10v-58v-58q9 -4 18 -7t19 -3q7 0 13 1.5t12 4.5t10.5 8t8.5 11t6.5 13t3.5 15t1.5 16.5t0.5 17.5q-1 13 -3.5 26t-7.5 25q-4 7 -8 13t-9 11t-10.5 9t-11.5 8q-13 8 -27.5 13.5t-28.5 9.5q-10 3 -19 6t-19 6q-16 4 -32.5 8.5t-32.5 7.5v-92v-92
v-92.5v-92.5q20 -6 41 -12.5t42 -13.5v154.5v155.5q0 4 1 8.5t4 8.5q2 2 4.5 3t5.5 0q2 0 5 -1t5 -3q3 -3 4.5 -7t2.5 -7v-1zM89 119q22 8 43.5 15.5t42.5 15.5v2.5v2.5v22v21q-27 -9 -54 -19t-54 -19q-7 -3 -13.5 -5t-13.5 -5t-14.5 -7t-14.5 -8q-3 -2 -5.5 -4.5t-3.5 -6.5
q-2 -3 -2 -6.5t1 -7.5q2 -4 4.5 -7t6.5 -6q6 -4 13 -7t14 -5q22 -7 45 -10.5t46 -3.5q11 0 22.5 1.5t22.5 3.5v3.5v3.5v18v18q-9 -3 -18 -6.5t-18 -6.5q-4 -1 -7.5 -2.5t-7.5 -1.5q-5 -2 -10.5 -2.5t-11.5 -0.5q-5 0 -10 1l-10 2q-2 1 -3.5 2t-1.5 3q-1 2 -0.5 3.5t1.5 2.5
q2 2 5 3.5t6 2.5v0zM504 147q-6 4 -12.5 7.5t-13.5 5.5q-3 2 -7 3t-8 3q-19 6 -39.5 8.5t-40.5 2.5q-6 0 -12.5 -0.5t-12.5 -0.5q-17 -2 -34 -5.5t-33 -9.5v-25.5v-24.5q22 8 44.5 16t45.5 15q7 3 15 4t16 1q5 0 10 -0.5t10 -2.5q2 -1 3.5 -2t2.5 -3q0 -2 -1 -3.5t-2 -2.5
q-4 -3 -8.5 -4.5t-8.5 -3.5q-32 -11 -63.5 -22.5t-63.5 -22.5v-1v-1v-23.5v-23.5q41 15 83 30t83 30q7 3 14 5t13 6q7 3 12.5 6.5t10.5 8.5q2 3 3.5 6.5t1.5 7.5q0 5 -2.5 9t-5.5 7v0z" />
    <glyph glyph-name="uniE69C" unicode="&#xe69c;" 
d="M303 480v-19.5v-19.5q41 -1 74.5 -16.5t60.5 -45.5q26 -30 35 -63t7 -54h-17h-12h-2h-1q-2 -1 -2.5 -2.5t-0.5 -2.5q0 -21 -7.5 -39.5t-19.5 -35.5q-14 -17 -31.5 -28.5t-39.5 -16.5q-6 -1 -12.5 -1.5t-13.5 -1.5v-82.5v-83.5q-54 0 -100.5 16.5t-86.5 50.5
q-50 41 -76 95t-27 120q5 0 20.5 -0.5t16.5 0.5q2 1 2 2.5v2.5q0 29 8 55.5t21 51.5q7 12 15 23t17 21q11 11 23.5 21.5t25.5 18.5q14 8 29.5 15t31.5 11q4 2 9 3t10 1l10 2l10 2h12h11q0 -10 -2.5 -5t2.5 5zM320 195q4 1 7 1t6 1t5.5 1.5t5.5 1.5q5 2 9.5 4.5t8.5 6.5
q3 2 5 4l4 4q8 9 12.5 18.5t4.5 20.5q1 21 -6 37.5t-23 30.5q-18 16 -39 19.5t-44 -2.5q-14 -3 -25.5 -10.5t-20.5 -17.5q-8 -8 -13 -16.5t-8 -18.5q-4 -12 -4.5 -24t1.5 -24q3 -15 9 -29t16 -25q12 -15 27 -24.5t33 -14.5q7 -2 14.5 -3.5t15.5 0.5q0 15 -0.5 29.5
t-0.5 29.5q4 1 2 -7t-2 7v0z" />
    <glyph glyph-name="uniE69D" unicode="&#xe69d;" 
d="M86 479q21 0 40 -4.5t36 -13.5q5 -2 8.5 -2.5t7.5 1.5q39 20 78.5 20t78.5 -20q4 -2 7.5 -2t7.5 2q19 10 40 15t37 3v-127.5v-127v-127.5v-128q-12 1 -23.5 1.5t-22.5 2.5q-79 12 -140 51t-104 106q-25 39 -38 82.5t-14 89.5v85v85v3.5t1 4.5v0zM256 356
q-8 38 -38.5 53.5t-61.5 3.5q-29 -11 -41 -39.5t0 -56.5q12 -29 41 -40t57 2q6 2 9.5 1.5t7.5 -4.5q6 -8 12.5 -14.5l14.5 -14.5q9 9 16.5 18.5t15.5 17.5q39 -21 69 -6t40 40q12 28 0 56t-40 40q-26 10 -58.5 -2t-43.5 -55zM139 366q-7 -15 -3 -32t17 -27t30 -10t30 10
q12 9 16.5 23t-0.5 26q-11 -10 -20.5 -11t-17.5 7q-9 7 -8 17.5t11 22.5q-18 3 -33 -4t-22 -22v0zM305 303q14 -8 31 -6t28 13q12 12 14 29t-6 31q-9 14 -23.5 19.5t-28.5 1.5q9 -12 10 -22t-7 -17q-8 -8 -18.5 -7t-20.5 11q-6 -13 0.5 -29t20.5 -24z" />
    <glyph glyph-name="uniE69E" unicode="&#xe69e;" 
d="M465 413v-22h-418v22q0 28 19.5 47.5t47.5 19.5h284q28 0 47.5 -19.5t19.5 -47.5zM47 152v-21q0 -28 19.5 -47.5t46.5 -19.5h176v-96l90 96h19q28 0 47.5 19.5t19.5 46.5v22h-418v0zM47 367v-83h418v83h-418v0zM47 260v-84h418v83h-418v1z" />
    <glyph glyph-name="uniE69F" unicode="&#xe69f;" 
d="M256 0l-248 179q-5 4 -7 10t0 11l29 88zM162 288h-132l56 173q3 7 10 7t9 -7zM350 288l-94 -288l-94 288h188v0zM511 201q2 -6 0 -12t-7 -10l-248 -179l226 288l29 -87v0zM350 288l57 173q2 7 9 7t10 -7l56 -173h-132v0z" />
    </font>
</defs>
</svg>
