<?xml version="1.0" encoding="utf-8"?>
<!-- Generator: Adobe Illustrator 17.1.0, SVG Export Plug-In . SVG Version: 6.00 Build 0)  -->
<!DOCTYPE svg PUBLIC "-//W3C//DTD SVG 1.1//EN" "http://www.w3.org/Graphics/SVG/1.1/DTD/svg11.dtd">
<svg version="1.1" id="icon" xmlns="http://www.w3.org/2000/svg" xmlns:xlink="http://www.w3.org/1999/xlink" x="0px" y="0px"
	 viewBox="0 0 28 28" enable-background="new 0 0 28 28" xml:space="preserve">
<path id="NonCS" d="M14,0C6.3,0,0,6.3,0,14c0,7.7,6.3,14,14,14s14-6.3,14-14C28,6.3,21.7,0,14,0z M3,21h1.6l1.7-4.8h3.5l2.6-2.6
	L9.7,5.9H8.4L3,21c-1.3-2-2-4.4-2-7C1,6.8,6.8,1,14,1c3.4,0,6.5,1.3,8.9,3.5L4.5,22.9C4,22.3,3.5,21.6,3,21z M6.8,14.6L8.4,10
	C8.7,9.2,8.9,8.5,9,7.8C9.2,8.7,9.4,9.4,9.6,10l1.6,4.6H6.8z M14,27c-3.2,0-6.1-1.2-8.4-3.1l6.5-6.5l1.3,3.6H15l-1.7-4.8l4.4-4.4
	c1-0.6,2-0.8,2.8-0.8c0.8,0,1.3,0.2,1.6,0.6c0.3,0.4,0.5,1.1,0.5,2v0.7L21,14.3c-3.3,0.1-4.9,1.3-4.9,3.6c0,1.1,0.3,1.9,0.9,2.5
	c0.6,0.6,1.4,0.9,2.4,0.9c0.8,0,1.4-0.1,1.9-0.4c0.5-0.2,1-0.7,1.5-1.4h0.1L23,21h1.1v-7.7c0-1.3-0.3-2.3-0.9-2.9
	c-0.6-0.6-1.5-0.9-2.7-0.9c-0.2,0-0.5,0-0.7,0l4-4C25.8,7.9,27,10.8,27,14C27,21.2,21.2,27,14,27z M22.6,15.4v1c0,1-0.3,1.9-0.8,2.4
	c-0.5,0.6-1.3,0.9-2.2,0.9c-0.6,0-1.1-0.2-1.4-0.5c-0.3-0.3-0.5-0.8-0.5-1.4c0-0.8,0.3-1.4,0.8-1.7c0.5-0.4,1.4-0.6,2.6-0.6
	L22.6,15.4z"/>
</svg>
