<?xml version="1.0" encoding="utf-8"?>
<!-- Generator: Adobe Illustrator 17.1.0, SVG Export Plug-In . SVG Version: 6.00 Build 0)  -->
<!DOCTYPE svg PUBLIC "-//W3C//DTD SVG 1.1//EN" "http://www.w3.org/Graphics/SVG/1.1/DTD/svg11.dtd">
<svg version="1.1" id="icon" xmlns="http://www.w3.org/2000/svg" xmlns:xlink="http://www.w3.org/1999/xlink" x="0px" y="0px"
	 viewBox="0 0 28 28" enable-background="new 0 0 28 28" xml:space="preserve">
<path id="CS" d="M23.3,10.4c-0.6-0.6-1.5-0.9-2.7-0.9c-0.6,0-1.2,0.1-1.8,0.3s-1.1,0.4-1.6,0.7l0.5,1.3c1.1-0.6,2-0.9,2.9-0.9
	c0.8,0,1.3,0.2,1.6,0.6c0.3,0.4,0.5,1.1,0.5,2v0.7L21,14.3c-3.3,0.1-4.9,1.3-4.9,3.6c0,1.1,0.3,1.9,0.9,2.5c0.6,0.6,1.4,0.9,2.4,0.9
	c0.8,0,1.4-0.1,1.9-0.4c0.5-0.2,1-0.7,1.5-1.4h0.1L23,21h1.1v-7.7C24.2,12,23.9,11,23.3,10.4z M22.6,16.4c0,1-0.3,1.9-0.8,2.4
	c-0.5,0.6-1.3,0.9-2.2,0.9c-0.6,0-1.1-0.2-1.4-0.5c-0.3-0.3-0.5-0.8-0.5-1.4c0-0.8,0.3-1.4,0.8-1.7c0.5-0.4,1.4-0.6,2.6-0.6l1.5-0.1
	V16.4z M14,0C6.3,0,0,6.3,0,14c0,7.7,6.3,14,14,14c7.7,0,14-6.3,14-14C28,6.3,21.7,0,14,0z M14,27c-4.6,0-8.6-2.4-11-6h1.6l1.7-4.8
	h5.4l1.7,4.8H15L9.7,5.9H8.4L3,20.9c-1.3-2-2-4.4-2-6.9C1,6.8,6.8,1,14,1s13,5.8,13,13C27,21.2,21.2,27,14,27z M6.8,14.6L8.4,10
	C8.7,9.2,8.9,8.5,9,7.8C9.2,8.7,9.4,9.4,9.6,10l1.6,4.6H6.8z"/>
</svg>
