<?xml version="1.0" encoding="utf-8"?>
<!-- Generator: Adobe Illustrator 17.1.0, SVG Export Plug-In . SVG Version: 6.00 Build 0)  -->
<!DOCTYPE svg PUBLIC "-//W3C//DTD SVG 1.1//EN" "http://www.w3.org/Graphics/SVG/1.1/DTD/svg11.dtd">
<svg version="1.1" id="icon" xmlns="http://www.w3.org/2000/svg" xmlns:xlink="http://www.w3.org/1999/xlink" x="0px" y="0px"
	 viewBox="0 0 28 28" enable-background="new 0 0 28 28" xml:space="preserve">
<path d="M28,8.5"/>
<g>
	<path d="M6.4,13.5c0,0-0.4,0-0.4,0c0-4.4,3.6-8,8-8c1.8,0,3.7,0.8,5,1.8l1.2-1.8c-1.7-1.4-3.9-2.2-6.3-2.2
		C8.3,3.3,3.8,7.9,3.8,13.5l-3.6,0l4.7,5.9l4.7-5.9H6.4z"/>
</g>
<g>
	<path d="M21.8,14C21.8,14,21.8,14,21.8,14C21.8,14,21.8,14,21.8,14l0.4,0c0,4.4-3.6,8-8,8c-1.8,0-3.7-0.8-5-1.8L7.9,22
		c1.7,1.4,3.9,2.2,6.3,2.2c5.6,0,10.2-4.6,10.2-10.2h0.8c0,0,0,0,0,0c0,0,0,0,0,0H27l0,0h1l-4.7-5.9L18.6,14H21.8z"/>
</g>
</svg>
