<?xml version="1.0" encoding="utf-8"?>
<!-- Generator: Adobe Illustrator 17.1.0, SVG Export Plug-In . SVG Version: 6.00 Build 0)  -->
<!DOCTYPE svg PUBLIC "-//W3C//DTD SVG 1.1//EN" "http://www.w3.org/Graphics/SVG/1.1/DTD/svg11.dtd">
<svg version="1.1" id="icon" xmlns="http://www.w3.org/2000/svg" xmlns:xlink="http://www.w3.org/1999/xlink" x="0px" y="0px"
	 viewBox="0 0 28 28" enable-background="new 0 0 28 28" xml:space="preserve">
<path id="goToLink" d="M18,19.5L12,13v5H0v3h12v5L18,19.5z M25.1,8h-8.6V7.8C16.5,4,13.4,0,8.9,0H0v2.4h9c3,0,5,2.6,5,5.4V8H5
	c-2,0-3,1-3,3v5h3v-5h20v13h-7v3l7,0c2,0,3-1,3-3.5V11C28,9.3,27,8,25.1,8z"/>
</svg>
