<?xml version="1.0" encoding="utf-8"?>
<!-- Generator: Adobe Illustrator 17.1.0, SVG Export Plug-In . SVG Version: 6.00 Build 0)  -->
<!DOCTYPE svg PUBLIC "-//W3C//DTD SVG 1.1//EN" "http://www.w3.org/Graphics/SVG/1.1/DTD/svg11.dtd">
<svg version="1.1" id="linked_x5F_taxonomy" xmlns="http://www.w3.org/2000/svg" xmlns:xlink="http://www.w3.org/1999/xlink"
	 x="0px" y="0px" viewBox="0 0 32 32" enable-background="new 0 0 32 32" xml:space="preserve">
<g id="primitive_2">
	<g id="primitive_x5F_arrow">
	</g>
	<g id="defined_x5F_arrow">
	</g>
</g>
<g id="define">
	<g>
		<circle fill="#7DDE3A" cx="16" cy="16" r="16"/>
		<g>
			<path fill="#5FC300" d="M11.2,17.8c0,1.4,0.4,2.5,1.3,3.1s2.1,1.1,3.9,1.1H19v-9h-1.9c-2,0-3.5,0.6-4.4,1.3
				C11.7,15,11.2,16.3,11.2,17.8z"/>
			<path fill="#5FC300" d="M23,1.7V25h-6.8c-3,0-5.2-0.5-6.7-1.8c-1.5-1.2-2.2-3-2.2-5.4c0-2.5,0.8-4.5,2.5-5.8c1.6-1.3,4-2.1,7-2.1
				H19V0.3C18,0.1,17,0,15.9,0C7,0-0.1,7.2-0.1,16s7.2,16,16,16s16-7.2,16-16C31.9,9.7,28,4.3,23,1.7z"/>
		</g>
	</g>
</g>
</svg>
