<?xml version="1.0" encoding="utf-8"?>
<!-- Generator: Adobe Illustrator 17.1.0, SVG Export Plug-In . SVG Version: 6.00 Build 0)  -->
<!DOCTYPE svg PUBLIC "-//W3C//DTD SVG 1.1//EN" "http://www.w3.org/Graphics/SVG/1.1/DTD/svg11.dtd">
<svg version="1.1" id="linked_x5F_taxonomy" xmlns="http://www.w3.org/2000/svg" xmlns:xlink="http://www.w3.org/1999/xlink"
	 x="0px" y="0px" viewBox="0 0 32 32" enable-background="new 0 0 32 32" xml:space="preserve">
<g id="primitive_2">
	<g>
		<g>
			<path fill="#FF4E08" d="M32,30c0,1.1-0.9,2-2,2H2c-1.1,0-2-0.9-2-2V2c0-1.1,0.9-2,2-2h28c1.1,0,2,0.9,2,2V30z"/>
		</g>
		<g>
			<path fill="#FC7F11" d="M25.5,14.1c0,2.7-0.9,4.7-2.6,6.2c-1.8,1.4-4.3,2.1-7.5,2.1h-2.7V32H8.5V6.3h7.4c3.2,0,5.6,0.7,7.2,2
				S25.5,11.5,25.5,14.1z M12.7,18.9h2.2c2.2,0,3.7-0.4,4.7-1.1s1.5-1.9,1.5-3.5c0-1.5-0.5-2.6-1.4-3.3c-0.9-0.7-2.3-1.1-4.2-1.1
				h-2.9V18.9z"/>
		</g>
	</g>
	<g id="primitive_x5F_arrow">
	</g>
	<g id="defined_x5F_arrow">
	</g>
</g>
<g id="define">
</g>
</svg>
