<?xml version="1.0" encoding="utf-8"?>
<!-- Generator: Adobe Illustrator 17.1.0, SVG Export Plug-In . SVG Version: 6.00 Build 0)  -->
<!DOCTYPE svg PUBLIC "-//W3C//DTD SVG 1.1//EN" "http://www.w3.org/Graphics/SVG/1.1/DTD/svg11.dtd">
<svg version="1.1" id="linked_x5F_taxonomy" xmlns="http://www.w3.org/2000/svg" xmlns:xlink="http://www.w3.org/1999/xlink"
	 x="0px" y="0px" viewBox="0 0 32 32" enable-background="new 0 0 32 32" xml:space="preserve">
<g id="primitive_2">
	<g id="primitive_x5F_arrow">
	</g>
	<g id="defined_x5F_arrow">
	</g>
</g>
<g id="define">
	<g>
		<g>
			<path fill="#FFFFFF" d="M31.9,30.5c0,0.7-0.6,1.3-1.3,1.3H1.5c-0.7,0-1.3-0.6-1.3-1.3V1.4c0-0.7,0.6-1.3,1.3-1.3h29.1
				c0.7,0,1.3,0.6,1.3,1.3V30.5z"/>
		</g>
		<path fill="#FF4E08" d="M30.6,0.1H1.5c-0.7,0-1.4,0.6-1.4,1.3v27.9l18-18l-9.7,0l0-3.5l15.6,0v16.1h-3.2V13.9l-18.2,18h28
			c0.7,0,1.2-0.6,1.2-1.3V1.4C31.9,0.7,31.3,0.1,30.6,0.1z"/>
	</g>
</g>
</svg>
