<svg id="Layer_1" data-name="Layer 1" xmlns="http://www.w3.org/2000/svg" viewBox="0 0 193.68 90"><defs><style>.cls-1{fill:#fff;}</style></defs><title>Artboard 1</title><path class="cls-1" d="M1.13,90.13V.14H194.46v90ZM96.95,65.9l-2-.2,0,.2,1.62.5.41-.53c.2.08.47.09.6.24.37.4.34.42.87.25-.71,0-.88-1.05-1.75-.86Zm35.87,1.42c-.06-.14-.08-.36-.18-.4-.39-.16-.79-.26-1.19-.39l-.11.19a2,2,0,0,0,.43.29c.35.12.71.2,1.07.3L134,68l.14-.36,1.24.28A4.07,4.07,0,0,0,132.81,67.32Zm40.72,6.52.08-.37-1.19-.33c.13.41.13.41,1.13.69.68.83,1.29,1.82,2.71,1.25-.21-.11-.41-.23-.62-.31s-.63-.09-.79-.27C174.5,74.07,174.19,73.64,173.54,73.84ZM168.71,82c-.31-.29-.31-.54.32-.81l-1.28-.31c.4.59.4.66-.06.79l1,.31a3.39,3.39,0,0,0,.59.67c.84.56,1.87.16,2.79.42l-2.53-1.19.27.53ZM124.12,64.72c-.09-.28.25-.77-.41-.79a5.81,5.81,0,0,1-1.05-.23l0,.19c.34.07.69.11,1,.21.09,0,.13.21.2.32a2.61,2.61,0,0,0-.34.07,2.46,2.46,0,0,0-.35.22h1l-.2,1.11a9,9,0,0,1,1.82.23,9.82,9.82,0,0,1,1.68.92l.13-.22a6,6,0,0,1-1-.64c-.62-.6-1.69-.53-2.11-1.43C124.47,64.64,124.24,64.7,124.12,64.72Zm-4.4-.75a1.65,1.65,0,0,0,1.48.77,8.51,8.51,0,0,0,1.84-.15c-.7,0-1.27-1.36-2-.14L119.7,64l.07-.5.42.16.93.27,0-.15-.51-.17,0-.15.84.14a2.45,2.45,0,0,0-1.94-.6,1.18,1.18,0,0,1-.65-.09c-.46-.18-.9-.41-1.4-.64l-.23.86c1.31-.23,1.87-.06,2.13.73a1.7,1.7,0,0,0-2-.12Zm16.51,10-1.57-.74-.12.33,1.71.39c0,.11.06.28.15.32.39.23.81.41,1.21.63s.5.48.06.87l1,0-.28-.6.12-.08,3.22,1.5-.1.82.82-.4c-.57-.16-.6-.36-.09-.6a3,3,0,0,0-.37-.22c-1-.39-2.05-.75-3.07-1.15S137.12,74.29,136.23,73.92ZM127.89,71a3.13,3.13,0,0,1-.88-.45c-1-1-2.31-1-3.52-1.61.21.58.48.77,1,.76a5.34,5.34,0,0,1,2.35,1c.08,0,.08.24.17.52l-1.13-.49-.11.12.58.78.21-.39.59.4L127,72l.74-.24-.65-.53.07-.12,1.19.57-.49.25a1.16,1.16,0,0,1,1.1.75,1,1,0,0,0,1.16.49c-.69-.32-.68-.32-1.16-1.27-.08-.16-.29-.26-.44-.38l-.67-.5,1.34.37.07-.21-1.5-.59-.07.13Zm18.38,2.34c.15.06.38.09.42.19.2.5.61.49,1.07.56-.52-.77-1-1-1.49-.75.12-.9.7,0,1-.29l-1-.41.28-.47c.27.15.54.31.82.45s.54.21.71.28l1-.16a3.75,3.75,0,0,0-1-.41,3.49,3.49,0,0,1-1.23-.37,3,3,0,0,0-1.61-.58c-.11,0-.29,0-.33-.06-.34-.62-1.06-.52-1.56-.84-.09-.05-.27,0-.34.06l1.92,1.08-.05.15h-.55l-.06.23a4,4,0,0,1,.57.17c.34.16.87.28,1,.54A1.08,1.08,0,0,0,146.28,73.38Zm-42-10.2a7,7,0,0,1,.8.13,2.84,2.84,0,0,1,.58.28s0,.11,0,.17l-.61-.18s-.06,0-.27.21l1.2.32c.16,0,.39,0,.48.11a3,3,0,0,0,1.85.9c0-1,.7-.25,1-.53l-.51-.54,0,.18-1.22.08.12.25c-.62,0-1-.25-1.07-.84,0-.1.13-.21.19-.3l-1.37-.68.06.54-1.6-.68,0,.43-1.46-.5,0-.12.72,0-.66-.37.35-.17,0-.18-3.31-.43c-.24,0-.59.18-.49-.34,0-.07-.13-.21-.22-.26A11,11,0,0,0,97.56,60c-.44-.17-.91-.26-1.38-.39V60c.76.33,1.67.09,2.18.94l-2-.47,0,.17a4.39,4.39,0,0,0,1.28.6,13.9,13.9,0,0,1,3.22.54c.18.06.43.22.54.16.6-.35.6.07.54.43s.05.49.37.57.68.23,1,.28A5.57,5.57,0,0,0,104.24,63.17ZM159.33,78.3l-.11-.48-.09.13-.75-.48.12-.2a12.54,12.54,0,0,0,1.42.66,9.15,9.15,0,0,0,1.38.24l.09-.31-1.94-.94,0,.48c-.51,0-.92-.88-1.57,0,.08-.71-.32-.64-.68-.68s-.69-.14-1.12-.24c0,.21-.15.55-.07.61a5.4,5.4,0,0,0,1,.45l0-.13L156.5,77a.67.67,0,0,1,.6.1c.26.26.43.63.72.83a1.7,1.7,0,0,0,1.53.35c.18.19.32.47.53.54a6.9,6.9,0,0,1,2.43.91c.19.16.53.13.8.19l0-.16c.29.15.82.28.83.45,0,.5.39.37.63.46.66.25,1.33.47,2,.73.37.15.72.37,1.08.55l.09-.15c-.6-.57-.91-1.49-2.06-1.34a3,3,0,0,1-1.1-.31l.07-.26,1.08.21c-.89-.35-1.79-.61-2.7-.88-.06,0-.16,0-.19,0-.47.56-.68.07-1-.21l.45-.2c-.32-.1-.6-.26-.68-.19-.37.33-.69.18-1.05,0S159.76,78.41,159.33,78.3Zm-23.64-9.73h-1.38l-.34.67,1.47.11c.49,0,.74.53,1.11.69a7.56,7.56,0,0,0,2,.31A1.2,1.2,0,0,0,140,71c.63.32,1.19.61,1.76.88.08,0,.25-.12.35-.09.27.09.64.15.77.36a1.79,1.79,0,0,0,1.46.63c-.65-1.1-1.94-1.19-3.06-1.57l.06-.16.47-.06-1.25-.87c.37.06,1,0,1.07.2.33.61,1,.68,1.42,1,.06,0,.2,0,.31,0l-.2.13c-.19-.3-.31-.68-.57-.87a8.06,8.06,0,0,0-1.61-.83c-.18-.07-.65-.13-.38.39l-.68-.2.4-.21c-.56-.28-1-.54-1.54-.77-.26-.11-.55-.15-.82-.24A2.83,2.83,0,0,0,135.69,68.57ZM83,60.46a1.08,1.08,0,0,0-1.21-.73l.33.11.39.13c-.85.37-1,.29-1.08-.28a.57.57,0,0,0-.33-.36,4.57,4.57,0,0,0-2.37-.55c-.1,0-.23-.15-.35-.23s-.26-.25-.4-.26c-.45,0-.9,0-1.35,0l.13-.17c-.13-.16-.22-.39-.39-.47a2.41,2.41,0,0,0-2.13-.27c-.07,0-.32-.16-.31-.19.16-.53-.45-.4-.49-.39-.48.1-1,.26-1.47.42a4.16,4.16,0,0,0,2.86.36,1.3,1.3,0,0,1,1.46.58l-1.8-.44-.06.17a1.64,1.64,0,0,0,.35.23,37.78,37.78,0,0,0,4.3,1.39c.77.16,1.19.9,2,.86a5.9,5.9,0,0,1,1.62.39c.17.18.32.5.51.52a7.27,7.27,0,0,0,1.63,0,1,1,0,0,1,1,.55H87c-1.2-1.06-2.57-.72-3.86-.89l.49-.46Zm-28-2.69c.09.12.17.28.29.34.4.2.83.35,1.25.53,0,.43-.2.47-.53.29s-.51-.24-.76-.36c.28.58.28.58,2,.51-.46-1.05-1.53-.91-2.28-1.3l-1.12-.56c-.35-.17-.65-.6-1.18-.24l1,.44c-1.15.29-1.35-.93-2.14-1l-.12.31-.2,0,.06-.55-7.64-2.89L43.5,54l3,1.16.19-.44c.12.09.33.16.36.27a.76.76,0,0,0,.82.64c.4,0,.79.1,1.21.16,0,.37.83,1.11,1.33.94s.53,0,.74.31c.33.45.8.43,1,0a5,5,0,0,0,2.63,1.63l.11-.24-1.32-.49,0-.1Zm39.24,1.13,0,0c-.33-.06-.65-.13-1-.17a5.42,5.42,0,0,1-.67,0c-.19,0-.34-.23-.53-.3-.75-.27-1.52-.52-2.26-.77a4.68,4.68,0,0,1,.12-.86c0-.14.26-.34.38-.32,1,.12,2,.25,3,.44.57.11,1.09.27,1.5-.3l.66.5-.57.06v.19a6.44,6.44,0,0,1,.93,0,3.12,3.12,0,0,1,.77.26c.16.07.29.27.43.27.64,0,1.28-.05,1.92-.06a1.76,1.76,0,0,1,.5.15l0,.16h-.33a14.93,14.93,0,0,0,1.67.44,16.38,16.38,0,0,1,1.57.62l.09-.18-1-.72a1.75,1.75,0,0,1,.81.11,7,7,0,0,1,.7.36l-.2.42a14,14,0,0,0,1.58.5c.33.07.88-.18,1,0a1.54,1.54,0,0,0,1,.7c.68.13,1.35.25,2,.36a.4.4,0,0,0,.33-.14c.35-.62.7-.32,1.24.06h-1.09c.26.31.38.6.56.64.4.1.88.58,1.18-.08.21.7.82.42,1.23.56l-1.12-1h-.56c.54-.4.86-.14,1.26.08a7.37,7.37,0,0,0,1.49.54c.07,0,.19-.15.28-.23L113,61h-1.2l.08-.16c-.18-.15-.34-.38-.55-.43-.95-.24-1.9-.42-2.87-.63l.06.55c-1.13-.36-2.46.1-3.16-1l-.05-.46c-.16,0-.45,0-.47.1-.14.51-.48.37-.81.29s-.47-.12-.49-.54c0-.2-.6-.4-1-.54-.73-.29-1.48-.64-2,0a9,9,0,0,0-1.59-.62,8.58,8.58,0,0,0-1.23.13,3.2,3.2,0,0,1-.95-.26s0-.32.06-.33a2.54,2.54,0,0,1,.78-.09l4.93.41c.76.06,1.52.08,2.28.14,1.91.16,3.83.34,5.74.5.47,0,.94,0,1.41,0,1.93.16,3.85.35,5.77.5.73.06,1.48,0,2.22,0s1.68.21,2.52.23a12.94,12.94,0,0,1,4,.64,1.29,1.29,0,0,0,.79-.07c.51-.19,1,0,1,.56.55-.06,1.1-.15,1.64-.19s1.06,0,1.59,0c-.41.83-1,.15-1.49.37a3.22,3.22,0,0,0,1.08.24,2.16,2.16,0,0,1,1.65.49c.13.13.43.09.65.13a3.14,3.14,0,0,1,1.21.3c.4.31.33.39.67.14.15.43.67.64,1.7.69-1-1.1-3.13-2.2-4.08-2l1.4.57a1.23,1.23,0,0,1-.68.07,1.52,1.52,0,0,1-.79-.39,1.78,1.78,0,0,0-1.19-.83,6.5,6.5,0,0,0-1.86-.09,1.47,1.47,0,0,1-1.39-.3,3.59,3.59,0,0,0-.55-.28c-.32-.21-.54-.17-.6.17l-1.07-.17-.28-.6h1.28l-1.29-.53c.25-.19.42-.27.51-.4.19-.29.48-.61.47-.9a1.59,1.59,0,0,0-2.09-1.29,1.23,1.23,0,0,0-1,1.16c-.07.63.39.89.81,1.17s.68.42,1.12.69c-.76.12-1.21.64-1.94.45a11.46,11.46,0,0,0-2.41-.22c-1.36-.06-2.73-.08-4.09-.14-.83,0-1.65-.07-2.48-.14-1.37-.11-2.73-.27-4.1-.36-1-.08-2.09-.06-3.14-.15-1.85-.15-3.7-.33-5.55-.5-1-.09-2-.18-3-.25s-1.77-.08-2.63-.12l0,.37c-.21-.07-.43-.08-.51-.19a1.13,1.13,0,0,0-1.39-.36.39.39,0,0,1-.25,0c-.53-.21-1-.44-1.58-.63a.58.58,0,0,0-.5.05c-.7.75-1.41,0-2.17.22.59-1.59,1.25-8.27.88-9.07-.15,1.44-.3,2.76-.44,4.09-.17,1.55-.34,3.1-.53,4.64,0,.1-.25.22-.4.25a2.61,2.61,0,0,1-.64,0l-3-.25c-.74-.06-1.48-.11-2.22-.13a8.54,8.54,0,0,1-1.12.08c-.76-.13-1.5-.35-2.25-.52-.12,0-.29-.09-.35,0-.22.2-.41.2-.53,0,0-.06.18-.28.32-.37a1.16,1.16,0,0,0,.67-1.12A1.41,1.41,0,0,0,78.8,52.4a1.23,1.23,0,0,0-.95,1.74c.14.41.65.69,1,1L63,53.94c0-.73,0-1.34,0-2,0-.35-.07-.74.52-.58.06,0,.17-.12.37-.28L62.19,51a1.41,1.41,0,0,1,.53,1.89c-.6-.56-1.24-1.09-1.8-1.7a1.35,1.35,0,0,0-1.42-.33c1,.64,1.25,1.94.48,2.52l.67.12V51.71l2,1.93-.11.23-2.92-.19c-1-.08-2-.19-3-.25-.77,0-1.55,0-2.32,0-1.59-.13-3.18-.34-4.78-.49-1.1-.11-2.21-.17-3.31-.27l-5.61-.51c-.25,0-.5-.07-.75-.09L38.68,52a4.34,4.34,0,0,0-1.09-.46c-.67-.1-1.37,0-2-.11-1.28-.19-2.55-.47-3.83-.69-1.44-.26-2.9-.47-4.33-.76-1.94-.4-3.87-.87-5.81-1.29-.32-.07-.42-.12-.31-.49.17-.58-.15-1.23-.61-1.29-.82-.11-1.64-.13-2.46-.19l-.23.23c1,0,.78.48.73,1A12.49,12.49,0,0,0,17.23,47,1.06,1.06,0,0,1,16.52,46a1.23,1.23,0,0,1,.83-1.13,20.76,20.76,0,0,1,3.37-1.29c1.94-.51,3.92-.87,5.87-1.3.93-.2,1.85-.46,2.79-.63s1.63-.19,2.45-.29l4.39-.5a7.89,7.89,0,0,0,1.63-.17,13,13,0,0,1,3.68-.49c1,0,1.94-.14,2.9-.25s2-.28,3.06-.38c.76-.08,1.52-.09,2.28-.14s1.53-.07,2.28-.14c1.53-.15,3.05-.35,4.58-.49,1.22-.12,2.45-.14,3.67-.27,2.12-.22,4.24-.49,6.37-.74.17,0,.35,0,.53,0,1.41-.13,2.82-.25,4.22-.4,1.11-.12,2.21-.27,3.32-.41L76,36.81l-.12.45,1-.09V37l-.81-.39a3.19,3.19,0,0,1,.27-.34,5.37,5.37,0,0,1,.52.38L77.5,36c-.48.16-1.2-.44-1.59.47,0,.09-.25.14-.38.15-1.19.14-2.38.28-3.57.39-2.08.19-4.17.34-6.25.52-.22,0-.43.18-.64.17-.51,0-1.06.47-1.49-.07-.15.09-.29.25-.45.27-.94.11-1.89.22-2.84.26a29.8,29.8,0,0,0-4.33.49,25.59,25.59,0,0,1-3.2.23c-1.11.07-2.23.09-3.33.2-1.67.16-3.33.41-5,.58-1.34.13-2.69.19-4,.31-1,.1-2.09.27-3.14.38s-1.9.13-2.84.27c-1.84.27-3.68.58-5.52.89-1.55.26-3.1.52-4.64.83A33.85,33.85,0,0,0,18.5,44a9.68,9.68,0,0,0-1.36.61c-.89.51-1.32,1.67-.77,2.15a22.14,22.14,0,0,0,2,1.31.92.92,0,0,1,.34.6c0,.13-.24.3-.41.4a1.25,1.25,0,0,1-.45.07.51.51,0,0,0,.39.31c.34,0,.69,0,1,0a1.79,1.79,0,0,0,1.37-.36.88.88,0,0,1,.68-.14c1.53.32,3.05.7,4.59,1s2.85.51,4.27.78c1,.19,2,.43,3,.63q3,.59,6,1.15a2.28,2.28,0,0,0,.69-.11c0,.05.09.3.23.36.93.36,1.87.68,2.81,1a.56.56,0,0,0,.45-.07.43.43,0,0,0,.12-.39.64.64,0,0,0-.38-.25c-.3-.09-.6-.14-.93-.21l-.25.46c-.13-.49-.28-.81-.76-.53-.06,0-.24-.13-.37-.2l.05-.16c1,.09,2.09.15,3.14.26,2.28.24,4.56.53,6.84.75,1.66.16,3.33.28,5,.39.58,0,1.16,0,1.74,0,.86.06,1.72.14,2.58.25.68.09,1.36.25,2,.33a2.38,2.38,0,0,0,.73-.15V54c.44.25.73,1,1.27.54a10.47,10.47,0,0,0,4.38,1.05c.08.18.1.39.19.43a7.19,7.19,0,0,0,1.58.53c.8.12,1.61.11,2.51.15-.91-.75-1.28-.82-1.47-.16a7.07,7.07,0,0,1-.74-.74c-.2-.27-.35-.34-.66-.14a.52.52,0,0,1-.79-.15,1.49,1.49,0,0,0-1.92-.43c-.17.06-.41,0-.69-.08l.32-.54c.48,0,.88,0,1.27.07,1.48.16,3,.35,4.44.5.8.08,1.61.08,2.42.14s1.72.15,2.58.26c.4.05.79.21,1.19.29a5.57,5.57,0,0,0,.93.1c.21,0,.5-.16.61-.07.9.77,2.07.58,3.09.9a3.89,3.89,0,0,0,2.23.06c.09,0,.22.08.33.12V57l-.71,0v.12h.84l.13-.59-1.8-.18,0,.15-.77-.52,0-.13,6.16.54L89.42,58c-.06-.5-.27-.71-.77-.74A4.75,4.75,0,0,1,87.18,57c-.42-.17-.65-.08-1,.36a4.19,4.19,0,0,1,.92.22c.42.22,1.15-.26,1.25.62l.59-.24c.32.48.37.49.15,1.49s-.56,2.16-.85,3.25l-1-.42-.82-.32-.08.21c.23.08.46.19.7.25,1.1.3,1.31.7.85,1.74-1,2.18-1.93,4.36-2.89,6.54-.16.35-.28.72-.43,1.08-.39.93-.77,1.87-1.17,2.8-.18.43-.39.84-.59,1.27l.26.12c1-2.15,2-4.3,2.91-6.47s1.86-4.4,2.79-6.62c.81-.18,1.41.93,2.4.62.11,0,.28.15.43.23v.17L90.56,64c1,.67,1.65.83,2.22.54-.93,0-1.25-.48-.85-1.27l-3.26-.86,1-3.93L91,59c.52.19,1,.51,1.55-.06,0,0,.12,0,.18,0,.11.62.34.83,1,.86.07,0,.15,0,.21,0l2,.75a2,2,0,0,0-1.46-1h.94l.3.42.2-.13c-.16-.22-.28-.53-.5-.64A5.52,5.52,0,0,0,94.29,58.89Zm7.92-23.46-.06-.22a3,3,0,0,1,1-.4,50,50,0,0,0,7.24-.39,24.77,24.77,0,0,1,2.6-.15c2.11-.12,4.22-.28,6.34-.38,2.49-.11,5-.18,7.46-.26.17,0,.34,0,.51,0,1.51-.12,3-.27,4.54-.37.94-.06,1.89,0,2.83-.08l7.58-.31h.32l6.41-.5c.3,0,.6,0,.9,0l5.55-.5c.5,0,1-.08,1.51-.1l7.78-.29,3.14-.13c1.86-.09,3.72,0,5.59-.2a65.23,65.23,0,0,1,6.93-.06h6.52l0-.24a3.2,3.2,0,0,0-.64-.13c-2.06,0-4.11,0-6.17,0-3.21.06-6.43.17-9.64.25l-4.07.09-2.41.09c-1.46.07-2.92.15-4.38.2-.86,0-1.72,0-2.57,0-1.7.13-3.4.36-5.1.49s-3.43.16-5.15.27-3.23.27-4.85.37c-2,.11-3.9.18-5.85.27l-2.61.13c-2.13.12-4.27.27-6.4.38-1.93.1-3.85.15-5.78.27-1.62.1-3.24.31-4.86.36-2.36.07-4.71.06-7.06.37-1.72.22-3.51,0-5.23.22-1,.15-2.23-.56-3.16.42,0,0-.12,0-.18,0-1.35.09-2.71.17-4.06.26-.53,0-1-.33-1.61,0a4.35,4.35,0,0,1-1.68,0c-.19,0-.39,0-.58,0-.73.07-1.46.16-2.19.21-.11,0-.24-.11-.36-.17l0-.18,3.84-.43v.08l1.07-.54A1.54,1.54,0,0,0,94.8,34c-1.31.22-2.62.45-3.93.7-.4.08-.73.18-.7-.44a3.27,3.27,0,0,0-.19-.91c-.56-2.14-1.07-4.29-1.69-6.4a38.19,38.19,0,0,0-1.56-4.43c-.75-1.75-1.66-3.44-2.51-5.15-.63-1.28-1.21-2.59-1.93-3.81S80.66,11.16,79.81,10c-.49-.69-1-1.35-1.52-2L78.14,8a6.45,6.45,0,0,0,.39.73c.83,1.18,1.78,2.3,2.49,3.55,1.71,3,3.4,6.08,4.92,9.2a39.21,39.21,0,0,1,2.22,5.93c.69,2.32,1.17,4.7,1.73,7.05a.48.48,0,0,1-.24.4q-2.11.36-4.24.65a10.14,10.14,0,0,0-1.91.2,8.66,8.66,0,0,1-4.23.32c-.41-.06-.77-.13-.5.42l-1.5.41,0,.17a1,1,0,0,0,.25,0l4-.53c.46-.06.93-.06,1.39-.13.88-.15,1.75-.39,2.63-.48,1.14-.11,2.29-.1,3.44-.14.33,0,.66,0,.9,0a38,38,0,0,1,.83,10h-10v.31h38.36c-.07-.16-.16-.21-.25-.21-1.32,0-2.64-.13-4-.12-2.32,0-4.65.11-7,.11-2,0-4-.08-6.07-.11-.42,0-.84.12-1.26.11-1.11,0-2.21-.1-3.32-.11s-2.49,0-3.73,0a10.19,10.19,0,0,0-1.74.07c-.67.12-.86,0-.79-.69a16.38,16.38,0,0,0,.12-1.91c0-.87-.07-1.74-.12-2.6a17.46,17.46,0,0,0-.18-2c-.17-.93-.42-1.85-.64-2.77l.18-.18c.38.2,1,.34,1.09.61a10.56,10.56,0,0,1,.05,2.25l1.34-.25c-.92-.37-1-.56-.55-1.1a4.59,4.59,0,0,1,.61.42,1.57,1.57,0,0,0,1.88.49l-2.13-1.38L92,37.1l.2-1.07-.79-.09v-.28c3.51-.4,7.06,0,10.49-.55.1.92.41,1.79-.27,2.5l1.27.1,0-.19-.55-.29c.49-.53-.39-1.59.8-1.92Zm-26.49,2,0-.29a5.3,5.3,0,0,0-.91,0c-1,.19-2.08.44-3.13.6-2.28.36-4.57.7-6.86,1-1.23.18-2.46.31-3.68.51-1.8.28-3.59.62-5.39.9-1.29.2-2.58.34-3.87.52q-2.71.38-5.41.78c-1.6.24-3.19.51-4.78.75l-4.52.68-4,.61L29,44.16c-1,.14-2,.26-2.94.39-1.14.15-2.29.29-3.43.47-.94.15-1.87.4-2.81.55s-1.67.17-2.51.28a.54.54,0,0,0-.35.26.4.4,0,0,0,.07.38.65.65,0,0,0,.45.07,12.38,12.38,0,0,1,1.57-.32c1.06-.05,2.13,0,3.2,0,2.68,0,5.37,0,8.05,0,2.35,0,4.69.09,7,.12.72,0,1.44-.12,2.16-.11,1.51,0,3,.11,4.54.11,1.32,0,2.64-.11,4-.11s2.8.11,4.2.11c2.13,0,4.26-.09,6.39-.11,1,0,1.92,0,2.89.08.56,0,1.12.05,1.68,0,.94,0,1.89-.11,2.83-.12,1.95,0,3.89,0,5.84,0H73l2.8,0h4.6v-.27a3.15,3.15,0,0,0-.58-.1c-2,0-4,.1-6,.12q-4.57.05-9.15.07C63.86,46,63,46,62.19,46H51.65c-1.31,0-2.61,0-3.91,0-.59,0-1.18.13-1.77.11-1.76-.06-3.51-.2-5.27-.23-1.37,0-2.74.1-4.11.1s-2.82-.11-4.23-.11c-3.3,0-6.6,0-9.9,0h-1.8a1.61,1.61,0,0,1-.33-.07ZM145.82,59.9l0-.15a2.12,2.12,0,0,1,.4,0c1.06.08,2.11.18,3.17.25,2.25.14,4.5.26,6.75.39l5,.26c.08,0,.16.05.25.06.91.07,1.81.16,2.72.18a18.36,18.36,0,0,1,1.9-.09c.68.09,1.31.37,2,0,.23-.12.61.07.91.06,1.54,0,3.08-.07,4.63-.07,1.12,0,2.24.06,3.36.12a7.38,7.38,0,0,1,.86.25,1.56,1.56,0,0,0,.63,0c.15,0,.31-.25.42-.22.78.2,1.67-.19,2.39.44a.65.65,0,0,0,.61,0,3.61,3.61,0,0,1,2.7-.24c.66.08,1.33.09,2,.14l.06-.15c-.12-.08-.24-.21-.37-.22-.61-.06-1.22-.11-1.83-.14a5.19,5.19,0,0,1-2.5-.37.78.78,0,0,0-.56,0,3.88,3.88,0,0,1-3-.09,1.21,1.21,0,0,0-.6,0,8.33,8.33,0,0,1-1,.2c-1.63,0-3.26,0-4.89,0a33.27,33.27,0,0,1-3.95-.16,2.13,2.13,0,0,0-1.69.16c-.06,0-.17,0-.25,0l-3.32-.13-5.86-.25c-.63,0-1.27,0-1.9,0-1.81-.15-3.61-.37-5.42-.49-1.44-.1-2.88-.1-4.32-.14-.15,0-.41,0-.43,0-.21.56-.45.14-.69,0s-.46-.14-.69-.22a6.5,6.5,0,0,0-.94-.34,2.74,2.74,0,0,0-.84,0,3.5,3.5,0,0,1-.65.15c-.78-.06-1.55-.19-2.32-.22-.57,0-1.14.12-1.71.1-1.16,0-2.32-.18-3.48-.24-1.41-.07-2.81-.09-4.22-.14a7.53,7.53,0,0,1-.8-.11.59.59,0,0,0,.31.36c.45.24.9,0,1.35,0,.86,0,1.72.17,2.58.23,1.06.07,2.12.11,3.18.13s1.85,0,2.77,0c1.07.07,2.14.25,3.21.35a1.34,1.34,0,0,0,.71-.1c.25-.13.4-.27.4.16A.27.27,0,0,0,143,60c.47.09,1.09.37,1.39.17.48-.31.74-.06,1.06.09a2.28,2.28,0,0,0,2,0Zm-26.4-14v.15a1.72,1.72,0,0,0,.51.15c.94,0,1.87-.11,2.8-.11,1.27,0,2.54.11,3.81.11s2.46-.09,3.7-.11c.37,0,.75.09,1.12.1,1.09,0,2.17,0,3.26,0h3.7c.75,0,1.51,0,2.26,0,1.75,0,3.5,0,5.24,0,1.17,0,2.34-.11,3.51-.09,1.69,0,3.39.17,5.08.21.7,0,1.39-.1,2.09-.11q1.52,0,3,0c1.08,0,2.16.11,3.25.11s1.87-.12,2.81-.11c1.77,0,3.54.1,5.31.11.93,0,1.87-.1,2.8-.11s2.1,0,3.14,0l10.5-.13a2.89,2.89,0,0,0,.43-.07.36.36,0,0,0-.29-.18c-2,0-3.91,0-5.86,0-3.07,0-6.13.16-9.2.19-1.52,0-3-.12-4.56-.13s-3.13.07-4.7.05c-2.28,0-4.56-.1-6.84-.11-1.21,0-2.42.09-3.63.11-.69,0-1.39,0-2.08,0-1.89,0-3.79-.09-5.68-.09-2.9,0-5.8.09-8.7.11-.76,0-1.52-.11-2.29-.11-2.5,0-5,0-7.5,0h-6.37A6,6,0,0,0,119.42,45.91Zm40.26,23.37c-.24.54.14.51.48.57.51.08,1,.18,1.53.31a6.55,6.55,0,0,1,.9.4,3.21,3.21,0,0,0,1.9.73c.22,0,.56-.05.66.07.45.55,1.11.45,1.67.66a3.27,3.27,0,0,1,.34.21c.5.26.91.82,1.6.47.08,0,.23,0,.35.07l1.41.29,0-.12-.69-.28,0-.13,1.56.39c.09-.63-1-.09-.75-.84-.82-.2-1.27-1.3-2.23-1l1.77,1.14c-.73.43-1.25,0-1.84-.32l.13.68c-.89-.49-1.6-1.18-2.65-1.14-.14,0-.3-.21-.43-.35s0-.25-.1-.27c-.49-.15-1-.28-1.5-.41a3.42,3.42,0,0,1-.76-.23,7.47,7.47,0,0,0-1.23-.76,10,10,0,0,0-1.81-.23l.05-.45,2,.31a4.47,4.47,0,0,0,1.24.84c.46.13,1.12.44,1.52-.37l-1.23-.14.16.41a4.91,4.91,0,0,1-.51-.26,6.26,6.26,0,0,0-1.27-.85,7.18,7.18,0,0,0-1.91-.31c-.15,0-.32.32-.49.49l.11.1L159,69ZM85.2,81.36l.1-.21c-.67.16-.77-.14-.73-.64s0-1.08,0-1.61-.22-.65-.65-.58a4.57,4.57,0,0,0-.65.2.39.39,0,0,0,.38.12c.33-.09.34,0,.33.34,0,.68-.39.8-1,.75l-.74-.05c.07-.3.13-.59.2-.89,0-.06.08-.11.18-.24l-1.2-.14L83,76.11,82.77,76l-.27.37-1.31,1.84c-.87,1.21-1.74,2.42-2.6,3.63-.06.08,0,.22,0,.33C79.45,81.1,80.22,80,81,79c.24-.33.68-.37.73-.06a5.2,5.2,0,0,1,0,1.4,7.6,7.6,0,0,1-.31,1.18H82.6a8.17,8.17,0,0,1-.31-1.14c0-.1.24-.31.4-.35.31-.06.65,0,1-.06s.47.1.38.38-.31.79-.45,1.13Zm74.75-18,0,.19L156.34,63a5.06,5.06,0,0,0,1.27.46c1,.31,2.07.65,3.11,1a.4.4,0,0,0,.25,0c.47-.21.81.13,1.2.26s.54.08.8.15.5.22.75.33a4.8,4.8,0,0,0,.74.28c.36.09.75.09,1.1.19s.76.31,1.16.43c.07,0,.2-.14.43-.3l-3.15-1a4.14,4.14,0,0,1-.5-.25l.11-.15H166v-.2a5.47,5.47,0,0,0-2.11-.24c-.72.22-1.23-.25-1.86-.17-.17,0-.37-.27-.56-.41l.08-.16,2,.69c-1.14-.8-3.41-1.11-4-.65Zm-19.71-.54-.06.25a37.54,37.54,0,0,1,6.21,2l.06-.19-.64-.34.1-.19c.24.13.62.21.68.4.27.74.94.66,1.48.81a1.82,1.82,0,0,0,.67-.09l0-.23-.52-.08v-.15h.75c-1.16-1.22-2.74-1.22-4.1-1.74-.22.56.33.51.56.72s.18.2.27.3a1,1,0,0,1-.39,0c-.46-.21-.91-.44-1.43-.7l.9-.46-1.29-.2v.51Zm10.21-2.2c.13.09.23.2.28.18.45-.15.71.1,1.07.33s.77,1,1.5.48a1.18,1.18,0,0,0,1.44,1.13c.49-.18.79-.05.92.18a4.29,4.29,0,0,1,1-.17,3.83,3.83,0,0,0,2,0,5.32,5.32,0,0,1,1.57-.13v-.24c-.56,0-1.13,0-1.68.09-.36,0-.74-.21-1.12.18-.17.17-.72,0-1.08-.07-.2-.05-.34-.29-.51-.45l.09-.21h-1.14l.32-.36c-1.37-.58-2-.65-2.21-.26C152.08,61.11,151.46,60.38,150.45,60.66Zm-8.71-2.57c.13-.33.18-.79.36-.84.42-.13.74.14.82.61a.6.6,0,0,0,.11.23.77.77,0,0,0,1.28,0c-.9.16-.83-.76-1.32-1.06.63-.74.48-1.23-.45-1.43a9.46,9.46,0,0,0-1.45-.1c.47,1.32.34,2.31-.41,2.91h1.79v-.18ZM12.36,46.69l0,.16a3.61,3.61,0,0,0,2.27,0c.82-.31.89-.87.43-1.37,0-.49,0-.84-.09-1.07a1.07,1.07,0,0,0-.73-.36,12.88,12.88,0,0,0-1.47,0c.41.64.41.64.14,2.52ZM34.79,49c1.25.3,1.51,1.05.78,2l1.06.16c-.61-.33-.48-.8-.36-1.49.29.48.52.79.69,1.13.24.49.49.39.72,0s.36-.66.54-1l.16,0-.09,1.41,1.09-.09v-.14L38.91,51V49.2l.6-.07a.73.73,0,0,0-1.19,0l-.7,1.5C36.66,50.12,36.51,48.33,34.79,49Zm46.83-33.1-.07,1.27-1-.11s-.1,0-.12,0c-.24-.35-.66-.69-.68-1.06a1,1,0,0,1,.89-1.2,1.24,1.24,0,0,1,1.32.63c.09-.23.18-.48.1-.63a.76.76,0,0,0-.51-.28,4.09,4.09,0,0,0-.89,0,1.48,1.48,0,0,0-1.36,1.71c.18,1.27,1.36,1.49,2.37,1.34a.62.62,0,0,0,.62-.77,2.66,2.66,0,0,1,.19-.84ZM155,66.81c-1.35.51-2.49-.11-3.68-.46.85.44,1.47,1.45,2.64,1,.07.59.82.76,2.2.48-.56-.46-1.42,0-2-.68h3.31l0-.16-1.33-.13c-.28,0-.75,0-.8-.08-.33-.74-1.08-.52-1.6-.77-.11-.06-.32.07-.48.11v.16Zm19.64.72c.54.11,1.19.26,1.85.38a2.27,2.27,0,0,0,.85.06c.33-.07,1.17.14,1.3.42a1.36,1.36,0,0,0,1.69.52c-.41-.09-.68-.14-.94-.22a1,1,0,0,1-.41-.21c-.18-.17-.3-.42-.5-.55a3.83,3.83,0,0,0-2.43-.53,4.88,4.88,0,0,1-1.21-.21l0-.18H176l0-.17c-1.26.08-2.27-1-3.62-.53a1,1,0,0,0,.61.2c.64-.14,1,.36,1.56.54C174.64,67.06,174.63,67.3,174.68,67.53Zm8.6,9.84,3.43,1.09.14-.19c-.22-.19-.41-.49-.67-.56-1-.26-2.06-.45-3.09-.67-.06,0-.16,0-.18,0-.41.55-.83.11-1.27.06-.63-.08-1.1-.94-1.81-.4l1.53,1.23.16-.46,1.79.26ZM116.47,62.14l0-.16a15.46,15.46,0,0,0-4.31-.36,1.84,1.84,0,0,0,.66.52c.63.26,1.27.48,1.91.71a.81.81,0,0,0,.31.06l1.45-.11.35,0c-.14-.12-.29-.36-.42-.34a2.53,2.53,0,0,0-.72.34l-1.84-.56,0-.06Zm-41-29.69c.2.2.48.36.52.56a12.06,12.06,0,0,1,.1,1.42c.06.73-.59.56-1,.8.93.08,1.84.09,2.75.08.72,0,.92-.44.53-1.11-.68,1-.69,1-1.88.78.12-.82-.44-1.75.56-2.53Zm21.83-1.14a.68.68,0,0,0,.13-.35c0-.13-.19-.35-.3-.35-.7,0-1.41.08-2.19.14.71.29.43.86.45,1.33a14.73,14.73,0,0,1-.09,1.51h.94c-.36-.53-.52-1-.11-1.51l.65.48.09-.91L96,32l-.16-.14c.09-.3.18-.86.27-.86A4.75,4.75,0,0,1,97.27,31.31Zm70.48,26.16c0-.22,0-.51-.13-.61a1.89,1.89,0,0,0-.79-.32,1,1,0,0,0-1,.79.67.67,0,0,0,.56.84c.18,0,.42,0,.53.15a3.45,3.45,0,0,1,.44.68c-.2.11-.42.33-.6.3a3.55,3.55,0,0,1-.91-.48c0,.26,0,.51.08.65a1.15,1.15,0,0,0,1.45,0c.3-.34.6-.77.14-1.2-.27-.25-.64-.39-.93-.63a2.32,2.32,0,0,1-.37-.52c.18-.08.39-.26.53-.21A5.82,5.82,0,0,1,167.74,57.46ZM93,55.44l-.41-1.07c.29,0,.54,0,.68-.08.35-.25.89-.55.91-.86s-.48-.71-1-.66-.92.18-1.4.28a1.74,1.74,0,0,1-.22,2.55Zm88.71,4.65c.07,0,.14-.07.16-.11.33-.69.64-1.4,1-2.08.12-.22.39-.35.6-.51a2.69,2.69,0,0,1,.42-.18H182.3v.12l.52.13L182,59.21c-.66-.92-.82-1.4-.67-1.9h-1.39C181.14,57.94,181.09,59.24,181.76,60.09Zm-4.11-2.8c.44.76.33,2.22-.12,2.5.73.28,1.22.24,1.39-.14-.35.06-.67.14-.58-.44a10.84,10.84,0,0,0,0-1.66l.27-.14.8.72a4.5,4.5,0,0,0,.12-.76c0-.08-.22-.22-.33-.22-.89,0-1.79.09-2.74.14l.07.93ZM155.6,75.72c-.25.46-.52.19-.8.09a1.36,1.36,0,0,0-.54-.08c-.27,0-.54.07-.87.12,0,.61.68.57,1.08.76a3.9,3.9,0,0,0,1.36.14v-.18L155,76.3l0-.17c.34,0,.68,0,1,0s.76.11,1.13.17l0-.19a2.37,2.37,0,0,1-.87-.27c-.92-.79-.92-.81-2.16-.63Zm-22-1.14-.1.19c.32.11.67.38.94.31.94-.25,1.51.44,2.17.81a2.93,2.93,0,0,0,1.59.54.85.85,0,0,1,.75.37c.27.33.83.43,1.26.63l.15-.33-2.34-1c-.24-.11-.59-.16-.7-.35a.5.5,0,0,0-.62-.31c-.37.07-.75.14-.83-.42,0-.07-.19-.14-.31-.16Zm5.62-11.78.11-.06-.08-.38a2.65,2.65,0,0,1,.53,0,1.93,1.93,0,0,1,.44.17c-.06-.43.42-.24.55-.45-.65-.68-1.37,0-2-.13-.32-.78-1-1-2-.49l.95.5-.43.2,1.19.5.25-.63Zm-21.36,5.8,0,.17.82.17c.43.09,1,0,1.26.3.41.48.87.42,1.36.5s1.25.26,1.31.52c.13.57.52.43.82.59-.1-.27-.17-.65-.37-.75-1-.51-2.11-.95-3.17-1.4a.33.33,0,0,0-.25,0c-.49.26-.8,0-1.12-.33A3.39,3.39,0,0,0,118,68l-.08.13.52.46Zm50.59-2.73c.56.53,1.46.46,1.74,1.31,0,0,.14.08.22.09.63.08,1.37-.17,1.78.61.06.12.34.13.52.17.65.13,1.39,0,1.9.59.06.07.29,0,.45,0l.06-.17c-.5-.1-.66-.66-1.36-.61-.52,0-1.07-.39-1.61-.58-.74-.26-1.49-.5-2.24-.74l0-.13.53-.1ZM65.71,61.76c-.62.28-1.24-.56-1.83.09.88.41,1.95.39,2.73,1l-.07.18-.77-.26,0,.1,1.19.65.15-.37.87.41.07-.16-1.16-.61.1-.16c.69.32,1.55.39,1.75,1.41.17-.51.11-.87-.36-1s-.89-.32-1.32-.51S65.82,62.62,65.71,61.76Zm82.75,12.47,0,.1a2.93,2.93,0,0,0,.73.31c.52.07.9.68,1.55.37a.84.84,0,0,1,.77.26c.18.53.66.51,1,.72s.65.08.56-.39c0-.2-.27-.37-.42-.55l-.18.13.27.7-1.13-1c-.06-.05-.14-.2-.15-.19-.71.38-1.13-.28-1.68-.48-.15-.06-.25-.25-.38-.37l-.21-.18a.82.82,0,0,0-.16.22,2.81,2.81,0,0,0-.06.44Zm10.85-5.54,0-.12-1.16-.39,0-.16,1.15-.1V67.7h-2.73a4.89,4.89,0,0,1,.4.45c.12.17.16.46.31.54a4.79,4.79,0,0,0,1.12.36c.09,0,.22-.13.33-.2l-.06-.17Zm26.2-39.11h1.1l-.25-.72c.84-.3,1-.12.88.79l1.31.12.07-.14c-1.28-.24-1-1.63-1.76-2.28a12.59,12.59,0,0,1-.56,1.19A12,12,0,0,1,185.51,29.58ZM114,71.76l.64.29,0,.12-.45.06,0,.11,1.23.43c.31-.83.87.08,1.38-.18l-5.22-2-.08.22,2.22,1-.07.07-1.12-.15,0,.12,1.24.38Zm55.8,9.34.06-.23c-.77-.28-1.56-.52-2.31-.84-.35-.15-.59-.53-.94-.66a3.44,3.44,0,0,0-2.76-.16c.08.06.12.11.18.13a.52.52,0,0,0,.25,0,2.82,2.82,0,0,1,2,.39,9,9,0,0,0,2.33,1C169,80.84,169.37,81,169.76,81.1ZM134.1,73.19l-1.54-.94c.14.56.91.48.92,1.19-.91,0-1.36-.77-2-1.13a17.68,17.68,0,0,0-2.05-.83c.7.58,1.6.86,2.31,1.38a24.45,24.45,0,0,0,2.6,1.32l.13-.16-.74-.67Zm14-12.43v.08l4.52,1.46.08-.23c-.36-.15-.73-.3-1.08-.46s-.37-1-.84-.29a9.47,9.47,0,0,1-1.18-.48,5.33,5.33,0,0,1-.78-.66l-.1.13.07.38Zm32.39,9.19c-.35-.66-.84-.21-1.24-.25a3.5,3.5,0,0,0-.59,0V69.6l.46-.26-1.6-.49c-.25.29-.54.51-1,.12-.11-.1-.38,0-.57,0,.7.36,1.34.87,2.17.53C178.37,70.05,178.41,70.06,180.45,69.94Zm5.23-25.14h1.46c.73,0,.77-.06.61-.85-.28.67-.78.68-1.34.53,0-.38,0-.72,0-1.06a3.66,3.66,0,0,1,.16-.63c.22.08.45.14.66.24s.14.16.33.37l0-.76-1.94-.13A1.88,1.88,0,0,1,185.68,44.81Zm-72.21,22,.1-.22-2.51-.82.07-.18.74.11,0-.21-2.78-.35c.38.44.69.94,1.36.56,0,0,.11,0,.16,0a2.53,2.53,0,0,0,.61.45C112,66.45,112.73,66.63,113.47,66.82Zm52.79-2.45a2.82,2.82,0,0,1,.95.27,4.05,4.05,0,0,0,2.56.74c.14,0,.29.2.57.42H172c-.88-.27-1.58-.5-2.3-.7-.36-.1-.73-.12-1.09-.21a3.87,3.87,0,0,1-1-.29C167.18,64.37,166.78,64.1,166.26,64.37ZM153.58,75l.07-.16-1.95-.74c-.27-.1-.52-.25-.79-.33a1.38,1.38,0,0,0-.45,0l.28-.48L149.2,73C150.4,74.43,152.11,74.44,153.58,75Zm27.5,1.23c-2.32-1.73-2.46-1.79-3.17-1.42l2.19.9-.08.23a3.38,3.38,0,0,0-.53-.15,1.57,1.57,0,0,0-.49,0s0,.2,0,.22.31.19.43.16A4.09,4.09,0,0,1,181.08,76.21ZM61.63,60.56l.09-.27-2.64-1.11c-.25.82-.72.35-1.11.29a3.83,3.83,0,0,0-.46,0v.31c.47.06,1,.32,1.4.15a1.51,1.51,0,0,1,1.41.11Zm57.85,7.12a1.57,1.57,0,0,0-2.19-.33c.95.1,1.47,1.16,2.43,1.09l-1.11-1Zm8.37-1.12c0,.12-.12.36,0,.44a.58.58,0,0,0,.51.13,1.16,1.16,0,0,1,1.2.27.52.52,0,0,0,.3.06l1.61-.08v-.07ZM98.93,67a1.69,1.69,0,0,0,1.26.89c.71.16,1.4.36,2.1.56.32.09.63.23.94.35l.08-.23ZM170,73.31l3.47,1.27.08-.14a10.72,10.72,0,0,0-1.91-1.09A5.17,5.17,0,0,0,170,73.31ZM152.5,65.72l.05-.12c-.4-.16-.81-.49-1.19-.45a1.78,1.78,0,0,1-1.2-.3,6.89,6.89,0,0,0-1.11-.45c.58.46,1.05,1.14,1.91,1,.11,0,.26.19.38.29l.42.37.08-.08-.21-.45Zm18.76,16-.09.19c.32.63,2.33,1.46,2.93,1.16ZM121,74.53l.06-.21c-.78-.25-1.56-.52-2.35-.73-.24-.06-.66.17-.77.05-.53-.58-1.31-.18-1.85-.62l-.06.23Zm59.6-5.31c1.21.16,2.31.61,3.49.31l-1.53-.73-.09.14.42.35a1.41,1.41,0,0,1-1.57-.65Zm-73.64.26.05-.16,2.57.66,0-.12-2.57-1L106.36,70l1-.22Zm.81.54-.08.18,2.48,1.18s0,0,.09-.08l-.87-.52.06-.16,1.07.22,0-.16Zm14.21,5.33-.07-.2h-.52A2.27,2.27,0,0,1,120,75a5,5,0,0,0-1.37-.33l-.06.22,2.2.6a2.39,2.39,0,0,0,.74.12C121.62,75.59,121.77,75.44,121.93,75.35Zm65.56-16.88-.16-.1c-.19.33-.53.66-.51,1a1.59,1.59,0,0,0,.58,1,1,1,0,0,0,1.25-.16C187.33,60.32,187,59.82,187.49,58.46Zm-13.31,9,.06-.19-.74-.27a9,9,0,0,1-1.45-.52c-.47-.27-.88-.62-1.47-.11ZM134,68.59l.08-.14c-.47-.15-.94-.32-1.42-.45s-.91-.19-1.36-.28l-.07.29,1.79.59v-.05Zm46.92,7a4.69,4.69,0,0,0,3.45,1.38Zm-34.53,4.14a2.93,2.93,0,0,0-2.8-.73Zm-3.75-2c.09.1.15.24.25.27.44.14.88.25,1.32.35a1.07,1.07,0,0,0,.43,0c.46-.09.93-.2,1.31-.28l-.82-.43C144.28,78.32,143.47,77.54,142.6,77.64ZM182.51,71v.13c.22,0,.44.08.66.09s.58-.08.78,0c.51.27.49.3.83,0-.61-.57-1.75-.24-2.06-1.38l-.18.16L183,71Zm-16.92-.12,1.84-.08-.43.54c.44-.08.85.49,1.27.05-.11-.08-.25,0-.32-.09-.37-.32-.72-.67-1.09-1-.06-.06-.21-.11-.26-.08C166.3,70.43,166,70.64,165.59,70.92Zm-22.51-7.76a1.76,1.76,0,0,0,0-.4c-.73-.19-1.47-.36-2.23-.53C140.92,62.72,141,62.73,143.08,63.16Zm32.39,11.05,2.27.61,0-.16-1.41-.52.54-.14-1.12-.51a2.14,2.14,0,0,1-.09.37A3,3,0,0,1,175.48,74.21Zm-81-8.88-.32-.24c-.23-.19-.54-.34-.68-.58-.46-.82-.51-.85-1.32-.33h1C93.22,65,93.61,65.36,94.48,65.33Zm54.46.13a1.77,1.77,0,0,0,2.39.75l-.95-.46V66l-.7.07.3-.57ZM127.13,77.54a3.26,3.26,0,0,0-.67-.24.7.7,0,0,1-.73-.42c-.18-.34-.73-.48-1.11-.7l-.19.31c.37.23.72.48,1.11.67S126.35,77.83,127.13,77.54Zm60.56,2.7.11-.22c-.64-.56-1.78-.38-2.07-1.32l-.8.3Zm-57.27-7.41-.11.26c1,.3,1.81,1.27,3.14,1.09Zm19.76,8.46,1.28.83a2.53,2.53,0,0,0-2.21-1.28l.61.7ZM185.6,70.5a3,3,0,0,0-2.39-.28A3.8,3.8,0,0,0,185.6,70.5ZM97.88,65.22l-.15.18a3.34,3.34,0,0,0,2.93,1.32L100,66.5a3.62,3.62,0,0,1-.77-.3C98.75,65.9,98.32,65.55,97.88,65.22Zm22.66,2.57-.07.17c.43.32.83.67,1.28,1s1,.56,1.48.84l.09-.16-1.87-1.1.4-.18Zm19,8.12c0,.56.89.43.59,1.12l1.2.33C141.08,76.35,140.22,76.38,139.58,75.91Zm-10.14-10,0-.11-2.65-.42,0,.62c.72-.49,1.24,0,1.77.07ZM67.88,64.12l2.66,1.15C69.95,64.28,68.86,64.33,67.88,64.12ZM176.58,84.17l.08-.14-2.36-1.29C174.66,84,175.81,83.75,176.58,84.17ZM84,34.13l1.94.14.23.41.58-.21A3.14,3.14,0,0,0,84,34.13ZM114.32,67l-.07.26c.61.25,1.23.5,1.85.73.08,0,.22-.06.3-.13s0-.2-.06-.21Zm-42-2.12c-.6-.22-1-1-1.78-.73C71.1,64.57,71.58,65.13,72.33,64.92Zm41.35,1a2.4,2.4,0,0,0-2.08-1.1.79.79,0,0,0,.37.35c.37.15,1,.19,1.06.42C113.18,66.08,113.38,66,113.68,66Zm29.53,12.44c-.59-.27-1.06-1-1.85-.54C142,78.06,142.49,78.58,143.21,78.41Zm5.52,1.46,0,.19,1.94.46.05-.18A2.23,2.23,0,0,0,148.73,79.87Zm-33.42-6,0,.08a4.48,4.48,0,0,0,1,.47,4.2,4.2,0,0,0,1.12-.11v-.2ZM61.79,60.57l1.64,1c0-.09.06-.29,0-.32C63,61,62.64,60.25,61.79,60.57Zm1.64,1.8c-.47-.94-1.35-1.47-1.8-1.17ZM98,34.59l.13.24c.18-.1.36-.2.55-.29s.3-.11.45-.16a3.16,3.16,0,0,0,.38-.14s0-.18-.06-.2-.27-.13-.35-.08C98.74,34.15,98.38,34.37,98,34.59Zm72.8,47.19,0-.23L169,81.27l.12.41Zm-73.9-48-.92.47,0,.17h1.29Zm27.77,36.91-.33.52,1.32.5.08-.17Zm46.39,1.17-.11.25,2,.9.08-.18Zm5.27,3.4a1.1,1.1,0,0,0,1.62.54ZM106.24,59.12l-.08.25,1.59.48.06-.22C107.27,59.53,106.86,59,106.24,59.12Zm6.25,13.22c-.64.21-.78-.38-1.1-.77,0,.77.42,1.13,1.37,1.28Zm11.17-6.74c-.09-.21-.13-.47-.22-.48-.53-.1-1.07-.14-1.61-.2l0,.12Zm-44.77-30,1.08.21.32-.86ZM104.13,69l0,.18,1.77.54-.24-.44Zm-2-2-1.33-.54C101,67.11,101.4,67.34,102.17,67Zm85.62-8.83,1,1c0-.24.08-.65-.07-.77A2.43,2.43,0,0,0,187.78,58.18ZM100.5,33.86a1.55,1.55,0,0,0-1.78-.27ZM80.85,69.78l-.13.27,1.37.65.11-.22Zm14.89-5.26-1.46-.46-.08.19c.43.19.85.4,1.29.57C95.53,64.83,95.64,64.64,95.74,64.51Zm89,14.16c-.41,0-.75-.59-1.31-.13C183.88,78.74,184.24,79.13,184.7,78.67ZM111,72l-1.51-.42C109.8,72.06,110.25,72.22,111,72Zm-7.48-4.35c.43.58,1.32.1,1.45,1l.61-.4ZM82.42,35.47l-1.62.28A1.21,1.21,0,0,0,82.42,35.47ZM185.8,71.78l0,.1,1.52.91-.3-.65ZM161.71,78l-.06.2,1.72.45.06-.2ZM60.44,60.86l.13-.15L59.33,60C59.43,60.76,60,60.72,60.44,60.86ZM81.2,68.71l-.09.18,1.48.84.11-.2Zm13-32.61c-.21-.13-.31-.23-.43-.25a1.61,1.61,0,0,0-.46,0A1.34,1.34,0,0,0,93,36a.3.3,0,0,0,0,.2.44.44,0,0,0,.28.15A8.57,8.57,0,0,0,94.21,36.1ZM73.3,65.47l-.29.11a6.28,6.28,0,0,0,.32.74,2.09,2.09,0,0,0,.42-.14Zm4,2.16-.21.14.83,1.07C78.14,68.11,77.5,68,77.29,67.63ZM63.86,62.12l-.09.21,1.51.64.08-.18Z"/><path d="M94.29,58.89a5.52,5.52,0,0,1,1.14.32c.22.11.33.42.5.64l-.2.13-.3-.42h-.94a2,2,0,0,1,1.46,1l-2-.75c-.06,0-.14,0-.21,0-.64,0-.88-.24-1-.86-.06,0-.15,0-.18,0-.5.57-1,.25-1.55.06l-1.36-.5-1,3.93,3.26.86c-.4.78-.08,1.25.85,1.27-.57.29-1.25.13-2.22-.54l1.06-.16v-.17c-.14-.08-.32-.26-.43-.23-1,.31-1.6-.8-2.4-.62-.93,2.22-1.84,4.43-2.79,6.62S84,73.77,83.07,75.93l-.26-.12c.2-.42.41-.84.59-1.27.4-.93.78-1.86,1.17-2.8.15-.36.27-.73.43-1.08,1-2.18,1.93-4.36,2.89-6.54.46-1,.25-1.44-.85-1.74-.24-.07-.47-.17-.7-.25l.08-.21.82.32,1,.42c.29-1.09.62-2.16.85-3.25s.17-1-.15-1.49l-.59.24c-.1-.88-.83-.4-1.25-.62a4.19,4.19,0,0,0-.92-.22c.36-.44.6-.53,1-.36a4.75,4.75,0,0,0,1.47.26c.5,0,.7.24.77.74l.4-1.52-6.16-.54,0,.13.77.52,0-.15,1.8.18-.13.59h-.84v-.12l.71,0v-.15c-.11,0-.24-.15-.33-.12a3.89,3.89,0,0,1-2.23-.06c-1-.32-2.19-.14-3.09-.9-.11-.09-.4.07-.61.07a5.57,5.57,0,0,1-.93-.1c-.4-.08-.79-.24-1.19-.29-.86-.11-1.72-.19-2.58-.26s-1.62-.06-2.42-.14c-1.48-.15-3-.34-4.44-.5-.39,0-.79,0-1.27-.07l-.32.54c.28,0,.51.14.69.08a1.49,1.49,0,0,1,1.92.43.52.52,0,0,0,.79.15c.31-.2.46-.14.66.14a7.07,7.07,0,0,0,.74.74c.19-.66.56-.59,1.47.16-.9,0-1.71,0-2.51-.15a7.19,7.19,0,0,1-1.58-.53c-.09,0-.12-.25-.19-.43a10.47,10.47,0,0,1-4.38-1.05c-.54.45-.82-.29-1.27-.54v.19a2.38,2.38,0,0,1-.73.15c-.68-.08-1.36-.24-2-.33-.86-.11-1.72-.19-2.58-.25-.58,0-1.16,0-1.74,0-1.67-.11-3.33-.22-5-.39-2.28-.23-4.56-.51-6.84-.75-1-.11-2.09-.18-3.14-.26l-.05.16c.13.07.31.24.37.2.48-.28.63,0,.76.53l.25-.46c.33.07.64.12.93.21a.64.64,0,0,1,.38.25.43.43,0,0,1-.12.39.56.56,0,0,1-.45.07c-.94-.31-1.88-.64-2.81-1-.14-.05-.2-.3-.23-.36a2.28,2.28,0,0,1-.69.11q-3-.56-6-1.15c-1-.2-2-.44-3-.63-1.42-.27-2.85-.49-4.27-.78s-3.05-.69-4.59-1a.88.88,0,0,0-.68.14,1.79,1.79,0,0,1-1.37.36c-.34,0-.69,0-1,0a.51.51,0,0,1-.39-.31,1.25,1.25,0,0,0,.45-.07c.17-.1.42-.28.41-.4a.92.92,0,0,0-.34-.6,22.14,22.14,0,0,1-2-1.31c-.55-.49-.12-1.64.77-2.15A9.68,9.68,0,0,1,18.5,44a33.85,33.85,0,0,1,5.76-1.65c1.54-.3,3.09-.56,4.64-.83,1.84-.31,3.68-.62,5.52-.89.94-.14,1.89-.17,2.84-.27s2.09-.28,3.14-.38c1.34-.13,2.69-.18,4-.31,1.67-.17,3.33-.41,5-.58,1.11-.11,2.22-.14,3.33-.2a25.59,25.59,0,0,0,3.2-.23,29.8,29.8,0,0,1,4.33-.49c.95,0,1.89-.15,2.84-.26.16,0,.29-.17.45-.27.43.55,1,0,1.49.07.21,0,.42-.15.64-.17,2.08-.18,4.17-.34,6.25-.52,1.19-.11,2.38-.25,3.57-.39.14,0,.34-.06.38-.15.39-.91,1.1-.31,1.59-.47l-.54.65a5.37,5.37,0,0,0-.52-.38,3.19,3.19,0,0,0-.27.34L77,37v.2l-1,.09.12-.45-1.28.14c-1.11.14-2.21.29-3.32.41-1.41.15-2.81.27-4.22.4-.17,0-.35,0-.53,0-2.12.25-4.24.51-6.37.74-1.22.13-2.45.16-3.67.27-1.53.14-3.05.34-4.58.49-.76.08-1.52.1-2.28.14s-1.53.06-2.28.14c-1,.1-2,.27-3.06.38s-1.93.21-2.9.25a13,13,0,0,0-3.68.49,7.89,7.89,0,0,1-1.63.17l-4.39.5c-.82.09-1.64.14-2.45.29s-1.86.42-2.79.63c-2,.43-3.94.79-5.87,1.3a20.76,20.76,0,0,0-3.37,1.29A1.23,1.23,0,0,0,16.52,46,1.06,1.06,0,0,0,17.23,47a12.49,12.49,0,0,1,1.44.92c.05-.55.23-1-.73-1l.23-.23c.82.06,1.65.08,2.46.19.46.06.78.71.61,1.29-.11.37,0,.42.31.49,1.94.42,3.87.89,5.81,1.29,1.44.29,2.89.5,4.33.76,1.28.23,2.55.5,3.83.69.67.1,1.37,0,2,.11a4.34,4.34,0,0,1,1.09.46l1.19.06c.25,0,.5.07.75.09l5.61.51c1.1.1,2.21.16,3.31.27,1.59.15,3.18.36,4.78.49.77.06,1.55,0,2.32,0,1,.06,2,.17,3,.25l2.92.19.11-.23-2-1.93v1.82L60,53.42c.77-.58.52-1.88-.48-2.52a1.35,1.35,0,0,1,1.42.33c.56.61,1.2,1.14,1.8,1.7A1.41,1.41,0,0,0,62.19,51l1.71.09c-.2.15-.3.29-.37.28-.59-.16-.52.24-.52.58,0,.61,0,1.23,0,2l15.84,1.25c-.36-.36-.87-.64-1-1a1.23,1.23,0,0,1,.95-1.74,1.41,1.41,0,0,1,1.66,1.19,1.16,1.16,0,0,1-.67,1.12c-.14.09-.34.31-.32.37.12.25.32.25.53,0,.06-.05.23,0,.35,0,.75.18,1.49.4,2.25.52a8.54,8.54,0,0,0,1.12-.08c.74,0,1.48.07,2.22.13l3,.25a2.61,2.61,0,0,0,.64,0c.15,0,.39-.15.4-.25.2-1.54.36-3.09.53-4.64.15-1.33.29-2.65.44-4.09.37.8-.29,7.48-.88,9.07.77-.22,1.47.53,2.17-.22a.58.58,0,0,1,.5-.05c.53.19,1.05.42,1.58.63a.39.39,0,0,0,.25,0,1.13,1.13,0,0,1,1.39.36c.09.11.3.11.51.19l0-.37c.86,0,1.75.06,2.63.12s2,.16,3,.25c1.85.17,3.7.36,5.55.5,1,.08,2.09.07,3.14.15,1.37.1,2.73.25,4.1.36.82.07,1.65.11,2.48.14,1.36.05,2.73.07,4.09.14a11.46,11.46,0,0,1,2.41.22c.73.2,1.18-.32,1.94-.45-.45-.27-.79-.47-1.12-.69s-.88-.54-.81-1.17a1.23,1.23,0,0,1,1-1.16,1.59,1.59,0,0,1,2.09,1.29c0,.3-.28.62-.47.9-.09.13-.26.21-.51.4l1.29.53h-1.28l.28.6,1.07.17c.07-.33.28-.37.6-.17a3.59,3.59,0,0,1,.55.28,1.47,1.47,0,0,0,1.39.3,6.5,6.5,0,0,1,1.86.09,1.78,1.78,0,0,1,1.19.83,1.52,1.52,0,0,0,.79.39,1.23,1.23,0,0,0,.68-.07l-1.4-.57c1-.16,3.09.94,4.08,2-1,0-1.56-.25-1.7-.69-.33.25-.27.16-.67-.14a3.14,3.14,0,0,0-1.21-.3c-.22,0-.52,0-.65-.13a2.16,2.16,0,0,0-1.65-.49,3.22,3.22,0,0,1-1.08-.24c.48-.22,1.07.46,1.49-.37-.54,0-1.07,0-1.59,0s-1.09.12-1.64.19c0-.57-.48-.74-1-.56a1.29,1.29,0,0,1-.79.07,12.94,12.94,0,0,0-4-.64c-.84,0-1.68-.19-2.52-.23s-1.48,0-2.22,0c-1.93-.14-3.85-.34-5.77-.5-.47,0-.94,0-1.41,0-1.91-.16-3.83-.34-5.74-.5-.76-.06-1.52-.08-2.28-.14L97.71,57a2.54,2.54,0,0,0-.78.09s-.08.33-.06.33a3.2,3.2,0,0,0,.95.26,8.58,8.58,0,0,1,1.23-.13,9,9,0,0,1,1.59.62c.51-.62,1.26-.28,2,0,.35.14.94.34,1,.54,0,.42.21.47.49.54s.67.22.81-.29c0-.07.31-.07.47-.1l.05.46c.69,1.11,2,.65,3.16,1l-.06-.55c1,.21,1.92.39,2.87.63.21.05.37.28.55.43l-.08.16H113l.07.14c-.1.08-.22.25-.28.23a7.37,7.37,0,0,1-1.49-.54c-.39-.22-.71-.48-1.26-.08h.56l1.12,1c-.41-.14-1,.14-1.23-.56-.31.66-.78.18-1.18.08-.18,0-.3-.34-.56-.64h1.09c-.54-.38-.89-.69-1.24-.06a.4.4,0,0,1-.33.14c-.68-.1-1.36-.23-2-.36a1.54,1.54,0,0,1-1-.7c-.11-.15-.66.1-1,0a14,14,0,0,1-1.58-.5l.2-.42a7,7,0,0,0-.7-.36,1.75,1.75,0,0,0-.81-.11l1,.72-.09.18a16.38,16.38,0,0,0-1.57-.62,14.93,14.93,0,0,1-1.67-.44h.33l0-.16a1.76,1.76,0,0,0-.5-.15c-.64,0-1.28.07-1.92.06-.14,0-.28-.2-.43-.27a3.12,3.12,0,0,0-.77-.26,6.44,6.44,0,0,0-.93,0v-.19l.57-.06-.66-.5c-.4.57-.93.42-1.5.3-1-.2-2-.32-3-.44-.12,0-.33.19-.38.32a4.68,4.68,0,0,0-.12.86c.75.25,1.51.5,2.26.77.19.07.34.25.53.3a5.42,5.42,0,0,0,.67,0c.33,0,.65.11,1,.17-.32.11-.79-.18-1,.35l1.24.15Zm30.92-3.64a.93.93,0,0,0-.83.88,1.41,1.41,0,0,0,1.17,1.25c.43,0,.79-.6.75-1.2A1.17,1.17,0,0,0,125.21,55.25ZM78.29,53.62c0,.65.24,1.05.63,1.07a.8.8,0,0,0,.91-.89c0-.57-.38-1.17-.75-1.16Q78.29,52.67,78.29,53.62Zm-58-5.1a.65.65,0,0,0,.25-1,2.37,2.37,0,0,0-1-.5c-.06,0-.23.1-.28.2a.76.76,0,0,0,.52,1.08A3.65,3.65,0,0,1,20.29,48.52Zm.12.38,0-.18L19,48.43l.3.71Z"/><path d="M102.21,35.43l1-.12c-1.19.33-.31,1.39-.8,1.92l.55.29,0,.19-1.27-.1c.69-.71.38-1.58.27-2.5-3.43.52-7,.15-10.49.55v.28l.79.09L92,37.1l.66-.35,2.13,1.38a1.57,1.57,0,0,1-1.88-.49,4.59,4.59,0,0,0-.61-.42c-.44.54-.36.74.55,1.1l-1.34.25a10.56,10.56,0,0,0-.05-2.25c-.06-.27-.71-.41-1.09-.61l-.18.18c.22.92.47,1.84.64,2.77a17.46,17.46,0,0,1,.18,2c.05.87.11,1.74.12,2.6A16.38,16.38,0,0,1,91,45.21c-.07.68.12.81.79.69a10.19,10.19,0,0,1,1.74-.07c1.24,0,2.49,0,3.73,0s2.21.1,3.32.11c.42,0,.84-.12,1.26-.11,2,0,4,.11,6.07.11,2.32,0,4.65-.1,7-.11,1.32,0,2.64.08,4,.12.09,0,.18.05.25.21H80.73v-.31h10a38,38,0,0,0-.83-10c-.24,0-.57,0-.9,0-1.15,0-2.3,0-3.44.14-.88.08-1.75.33-2.63.48-.46.08-.93.07-1.39.13l-4,.53a1,1,0,0,1-.25,0l0-.17,1.5-.41c-.27-.55.08-.48.5-.42a8.66,8.66,0,0,0,4.23-.32,10.14,10.14,0,0,1,1.91-.2q2.12-.29,4.24-.65a.48.48,0,0,0,.24-.4c-.55-2.36-1-4.74-1.73-7.05a39.21,39.21,0,0,0-2.22-5.93c-1.52-3.13-3.21-6.17-4.92-9.2-.71-1.25-1.66-2.37-2.49-3.55A6.45,6.45,0,0,1,78.14,8l.15-.09c.51.67,1,1.33,1.52,2,.84,1.2,1.73,2.37,2.48,3.63s1.3,2.53,1.93,3.81c.85,1.71,1.75,3.4,2.51,5.15A38.19,38.19,0,0,1,88.28,27c.62,2.12,1.13,4.27,1.69,6.4a3.27,3.27,0,0,1,.19.91c0,.62.3.52.7.44,1.31-.25,2.62-.48,3.93-.7a1.54,1.54,0,0,1,.49.12l-1.07.54v-.08L90.38,35l0,.18c.12.06.24.17.36.17.73-.06,1.46-.15,2.19-.21.19,0,.38,0,.58,0a4.35,4.35,0,0,0,1.68,0c.61-.28,1.08.09,1.61,0,1.35-.1,2.7-.18,4.06-.26.06,0,.15,0,.18,0,.93-1,2.11-.28,3.16-.42,1.72-.24,3.5,0,5.23-.22,2.35-.3,4.7-.3,7.06-.37,1.62,0,3.24-.27,4.86-.36,1.93-.11,3.85-.16,5.78-.27,2.14-.11,4.27-.26,6.4-.38l2.61-.13c2-.09,3.9-.15,5.85-.27,1.62-.1,3.23-.27,4.85-.37s3.43-.14,5.15-.27,3.4-.35,5.1-.49c.85-.07,1.72,0,2.57,0,1.46-.05,2.92-.14,4.38-.2l2.41-.09,4.07-.09c3.21-.08,6.43-.19,9.64-.25,2.06,0,4.11,0,6.17,0a3.2,3.2,0,0,1,.64.13l0,.24h-6.52a65.23,65.23,0,0,0-6.93.06c-1.87.2-3.73.11-5.59.2l-3.14.13-7.78.29c-.5,0-1,.06-1.51.1l-5.55.5c-.3,0-.6,0-.9,0l-6.41.5h-.32l-7.58.31c-.94,0-1.89,0-2.83.08-1.52.1-3,.25-4.54.37-.17,0-.34,0-.51,0-2.49.09-5,.15-7.46.26-2.11.1-4.23.25-6.34.38a24.77,24.77,0,0,0-2.6.15,50,50,0,0,1-7.24.39,3,3,0,0,0-1,.4Zm-13.92,0,0,.17c.53-.2,1.16.2,1.65-.24l0-.21Z"/><path d="M75.72,37.42l-55.4,8.35a1.61,1.61,0,0,0,.33.07h1.8c3.3,0,6.6,0,9.9,0,1.41,0,2.82.11,4.23.11s2.74-.12,4.11-.1c1.76,0,3.51.17,5.27.23.59,0,1.18-.1,1.77-.11,1.3,0,2.61,0,3.91,0H62.19c.83,0,1.67.06,2.5.06q4.57,0,9.15-.07c2,0,4-.08,6-.12a3.15,3.15,0,0,1,.58.1v.27h-4.6l-2.8,0H71.86c-1.95,0-3.89,0-5.84,0-.94,0-1.89.09-2.83.12-.56,0-1.12,0-1.68,0-1,0-1.92-.09-2.89-.08-2.13,0-4.26.1-6.39.11-1.4,0-2.8-.11-4.2-.11s-2.64.11-4,.11c-1.51,0-3-.1-4.54-.11-.72,0-1.44.12-2.16.11-2.35,0-4.69-.1-7-.12-2.68,0-5.37,0-8.05,0-1.07,0-2.14,0-3.2,0a12.38,12.38,0,0,0-1.57.32.65.65,0,0,1-.45-.07.4.4,0,0,1-.07-.38.54.54,0,0,1,.35-.26c.84-.11,1.68-.15,2.51-.28s1.87-.39,2.81-.55c1.14-.18,2.29-.32,3.43-.47,1-.13,2-.25,2.94-.39l4.11-.63,4-.61,4.52-.68c1.6-.25,3.19-.51,4.78-.75q2.7-.41,5.41-.78c1.29-.18,2.59-.32,3.87-.52,1.8-.28,3.59-.62,5.39-.9,1.22-.19,2.46-.33,3.68-.51,2.29-.34,4.58-.67,6.86-1,1.05-.17,2.09-.42,3.13-.6a5.3,5.3,0,0,1,.91,0Z"/><path d="M145.82,59.9l1.66.31a2.28,2.28,0,0,1-2,0c-.32-.15-.58-.41-1.06-.09-.3.2-.92-.09-1.39-.17a.27.27,0,0,1-.14-.21c0-.43-.14-.29-.4-.16a1.34,1.34,0,0,1-.71.1c-1.07-.11-2.14-.28-3.21-.35-.92-.06-1.85,0-2.77,0s-2.12-.06-3.18-.13c-.86-.06-1.72-.22-2.58-.23-.45,0-.9.2-1.35,0a.59.59,0,0,1-.31-.36,7.53,7.53,0,0,0,.8.11c1.41.05,2.81.07,4.22.14,1.16.06,2.32.19,3.48.24.57,0,1.14-.12,1.71-.1.78,0,1.55.17,2.32.22a3.5,3.5,0,0,0,.65-.15,2.74,2.74,0,0,1,.84,0,6.5,6.5,0,0,1,.94.34c.23.08.47.13.69.22s.48.52.69,0c0-.06.28,0,.43,0,1.44,0,2.88,0,4.32.14,1.81.12,3.61.34,5.42.49.63.05,1.27,0,1.9,0l5.86.25,3.32.13c.09,0,.2,0,.25,0a2.13,2.13,0,0,1,1.69-.16,33.27,33.27,0,0,0,3.95.16c1.63,0,3.26,0,4.89,0a8.33,8.33,0,0,0,1-.2,1.21,1.21,0,0,1,.6,0,3.88,3.88,0,0,0,3,.09.78.78,0,0,1,.56,0,5.19,5.19,0,0,0,2.5.37c.61,0,1.23.07,1.83.14.13,0,.25.14.37.22l-.06.15c-.67,0-1.34-.06-2-.14a3.61,3.61,0,0,0-2.7.24.65.65,0,0,1-.61,0c-.72-.62-1.6-.24-2.39-.44-.11,0-.27.19-.42.22a1.56,1.56,0,0,1-.63,0,7.38,7.38,0,0,0-.86-.25c-1.12-.07-2.24-.12-3.36-.12-1.54,0-3.08.05-4.63.07-.31,0-.69-.18-.91-.06-.7.37-1.33.09-2,0a18.36,18.36,0,0,0-1.9.09c-.91,0-1.81-.12-2.72-.18-.08,0-.16-.05-.25-.06l-5-.26c-2.25-.12-4.5-.25-6.75-.39-1.06-.07-2.11-.17-3.17-.25a2.12,2.12,0,0,0-.4,0Z"/><path d="M119.42,45.91a6,6,0,0,1,.65-.07h6.37c2.5,0,5,0,7.5,0,.76,0,1.52.12,2.29.11,2.9,0,5.8-.1,8.7-.11,1.89,0,3.79.05,5.68.09.69,0,1.39,0,2.08,0,1.21,0,2.42-.12,3.63-.11,2.28,0,4.56.1,6.84.11,1.57,0,3.13-.07,4.7-.05s3,.15,4.56.13c3.07,0,6.13-.15,9.2-.19,2,0,3.91,0,5.86,0a.36.36,0,0,1,.29.18,2.89,2.89,0,0,1-.43.07l-10.5.13c-1,0-2.1,0-3.14,0s-1.87.12-2.8.11c-1.77,0-3.54-.1-5.31-.11-.94,0-1.87.11-2.81.11s-2.16-.09-3.25-.11-2,0-3,0c-.7,0-1.4.13-2.09.11-1.69,0-3.39-.18-5.08-.21-1.17,0-2.34.08-3.51.09-1.75,0-3.5,0-5.24,0-.75,0-1.51,0-2.26,0h-3.7c-1.09,0-2.17,0-3.26,0-.37,0-.75-.1-1.12-.1-1.23,0-2.47.11-3.7.11s-2.54-.1-3.81-.11c-.93,0-1.87.08-2.8.11a1.72,1.72,0,0,1-.51-.15Z"/><path d="M159.68,69.28,159,69l.7-.05-.11-.1c.16-.17.34-.5.49-.49a7.18,7.18,0,0,1,1.91.31,6.26,6.26,0,0,1,1.27.85,4.91,4.91,0,0,0,.51.26l-.16-.41,1.23.14c-.41.81-1.06.51-1.52.37a4.47,4.47,0,0,1-1.24-.84l-2-.31-.05.45a10,10,0,0,1,1.81.23,7.47,7.47,0,0,1,1.23.76,3.42,3.42,0,0,0,.76.23c.5.14,1,.26,1.5.41.06,0,0,.2.1.27s.29.35.43.35c1,0,1.76.65,2.65,1.14l-.13-.68c.58.29,1.11.75,1.84.32L168.49,71c1-.27,1.41.84,2.23,1-.26.75.84.21.75.84l-1.56-.39,0,.13.69.28,0,.12-1.41-.29c-.12,0-.27-.11-.35-.07-.69.35-1.1-.21-1.6-.47a3.27,3.27,0,0,0-.34-.21c-.56-.21-1.22-.12-1.67-.66-.1-.12-.44-.1-.66-.07a3.21,3.21,0,0,1-1.9-.73,6.55,6.55,0,0,0-.9-.4c-.5-.13-1-.23-1.53-.31C159.83,69.79,159.44,69.82,159.68,69.28Z"/><path d="M55.06,57.77l-1.45.06,0,.1,1.32.49-.11.24A5,5,0,0,1,52.23,57c-.25.44-.72.46-1,0-.2-.28-.31-.46-.74-.31s-1.34-.58-1.33-.94c-.42-.06-.81-.14-1.21-.16a.76.76,0,0,1-.82-.64c0-.11-.24-.18-.36-.27l-.19.44L43.5,54l.24-.72,7.64,2.89-.06.55.2,0,.12-.31c.8.07,1,1.29,2.14,1l-1-.44c.54-.36.83.07,1.18.24l1.12.56Z"/><path d="M82.78,60.74a5.9,5.9,0,0,0-1.62-.39c-.85,0-1.27-.7-2-.86a37.78,37.78,0,0,1-4.3-1.39,1.64,1.64,0,0,1-.35-.23l.06-.17,1.8.44a1.3,1.3,0,0,0-1.46-.58A4.16,4.16,0,0,1,72,57.2c.52-.16,1-.32,1.47-.42,0,0,.64-.14.49.39,0,0,.24.22.31.19a2.41,2.41,0,0,1,2.13.27c.17.08.26.31.39.47l-.13.17c.45,0,.9,0,1.35,0,.14,0,.27.17.4.26s.25.24.35.23a4.57,4.57,0,0,1,2.37.55.57.57,0,0,1,.33.36c.08.57.24.65,1.08.28l-.39-.13-.33-.11a1.08,1.08,0,0,1,1.21.73Z"/><path d="M85.2,81.36l-1.62.09c.14-.34.33-.73.45-1.13s0-.5-.38-.38-.64,0-1,.06c-.16,0-.41.24-.4.35a8.17,8.17,0,0,0,.31,1.14H81.43a7.6,7.6,0,0,0,.31-1.18,5.2,5.2,0,0,0,0-1.4c-.05-.31-.49-.27-.73.06-.77,1.06-1.54,2.13-2.43,3.18,0-.11,0-.25,0-.33.86-1.21,1.73-2.42,2.6-3.63l1.31-1.84.27-.37.21.14-1.49,2.3,1.2.14c-.1.12-.16.17-.18.24-.07.29-.14.59-.2.89l.74.05c.56.06.93-.07,1-.75,0-.33,0-.42-.33-.34a.39.39,0,0,1-.38-.12,4.57,4.57,0,0,1,.65-.2c.44-.07.69.06.65.58s0,1.08,0,1.61.05.79.73.64Z"/><path d="M159.94,63.39l-.4-.21c.61-.46,2.88-.15,4,.65l-2-.69-.08.16c.19.15.39.43.56.41.63-.08,1.15.39,1.86.17a5.47,5.47,0,0,1,2.11.24v.2h-2.37l-.11.15a4.14,4.14,0,0,0,.5.25l3.15,1c-.23.17-.36.33-.43.3-.39-.12-.76-.32-1.16-.43s-.74-.1-1.1-.19a4.8,4.8,0,0,1-.74-.28c-.25-.1-.49-.25-.75-.33s-.54-.07-.8-.15-.73-.47-1.2-.26a.4.4,0,0,1-.25,0c-1-.32-2.07-.65-3.11-1a5.06,5.06,0,0,1-1.27-.46l3.56.57Zm3.4,1.27.13-.19c-.18-.13-.34-.33-.53-.37s-.69,0-1-.06-.73-.23-.73-.33c0-.53-.33-.21-.49-.28-.07.32-.25.25-.46.14,0,0-.17.11-.38.25Z"/><path d="M140.23,62.86l3.23.65V63l1.29.2-.9.46c.51.25,1,.49,1.43.7a1,1,0,0,0,.39,0c-.09-.1-.17-.21-.27-.3s-.78-.16-.56-.72c1.36.52,2.94.52,4.1,1.74h-.75v.15l.52.08,0,.23a1.82,1.82,0,0,1-.67.09c-.55-.15-1.22-.07-1.48-.81-.07-.19-.45-.27-.68-.4l-.1.19.64.34-.06.19a37.54,37.54,0,0,0-6.21-2Zm7,1.82c-.27-.76-.84-.54-1.38-.47Z"/><path d="M140.58,70.12l1.25.86-.47.06-.06.16c1.12.39,2.41.48,3.06,1.57a1.79,1.79,0,0,1-1.46-.63c-.13-.2-.5-.27-.77-.36-.1,0-.26.13-.35.09-.57-.26-1.13-.56-1.76-.88a1.2,1.2,0,0,1-1.49-.65l0,0,.57.25.2-.45a10.06,10.06,0,0,1,1,.6c.39.3.62.36.9.13a5,5,0,0,0-3.29-1.07l0,0-.56-.2v-.13l2.25.14,0-.22a10.36,10.36,0,0,1-1.31-.16c-.88-.22-1.75-.48-2.62-.73l0,0a2.83,2.83,0,0,1,2.28.16c.27.09.56.12.82.24.5.22,1,.49,1.54.77l-.4.21.68.2Z"/><path d="M150.45,60.66c1-.28,1.63.45,2.41.69.19-.39.84-.32,2.21.26l-.32.36h1.14l-.09.21c.17.16.31.4.51.45.36.1.91.25,1.08.07.38-.39.76-.14,1.12-.18.56-.06,1.12-.06,1.68-.09v.24a5.32,5.32,0,0,0-1.57.13,3.83,3.83,0,0,1-2,0,4.29,4.29,0,0,0-1,.17c-.13-.24-.43-.36-.92-.18a1.18,1.18,0,0,1-1.44-1.13c-.73.55-1.07-.2-1.5-.48s-.62-.49-1.07-.33C150.67,60.86,150.57,60.75,150.45,60.66Zm4.63,1.77c-.05-.08-.09-.2-.17-.24-.24-.11-.71,0-.51-.52-.24-.06-.48-.13-.72-.16,0,0-.09.15-.14.23l.5.15h0C154.11,62.61,154.68,62.35,155.07,62.43Z"/><path d="M159.33,78.29c.43.12.87.22,1.28.37s.69.29,1.05,0c.08-.07.36.1.68.19l-.45.2c.29.27.51.77,1,.21,0,0,.13,0,.19,0,.91.26,1.81.53,2.7.88l-1.08-.21-.07.26a3,3,0,0,0,1.1.31c1.16-.16,1.47.77,2.06,1.34l-.09.15c-.36-.19-.7-.4-1.08-.55-.65-.26-1.32-.49-2-.73-.24-.09-.59,0-.63-.46,0-.17-.54-.3-.83-.45l0,.16c-.27-.06-.61,0-.8-.19a6.9,6.9,0,0,0-2.43-.91c-.21-.07-.36-.35-.53-.54Z"/><path d="M104.24,63.17a5.57,5.57,0,0,1-1,0c-.35,0-.68-.2-1-.28s-.43-.21-.37-.57.06-.77-.54-.43c-.11.06-.36-.1-.54-.16a13.9,13.9,0,0,0-3.22-.54,4.39,4.39,0,0,1-1.28-.6l0-.17,2,.47c-.51-.85-1.41-.61-2.18-.94v-.38c.47.13.94.22,1.38.39a11,11,0,0,1,1.28.63c.1.05.24.19.22.26-.11.52.25.32.49.34l3.31.43,0,.18-.35.17.66.37-.72,0,0,.12,1.46.5Z"/><path d="M141.74,58.09l.73.12v.18h-1.79c.75-.61.88-1.59.41-2.91a9.46,9.46,0,0,1,1.45.1c.92.2,1.08.69.45,1.43.49.3.41,1.21,1.32,1.06a.77.77,0,0,1-1.28,0,.6.6,0,0,1-.11-.23c-.08-.47-.39-.74-.82-.61C141.92,57.31,141.87,57.77,141.74,58.09Zm.49-2.42-.23.07L141.83,57l.92-.2Z"/><path d="M12.36,46.69l.52-.13c.27-1.88.27-1.88-.14-2.52a12.88,12.88,0,0,1,1.47,0,1.07,1.07,0,0,1,.73.36c.14.23.06.58.09,1.07.46.5.39,1.05-.43,1.37a3.61,3.61,0,0,1-2.27,0Zm1.14-1.21.06,1.2c.49.13.95.07,1-.49C14.68,45.4,14,45.66,13.51,45.48Zm1-.36a2.62,2.62,0,0,0-.33-.68.7.7,0,0,0-.48-.08,8,8,0,0,0-.22.95Z"/><path d="M34.79,49c1.72-.72,1.87,1.07,2.83,1.6l.7-1.5a.73.73,0,0,1,1.19,0l-.6.07V51l.46.13v.14l-1.09.09L38.37,50l-.16,0c-.18.33-.33.67-.54,1s-.48.46-.72,0c-.17-.34-.4-.65-.69-1.13-.12.69-.24,1.16.36,1.49l-1.06-.16C36.3,50.1,36,49.35,34.79,49Z"/><path d="M81.62,15.95h.86a2.66,2.66,0,0,0-.19.84.62.62,0,0,1-.62.77c-1,.14-2.18-.07-2.37-1.34a1.48,1.48,0,0,1,1.36-1.71,4.09,4.09,0,0,1,.89,0,.76.76,0,0,1,.51.28c.08.15,0,.39-.1.63a1.24,1.24,0,0,0-1.32-.63,1,1,0,0,0-.89,1.2c0,.37.44.71.68,1.06,0,0,.08,0,.12,0l1,.11Z"/><path d="M159.35,78.28a1.7,1.7,0,0,1-1.53-.35c-.29-.2-.46-.58-.72-.83a.67.67,0,0,0-.6-.1l.56.47,0,.13a5.4,5.4,0,0,1-1-.45c-.08-.06,0-.39.07-.61.43.09.77.2,1.12.24s.76,0,.68.68c.65-.93,1.06,0,1.57,0l0-.48,1.94.94-.09.31a9.15,9.15,0,0,1-1.38-.24,12.54,12.54,0,0,1-1.42-.66l-.12.2.75.48.09-.13.11.48Z"/><path d="M155,66.81l-1.75-.53v-.16c.16,0,.36-.16.48-.11.53.25,1.28,0,1.6.77.05.12.52.05.8.08l1.33.13,0,.16h-3.31c.61.73,1.47.23,2,.68-1.38.28-2.13.11-2.2-.48-1.17.44-1.79-.57-2.64-1C152.55,66.7,153.69,67.32,155,66.81Z"/><path d="M146.28,73.38a1.09,1.09,0,0,1-.51-.63c-.09-.26-.61-.38-1-.54a4,4,0,0,0-.57-.17l.06-.23h.55l.05-.15L143,70.59c.07,0,.25-.12.34-.06.5.31,1.22.22,1.56.84,0,.06.21,0,.33.06a3,3,0,0,1,1.61.58,3.49,3.49,0,0,0,1.23.37,3.75,3.75,0,0,1,1,.41l-1,.16c-.17-.07-.45-.16-.71-.28s-.55-.3-.82-.45l-.28.47,1,.41c-.33.29-.91-.61-1,.29Zm-1.19-1.71,0,.16c.31.16.61.33.93.46.08,0,.2,0,.3,0s-.06-.28-.13-.3C145.81,71.83,145.45,71.75,145.09,71.66Z"/><path d="M174.68,67.53c0-.23,0-.47-.11-.49-.51-.18-.91-.69-1.56-.54a1,1,0,0,1-.61-.2c1.34-.49,2.36.62,3.62.53l0,.17h-1.08l0,.18a4.88,4.88,0,0,0,1.21.21,3.83,3.83,0,0,1,2.43.53c.2.13.32.38.5.55a1,1,0,0,0,.41.21c.26.08.54.13.94.22a1.36,1.36,0,0,1-1.69-.52c-.13-.28-1-.49-1.3-.42a2.27,2.27,0,0,1-.85-.06C175.87,67.78,175.22,67.64,174.68,67.53Z"/><path d="M127.87,71l.67.5c.15.12.36.22.44.38.47.95.46,1,1.16,1.27a1,1,0,0,1-1.16-.49,1.16,1.16,0,0,0-1.1-.75l.49-.25-1.19-.57-.07.12.65.53L127,72l.14-.35-.59-.4-.21.39-.58-.78.11-.12,1.13.49c-.08-.28-.09-.48-.17-.52a5.34,5.34,0,0,0-2.35-1c-.51,0-.77-.18-1-.76,1.22.62,2.56.63,3.52,1.61a3.13,3.13,0,0,0,.88.45Z"/><path d="M183.28,77.36l0,.37-1.79-.26-.16.46-1.53-1.23c.72-.54,1.18.32,1.81.4.44.06.86.5,1.27-.06,0,0,.12,0,.18,0,1,.21,2.07.4,3.09.67.25.07.45.36.67.56l-.14.19Z"/><path d="M104.24,63.17l-.41-.15,0-.43,1.6.68-.06-.54,1.37.68c-.06.09-.2.21-.19.3.07.59.46.83,1.07.84l-.12-.25,1.22-.08,0-.18.51.54c-.34.28-1-.43-1,.53a3,3,0,0,1-1.85-.9c-.09-.1-.32-.07-.48-.11l-1.2-.32c.21-.17.24-.22.27-.21l.61.18c0-.06.05-.17,0-.17a2.84,2.84,0,0,0-.58-.28A7,7,0,0,0,104.24,63.17Z"/><path d="M116.47,62.14h-2.54l0,.06,1.84.56a2.53,2.53,0,0,1,.72-.34c.13,0,.28.22.42.34l-.35,0-1.45.11a.81.81,0,0,1-.31-.06c-.64-.23-1.28-.45-1.91-.71a1.84,1.84,0,0,1-.66-.52,15.46,15.46,0,0,1,4.31.36Z"/><path d="M75.43,32.45H77c-1,.78-.44,1.71-.56,2.53,1.19.19,1.2.18,1.88-.78.39.68.19,1.1-.53,1.11-.91,0-1.82,0-2.75-.08.37-.24,1-.07,1-.8A12.06,12.06,0,0,0,76,33C75.91,32.81,75.63,32.65,75.43,32.45Z"/><path d="M97.27,31.31A4.75,4.75,0,0,0,96.08,31c-.09,0-.18.56-.27.86L96,32l.87-.38-.09.91-.65-.48c-.41.51-.25,1,.11,1.51h-.94a14.73,14.73,0,0,0,.09-1.51c0-.46.26-1-.45-1.33.79-.06,1.49-.12,2.19-.14.1,0,.29.22.3.35A.68.68,0,0,1,97.27,31.31Z"/><path d="M167.74,57.46a5.82,5.82,0,0,0-1-.57c-.14,0-.35.13-.53.21a2.32,2.32,0,0,0,.37.52c.29.23.66.38.93.63.46.43.17.86-.14,1.2a1.15,1.15,0,0,1-1.45,0c-.1-.14-.06-.39-.08-.65a3.55,3.55,0,0,0,.91.48c.18,0,.4-.19.6-.3a3.45,3.45,0,0,0-.44-.68c-.11-.11-.35-.11-.53-.15a.67.67,0,0,1-.56-.84,1,1,0,0,1,1-.79,1.89,1.89,0,0,1,.79.32C167.74,57,167.71,57.25,167.74,57.46Z"/><path d="M136.23,73.92c.89.38,1.76.77,2.66,1.12s2,.77,3.07,1.15a3,3,0,0,1,.37.22c-.52.24-.49.44.09.6l-.82.4.1-.82-3.22-1.5-.12.08.28.6-1,0c.44-.38.42-.61-.06-.87s-.82-.4-1.21-.63c-.08,0-.1-.21-.15-.32Z"/><path d="M93,55.44l-1.41.16a1.74,1.74,0,0,0,.22-2.55c.48-.1.93-.23,1.4-.28s1,.21,1,.66-.56.61-.91.86c-.14.1-.39.05-.68.08ZM92.69,54c.46.06.86,0,.85-.49,0-.17-.33-.49-.46-.46C92.57,53.15,92.66,53.59,92.69,54Z"/><path d="M181.76,60.09c-.67-.85-.62-2.15-1.83-2.78h1.39c-.15.5,0,1,.67,1.9l.82-1.76-.52-.13v-.12H184a2.69,2.69,0,0,0-.42.18c-.21.16-.49.29-.6.51-.37.68-.67,1.39-1,2.08C181.91,60,181.83,60,181.76,60.09Z"/><path d="M177.66,57.29l-1.09.92-.07-.93c1-.05,1.84-.11,2.74-.14.11,0,.33.14.33.22a4.5,4.5,0,0,1-.12.76l-.8-.72-.27.14a10.84,10.84,0,0,1,0,1.66c-.09.58.22.5.58.44-.17.38-.66.42-1.39.14C178,59.51,178.1,58,177.66,57.29Z"/><path d="M119.72,64l-2.3-.24a1.7,1.7,0,0,1,2,.12c-.26-.79-.82-1-2.13-.73l.23-.86c.5.23.94.46,1.4.64a1.18,1.18,0,0,0,.65.09,2.45,2.45,0,0,1,1.94.6l-.84-.14,0,.15.51.17,0,.15-.93-.27-.42-.16-.07.5Z"/><path d="M155.6,75.72l-1.44-.51c1.25-.19,1.24-.16,2.16.63a2.37,2.37,0,0,0,.87.27l0,.19c-.38-.06-.75-.14-1.13-.17s-.67,0-1,0l0,.17.85.28v.18a3.9,3.9,0,0,1-1.36-.14c-.39-.19-1.12-.15-1.08-.76.33-.05.6-.11.87-.12a1.36,1.36,0,0,1,.54.08C155.08,75.92,155.35,76.19,155.6,75.72Z"/><path d="M133.6,74.58l2,.27c.11,0,.3.09.31.16.08.56.45.49.83.42a.5.5,0,0,1,.62.31c.11.19.45.24.7.35l2.34,1-.15.33c-.43-.2-1-.3-1.26-.63a.85.85,0,0,0-.75-.37,2.93,2.93,0,0,1-1.59-.54c-.66-.37-1.23-1.06-2.17-.81-.27.07-.63-.2-.94-.31Z"/><path d="M139.22,62.8l-.49-.8-.25.63-1.19-.5.43-.2-.95-.5c.91-.47,1.64-.29,2,.49.66.1,1.38-.54,2,.13-.13.22-.61,0-.55.45a1.93,1.93,0,0,0-.44-.17,2.65,2.65,0,0,0-.53,0l.08.38Z"/><path d="M138.52,70.35a7.56,7.56,0,0,1-2-.31c-.36-.16-.62-.64-1.11-.69L134,69.24l.34-.67h1.38l0,0,1.2.78-.28.24c.37.53.82.43,1.29.28l0,0,.65.53Z"/><path d="M117.86,68.6h.53l-.52-.46L118,68a3.39,3.39,0,0,1,.52.37c.32.33.64.58,1.12.33a.33.33,0,0,1,.25,0c1.06.46,2.13.89,3.17,1.4.21.1.28.48.37.75-.29-.16-.69,0-.82-.59-.06-.26-.83-.43-1.31-.52s-.95,0-1.36-.5c-.23-.26-.83-.21-1.26-.3l-.82-.17Z"/><path d="M168.46,65.87l2,.44-.53.1,0,.13c.75.25,1.5.48,2.24.74.55.19,1.1.62,1.61.58.7-.05.86.51,1.36.61l-.06.17c-.15,0-.38.06-.45,0-.51-.63-1.25-.47-1.9-.59-.18,0-.46-.05-.52-.17-.42-.78-1.15-.52-1.78-.61-.08,0-.2,0-.22-.09C169.91,66.34,169,66.4,168.46,65.87Z"/><path d="M65.71,61.76c.11.86.85.56,1.3.76s.88.34,1.32.51.53.53.36,1c-.2-1-1.06-1.09-1.75-1.41l-.1.16,1.16.61-.07.16-.87-.41-.15.37-1.19-.65,0-.1.77.26.07-.18c-.78-.64-1.85-.62-2.73-1C64.47,61.2,65.09,62,65.71,61.76Z"/><path d="M148.46,74.23l.51.13a2.81,2.81,0,0,1,.06-.44.82.82,0,0,1,.16-.22l.21.18c.13.12.23.32.38.37.54.2,1,.86,1.68.48,0,0,.09.14.15.19l1.13,1-.27-.7.18-.13c.14.18.37.35.42.55.1.46-.12.64-.56.39s-.84-.19-1-.72a.84.84,0,0,0-.77-.26c-.65.32-1-.29-1.55-.37a2.93,2.93,0,0,1-.73-.31Z"/><path d="M159.31,68.69h-.57l.06.17c-.11.07-.24.22-.33.2a4.79,4.79,0,0,1-1.12-.36c-.15-.08-.19-.37-.31-.54a4.89,4.89,0,0,0-.4-.45h2.73v.22l-1.15.1,0,.16,1.16.39Z"/><path d="M185.51,29.58a12,12,0,0,0,.79-1,12.59,12.59,0,0,0,.56-1.19c.77.65.49,2,1.76,2.28l-.07.14-1.31-.12c.16-.9,0-1.09-.88-.79l.25.72Z"/><path d="M114,71.76l-.3.47-1.24-.38,0-.12,1.12.15.07-.07-2.22-1,.08-.22,5.22,2c-.51.26-1.07-.64-1.38.18l-1.23-.43,0-.11.45-.06,0-.12Z"/><path d="M169.76,81.1c-.39-.11-.78-.25-1.17-.33a9,9,0,0,1-2.33-1,2.82,2.82,0,0,0-2-.39.52.52,0,0,1-.25,0c-.06,0-.1-.07-.18-.13a3.44,3.44,0,0,1,2.76.16c.35.13.6.52.94.66.75.32,1.54.57,2.31.84Z"/><path d="M134.1,73.19l-.39.17.74.67-.13.16a24.45,24.45,0,0,1-2.6-1.32c-.71-.52-1.61-.8-2.31-1.38a17.68,17.68,0,0,1,2.05.83c.65.36,1.11,1.09,2,1.13,0-.72-.78-.64-.92-1.19Z"/><path d="M124.12,64.72c.13,0,.35-.08.37,0,.42.9,1.49.83,2.11,1.43a6,6,0,0,0,1,.64l-.13.22a9.82,9.82,0,0,0-1.68-.92,9,9,0,0,0-1.82-.23l.2-1.11Z"/><path d="M148.06,60.76l.68-.05-.07-.38.1-.13a5.33,5.33,0,0,0,.78.66,9.47,9.47,0,0,0,1.18.48c.46-.69.54.16.84.29s.72.31,1.08.46l-.08.23L148,60.84Z"/><path d="M180.45,69.94c-2,.11-2.08.11-2.35-.46-.83.34-1.47-.17-2.17-.53.2,0,.47-.08.57,0,.42.39.71.17,1-.12l1.6.49-.46.26v.13a3.5,3.5,0,0,1,.59,0C179.61,69.74,180.1,69.29,180.45,69.94Z"/><path d="M185.68,44.81a1.88,1.88,0,0,0-.11-2.3l1.94.13,0,.76c-.18-.21-.24-.33-.33-.37s-.44-.16-.66-.24a3.66,3.66,0,0,0-.16.63c0,.34,0,.69,0,1.06.56.15,1.06.14,1.34-.53.16.8.12.85-.61.85Z"/><path d="M113.47,66.82c-.74-.2-1.49-.37-2.23-.61a2.53,2.53,0,0,1-.61-.45s-.12-.06-.16,0c-.67.38-1-.13-1.36-.56l2.78.35,0,.21-.74-.11-.07.18,2.51.82Z"/><path d="M166.26,64.37c.52-.27.92,0,1.36.23a3.87,3.87,0,0,0,1,.29c.36.08.74.11,1.09.21.71.2,1.42.43,2.3.7h-1.62c-.29-.22-.43-.42-.57-.42a4.05,4.05,0,0,1-2.56-.74A2.82,2.82,0,0,0,166.26,64.37Z"/><path d="M82.78,60.74l.27-.28h.62l-.49.46c1.29.17,2.66-.17,3.86.89H85.91a1,1,0,0,0-1-.55,7.27,7.27,0,0,1-1.63,0C83.1,61.24,82.95,60.92,82.78,60.74Z"/><path d="M153.58,75c-1.47-.55-3.18-.55-4.38-2l1.56.27-.28.48a1.38,1.38,0,0,1,.45,0c.27.09.52.23.79.33l1.95.74Z"/><path d="M168.71,82l1.14.41-.27-.53,2.53,1.19c-.93-.25-1.95.14-2.79-.42a3.39,3.39,0,0,1-.59-.67Z"/><path d="M181.08,76.21a4.09,4.09,0,0,0-1.67,0c-.13,0-.3-.09-.43-.16s0-.21,0-.22a1.57,1.57,0,0,1,.49,0,3.38,3.38,0,0,1,.53.15l.08-.23-2.19-.9C178.62,74.42,178.76,74.48,181.08,76.21Z"/><path d="M61.63,60.56,60.31,60a1.51,1.51,0,0,0-1.41-.11c-.36.18-.93-.08-1.4-.15v-.31a3.83,3.83,0,0,1,.46,0c.4.07.86.54,1.11-.29l2.64,1.11Z"/><path d="M119.48,67.68l-.87-.2,1.11,1c-1,.08-1.49-1-2.43-1.09A1.57,1.57,0,0,1,119.48,67.68Z"/><path d="M55,57.78c.75.39,1.82.24,2.28,1.3-1.74.06-1.74.06-2-.51.25.12.51.23.76.36s.52.14.53-.29c-.42-.17-.84-.33-1.25-.53-.12-.06-.19-.22-.29-.34Z"/><path d="M127.86,66.56l3.57.74v.07l-1.61.08a.52.52,0,0,1-.3-.06,1.16,1.16,0,0,0-1.2-.27.58.58,0,0,1-.51-.13C127.74,66.93,127.84,66.68,127.86,66.56Z"/><path d="M98.93,67l4.37,1.58-.08.23c-.31-.12-.62-.26-.94-.35-.7-.2-1.39-.4-2.1-.56A1.69,1.69,0,0,1,98.93,67Z"/><path d="M170,73.31a5.17,5.17,0,0,1,1.65,0,10.72,10.72,0,0,1,1.91,1.09l-.08.14Z"/><path d="M152.5,65.72l-.87-.15.21.45-.08.08-.42-.37c-.13-.11-.27-.31-.38-.29-.85.11-1.32-.57-1.91-1a6.89,6.89,0,0,1,1.11.45,1.78,1.78,0,0,0,1.2.3c.38,0,.79.29,1.19.45Z"/><path d="M171.26,81.67,174.1,83c-.6.3-2.61-.53-2.93-1.16Z"/><path d="M121,74.53l-5-1.28L116,73c.54.44,1.32,0,1.85.62.11.12.53-.11.77-.05.79.21,1.57.48,2.35.73Z"/><path d="M180.55,69.22l.72-.58a1.41,1.41,0,0,0,1.57.65l-.42-.35.09-.14,1.53.73C182.86,69.83,181.76,69.38,180.55,69.22Z"/><path d="M119.7,64l1.3.46c.76-1.23,1.34.15,2,.14a8.51,8.51,0,0,1-1.84.15,1.66,1.66,0,0,1-1.48-.77Z"/><path d="M173.54,73.84c.65-.2,1,.23,1.33.65.16.18.52.17.79.27s.41.2.62.31c-1.43.58-2-.42-2.71-1.25Z"/><path d="M140.6,70.14c-.26-.51.2-.46.38-.39a8.06,8.06,0,0,1,1.61.83c.26.18.39.57.57.87l.2-.13c-.1,0-.25.08-.31,0-.46-.35-1.1-.42-1.42-1-.11-.2-.7-.14-1.07-.2Z"/><path d="M106.92,69.48l.43.3-1,.22.64-1.15,2.57,1,0,.12L107,69.31Z"/><path d="M107.73,70l2.78.65,0,.16-1.07-.22-.06.16.87.52s-.08.08-.09.08l-2.48-1.18Z"/><path d="M121.93,75.35c-.16.09-.31.25-.47.26a2.39,2.39,0,0,1-.74-.12l-2.2-.6.06-.22A5,5,0,0,1,120,75a2.27,2.27,0,0,0,1.39.14h.52Z"/><path d="M187.49,58.46c-.5,1.36-.16,1.86,1.16,1.73a1,1,0,0,1-1.25.16,1.59,1.59,0,0,1-.58-1c0-.32.33-.65.51-1Z"/><path d="M174.19,67.48l-3.6-1.09c.6-.52,1-.16,1.47.11a9,9,0,0,0,1.45.52l.74.27Z"/><path d="M134,68.59l-1,0v.05L131.19,68l.07-.29c.45.09.91.16,1.36.28s.94.3,1.42.45Z"/><path d="M180.88,75.55l3.45,1.38A4.69,4.69,0,0,1,180.88,75.55Z"/><path d="M146.35,79.69l-2.8-.73A2.93,2.93,0,0,1,146.35,79.69Z"/><path d="M142.6,77.64c.86-.1,1.68.68,2.5-.08l.82.43c-.38.08-.84.19-1.31.28a1.07,1.07,0,0,1-.43,0c-.44-.1-.89-.22-1.32-.35C142.75,77.88,142.69,77.74,142.6,77.64Z"/><path d="M182.51,71,183,71l-.45-.84.18-.16c.31,1.14,1.46.81,2.06,1.38-.35.26-.33.22-.83,0-.21-.11-.52,0-.78,0s-.44-.06-.66-.09Z"/><path d="M165.59,70.92c.42-.28.71-.48,1-.66.05,0,.2,0,.26.08.37.33.72.68,1.09,1,.06.05.21,0,.32.09-.42.43-.83-.14-1.27-.05l.43-.54Z"/><path d="M143.08,63.16c-2.13-.43-2.16-.44-2.21-.93.76.18,1.5.34,2.23.53A1.76,1.76,0,0,1,143.08,63.16Z"/><path d="M175.48,74.21a3,3,0,0,0,.24-.35,2.14,2.14,0,0,0,.09-.37l1.12.51-.54.14,1.41.52,0,.16Z"/><path d="M94.48,65.33c-.87,0-1.27-.33-1.35-1.15h-1c.81-.53.86-.49,1.32.33.14.24.45.39.68.58Z"/><path d="M148.94,65.46h1l-.3.57.7-.07v-.22l.95.46A1.77,1.77,0,0,1,148.94,65.46Z"/><path d="M127.13,77.54c-.78.29-1.16-.17-1.59-.38s-.74-.44-1.11-.67l.19-.31c.38.23.93.37,1.11.7a.7.7,0,0,0,.73.42A3.26,3.26,0,0,1,127.13,77.54Z"/><path d="M187.69,80.24,184.93,79l.8-.3c.3.94,1.44.76,2.07,1.32Z"/><path d="M130.42,72.83l3,1.36c-1.33.18-2.1-.8-3.14-1.09Z"/><path d="M150.18,81.29l-.32.25-.61-.7a2.53,2.53,0,0,1,2.21,1.28Z"/><path d="M185.6,70.5a3.8,3.8,0,0,1-2.39-.28A3,3,0,0,1,185.6,70.5Z"/><path d="M97.88,65.22c.44.33.87.68,1.34,1a3.62,3.62,0,0,0,.77.3l.68.22a3.34,3.34,0,0,1-2.93-1.32Z"/><path d="M120.53,67.8l1.32.53-.4.18,1.87,1.1-.09.16c-.5-.28-1-.53-1.48-.84s-.86-.64-1.28-1Z"/><path d="M132.81,67.33a4.06,4.06,0,0,1,2.53.64l-1.24-.28L134,68l-1.13-.73Z"/><path d="M139.58,75.91c.64.46,1.5.43,1.8,1.45l-1.2-.33C140.47,76.34,139.62,76.47,139.58,75.91Z"/><path d="M129.44,65.93l-.81.15c-.53-.07-1-.56-1.77-.07l0-.62,2.65.42Z"/><path d="M67.88,64.12c1,.21,2.06.15,2.66,1.15Z"/><path d="M176.58,84.17c-.77-.43-1.92-.2-2.27-1.43L176.66,84Z"/><path d="M84,34.13a3.14,3.14,0,0,1,2.75.34l-.58.21-.23-.41Z"/><path d="M96.93,65.88l-.41.52-1.62-.5,0-.2,2,.2Z"/><path d="M114.32,67l2,.65s.08.2.06.21-.23.16-.3.13c-.62-.23-1.23-.48-1.85-.73Z"/><path d="M72.33,64.92c-.75.21-1.23-.36-1.78-.73C71.32,63.89,71.72,64.71,72.33,64.92Z"/><path d="M113.68,66c-.3,0-.5.11-.65-.33-.08-.23-.7-.27-1.06-.42a.79.79,0,0,1-.37-.35A2.4,2.4,0,0,1,113.68,66Z"/><path d="M143.21,78.41c-.71.17-1.23-.36-1.85-.54C142.15,77.45,142.62,78.15,143.21,78.41Z"/><path d="M148.73,79.87a2.23,2.23,0,0,1,1.95.46l-.05.18-1.94-.46Z"/><path d="M115.31,73.88l2.1.24v.2a4.2,4.2,0,0,1-1.12.11,4.48,4.48,0,0,1-1-.47Z"/><path d="M61.79,60.57c.85-.31,1.16.4,1.66.68,0,0,0,.23,0,.32Z"/><path d="M63.43,62.37l-1.8-1.17C62.08,60.9,63,61.43,63.43,62.37Z"/><path d="M168.73,82l-1-.31c.46-.13.46-.21.06-.79l1.28.31c-.63.27-.63.53-.32.81Z"/><path d="M98,34.59c.36-.22.72-.44,1.1-.63.08,0,.25,0,.35.08s.08.2.06.2a3.16,3.16,0,0,1-.38.14c-.15.05-.31.09-.45.16s-.37.19-.55.29Z"/><path d="M170.82,81.78l-1.72-.1-.12-.41,1.87.28Z"/><path d="M96.92,33.78l.4.64H96l0-.17Z"/><path d="M124.14,64.7h-1a2.46,2.46,0,0,1,.35-.22,2.61,2.61,0,0,1,.34-.07c-.06-.11-.11-.29-.2-.32-.33-.1-.68-.14-1-.21l0-.19a5.81,5.81,0,0,0,1.05.23c.66,0,.32.51.41.79Z"/><path d="M124.69,70.69l1.07.86-.08.17-1.32-.5Z"/><path d="M171.08,71.85l1.92,1-.08.18-2-.9Z"/><path d="M176.35,75.25l1.62.54A1.1,1.1,0,0,1,176.35,75.25Z"/><path d="M106.24,59.12c.62-.14,1,.41,1.57.51l-.06.22-1.59-.48Z"/><path d="M146.28,73.38c.48-.25,1,0,1.49.75-.46-.07-.87-.06-1.07-.56,0-.1-.28-.13-.42-.19Z"/><path d="M112.49,72.34l.27.52c-1-.15-1.37-.51-1.37-1.28C111.71,72,111.86,72.55,112.49,72.34Z"/><path d="M123.67,65.6,121.81,65l0-.12c.54.06,1.08.1,1.61.2C123.53,65.13,123.57,65.39,123.67,65.6Z"/><path d="M96.95,65.9l-.3-.4c.86-.19,1,.87,1.75.86-.53.18-.51.16-.87-.25-.13-.14-.39-.16-.6-.24Z"/><path d="M78.9,35.62l1.4-.65-.32.86Z"/><path d="M104.13,69l1.49.28.24.44-1.77-.54Z"/><path d="M102.17,67c-.77.33-1.14.1-1.33-.54Z"/><path d="M132.83,67.31c-.36-.1-.72-.18-1.07-.3a2,2,0,0,1-.43-.29l.11-.19c.4.13.81.23,1.19.39.1,0,.12.26.18.4Z"/><path d="M127.89,71l-.18-.32.07-.13,1.5.59-.07.21L127.87,71Z"/><path d="M187.78,58.18a2.43,2.43,0,0,1,.95.26c.15.12.06.54.07.77Z"/><path d="M100.5,33.86l-1.78-.27A1.55,1.55,0,0,1,100.5,33.86Z"/><path d="M80.85,69.78l1.35.7-.11.22-1.37-.65Z"/><path d="M95.74,64.51c-.1.13-.21.31-.24.3-.44-.17-.86-.38-1.29-.57l.08-.19Z"/><path d="M184.7,78.67c-.47.46-.82.06-1.31-.13C183.95,78.09,184.29,78.7,184.7,78.67Z"/><path d="M111,72c-.78.25-1.22.09-1.51-.42Z"/><path d="M103.54,67.62l2.06.56-.61.4C104.87,67.71,104,68.2,103.54,67.62Z"/><path d="M82.42,35.47a1.21,1.21,0,0,1-1.62.28Z"/><path d="M173.56,73.82c-1-.27-1-.27-1.13-.69l1.19.33-.08.37Z"/><path d="M185.8,71.78l1.18.36.3.65-1.52-.91Z"/><path d="M161.71,78l1.72.45-.06.2-1.72-.45Z"/><path d="M60.44,60.86c-.44-.14-1-.1-1.11-.86l1.24.71Z"/><path d="M136.25,73.9l-1.71-.39.12-.33,1.57.73Z"/><path d="M81.2,68.71l1.5.82-.11.2-1.48-.84Z"/><path d="M94.21,36.1a8.57,8.57,0,0,1-.87.21.44.44,0,0,1-.28-.15.3.3,0,0,1,0-.2,1.34,1.34,0,0,1,.31-.07,1.61,1.61,0,0,1,.46,0C93.89,35.87,94,36,94.21,36.1Z"/><path d="M73.3,65.47l.46.71a2.09,2.09,0,0,1-.42.14,6.28,6.28,0,0,1-.32-.74Z"/><path d="M77.29,67.63c.2.37.84.48.62,1.21l-.83-1.07Z"/><path d="M63.86,62.12l1.5.67-.08.18-1.51-.64Z"/><path class="cls-1" d="M125.21,55.25a1.17,1.17,0,0,1,1.1.94c0,.6-.32,1.19-.75,1.2a1.41,1.41,0,0,1-1.17-1.25A.93.93,0,0,1,125.21,55.25Z"/><path class="cls-1" d="M78.29,53.62q0-.95.79-1c.37,0,.75.58.75,1.16a.8.8,0,0,1-.91.89C78.53,54.67,78.29,54.27,78.29,53.62Z"/><path class="cls-1" d="M20.29,48.52a3.65,3.65,0,0,0-.5-.24.76.76,0,0,1-.52-1.08c0-.09.22-.22.28-.2a2.37,2.37,0,0,1,1,.5A.65.65,0,0,1,20.29,48.52Z"/><path class="cls-1" d="M20.4,48.9l-1.07.24-.3-.71,1.33.29Z"/><path class="cls-1" d="M94.29,58.89l.22.52-1.24-.15c.26-.53.72-.24,1-.35Z"/><path class="cls-1" d="M88.29,35.44l1.64-.28,0,.21c-.49.44-1.12,0-1.65.24Z"/><path class="cls-1" d="M163.34,64.66l-3.49-.84c.21-.14.34-.27.38-.25.22.11.39.18.46-.14.16.07.53-.25.49.28,0,.1.46.28.73.33s.69,0,1,.06.36.24.53.37Z"/><path class="cls-1" d="M147.24,64.68l-1.38-.47C146.39,64.13,147,63.92,147.24,64.68Z"/><path class="cls-1" d="M137.87,69.85c-.47.16-.92.25-1.29-.28l.28-.24-1.2-.78c.87.25,1.74.52,2.62.73a10.36,10.36,0,0,0,1.31.16l0,.22-2.25-.14v.13Z"/><path class="cls-1" d="M138.5,70.36l-.65-.53a5,5,0,0,1,3.29,1.07c-.27.23-.5.17-.9-.13a10.06,10.06,0,0,0-1-.6l-.2.45Z"/><path class="cls-1" d="M155.07,62.43c-.39-.08-1,.18-1-.54h0l-.5-.15c0-.08.1-.23.14-.23.24,0,.48.1.72.16-.19.54.28.4.51.52C155,62.23,155,62.35,155.07,62.43Z"/><path class="cls-1" d="M142.23,55.68l.53,1.1-.92.2.16-1.23Z"/><path class="cls-1" d="M13.51,45.48c.46.18,1.17-.08,1.07.71-.06.56-.53.62-1,.49Z"/><path class="cls-1" d="M14.56,45.12l-1,.19a8,8,0,0,1,.22-.95.7.7,0,0,1,.48.08A2.62,2.62,0,0,1,14.56,45.12Z"/><path class="cls-1" d="M145.09,71.66c.36.09.72.17,1.07.28.07,0,.09.2.13.3s-.22.07-.3,0c-.32-.14-.62-.31-.93-.46Z"/><path class="cls-1" d="M92.69,54c0-.43-.12-.87.39-1,.13,0,.45.3.46.46C93.55,54.06,93.15,54.09,92.69,54Z"/></svg>