<?xml version="1.0" encoding="utf-8"?>
<!-- Generator: Adobe Illustrator 21.1.0, SVG Export Plug-In . SVG Version: 6.00 Build 0)  -->
<svg version="1.1" id="Layer_1" xmlns="http://www.w3.org/2000/svg" xmlns:xlink="http://www.w3.org/1999/xlink" x="0px" y="0px"
	 viewBox="0 0 612 792" style="enable-background:new 0 0 612 792;" xml:space="preserve">
<style type="text/css">
	.st0{fill:#FFFFFF;}
</style>
<g>
	<g>
		<path class="st0" d="M209.1,441.1c0-30,0-60,0-90c64.4,0,128.9,0,193.3,0c0,30,0,60,0,90C338,441.1,273.6,441.1,209.1,441.1z
			 M304.9,416.9c-0.7-0.1-1.3-0.1-2-0.2c0,0.1,0,0.1,0,0.2c0.5,0.2,1.1,0.3,1.6,0.5C304.7,417.2,304.8,417,304.9,416.9
			c0.2,0.1,0.4,0.1,0.6,0.2c0.4,0.4,0.3,0.4,0.9,0.2c-0.7,0-0.9-1.1-1.7-0.9C304.8,416.7,304.9,416.8,304.9,416.9z M340.8,418.3
			c-0.1-0.1-0.1-0.4-0.2-0.4c-0.4-0.2-0.8-0.3-1.2-0.4c0,0.1-0.1,0.1-0.1,0.2c0.1,0.1,0.3,0.2,0.4,0.3
			C340.1,418.1,340.5,418.2,340.8,418.3c0.4,0.2,0.8,0.5,1.1,0.7c0-0.1,0.1-0.2,0.1-0.4c0.4,0.1,0.8,0.2,1.2,0.3
			C342.6,418.3,341.7,418.4,340.8,418.3z M381.5,424.8c0-0.1,0.1-0.3,0.1-0.4c-0.4-0.1-0.8-0.2-1.2-0.3
			C380.6,424.5,380.6,424.5,381.5,424.8c0.7,0.8,1.3,1.8,2.7,1.2c-0.2-0.1-0.4-0.2-0.6-0.3c-0.3-0.1-0.6-0.1-0.8-0.3
			C382.5,425.1,382.2,424.6,381.5,424.8z M376.7,433c-0.3-0.3-0.3-0.5,0.3-0.8c-0.5-0.1-0.9-0.2-1.3-0.3c0.4,0.6,0.4,0.7-0.1,0.8
			C376.1,432.8,376.4,432.9,376.7,433c0.2,0.2,0.4,0.5,0.6,0.7c0.8,0.6,1.9,0.2,2.8,0.4c-0.8-0.4-1.6-0.8-2.5-1.2
			c0.1,0.2,0.1,0.3,0.3,0.5C377.4,433.2,377,433.1,376.7,433z M332.1,415.7c-0.1-0.3,0.2-0.8-0.4-0.8c-0.4,0-0.7-0.2-1.1-0.2
			c0,0.1,0,0.1,0,0.2c0.3,0.1,0.7,0.1,1,0.2c0.1,0,0.1,0.2,0.2,0.3c-0.1,0-0.2,0-0.3,0.1c-0.1,0-0.1,0.1-0.3,0.2
			C331.6,415.7,331.9,415.7,332.1,415.7c0,0.3-0.1,0.6-0.2,1.1c0.6,0.1,1.2,0,1.8,0.2c0.6,0.2,1.1,0.6,1.7,0.9
			c0-0.1,0.1-0.1,0.1-0.2c-0.3-0.2-0.7-0.4-1-0.6c-0.6-0.6-1.7-0.5-2.1-1.4C332.5,415.6,332.2,415.7,332.1,415.7z M327.7,415
			c0.3,0.6,0.9,0.7,1.5,0.8c0.6,0.1,1.2-0.1,1.8-0.2c-0.7,0-1.3-1.4-2-0.1C328.5,415.3,328.1,415.1,327.7,415c0-0.2,0-0.3,0.1-0.5
			c0.1,0.1,0.3,0.1,0.4,0.2c0.3,0.1,0.6,0.2,0.9,0.3c0-0.1,0-0.1,0-0.2c-0.2-0.1-0.3-0.1-0.5-0.2c0,0,0-0.1,0-0.1
			c0.3,0,0.6,0.1,0.8,0.1c-0.6-0.4-1.2-0.8-1.9-0.6c-0.2,0-0.4,0-0.6-0.1c-0.5-0.2-0.9-0.4-1.4-0.6c-0.1,0.4-0.2,0.6-0.2,0.9
			c1.3-0.2,1.9-0.1,2.1,0.7c-0.6-0.5-1.3-0.5-2-0.1C326.2,414.8,326.9,414.9,327.7,415z M344.2,424.9c-0.5-0.2-1-0.5-1.6-0.7
			c0,0.1-0.1,0.2-0.1,0.3C343.1,424.6,343.7,424.8,344.2,424.9c0.1,0.1,0.1,0.3,0.2,0.3c0.4,0.2,0.8,0.4,1.2,0.6
			c0.5,0.3,0.5,0.5,0.1,0.9c0.3,0,0.6,0,1,0c-0.1-0.3-0.2-0.4-0.3-0.6c0,0,0.1-0.1,0.1-0.1c1.1,0.5,2.2,1,3.2,1.5
			c0,0.3-0.1,0.5-0.1,0.8c0.3-0.1,0.5-0.3,0.8-0.4c-0.6-0.2-0.6-0.4-0.1-0.6c-0.2-0.1-0.3-0.2-0.4-0.2c-1-0.4-2.1-0.8-3.1-1.2
			C346,425.7,345.1,425.3,344.2,424.9z M335.9,422c-0.3-0.1-0.7-0.2-0.9-0.4c-1-1-2.3-1-3.5-1.6c0.2,0.6,0.5,0.8,1,0.8
			c0.9,0,1.6,0.6,2.4,1c0.1,0,0.1,0.2,0.2,0.5c-0.5-0.2-0.8-0.3-1.1-0.5c0,0-0.1,0.1-0.1,0.1c0.2,0.3,0.4,0.5,0.6,0.8
			c0.1-0.1,0.1-0.2,0.2-0.4c0.2,0.1,0.4,0.3,0.6,0.4c0,0.1-0.1,0.2-0.1,0.3c0.3-0.1,0.5-0.2,0.7-0.2c-0.2-0.2-0.4-0.4-0.6-0.5
			c0,0,0-0.1,0.1-0.1c0.4,0.2,0.8,0.4,1.2,0.6c-0.2,0.1-0.3,0.1-0.5,0.3c0.6,0,0.9,0.4,1.1,0.8c0.2,0.4,0.7,0.7,1.2,0.5
			c-0.7-0.3-0.7-0.3-1.2-1.3c-0.1-0.2-0.3-0.3-0.4-0.4C336.3,422.3,336.1,422.2,335.9,422c0.4,0.1,0.9,0.2,1.3,0.3
			c0-0.1,0-0.1,0.1-0.2c-0.5-0.2-1-0.4-1.5-0.6c0,0,0,0.1-0.1,0.1C335.8,421.8,335.8,421.9,335.9,422z M354.3,424.4
			c0.1,0.1,0.4,0.1,0.4,0.2c0.2,0.5,0.6,0.5,1.1,0.6C355.2,424.4,354.8,424.1,354.3,424.4c0.1-0.9,0.7,0,1-0.3
			c-0.4-0.1-0.7-0.3-1-0.4c0.1-0.2,0.2-0.3,0.3-0.5c0.3,0.1,0.5,0.3,0.8,0.4c0.3,0.1,0.5,0.2,0.7,0.3c0.4-0.1,0.7-0.1,1-0.2
			c-0.3-0.2-0.7-0.3-1-0.4c-0.4-0.1-0.9-0.1-1.2-0.4c-0.5-0.4-1-0.5-1.6-0.6c-0.1,0-0.3,0-0.3-0.1c-0.3-0.6-1.1-0.5-1.6-0.8
			c-0.1-0.1-0.3,0-0.3,0.1c0.7,0.4,1.3,0.7,1.9,1.1c0,0,0,0.1-0.1,0.1c-0.2,0-0.4,0-0.5,0c0,0.1,0,0.2-0.1,0.2
			c0.2,0.1,0.4,0.1,0.6,0.2c0.3,0.2,0.9,0.3,1,0.5C353.9,424.1,354,424.2,354.3,424.4z M312.2,414.2c0.3,0,0.5,0.1,0.8,0.1
			c0.2,0.1,0.4,0.2,0.6,0.3c0,0,0,0.1,0,0.2c-0.2-0.1-0.4-0.1-0.6-0.2c0,0-0.1,0-0.3,0.2c0.5,0.1,0.8,0.2,1.2,0.3
			c0.2,0,0.4,0,0.5,0.1c0.5,0.6,1.2,0.8,1.8,0.9c0-1,0.7-0.2,1-0.5c-0.2-0.2-0.3-0.4-0.5-0.5c0,0.1,0,0.1,0,0.2
			c-0.4,0-0.8,0.1-1.2,0.1c0,0,0.1,0.1,0.1,0.3c-0.6,0-1-0.2-1.1-0.8c0-0.1,0.1-0.2,0.2-0.3c-0.4-0.2-0.9-0.4-1.4-0.7
			c0,0.1,0,0.3,0.1,0.5c-0.6-0.2-1.1-0.5-1.6-0.7c0,0.1,0,0.3,0,0.4c-0.5-0.2-1-0.3-1.5-0.5c0,0,0-0.1,0-0.1c0.2,0,0.5,0,0.7,0
			c-0.2-0.1-0.4-0.2-0.7-0.4c0.2-0.1,0.3-0.1,0.4-0.2c0-0.1,0-0.1,0-0.2c-1.1-0.1-2.2-0.3-3.3-0.4c-0.2,0-0.6,0.2-0.5-0.3
			c0-0.1-0.1-0.2-0.2-0.3c-0.4-0.2-0.8-0.5-1.3-0.6c-0.4-0.2-0.9-0.3-1.4-0.4c0,0.2,0,0.3,0,0.4c0.8,0.3,1.7,0.1,2.2,0.9
			c-0.7-0.2-1.3-0.3-2-0.5c0,0.1,0,0.1,0,0.2c0.4,0.2,0.8,0.6,1.3,0.6c1.1,0.1,2.2,0.2,3.2,0.5c0.2,0.1,0.4,0.2,0.5,0.2
			c0.6-0.3,0.6,0.1,0.5,0.4c-0.1,0.4,0.1,0.5,0.4,0.6c0.3,0.1,0.7,0.2,1,0.3C311.6,414.2,311.9,414.2,312.2,414.2z M367.3,429.3
			c0-0.2-0.1-0.3-0.1-0.5c0,0-0.1,0.1-0.1,0.1c-0.2-0.2-0.5-0.3-0.7-0.5c0-0.1,0.1-0.1,0.1-0.2c0.5,0.2,0.9,0.5,1.4,0.7
			c0.4,0.1,0.9,0.2,1.4,0.2c0-0.1,0.1-0.2,0.1-0.3c-0.6-0.3-1.2-0.6-1.9-0.9c0,0.3,0,0.4,0,0.5c-0.5,0-0.9-0.9-1.6,0
			c0.1-0.7-0.3-0.6-0.7-0.7c-0.3,0-0.7-0.1-1.1-0.2c0,0.2-0.1,0.6-0.1,0.6c0.3,0.2,0.6,0.3,1,0.5c0,0,0-0.1,0-0.1
			c-0.2-0.2-0.4-0.3-0.6-0.5c0.2,0,0.5,0,0.6,0.1c0.3,0.3,0.4,0.6,0.7,0.8C366.3,429.2,366.8,429.5,367.3,429.3
			c0.2,0.2,0.3,0.4,0.6,0.5c0.8,0.3,1.7,0.3,2.4,0.9c0.2,0.2,0.5,0.1,0.8,0.2c0-0.1,0-0.1,0-0.2c0.3,0.1,0.8,0.3,0.8,0.5
			c0,0.5,0.4,0.4,0.6,0.5c0.7,0.2,1.3,0.5,2,0.7c0.4,0.2,0.7,0.4,1.1,0.6c0,0,0.1-0.1,0.1-0.1c-0.6-0.6-0.9-1.5-2.1-1.3
			c-0.3,0-0.7-0.2-1.1-0.3c0-0.1,0-0.2,0.1-0.3c0.4,0.1,0.7,0.1,1.1,0.2c-0.9-0.3-1.8-0.6-2.7-0.9c-0.1,0-0.2,0-0.2,0
			c-0.5,0.6-0.7,0.1-1-0.2c0.1-0.1,0.2-0.1,0.5-0.2c-0.3-0.1-0.6-0.3-0.7-0.2c-0.4,0.3-0.7,0.2-1.1,0
			C368.2,429.5,367.8,429.4,367.3,429.3z M343.7,419.6c-0.5,0-1,0-1.4,0c-0.1,0.2-0.2,0.4-0.3,0.7c0.5,0,1,0.1,1.5,0.1
			c0.5,0,0.7,0.5,1.1,0.7c0.6,0.3,1.3,0.2,2,0.3c0.1,0.5,1.1,0.9,1.5,0.6c0.6,0.3,1.2,0.6,1.8,0.9c0.1,0,0.2-0.1,0.3-0.1
			c0.3,0.1,0.6,0.2,0.8,0.4c0.2,0.4,1.1,0.8,1.5,0.6c-0.7-1.1-1.9-1.2-3.1-1.6c0-0.1,0-0.1,0.1-0.2c0.2,0,0.4,0,0.5-0.1
			c-0.4-0.3-0.8-0.6-1.2-0.9c0.4,0.1,1,0,1.1,0.2c0.3,0.6,1,0.7,1.4,1c0.1,0,0.2,0,0.3,0c-0.1,0-0.1,0.1-0.2,0.1
			c-0.2-0.3-0.3-0.7-0.6-0.9c-0.5-0.3-1.1-0.6-1.6-0.8c-0.2-0.1-0.6-0.1-0.4,0.4c-0.2-0.1-0.4-0.1-0.7-0.2c0.2-0.1,0.2-0.1,0.4-0.2
			c-0.6-0.3-1-0.5-1.5-0.8c-0.3-0.1-0.5-0.1-0.8-0.2C345.2,419.5,344.5,419.2,343.7,419.6z M291,411.5c-0.2-0.4-0.5-0.8-1.2-0.7
			c0.2,0.1,0.3,0.1,0.3,0.1c0.1,0,0.2,0.1,0.4,0.1c-0.8,0.4-1,0.3-1.1-0.3c0-0.1-0.2-0.3-0.3-0.4c-0.8-0.3-1.5-0.7-2.4-0.5
			c-0.1,0-0.2-0.1-0.3-0.2c-0.1-0.1-0.3-0.2-0.4-0.3c-0.4,0-0.9,0-1.4,0c0-0.1,0.1-0.1,0.1-0.2c-0.1-0.2-0.2-0.4-0.4-0.5
			c-0.7-0.3-1.4-0.6-2.1-0.3c-0.1,0-0.3-0.2-0.3-0.2c0.2-0.5-0.4-0.4-0.5-0.4c-0.5,0.1-1,0.3-1.5,0.4c0.9,0.4,1.9,0.6,2.9,0.4
			c0.6-0.2,1.1,0.1,1.5,0.6c-0.6-0.1-1.2-0.3-1.8-0.4c0,0.1,0,0.1-0.1,0.2c0.1,0.1,0.2,0.2,0.3,0.2c1.4,0.5,2.8,1.1,4.3,1.4
			c0.8,0.2,1.2,0.9,2,0.9c0.5,0,1.1,0.2,1.6,0.4c0.2,0.2,0.3,0.5,0.5,0.5c0.5,0.1,1.1,0,1.6,0c0.4,0,0.9,0.2,1,0.6
			c0.3,0,0.6,0,1.1,0c-1.2-1.1-2.6-0.7-3.9-0.9c0.2-0.1,0.3-0.3,0.5-0.5C291.4,411.5,291.2,411.5,291,411.5z M263.1,408.8
			c0.1,0.1,0.2,0.3,0.3,0.3c0.4,0.2,0.8,0.4,1.2,0.5c0,0.4-0.2,0.5-0.5,0.3c-0.2-0.1-0.5-0.2-0.8-0.4c0.3,0.6,0.3,0.6,2,0.5
			C264.9,409,263.8,409.2,263.1,408.8c-0.4-0.2-0.8-0.4-1.1-0.5c-0.4-0.2-0.6-0.6-1.2-0.2c0.3,0.1,0.6,0.3,1,0.4
			c-1.1,0.3-1.3-0.9-2.1-1c0,0.1-0.1,0.2-0.1,0.3c-0.1,0-0.1,0-0.2,0c0-0.2,0-0.4,0.1-0.5c-2.5-0.9-5.1-1.9-7.6-2.9
			c-0.1,0.3-0.2,0.5-0.2,0.7c1,0.4,2.1,0.8,3,1.2c0.1-0.2,0.1-0.3,0.2-0.4c0.1,0.1,0.3,0.2,0.4,0.3c0.1,0.5,0.4,0.6,0.8,0.6
			c0.4,0,0.8,0.1,1.2,0.2c0,0.4,0.8,1.1,1.3,0.9c0.4-0.1,0.5,0,0.7,0.3c0.3,0.5,0.8,0.4,1,0c0.8,0.7,1.5,1.5,2.6,1.6
			c0-0.1,0.1-0.2,0.1-0.2c-0.4-0.2-0.9-0.3-1.3-0.5c0,0,0-0.1,0-0.1C262.1,408.8,262.6,408.8,263.1,408.8z M302.3,409.9L302.3,409.9
			c-0.3,0-0.6-0.1-1-0.2c-0.2,0-0.5,0-0.7,0c-0.2,0-0.3-0.2-0.5-0.3c-0.8-0.3-1.5-0.5-2.3-0.8c0-0.3,0-0.6,0.1-0.9
			c0-0.1,0.3-0.3,0.4-0.3c1,0.1,2,0.2,3,0.4c0.6,0.1,1.1,0.3,1.5-0.3c0.2,0.2,0.4,0.3,0.7,0.5c-0.2,0-0.4,0-0.6,0.1
			c0,0.1,0,0.1,0,0.2c0.3,0,0.6,0,0.9,0c0.3,0,0.5,0.2,0.8,0.3c0.2,0.1,0.3,0.3,0.4,0.3c0.6,0,1.3-0.1,1.9-0.1
			c0.2,0,0.3,0.1,0.5,0.1c0,0.1,0,0.1,0,0.2c-0.1,0-0.2,0-0.3,0c0.6,0.2,1.1,0.3,1.7,0.4c0.5,0.2,1,0.4,1.6,0.6
			c0-0.1,0.1-0.1,0.1-0.2c-0.3-0.2-0.7-0.5-1-0.7c0.3,0,0.6,0,0.8,0.1c0.2,0.1,0.5,0.2,0.7,0.4c-0.1,0.2-0.2,0.4-0.2,0.4
			c0.6,0.2,1.1,0.4,1.6,0.5c0.3,0.1,0.9-0.2,1,0c0.3,0.4,0.5,0.6,1,0.7c0.7,0.1,1.4,0.3,2,0.4c0.1,0,0.3-0.1,0.3-0.1
			c0.3-0.6,0.7-0.3,1.2,0.1c-0.4,0-0.6,0-1.1,0c0.3,0.3,0.4,0.6,0.6,0.6c0.4,0.1,0.9,0.6,1.2-0.1c0.2,0.7,0.8,0.4,1.2,0.6
			c-0.4-0.3-0.7-0.6-1.1-1c-0.1,0-0.3,0-0.6,0c0.5-0.4,0.9-0.1,1.3,0.1c0.5,0.3,1,0.4,1.5,0.5c0.1,0,0.2-0.1,0.3-0.2
			c0,0,0-0.1-0.1-0.1c-0.4,0-0.8,0-1.2,0c0-0.1,0.1-0.1,0.1-0.2c-0.2-0.1-0.3-0.4-0.5-0.4c-0.9-0.2-1.9-0.4-2.9-0.6
			c0,0.2,0,0.3,0.1,0.6c-1.1-0.4-2.5,0.1-3.2-1c0-0.2,0-0.3-0.1-0.5c-0.2,0-0.4,0-0.5,0.1c-0.1,0.5-0.5,0.4-0.8,0.3
			c-0.3-0.1-0.5-0.1-0.5-0.5c0-0.2-0.6-0.4-1-0.5c-0.7-0.3-1.5-0.6-2,0c-0.6-0.2-1.1-0.5-1.6-0.6c-0.4-0.1-0.8,0.1-1.2,0.1
			c-0.3,0-0.6-0.2-0.9-0.3c0,0,0-0.3,0.1-0.3c0.3-0.1,0.5-0.1,0.8-0.1c1.6,0.1,3.3,0.3,4.9,0.4c0.8,0.1,1.5,0.1,2.3,0.1
			c1.9,0.2,3.8,0.3,5.7,0.5c0.5,0,0.9,0,1.4,0c1.9,0.2,3.8,0.4,5.8,0.5c0.7,0.1,1.5,0,2.2,0c0.8,0,1.7,0.2,2.5,0.2
			c1.4,0,2.7,0.2,4,0.6c0.2,0.1,0.5,0,0.8-0.1c0.5-0.2,1,0,1,0.6c0.6-0.1,1.1-0.2,1.6-0.2c0.5,0,1.1,0,1.6,0c-0.4,0.8-1,0.1-1.5,0.4
			c0.4,0.1,0.7,0.2,1.1,0.2c0.6,0,1.2,0,1.6,0.5c0.1,0.1,0.4,0.1,0.6,0.1c0.4,0.1,0.9,0.1,1.2,0.3c0.4,0.3,0.3,0.4,0.7,0.1
			c0.1,0.4,0.7,0.6,1.7,0.7c-1-1.1-3.1-2.2-4.1-2c0.5,0.2,1,0.4,1.4,0.6c-0.3,0.1-0.5,0.1-0.7,0.1c-0.3-0.1-0.6-0.2-0.8-0.4
			c-0.3-0.4-0.7-0.8-1.2-0.8c-0.6-0.1-1.3-0.2-1.9-0.1c-0.5,0.1-1,0.1-1.4-0.3c-0.1-0.1-0.4-0.2-0.6-0.3c-0.3-0.2-0.5-0.2-0.6,0.2
			c-0.4-0.1-0.7-0.1-1.1-0.2c-0.1-0.1-0.2-0.4-0.3-0.6c0.4,0,0.8,0,1.3,0c-0.5-0.2-0.8-0.3-1.3-0.5c0.3-0.2,0.4-0.3,0.5-0.4
			c0.2-0.3,0.5-0.6,0.5-0.9c0-1-1.1-1.6-2.1-1.3c-0.6,0.2-0.9,0.6-1,1.2c-0.1,0.6,0.4,0.9,0.8,1.2c0.3,0.2,0.7,0.4,1.1,0.7
			c-0.8,0.1-1.2,0.6-1.9,0.4c-0.8-0.2-1.6-0.2-2.4-0.2c-1.4-0.1-2.7-0.1-4.1-0.1c-0.8,0-1.7-0.1-2.5-0.1c-1.4-0.1-2.7-0.3-4.1-0.4
			c-1-0.1-2.1-0.1-3.1-0.1c-1.9-0.1-3.7-0.3-5.5-0.5c-1-0.1-2-0.2-3-0.3c-0.9-0.1-1.8-0.1-2.6-0.1c0,0.2,0,0.3,0,0.4
			c-0.2-0.1-0.4-0.1-0.5-0.2c-0.4-0.5-0.8-0.5-1.4-0.4c-0.1,0-0.2,0-0.2,0c-0.5-0.2-1-0.4-1.6-0.6c-0.1-0.1-0.4,0-0.5,0.1
			c-0.7,0.7-1.4,0-2.2,0.2c0.6-1.6,1.2-8.3,0.9-9.1c-0.2,1.4-0.3,2.8-0.4,4.1c-0.2,1.5-0.3,3.1-0.5,4.6c0,0.1-0.3,0.2-0.4,0.2
			c-0.2,0-0.4,0-0.6,0c-1-0.1-2-0.2-3-0.2c-0.7-0.1-1.5-0.1-2.2-0.1c-0.4,0-0.8,0.1-1.1,0.1c-0.8-0.1-1.5-0.3-2.3-0.5
			c-0.1,0-0.3-0.1-0.3,0c-0.2,0.2-0.4,0.2-0.5,0c0-0.1,0.2-0.3,0.3-0.4c0.4-0.3,0.7-0.6,0.7-1.1c-0.1-0.8-1-1.4-1.7-1.2
			c-0.9,0.3-1.2,0.9-0.9,1.7c0.1,0.4,0.6,0.7,1,1c-5.3-0.4-10.6-0.8-15.8-1.2c0-0.7,0-1.3,0-2c0-0.3-0.1-0.7,0.5-0.6
			c0.1,0,0.2-0.1,0.4-0.3c-0.7,0-1.2-0.1-1.7-0.1c0.6,0.3,0.9,1.3,0.5,1.9c-0.6-0.6-1.2-1.1-1.8-1.7c-0.4-0.5-0.8-0.4-1.4-0.3
			c1,0.6,1.3,1.9,0.5,2.5c0.3,0,0.5,0.1,0.7,0.1c0-0.6,0-1.1,0-1.8c0.7,0.7,1.4,1.3,2,1.9c0,0.1-0.1,0.2-0.1,0.2
			c-1-0.1-1.9-0.1-2.9-0.2c-1-0.1-2-0.2-3-0.2c-0.8,0-1.6,0-2.3,0c-1.6-0.1-3.2-0.3-4.8-0.5c-1.1-0.1-2.2-0.2-3.3-0.3
			c-1.9-0.2-3.7-0.3-5.6-0.5c-0.2,0-0.5-0.1-0.7-0.1c-0.4,0-0.7,0-1.2-0.1c-0.3-0.1-0.7-0.4-1.1-0.5c-0.7-0.1-1.4,0-2-0.1
			c-1.3-0.2-2.6-0.5-3.8-0.7c-1.4-0.3-2.9-0.5-4.3-0.8c-1.9-0.4-3.9-0.9-5.8-1.3c-0.3-0.1-0.4-0.1-0.3-0.5c0.2-0.6-0.1-1.2-0.6-1.3
			c-0.8-0.1-1.6-0.1-2.5-0.2c-0.1,0.1-0.2,0.2-0.2,0.2c1,0,0.8,0.5,0.7,1c-0.5-0.3-1-0.7-1.4-0.9c-0.5-0.2-0.7-0.5-0.7-1.1
			c0-0.6,0.4-0.9,0.8-1.1c1.1-0.5,2.2-1,3.4-1.3c1.9-0.5,3.9-0.9,5.9-1.3c0.9-0.2,1.9-0.5,2.8-0.6c0.8-0.1,1.6-0.2,2.4-0.3
			c1.5-0.2,2.9-0.3,4.4-0.5c0.5-0.1,1.1,0,1.6-0.2c1.2-0.4,2.4-0.4,3.7-0.5c1,0,1.9-0.1,2.9-0.2c1-0.1,2-0.3,3.1-0.4
			c0.8-0.1,1.5-0.1,2.3-0.1c0.8,0,1.5-0.1,2.3-0.1c1.5-0.2,3.1-0.4,4.6-0.5c1.2-0.1,2.5-0.1,3.7-0.3c2.1-0.2,4.2-0.5,6.4-0.7
			c0.2,0,0.4,0,0.5,0c1.4-0.1,2.8-0.3,4.2-0.4c1.1-0.1,2.2-0.3,3.3-0.4c0.4-0.1,0.8-0.1,1.3-0.1c0,0.2-0.1,0.3-0.1,0.4
			c0.4,0,0.7-0.1,1-0.1c0-0.1,0-0.1,0-0.2c-0.2-0.1-0.5-0.2-0.8-0.4c0.1-0.1,0.3-0.4,0.3-0.3c0.2,0.1,0.4,0.3,0.5,0.4
			c0.1-0.2,0.3-0.4,0.5-0.7c-0.5,0.2-1.2-0.4-1.6,0.5c0,0.1-0.2,0.1-0.4,0.2c-1.2,0.1-2.4,0.3-3.6,0.4c-2.1,0.2-4.2,0.3-6.3,0.5
			c-0.2,0-0.4,0.2-0.6,0.2c-0.5,0-1.1,0.5-1.5-0.1c-0.2,0.1-0.3,0.3-0.4,0.3c-0.9,0.1-1.9,0.2-2.8,0.3c-1.5,0.1-2.9,0.2-4.3,0.5
			c-1,0.2-2.1,0.2-3.2,0.2c-1.1,0.1-2.2,0.1-3.3,0.2c-1.7,0.2-3.3,0.4-5,0.6c-1.3,0.1-2.7,0.2-4,0.3c-1,0.1-2.1,0.3-3.1,0.4
			c-0.9,0.1-1.9,0.1-2.8,0.3c-1.8,0.3-3.7,0.6-5.5,0.9c-1.5,0.3-3.1,0.5-4.6,0.8c-2,0.4-3.9,0.9-5.8,1.7c-0.5,0.2-0.9,0.4-1.4,0.6
			c-0.9,0.5-1.3,1.7-0.8,2.2c0.6,0.5,1.3,0.9,2,1.3c0.2,0.1,0.3,0.4,0.3,0.6c0,0.1-0.2,0.3-0.4,0.4c-0.1,0.1-0.3,0.1-0.4,0.1
			c0.1,0.2,0.2,0.3,0.4,0.3c0.3,0,0.7,0,1,0c0.5,0,1,0,1.4-0.4c0.2-0.1,0.5-0.2,0.7-0.1c1.5,0.3,3.1,0.7,4.6,1
			c1.4,0.3,2.8,0.5,4.3,0.8c1,0.2,2,0.4,3,0.6c2,0.4,4,0.8,6,1.2c0.2,0,0.4-0.1,0.7-0.1c0,0.1,0.1,0.3,0.2,0.4
			c0.9,0.4,1.9,0.7,2.8,1c0.1,0,0.3,0,0.4-0.1c0.1-0.1,0.2-0.3,0.1-0.4c-0.1-0.1-0.2-0.2-0.4-0.2c-0.3-0.1-0.6-0.1-0.9-0.2
			c0,0.1-0.1,0.2-0.2,0.5c-0.1-0.5-0.3-0.8-0.8-0.5c-0.1,0-0.2-0.1-0.4-0.2c0-0.1,0-0.1,0.1-0.2c1,0.1,2.1,0.2,3.1,0.3
			c2.3,0.2,4.6,0.5,6.8,0.8c1.7,0.2,3.3,0.3,5,0.4c0.6,0,1.2,0,1.7,0c0.9,0.1,1.7,0.1,2.6,0.3c0.7,0.1,1.4,0.2,2,0.3
			c0.2,0,0.5-0.1,0.7-0.2c0-0.1,0-0.1,0-0.2c0.4,0.2,0.7,1,1.3,0.5c1.5,0.7,3,1,4.4,1.1c0.1,0.2,0.1,0.4,0.2,0.4
			c0.5,0.2,1,0.5,1.6,0.5c0.8,0.1,1.6,0.1,2.5,0.2c-0.9-0.7-1.3-0.8-1.5-0.2c-0.3-0.3-0.6-0.5-0.7-0.7c-0.2-0.3-0.4-0.3-0.7-0.1
			c-0.3,0.2-0.5,0.2-0.8-0.2c-0.5-0.6-1.1-0.7-1.9-0.4c-0.2,0.1-0.4,0-0.7-0.1c0.2-0.3,0.3-0.4,0.3-0.5c0.5,0,0.9,0,1.3,0.1
			c1.5,0.2,3,0.4,4.4,0.5c0.8,0.1,1.6,0.1,2.4,0.1c0.9,0.1,1.7,0.1,2.6,0.3c0.4,0.1,0.8,0.2,1.2,0.3c0.3,0.1,0.6,0.1,0.9,0.1
			c0.2,0,0.5-0.2,0.6-0.1c0.9,0.8,2.1,0.6,3.1,0.9c0.7,0.2,1.5,0.3,2.2,0.1c0.1,0,0.2,0.1,0.3,0.1c0,0,0,0.1,0,0.1
			c-0.2,0-0.5,0-0.7,0c0,0,0,0.1,0,0.1c0.3,0,0.5,0,0.8,0c0-0.1,0.1-0.3,0.1-0.6c-0.6-0.1-1.2-0.1-1.8-0.2c0,0,0,0.1,0,0.1
			c-0.3-0.2-0.5-0.3-0.8-0.5c0,0,0-0.1,0-0.1c2,0.2,4.1,0.4,6.2,0.5c-0.1,0.5-0.3,1-0.4,1.5c-0.1-0.5-0.3-0.7-0.8-0.7
			c-0.5,0-1-0.1-1.5-0.3c-0.4-0.2-0.7-0.1-1,0.4c0.4,0.1,0.7,0.1,0.9,0.2c0.4,0.2,1.2-0.3,1.2,0.6c0.2-0.1,0.4-0.2,0.6-0.2
			c0.3,0.5,0.4,0.5,0.1,1.5c-0.2,1.1-0.6,2.2-0.9,3.3c-0.4-0.2-0.7-0.3-1-0.4c-0.3-0.1-0.5-0.2-0.8-0.3c0,0.1-0.1,0.1-0.1,0.2
			c0.2,0.1,0.5,0.2,0.7,0.3c1.1,0.3,1.3,0.7,0.9,1.7c-1,2.2-1.9,4.4-2.9,6.5c-0.2,0.4-0.3,0.7-0.4,1.1c-0.4,0.9-0.8,1.9-1.2,2.8
			c-0.2,0.4-0.4,0.8-0.6,1.3c0.1,0,0.2,0.1,0.3,0.1c1-2.2,2-4.3,2.9-6.5c1-2.2,1.9-4.4,2.8-6.6c0.8-0.2,1.4,0.9,2.4,0.6
			c0.1,0,0.3,0.1,0.4,0.2c0,0.1,0,0.1,0,0.2c-0.3,0-0.7,0.1-1.1,0.2c1,0.7,1.6,0.8,2.2,0.5c-0.9,0-1.3-0.5-0.9-1.3
			c-1.1-0.3-2.1-0.6-3.3-0.9c0.3-1.2,0.6-2.6,1-3.9c0.5,0.2,0.9,0.3,1.4,0.5c0.5,0.2,1,0.5,1.5-0.1c0,0,0.1,0,0.2,0
			c0.1,0.6,0.3,0.8,1,0.9c0.1,0,0.1,0,0.2,0c0.7,0.2,1.4,0.5,2,0.8c-0.3-0.6-0.8-0.8-1.5-1c0.3,0,0.6,0,0.9,0
			c0.1,0.1,0.2,0.3,0.3,0.4c0.1,0,0.1-0.1,0.2-0.1c-0.2-0.2-0.3-0.5-0.5-0.6C303.1,410,302.7,410,302.3,409.9z M310.2,386.4
			c0-0.1,0-0.1-0.1-0.2c0.3-0.1,0.6-0.4,1-0.4c2.4,0,4.8,0,7.2-0.4c0.9-0.1,1.7-0.1,2.6-0.1c2.1-0.1,4.2-0.3,6.3-0.4
			c2.5-0.1,5-0.2,7.5-0.3c0.2,0,0.3,0,0.5,0c1.5-0.1,3-0.3,4.5-0.4c0.9-0.1,1.9,0,2.8-0.1c2.5-0.1,5.1-0.2,7.6-0.3
			c0.1,0,0.2,0,0.3,0c2.1-0.2,4.3-0.3,6.4-0.5c0.3,0,0.6,0,0.9,0c1.9-0.2,3.7-0.3,5.6-0.5c0.5,0,1-0.1,1.5-0.1
			c2.6-0.1,5.2-0.2,7.8-0.3c1,0,2.1-0.1,3.1-0.1c1.9-0.1,3.7,0,5.6-0.2c2.3-0.2,4.6-0.1,6.9-0.1c0.6,0,1.2,0,1.7,0
			c0.9,0,1.8,0,2.7,0c0.7,0,1.4,0,2.1,0c0-0.1,0-0.2,0-0.2c-0.2,0-0.4-0.1-0.6-0.1c-2.1,0-4.1,0-6.2,0c-3.2,0.1-6.4,0.2-9.6,0.2
			c-1.4,0-2.7,0.1-4.1,0.1c-0.8,0-1.6,0-2.4,0.1c-1.5,0.1-2.9,0.2-4.4,0.2c-0.9,0-1.7,0-2.6,0c-1.7,0.1-3.4,0.4-5.1,0.5
			c-1.7,0.1-3.4,0.2-5.1,0.3c-1.6,0.1-3.2,0.3-4.8,0.4c-2,0.1-3.9,0.2-5.9,0.3c-0.9,0-1.7,0.1-2.6,0.1c-2.1,0.1-4.3,0.3-6.4,0.4
			c-1.9,0.1-3.9,0.2-5.8,0.3c-1.6,0.1-3.2,0.3-4.9,0.4c-2.4,0.1-4.7,0.1-7.1,0.4c-1.7,0.2-3.5,0-5.2,0.2c-1,0.1-2.2-0.6-3.2,0.4
			c0,0-0.1,0-0.2,0c-1.4,0.1-2.7,0.2-4.1,0.3c-0.5,0-1-0.3-1.6,0c-0.5,0.2-1.1,0-1.7,0c-0.2,0-0.4,0-0.6,0c-0.7,0.1-1.5,0.2-2.2,0.2
			c-0.1,0-0.2-0.1-0.4-0.2c0-0.1,0-0.1,0-0.2c1.3-0.1,2.6-0.3,3.8-0.4c0,0,0,0.1,0,0.1c0.3-0.2,0.7-0.3,1.1-0.5
			c-0.2-0.1-0.4-0.1-0.5-0.1c-1.3,0.2-2.6,0.5-3.9,0.7c-0.4,0.1-0.7,0.2-0.7-0.4c0-0.3-0.1-0.6-0.2-0.9c-0.6-2.1-1.1-4.3-1.7-6.4
			c-0.4-1.5-0.9-3-1.6-4.4c-0.8-1.8-1.7-3.4-2.5-5.1c-0.6-1.3-1.2-2.6-1.9-3.8c-0.7-1.3-1.6-2.4-2.5-3.6c-0.5-0.7-1-1.4-1.5-2
			c-0.1,0-0.1,0.1-0.2,0.1c0.1,0.2,0.2,0.5,0.4,0.7c0.8,1.2,1.8,2.3,2.5,3.6c1.7,3,3.4,6.1,4.9,9.2c0.9,1.9,1.6,3.9,2.2,5.9
			c0.7,2.3,1.2,4.7,1.7,7.1c0,0.1-0.1,0.4-0.2,0.4c-1.4,0.2-2.8,0.5-4.2,0.7c-0.6,0.1-1.3,0-1.9,0.2c-1.4,0.5-2.8,0.5-4.2,0.3
			c-0.4-0.1-0.8-0.1-0.5,0.4c-0.5,0.1-1,0.3-1.5,0.4c0,0.1,0,0.1,0,0.2c0.1,0,0.2,0,0.2,0c1.3-0.2,2.7-0.4,4-0.5
			c0.5-0.1,0.9-0.1,1.4-0.1c0.9-0.1,1.7-0.4,2.6-0.5c1.1-0.1,2.3-0.1,3.4-0.1c0.3,0,0.7,0,0.9,0c0.8,3.4,1,6.7,0.8,10
			c-3.4,0-6.7,0-10,0c0,0.1,0,0.2,0,0.3c12.8,0,25.6,0,38.4,0c-0.1-0.2-0.2-0.2-0.2-0.2c-1.3,0-2.6-0.1-4-0.1c-2.3,0-4.6,0.1-7,0.1
			c-2,0-4-0.1-6.1-0.1c-0.4,0-0.8,0.1-1.3,0.1c-1.1,0-2.2-0.1-3.3-0.1c-1.2,0-2.5,0-3.7,0c-0.6,0-1.2,0-1.7,0.1
			c-0.7,0.1-0.9,0-0.8-0.7c0.1-0.6,0.1-1.3,0.1-1.9c0-0.9-0.1-1.7-0.1-2.6c0-0.7-0.1-1.4-0.2-2c-0.2-0.9-0.4-1.9-0.6-2.8
			c0.1-0.1,0.1-0.1,0.2-0.2c0.4,0.2,1,0.3,1.1,0.6c0.2,0.7,0.1,1.4,0.1,2.3c0.3-0.1,0.7-0.1,1.3-0.2c-0.9-0.4-1-0.6-0.6-1.1
			c0.2,0.1,0.4,0.3,0.6,0.4c0.5,0.5,1.1,0.8,1.9,0.5c-0.7-0.5-1.4-0.9-2.1-1.4c-0.1,0.1-0.3,0.2-0.7,0.3c0.1-0.5,0.1-0.8,0.2-1.1
			c-0.2,0-0.5-0.1-0.8-0.1c0-0.1,0-0.2,0-0.3c3.5-0.4,7.1,0,10.5-0.6c0.1,0.9,0.4,1.8-0.3,2.5c0.4,0,0.8,0.1,1.3,0.1
			c0-0.1,0-0.1,0-0.2c-0.2-0.1-0.3-0.2-0.5-0.3c0.5-0.5-0.4-1.6,0.8-1.9C310.8,386.3,310.5,386.4,310.2,386.4z M283.7,388.4
			c0-0.1,0-0.2,0-0.3c-0.3,0-0.6,0-0.9,0c-1,0.2-2.1,0.4-3.1,0.6c-2.3,0.4-4.6,0.7-6.9,1c-1.2,0.2-2.5,0.3-3.7,0.5
			c-1.8,0.3-3.6,0.6-5.4,0.9c-1.3,0.2-2.6,0.3-3.9,0.5c-1.8,0.3-3.6,0.5-5.4,0.8c-1.6,0.2-3.2,0.5-4.8,0.8c-1.5,0.2-3,0.5-4.5,0.7
			c-1.3,0.2-2.7,0.4-4,0.6c-1.4,0.2-2.7,0.4-4.1,0.6c-1,0.1-2,0.3-2.9,0.4c-1.1,0.2-2.3,0.3-3.4,0.5c-0.9,0.2-1.9,0.4-2.8,0.5
			c-0.8,0.1-1.7,0.2-2.5,0.3c-0.1,0-0.3,0.1-0.4,0.3c0,0.1,0,0.3,0.1,0.4c0.1,0.1,0.3,0.1,0.4,0.1c0.5-0.1,1-0.3,1.6-0.3
			c1.1-0.1,2.1,0,3.2,0c2.7,0,5.4,0,8.1,0c2.3,0,4.7,0.1,7,0.1c0.7,0,1.4-0.1,2.2-0.1c1.5,0,3,0.1,4.5,0.1c1.3,0,2.6-0.1,4-0.1
			c1.4,0,2.8,0.1,4.2,0.1c2.1,0,4.3-0.1,6.4-0.1c1,0,1.9,0,2.9,0.1c0.6,0,1.1,0.1,1.7,0c0.9,0,1.9-0.1,2.8-0.1c1.9,0,3.9,0,5.8,0
			c0.4,0,0.8,0,1.2,0c0.9,0,1.9,0,2.8,0c1.5,0,3.1,0,4.6,0c0-0.1,0-0.2,0-0.3c-0.2,0-0.4-0.1-0.6-0.1c-2,0-4,0.1-6,0.1
			c-3,0-6.1,0.1-9.1,0.1c-0.8,0-1.7-0.1-2.5-0.1c-3.5,0-7,0-10.5,0c-1.3,0-2.6,0-3.9,0c-0.6,0-1.2,0.1-1.8,0.1
			c-1.8-0.1-3.5-0.2-5.3-0.2c-1.4,0-2.7,0.1-4.1,0.1c-1.4,0-2.8-0.1-4.2-0.1c-3.3,0-6.6,0-9.9,0c-0.6,0-1.2,0-1.8,0
			c-0.1,0-0.3,0-0.3-0.1C246.8,394,265.2,391.2,283.7,388.4z M353.8,410.9c0-0.1,0-0.1,0-0.2c0.1,0,0.3-0.1,0.4,0
			c1.1,0.1,2.1,0.2,3.2,0.2c2.2,0.1,4.5,0.3,6.7,0.4c1.7,0.1,3.3,0.2,5,0.3c0.1,0,0.2,0.1,0.2,0.1c0.9,0.1,1.8,0.2,2.7,0.2
			c0.6,0,1.3-0.2,1.9-0.1c0.7,0.1,1.3,0.4,2,0c0.2-0.1,0.6,0.1,0.9,0.1c1.5,0,3.1-0.1,4.6-0.1c1.1,0,2.2,0.1,3.4,0.1
			c0.3,0,0.6,0.2,0.9,0.3c0.2,0,0.4,0,0.6,0c0.2,0,0.3-0.3,0.4-0.2c0.8,0.2,1.7-0.2,2.4,0.4c0.1,0.1,0.5,0.1,0.6,0
			c0.9-0.6,1.8-0.3,2.7-0.2c0.7,0.1,1.3,0.1,2,0.1c0,0,0-0.1,0.1-0.1c-0.1-0.1-0.2-0.2-0.4-0.2c-0.6-0.1-1.2-0.1-1.8-0.1
			c-0.8,0-1.7,0.1-2.5-0.4c-0.1-0.1-0.4,0-0.6,0c-1,0.4-2,0.3-3-0.1c-0.2-0.1-0.4-0.1-0.6,0c-0.3,0-0.6,0.2-1,0.2
			c-1.6,0-3.3,0-4.9,0c-1.3,0-2.6,0-3.9-0.2c-0.6-0.1-1.2-0.2-1.7,0.2c-0.1,0-0.2,0-0.3,0c-1.1,0-2.2-0.1-3.3-0.1
			c-2-0.1-3.9-0.2-5.9-0.3c-0.6,0-1.3,0-1.9,0c-1.8-0.1-3.6-0.4-5.4-0.5c-1.4-0.1-2.9-0.1-4.3-0.1c-0.1,0-0.4,0-0.4,0
			c-0.2,0.6-0.5,0.1-0.7,0c-0.2-0.1-0.5-0.1-0.7-0.2c-0.3-0.1-0.6-0.3-0.9-0.3c-0.3,0-0.6,0-0.8,0c-0.2,0-0.4,0.2-0.6,0.1
			c-0.8-0.1-1.5-0.2-2.3-0.2c-0.6,0-1.1,0.1-1.7,0.1c-1.2,0-2.3-0.2-3.5-0.2c-1.4-0.1-2.8-0.1-4.2-0.1c-0.3,0-0.5-0.1-0.8-0.1
			c0.1,0.2,0.2,0.3,0.3,0.4c0.4,0.2,0.9,0,1.3,0c0.9,0,1.7,0.2,2.6,0.2c1.1,0.1,2.1,0.1,3.2,0.1c0.9,0,1.8,0,2.8,0
			c1.1,0.1,2.1,0.2,3.2,0.4c0.2,0,0.5,0,0.7-0.1c0.3-0.1,0.4-0.3,0.4,0.2c0,0.1,0.1,0.2,0.1,0.2c0.5,0.1,1.1,0.4,1.4,0.2
			c0.5-0.3,0.7-0.1,1.1,0.1c0.6,0.3,1.5,0.3,2,0C354.9,411.1,354.4,411,353.8,410.9z M327.4,396.9c0,0,0,0.1,0,0.1
			c0.2,0.1,0.3,0.2,0.5,0.2c0.9,0,1.9-0.1,2.8-0.1c1.3,0,2.5,0.1,3.8,0.1c1.2,0,2.5-0.1,3.7-0.1c0.4,0,0.7,0.1,1.1,0.1
			c1.1,0,2.2,0,3.3,0c1.2,0,2.5,0,3.7,0c0.8,0,1.5,0,2.3,0c1.7,0,3.5,0,5.2,0c1.2,0,2.3-0.1,3.5-0.1c1.7,0,3.4,0.2,5.1,0.2
			c0.7,0,1.4-0.1,2.1-0.1c1,0,2,0,3,0c1.1,0,2.2,0.1,3.2,0.1c0.9,0,1.9-0.1,2.8-0.1c1.8,0,3.5,0.1,5.3,0.1c0.9,0,1.9-0.1,2.8-0.1
			c1,0,2.1,0,3.1,0c3.5,0,7-0.1,10.5-0.1c0.1,0,0.3,0,0.4-0.1c-0.1-0.1-0.2-0.2-0.3-0.2c-2,0-3.9,0-5.9,0c-3.1,0-6.1,0.2-9.2,0.2
			c-1.5,0-3-0.1-4.6-0.1c-1.6,0-3.1,0.1-4.7,0.1c-2.3,0-4.6-0.1-6.8-0.1c-1.2,0-2.4,0.1-3.6,0.1c-0.7,0-1.4,0-2.1,0
			c-1.9,0-3.8-0.1-5.7-0.1c-2.9,0-5.8,0.1-8.7,0.1c-0.8,0-1.5-0.1-2.3-0.1c-2.5,0-5,0-7.5,0c-2.1,0-4.2,0-6.4,0
			C327.9,396.8,327.6,396.9,327.4,396.9z M367.7,420.3c-0.2,0.5,0.1,0.5,0.5,0.6c0.5,0.1,1,0.2,1.5,0.3c0.3,0.1,0.5,0.2,0.9,0.4
			c0.1,0.2,1.4,0.8,1.9,0.7c0.2,0,0.6-0.1,0.7,0.1c0.4,0.5,1.1,0.5,1.7,0.7c0.1,0,0.2,0.2,0.3,0.2c0.5,0.3,0.9,0.8,1.6,0.5
			c0.1,0,0.2,0,0.4,0.1c0.5,0.1,0.9,0.2,1.4,0.3c0,0,0-0.1,0-0.1c-0.2-0.1-0.5-0.2-0.7-0.3c0,0,0-0.1,0-0.1c0.5,0.1,1,0.3,1.6,0.4
			c0.1-0.6-1-0.1-0.7-0.8c-0.8-0.2-1.3-1.3-2.2-1c0.5,0.4,1.1,0.7,1.8,1.1c-0.7,0.4-1.3,0-1.8-0.3c0.1,0.3,0.1,0.5,0.1,0.7
			c-0.9-0.5-1.6-1.2-2.7-1.1c-0.1,0-0.3-0.2-0.4-0.3c-0.1-0.1,0-0.3-0.1-0.3c-0.5-0.2-1-0.3-1.5-0.4c-0.3-0.1-0.5-0.1-0.8-0.2
			c-0.4-0.2-0.8-0.6-1.2-0.8c-0.6-0.2-1.2-0.2-1.8-0.2c0-0.1,0-0.3,0.1-0.4c0.7,0.1,1.3,0.2,2,0.3c0.4,0.3,0.8,0.7,1.2,0.8
			c0.5,0.1,1.1,0.4,1.5-0.4c-0.4,0-0.8-0.1-1.2-0.1c0,0.1,0.1,0.2,0.2,0.4c-0.2-0.1-0.4-0.2-0.5-0.3c-0.4-0.3-0.8-0.7-1.3-0.9
			c-0.6-0.2-1.3-0.3-1.9-0.3c-0.2,0-0.3,0.3-0.5,0.5c0,0,0.1,0.1,0.1,0.1c-0.2,0-0.4,0-0.7,0.1C367.3,420.1,367.5,420.2,367.7,420.3
			z M293.2,432.4c0-0.1,0.1-0.1,0.1-0.2c-0.7,0.2-0.8-0.1-0.7-0.6c0-0.5,0-1.1,0-1.6c0-0.5-0.2-0.7-0.7-0.6c-0.2,0-0.4,0.1-0.6,0.2
			c0.2,0.1,0.3,0.1,0.4,0.1c0.3-0.1,0.3,0,0.3,0.3c0,0.7-0.4,0.8-1,0.7c-0.2,0-0.5,0-0.7-0.1c0.1-0.3,0.1-0.6,0.2-0.9
			c0-0.1,0.1-0.1,0.2-0.2c-0.5-0.1-0.8-0.1-1.2-0.1c0.5-0.8,1-1.6,1.5-2.3c-0.1,0-0.1-0.1-0.2-0.1c-0.1,0.1-0.2,0.2-0.3,0.4
			c-0.4,0.6-0.9,1.2-1.3,1.8c-0.9,1.2-1.7,2.4-2.6,3.6c-0.1,0.1,0,0.2,0,0.3c0.9-1.1,1.7-2.1,2.4-3.2c0.2-0.3,0.7-0.4,0.7-0.1
			c0.1,0.5,0.1,0.9,0,1.4c0,0.4-0.2,0.8-0.3,1.2c0.3,0,0.8,0,1.2,0c-0.1-0.4-0.3-0.8-0.3-1.1c0-0.1,0.2-0.3,0.4-0.3
			c0.3-0.1,0.7,0,1-0.1c0.4-0.1,0.5,0.1,0.4,0.4c-0.1,0.4-0.3,0.8-0.5,1.1C292.1,432.4,292.6,432.4,293.2,432.4z M367.9,414.4
			c0,0.1,0,0.1,0,0.2c-1.2-0.2-2.4-0.4-3.6-0.6c0.4,0.2,0.8,0.3,1.3,0.5c1,0.3,2.1,0.6,3.1,1c0.1,0,0.2,0,0.3,0
			c0.5-0.2,0.8,0.1,1.2,0.3c0.3,0.1,0.5,0.1,0.8,0.2c0.3,0.1,0.5,0.2,0.7,0.3c0.2,0.1,0.5,0.2,0.7,0.3c0.4,0.1,0.7,0.1,1.1,0.2
			c0.4,0.1,0.8,0.3,1.2,0.4c0.1,0,0.2-0.1,0.4-0.3c-1.1-0.4-2.1-0.7-3.1-1c-0.2-0.1-0.3-0.2-0.5-0.2c0,0,0.1-0.1,0.1-0.1
			c0.8,0,1.6,0,2.4,0c0-0.1,0-0.1,0-0.2c-0.7-0.1-1.5-0.4-2.1-0.2c-0.7,0.2-1.2-0.2-1.9-0.2c-0.2,0-0.4-0.3-0.6-0.4
			c0-0.1,0.1-0.1,0.1-0.2c0.7,0.2,1.4,0.5,2,0.7c-1.1-0.8-3.4-1.1-4-0.7C367.7,414.3,367.8,414.3,367.9,414.4z M348.2,413.9
			c0,0.1,0,0.2-0.1,0.2c2.2,0.3,4.1,1.3,6.2,2c0-0.1,0-0.1,0.1-0.2c-0.2-0.1-0.4-0.2-0.6-0.3c0-0.1,0.1-0.1,0.1-0.2
			c0.2,0.1,0.6,0.2,0.7,0.4c0.3,0.7,0.9,0.7,1.5,0.8c0.2,0.1,0.4-0.1,0.7-0.1c0-0.1,0-0.2,0-0.2c-0.2,0-0.3-0.1-0.5-0.1
			c0-0.1,0-0.1,0-0.2c0.2,0,0.4,0,0.8,0c-1.2-1.2-2.7-1.2-4.1-1.7c-0.2,0.6,0.3,0.5,0.6,0.7c0.1,0.1,0.2,0.2,0.3,0.3
			c-0.1,0-0.3,0-0.4,0c-0.5-0.2-0.9-0.4-1.4-0.7c0.3-0.1,0.5-0.3,0.9-0.5c-0.5-0.1-0.9-0.1-1.3-0.2c0,0.2,0,0.4,0,0.5
			C350.4,414.3,349.3,414.1,348.2,413.9z M358.4,411.7c0.1,0.1,0.2,0.2,0.3,0.2c0.5-0.2,0.7,0.1,1.1,0.3c0.4,0.3,0.8,1,1.5,0.5
			c0,0.7,0.8,1.4,1.4,1.1c0.5-0.2,0.8-0.1,0.9,0.2c0.4-0.1,0.7-0.2,1-0.2c0.7,0.1,1.3,0.3,2,0c0.5-0.2,1-0.1,1.6-0.1
			c0-0.1,0-0.2,0-0.2c-0.6,0-1.1,0-1.7,0.1c-0.4,0-0.7-0.2-1.1,0.2c-0.2,0.2-0.7,0-1.1-0.1c-0.2-0.1-0.3-0.3-0.5-0.5
			c0-0.1,0.1-0.1,0.1-0.2c-0.4,0-0.7,0-1.1,0c0.1-0.2,0.2-0.3,0.3-0.4c-1.4-0.6-2-0.6-2.2-0.3C360.1,412.1,359.5,411.4,358.4,411.7z
			 M349.7,409.1c0.1-0.3,0.2-0.8,0.4-0.8c0.4-0.1,0.7,0.1,0.8,0.6c0,0.1,0.1,0.2,0.1,0.2c0.3,0.4,0.9,0.4,1.3,0
			c-0.9,0.2-0.8-0.8-1.3-1.1c0.6-0.7,0.5-1.2-0.4-1.4c-0.5-0.1-1-0.1-1.5-0.1c0.5,1.3,0.3,2.3-0.4,2.9c0.6,0,1.2,0,1.8,0
			c0-0.1,0-0.1,0-0.2C350.3,409.2,350.1,409.1,349.7,409.1z M220.4,397.7c0,0.1,0,0.1,0,0.2c0.8,0.2,1.5,0.3,2.3,0
			c0.8-0.3,0.9-0.9,0.4-1.4c0-0.5,0-0.8-0.1-1.1c-0.1-0.2-0.5-0.3-0.7-0.4c-0.5-0.1-1,0-1.5,0c0.4,0.6,0.4,0.6,0.1,2.5
			C220.7,397.6,220.5,397.6,220.4,397.7z M242.8,400c1.3,0.3,1.5,1.1,0.8,2c0.4,0.1,0.7,0.1,1.1,0.2c-0.6-0.3-0.5-0.8-0.4-1.5
			c0.3,0.5,0.5,0.8,0.7,1.1c0.2,0.5,0.5,0.4,0.7,0c0.2-0.3,0.4-0.7,0.5-1c0.1,0,0.1,0,0.2,0c0,0.5-0.1,0.9-0.1,1.4
			c0.4,0,0.7-0.1,1.1-0.1c0,0,0-0.1,0-0.1c-0.2,0-0.3-0.1-0.5-0.1c0-0.6,0-1.2,0-1.8c0.2,0,0.4,0,0.6-0.1c-0.3-0.4-1-0.4-1.2,0
			c-0.2,0.5-0.4,1-0.7,1.5C244.7,401.1,244.5,399.3,242.8,400z M289.6,366.9c0,0.5,0,0.9-0.1,1.3c-0.3,0-0.7-0.1-1-0.1
			c0,0-0.1,0-0.1,0c-0.2-0.3-0.7-0.7-0.7-1.1c0-0.5,0.2-1.1,0.9-1.2c0.6-0.1,1,0.1,1.3,0.6c0.1-0.2,0.2-0.5,0.1-0.6
			c-0.1-0.1-0.3-0.2-0.5-0.3c-0.3,0-0.6,0-0.9,0c-0.9,0.1-1.5,0.9-1.4,1.7c0.2,1.3,1.4,1.5,2.4,1.3c0.4-0.1,0.7-0.3,0.6-0.8
			c0-0.3,0.1-0.5,0.2-0.8C290.2,366.9,289.8,366.9,289.6,366.9z M363,417.8c-1.3,0.5-2.5-0.1-3.7-0.5c0.8,0.4,1.5,1.5,2.6,1
			c0.1,0.6,0.8,0.8,2.2,0.5c-0.6-0.5-1.4,0-2-0.7c1.2,0,2.3,0,3.3,0c0-0.1,0-0.1,0-0.2c-0.4,0-0.9-0.1-1.3-0.1c-0.3,0-0.7,0-0.8-0.1
			c-0.3-0.7-1.1-0.5-1.6-0.8c-0.1-0.1-0.3,0.1-0.5,0.1c0,0.1,0,0.1,0,0.2C361.9,417.4,362.5,417.6,363,417.8z M382.7,418.5
			c0.5,0.1,1.2,0.3,1.8,0.4c0.3,0.1,0.6,0.1,0.8,0.1c0.3-0.1,1.2,0.1,1.3,0.4c0.2,0.5,0.9,0.8,1.7,0.5c-0.4-0.1-0.7-0.1-0.9-0.2
			c-0.1,0-0.3-0.1-0.4-0.2c-0.2-0.2-0.3-0.4-0.5-0.6c-0.7-0.5-1.6-0.6-2.4-0.5c-0.4,0-0.8-0.1-1.2-0.2c0-0.1,0-0.1,0-0.2
			c0.4,0,0.7,0,1.1,0c0-0.1,0-0.1,0-0.2c-1.3,0.1-2.3-1-3.6-0.5c0.2,0.1,0.4,0.2,0.6,0.2c0.6-0.1,1,0.4,1.6,0.5
			C382.6,418.1,382.6,418.3,382.7,418.5z M391.3,428.4c1.1,0.4,2.3,0.7,3.4,1.1c0-0.1,0.1-0.1,0.1-0.2c-0.2-0.2-0.4-0.5-0.7-0.6
			c-1-0.3-2.1-0.5-3.1-0.7c-0.1,0-0.2,0-0.2,0c-0.4,0.6-0.8,0.1-1.3,0.1c-0.6-0.1-1.1-0.9-1.8-0.4c0.5,0.4,1,0.8,1.5,1.2
			c0-0.1,0.1-0.3,0.2-0.5c0.6,0.1,1.2,0.2,1.8,0.3C391.3,428.6,391.3,428.5,391.3,428.4z M324.5,413.1c0-0.1,0-0.1,0-0.2
			c-1.4-0.5-2.8-0.3-4.3-0.4c0.2,0.2,0.4,0.4,0.7,0.5c0.6,0.3,1.3,0.5,1.9,0.7c0.1,0,0.2,0.1,0.3,0.1c0.5,0,1-0.1,1.5-0.1
			c0.1,0,0.2,0,0.4,0c-0.1-0.1-0.3-0.4-0.4-0.3c-0.2,0-0.4,0.2-0.7,0.3c-0.6-0.2-1.2-0.4-1.8-0.6c0,0,0,0,0-0.1
			C322.8,413.1,323.6,413.1,324.5,413.1z M283.4,383.4c0.2,0.2,0.5,0.4,0.5,0.6c0.1,0.5,0.1,0.9,0.1,1.4c0.1,0.7-0.6,0.6-1,0.8
			c0.9,0.1,1.8,0.1,2.7,0.1c0.7,0,0.9-0.4,0.5-1.1c-0.7,1-0.7,1-1.9,0.8c0.1-0.8-0.4-1.8,0.6-2.5
			C284.4,383.4,283.9,383.4,283.4,383.4z M305.3,382.3c0,0,0.1-0.2,0.1-0.4c0-0.1-0.2-0.4-0.3-0.3c-0.7,0-1.4,0.1-2.2,0.1
			c0.7,0.3,0.4,0.9,0.5,1.3c0,0.5-0.1,1-0.1,1.5c0.2,0,0.5,0,0.9,0c-0.4-0.5-0.5-1-0.1-1.5c0.2,0.2,0.4,0.3,0.7,0.5
			c0-0.4,0.1-0.6,0.1-0.9c-0.3,0.2-0.6,0.3-0.9,0.4c-0.1,0-0.1-0.1-0.2-0.1c0.1-0.3,0.2-0.9,0.3-0.9
			C304.5,382,304.8,382.2,305.3,382.3z M375.7,408.5c0-0.2,0-0.5-0.1-0.6c-0.2-0.2-0.5-0.3-0.8-0.3c-0.4-0.1-0.9,0.4-1,0.8
			c-0.1,0.4,0.1,0.7,0.6,0.8c0.2,0,0.4,0,0.5,0.1c0.2,0.2,0.3,0.5,0.4,0.7c-0.2,0.1-0.4,0.3-0.6,0.3c-0.3,0-0.5-0.3-0.9-0.5
			c0,0.3,0,0.5,0.1,0.7c0.3,0.3,1.1,0.3,1.4,0c0.3-0.3,0.6-0.8,0.1-1.2c-0.3-0.3-0.6-0.4-0.9-0.6c-0.2-0.1-0.3-0.3-0.4-0.5
			c0.2-0.1,0.4-0.3,0.5-0.2C375.1,408,375.4,408.2,375.7,408.5z M301,406.4c-0.1-0.3-0.2-0.6-0.4-1.1c0.3,0,0.5,0,0.7-0.1
			c0.3-0.2,0.9-0.5,0.9-0.9c0-0.4-0.5-0.7-1-0.7c-0.5,0.1-0.9,0.2-1.4,0.3c0.7,0.6,0.6,2-0.2,2.5C300.2,406.5,300.7,406.5,301,406.4
			z M389.8,411.1c0.1,0,0.1-0.1,0.2-0.1c0.3-0.7,0.6-1.4,1-2.1c0.1-0.2,0.4-0.3,0.6-0.5c0.1-0.1,0.2-0.1,0.4-0.2c-0.7,0-1.2,0-1.7,0
			c0,0,0,0.1,0,0.1c0.2,0,0.3,0.1,0.5,0.1c-0.3,0.6-0.5,1.2-0.8,1.8c-0.7-0.9-0.8-1.4-0.7-1.9c-0.4,0-0.8,0-1.4,0
			C389.1,408.9,389.1,410.2,389.8,411.1z M385.7,408.3c0.4,0.8,0.3,2.2-0.1,2.5c0.7,0.3,1.2,0.2,1.4-0.1c-0.4,0.1-0.7,0.1-0.6-0.4
			c0.1-0.5,0-1.1,0-1.7c0.1,0,0.2-0.1,0.3-0.1c0.2,0.2,0.5,0.4,0.8,0.7c0-0.2,0.1-0.5,0.1-0.8c0-0.1-0.2-0.2-0.3-0.2
			c-0.9,0-1.8,0.1-2.7,0.1c0,0.3,0.1,0.6,0.1,0.9C385,408.9,385.3,408.6,385.7,408.3z M363.6,426.7c-0.2,0.5-0.5,0.2-0.8,0.1
			c-0.2-0.1-0.4-0.1-0.5-0.1c-0.3,0-0.5,0.1-0.9,0.1c0,0.6,0.7,0.6,1.1,0.8c0.4,0.2,0.9,0.1,1.4,0.1c0-0.1,0-0.1,0-0.2
			c-0.3-0.1-0.6-0.2-0.9-0.3c0-0.1,0-0.1,0-0.2c0.3,0,0.7,0,1,0c0.4,0,0.8,0.1,1.1,0.2c0-0.1,0-0.1,0-0.2c-0.3-0.1-0.7-0.1-0.9-0.3
			c-0.9-0.8-0.9-0.8-2.2-0.6C362.7,426.4,363.1,426.6,363.6,426.7z M341.6,425.6c0,0.1-0.1,0.1-0.1,0.2c0.3,0.1,0.7,0.4,0.9,0.3
			c0.9-0.2,1.5,0.4,2.2,0.8c0.5,0.3,1,0.6,1.6,0.5c0.3,0,0.5,0.1,0.7,0.4c0.3,0.3,0.8,0.4,1.3,0.6c0-0.1,0.1-0.2,0.1-0.3
			c-0.8-0.3-1.6-0.7-2.3-1c-0.2-0.1-0.6-0.2-0.7-0.4c-0.2-0.3-0.3-0.4-0.6-0.3c-0.4,0.1-0.8,0.1-0.8-0.4c0-0.1-0.2-0.1-0.3-0.2
			C342.9,425.8,342.3,425.7,341.6,425.6z M347.2,413.8c0,0,0.1,0,0.1-0.1c0-0.1-0.1-0.3-0.1-0.4c0.2,0,0.4-0.1,0.5,0
			c0.2,0,0.3,0.1,0.4,0.2c-0.1-0.4,0.4-0.2,0.6-0.5c-0.7-0.7-1.4,0-2-0.1c-0.3-0.8-1-1-2-0.5c0.3,0.2,0.6,0.3,0.9,0.5
			c-0.2,0.1-0.3,0.1-0.4,0.2c0.5,0.2,0.8,0.3,1.2,0.5c0.1-0.2,0.1-0.4,0.2-0.6C347,413.4,347.1,413.6,347.2,413.8z M325.9,419.6
			c0,0.1,0,0.1,0,0.2c0.3,0.1,0.5,0.1,0.8,0.2c0.4,0.1,1,0,1.3,0.3c0.4,0.5,0.9,0.4,1.4,0.5c0.5,0.1,1.2,0.3,1.3,0.5
			c0.1,0.6,0.5,0.4,0.8,0.6c-0.1-0.3-0.2-0.6-0.4-0.8c-1-0.5-2.1-0.9-3.2-1.4c-0.1,0-0.2,0-0.3,0c-0.5,0.3-0.8,0-1.1-0.3
			c-0.1-0.1-0.3-0.2-0.5-0.4c0,0-0.1,0.1-0.1,0.1c0.2,0.1,0.3,0.3,0.5,0.5C326.2,419.6,326,419.6,325.9,419.6z M376.5,416.9
			c0.6,0.5,1.5,0.5,1.7,1.3c0,0,0.1,0.1,0.2,0.1c0.6,0.1,1.4-0.2,1.8,0.6c0.1,0.1,0.3,0.1,0.5,0.2c0.7,0.1,1.4,0,1.9,0.6
			c0.1,0.1,0.3,0,0.4,0c0-0.1,0-0.1,0.1-0.2c-0.5-0.1-0.7-0.7-1.4-0.6c-0.5,0-1.1-0.4-1.6-0.6c-0.7-0.3-1.5-0.5-2.2-0.7
			c0,0,0-0.1,0-0.1c0.1,0,0.3-0.1,0.5-0.1C377.7,417.1,377.1,417,376.5,416.9z M273.7,412.8c-0.6,0.3-1.2-0.6-1.8,0.1
			c0.9,0.4,1.9,0.4,2.7,1c0,0.1,0,0.1-0.1,0.2c-0.3-0.1-0.5-0.2-0.8-0.3c0,0,0,0.1,0,0.1c0.4,0.2,0.8,0.4,1.2,0.6
			c0-0.1,0.1-0.2,0.1-0.4c0.3,0.1,0.6,0.3,0.9,0.4c0-0.1,0.1-0.1,0.1-0.2c-0.4-0.2-0.8-0.4-1.2-0.6c0-0.1,0.1-0.1,0.1-0.2
			c0.7,0.3,1.5,0.4,1.7,1.4c0.2-0.5,0.1-0.9-0.4-1c-0.4-0.2-0.9-0.3-1.3-0.5C274.6,413.3,273.8,413.6,273.7,412.8z M356.5,425.2
			c0,0,0,0.1,0,0.1c0.2,0.1,0.5,0.3,0.7,0.3c0.5,0.1,0.9,0.7,1.6,0.4c0.2-0.1,0.7,0.1,0.8,0.3c0.2,0.5,0.7,0.5,1,0.7
			c0.4,0.3,0.7,0.1,0.6-0.4c0-0.2-0.3-0.4-0.4-0.6c-0.1,0-0.1,0.1-0.2,0.1c0.1,0.2,0.1,0.4,0.3,0.7c-0.5-0.4-0.8-0.7-1.1-1
			c-0.1-0.1-0.1-0.2-0.1-0.2c-0.7,0.4-1.1-0.3-1.7-0.5c-0.2-0.1-0.3-0.2-0.4-0.4c-0.1-0.1-0.1-0.1-0.2-0.2c-0.1,0.1-0.1,0.1-0.2,0.2
			c0,0.1,0,0.3-0.1,0.4C356.8,425.3,356.6,425.3,356.5,425.2z M367.3,419.7c0,0,0-0.1,0-0.1c-0.4-0.1-0.8-0.3-1.2-0.4
			c0-0.1,0-0.1,0-0.2c0.4,0,0.8-0.1,1.2-0.1c0-0.1,0-0.1,0-0.2c-0.9,0-1.9,0-2.7,0c0.1,0.1,0.3,0.3,0.4,0.5c0.1,0.2,0.2,0.5,0.3,0.5
			c0.3,0.2,0.7,0.3,1.1,0.4c0.1,0,0.2-0.1,0.3-0.2c0-0.1,0-0.1-0.1-0.2C366.9,419.7,367.1,419.7,367.3,419.7z M393.5,380.6
			c0.3,0,0.7,0,1.1,0c-0.1-0.2-0.2-0.5-0.3-0.7c0.8-0.3,1-0.1,0.9,0.8c0.4,0,0.9,0.1,1.3,0.1c0,0,0-0.1,0.1-0.1
			c-1.3-0.2-1-1.6-1.8-2.3c-0.2,0.4-0.3,0.8-0.6,1.2C394.1,379.9,393.8,380.2,393.5,380.6z M322,422.8c0.2,0.1,0.4,0.2,0.6,0.3
			c0,0,0,0.1,0,0.1c-0.1,0-0.3,0-0.5,0.1c0,0,0,0.1,0,0.1c0.4,0.1,0.8,0.3,1.2,0.4c0.3-0.8,0.9,0.1,1.4-0.2c-1.8-0.7-3.5-1.3-5.2-2
			c0,0.1-0.1,0.1-0.1,0.2c0.7,0.3,1.5,0.7,2.2,1c0,0,0,0-0.1,0.1c-0.4-0.1-0.7-0.1-1.1-0.2c0,0,0,0.1,0,0.1c0.4,0.1,0.8,0.2,1.2,0.4
			C321.7,423.1,321.8,422.9,322,422.8z M377.8,432.1c0-0.1,0-0.2,0.1-0.2c-0.8-0.3-1.6-0.5-2.3-0.8c-0.3-0.1-0.6-0.5-0.9-0.7
			c-0.9-0.3-1.8-0.6-2.8-0.2c0.1,0.1,0.1,0.1,0.2,0.1c0.1,0,0.2,0,0.3,0c0.7-0.2,1.4,0.1,2,0.4c0.8,0.4,1.5,0.9,2.3,1
			C377,431.8,377.4,432,377.8,432.1z M342.1,424.2c-0.6-0.3-1.1-0.6-1.5-0.9c0.1,0.6,0.9,0.5,0.9,1.2c-0.9,0-1.4-0.8-2-1.1
			c-0.6-0.4-1.4-0.6-2.1-0.8c0.7,0.6,1.6,0.9,2.3,1.4c0.8,0.6,1.8,0.8,2.6,1.3c0-0.1,0.1-0.1,0.1-0.2c-0.2-0.2-0.5-0.4-0.7-0.7
			C341.8,424.3,341.9,424.3,342.1,424.2z M356.1,411.8C356.1,411.8,356.1,411.8,356.1,411.8c1.5,0.6,3,1.1,4.5,1.5
			c0-0.1,0.1-0.2,0.1-0.2c-0.4-0.2-0.7-0.3-1.1-0.5c-0.3-0.1-0.4-1-0.8-0.3c-0.4-0.2-0.8-0.3-1.2-0.5c-0.3-0.2-0.5-0.4-0.8-0.7
			c0,0-0.1,0.1-0.1,0.1c0,0.1,0,0.2,0.1,0.4C356.5,411.7,356.3,411.7,356.1,411.8z M388.4,420.9c-0.4-0.7-0.8-0.2-1.2-0.3
			c-0.2,0-0.4,0-0.6,0c0,0,0-0.1,0-0.1c0.1-0.1,0.3-0.2,0.5-0.3c-0.6-0.2-1.1-0.3-1.6-0.5c-0.2,0.3-0.5,0.5-1,0.1
			c-0.1-0.1-0.4,0-0.6,0c0.7,0.4,1.3,0.9,2.2,0.5C386.4,421.1,386.4,421.1,388.4,420.9z M393.7,395.8c0.6,0,1,0,1.5,0
			c0.7,0,0.8-0.1,0.6-0.9c-0.3,0.7-0.8,0.7-1.3,0.5c0-0.4,0-0.7,0-1.1c0-0.2,0.1-0.4,0.2-0.6c0.2,0.1,0.4,0.1,0.7,0.2
			c0.1,0,0.1,0.2,0.3,0.4c0-0.4,0-0.6,0-0.8c-0.7,0-1.3-0.1-1.9-0.1C394.1,394,394.2,395,393.7,395.8z M321.5,417.8
			c0-0.1,0.1-0.1,0.1-0.2c-0.8-0.3-1.7-0.5-2.5-0.8c0-0.1,0-0.1,0.1-0.2c0.2,0,0.5,0.1,0.7,0.1c0-0.1,0-0.1,0-0.2
			c-0.9-0.1-1.8-0.2-2.8-0.3c0.4,0.4,0.7,0.9,1.4,0.6c0,0,0.1,0,0.2,0c0.2,0.2,0.4,0.4,0.6,0.5C320,417.5,320.7,417.6,321.5,417.8z
			 M374.3,415.4c0.3,0.1,0.7,0.1,0.9,0.3c0.8,0.6,1.6,0.7,2.6,0.7c0.1,0,0.3,0.2,0.6,0.4c0.3,0,0.9,0,1.6,0
			c-0.9-0.3-1.6-0.5-2.3-0.7c-0.4-0.1-0.7-0.1-1.1-0.2c-0.3-0.1-0.7-0.1-1-0.3C375.2,415.4,374.8,415.1,374.3,415.4z M361.6,426
			c0-0.1,0-0.1,0.1-0.2c-0.6-0.2-1.3-0.5-1.9-0.7c-0.3-0.1-0.5-0.2-0.8-0.3c-0.1,0-0.3,0-0.4,0c0.1-0.2,0.2-0.3,0.3-0.5
			c-0.5-0.1-1-0.2-1.6-0.3C358.4,425.4,360.1,425.4,361.6,426z M389.1,427.2c-2.3-1.7-2.5-1.8-3.2-1.4c0.8,0.3,1.5,0.6,2.2,0.9
			c0,0.1-0.1,0.2-0.1,0.2c-0.2-0.1-0.4-0.1-0.5-0.1c-0.2,0-0.3,0-0.5,0c0,0,0,0.2,0,0.2c0.1,0.1,0.3,0.2,0.4,0.2
			C388,427.1,388.5,427.1,389.1,427.2z M269.6,411.6c0-0.1,0.1-0.2,0.1-0.3c-0.9-0.4-1.7-0.7-2.6-1.1c-0.3,0.8-0.7,0.4-1.1,0.3
			c-0.2,0-0.3,0-0.5,0c0,0.1,0,0.2,0,0.3c0.5,0.1,1,0.3,1.4,0.1c0.6-0.3,1-0.1,1.4,0.1C268.8,411.2,269.2,411.4,269.6,411.6z
			 M327.5,418.7c-0.4-0.7-1.7-0.9-2.2-0.3c0.9,0.1,1.5,1.2,2.4,1.1c-0.3-0.3-0.7-0.6-1.1-1C327,418.6,327.2,418.6,327.5,418.7z
			 M335.9,417.6c0,0.1-0.1,0.4,0,0.4c0.1,0.1,0.4,0.2,0.5,0.1c0.5-0.2,0.8,0,1.2,0.3c0.1,0.1,0.2,0.1,0.3,0.1c0.5,0,1.1,0,1.6-0.1
			c0,0,0,0,0-0.1C338.3,418.1,337.1,417.8,335.9,417.6z M306.9,418c0.3,0.6,0.8,0.8,1.3,0.9c0.7,0.2,1.4,0.4,2.1,0.6
			c0.3,0.1,0.6,0.2,0.9,0.4c0-0.1,0.1-0.2,0.1-0.2C309.9,419.1,308.5,418.6,306.9,418z M378,424.3c1.1,0.4,2.3,0.8,3.5,1.3
			c0,0,0.1-0.1,0.1-0.1c-0.6-0.4-1.2-0.9-1.9-1.1C379.1,424.2,378.5,424.3,378,424.3z M360.5,416.7c0,0,0-0.1,0.1-0.1
			c-0.4-0.2-0.8-0.5-1.2-0.5c-0.5,0-0.8-0.1-1.2-0.3c-0.3-0.2-0.7-0.3-1.1-0.4c0.6,0.5,1.1,1.1,1.9,1c0.1,0,0.3,0.2,0.4,0.3
			c0.1,0.1,0.3,0.2,0.4,0.4c0,0,0.1-0.1,0.1-0.1c-0.1-0.1-0.1-0.3-0.2-0.4C360,416.6,360.2,416.7,360.5,416.7z M379.3,432.7
			c0,0.1-0.1,0.1-0.1,0.2c0.3,0.6,2.3,1.5,2.9,1.2C381.1,433.6,380.2,433.1,379.3,432.7z M329,425.5c0-0.1,0-0.1,0.1-0.2
			c-0.8-0.2-1.6-0.5-2.4-0.7c-0.2-0.1-0.7,0.2-0.8,0.1c-0.5-0.6-1.3-0.2-1.8-0.6c0,0.1,0,0.2-0.1,0.2
			C325.6,424.7,327.3,425.1,329,425.5z M388.6,420.2c1.2,0.2,2.3,0.6,3.5,0.3c-0.6-0.3-1-0.5-1.5-0.7c0,0-0.1,0.1-0.1,0.1
			c0.1,0.1,0.3,0.2,0.4,0.4c-0.7,0.1-1.2-0.1-1.6-0.7C389,419.8,388.8,420,388.6,420.2z M314.9,420.5c0-0.1,0-0.1,0.1-0.2
			c0.9,0.2,1.7,0.4,2.6,0.7c0,0,0-0.1,0-0.1c-0.8-0.3-1.7-0.7-2.6-1c-0.2,0.3-0.4,0.7-0.6,1.1c0.4-0.1,0.7-0.2,1-0.2
			C315.2,420.7,315.1,420.6,314.9,420.5z M315.7,421c0,0.1-0.1,0.1-0.1,0.2c0.8,0.4,1.7,0.8,2.5,1.2c0,0,0,0,0.1-0.1
			c-0.3-0.2-0.6-0.3-0.9-0.5c0-0.1,0-0.1,0.1-0.2c0.4,0.1,0.7,0.1,1.1,0.2c0-0.1,0-0.1,0-0.2C317.6,421.4,316.7,421.2,315.7,421z
			 M329.9,426.3c0-0.1,0-0.1-0.1-0.2c-0.2,0-0.3,0-0.5,0c-0.5,0-0.9,0.1-1.4-0.1c-0.4-0.2-0.9-0.2-1.4-0.3c0,0.1,0,0.1-0.1,0.2
			c0.7,0.2,1.5,0.4,2.2,0.6c0.2,0.1,0.5,0.1,0.7,0.1C329.6,426.6,329.8,426.4,329.9,426.3z M395.5,409.5c-0.1,0-0.1-0.1-0.2-0.1
			c-0.2,0.3-0.5,0.7-0.5,1c0,0.4,0.3,0.8,0.6,1c0.4,0.3,0.9,0.1,1.3-0.2C395.3,411.3,395,410.8,395.5,409.5z M382.2,418.5
			c0-0.1,0-0.1,0.1-0.2c-0.2-0.1-0.5-0.2-0.7-0.3c-0.5-0.2-1-0.3-1.4-0.5c-0.5-0.3-0.9-0.6-1.5-0.1
			C379.8,417.8,381,418.1,382.2,418.5z M342,419.6c0,0,0.1-0.1,0.1-0.1c-0.5-0.2-0.9-0.3-1.4-0.5c-0.4-0.1-0.9-0.2-1.4-0.3
			c0,0.1,0,0.2-0.1,0.3c0.6,0.2,1.2,0.4,1.8,0.6c0,0,0,0,0-0.1C341.3,419.6,341.6,419.6,342,419.6z M388.9,426.6
			c1,0.8,2,1.5,3.4,1.4C391.1,427.4,390,427,388.9,426.6z M354.4,430.7c-0.6-0.7-2.1-1.1-2.8-0.7
			C352.5,430.2,353.4,430.4,354.4,430.7z M350.6,428.6c0.1,0.1,0.2,0.2,0.3,0.3c0.4,0.1,0.9,0.2,1.3,0.4c0.1,0,0.3,0,0.4,0
			c0.5-0.1,0.9-0.2,1.3-0.3c-0.2-0.1-0.5-0.3-0.8-0.4C352.3,429.3,351.5,428.5,350.6,428.6z M390.5,422c0,0,0,0.1,0,0.1
			c0.2,0,0.4,0.1,0.7,0.1c0.3,0,0.6-0.1,0.8,0c0.5,0.3,0.5,0.3,0.8,0c-0.6-0.6-1.8-0.2-2.1-1.4c-0.1,0.1-0.1,0.1-0.2,0.2
			c0.1,0.3,0.3,0.5,0.5,0.8C390.9,422,390.7,422,390.5,422z M373.6,421.9c0.7,0,1.2-0.1,1.8-0.1c-0.2,0.3-0.3,0.4-0.4,0.5
			c0.4-0.1,0.8,0.5,1.3,0.1c-0.1-0.1-0.3,0-0.3-0.1c-0.4-0.3-0.7-0.7-1.1-1c-0.1-0.1-0.2-0.1-0.3-0.1
			C374.3,421.4,374,421.6,373.6,421.9z M351.1,414.2c0-0.1,0-0.4,0-0.4c-0.7-0.2-1.5-0.4-2.2-0.5C348.9,413.7,349,413.7,351.1,414.2
			z M383.5,425.2c0.8,0.2,1.5,0.4,2.3,0.6c0-0.1,0-0.1,0-0.2c-0.4-0.2-0.9-0.3-1.4-0.5c0.2-0.1,0.3-0.1,0.5-0.1
			c-0.4-0.2-0.7-0.3-1.1-0.5c0,0.2-0.1,0.3-0.1,0.4C383.7,425,383.6,425.1,383.5,425.2z M302.5,416.3c-0.1-0.1-0.2-0.2-0.3-0.2
			c-0.2-0.2-0.5-0.3-0.7-0.6c-0.5-0.8-0.5-0.9-1.3-0.3c0.3,0,0.6,0,1,0C301.2,416,301.6,416.4,302.5,416.3z M356.9,416.5
			c0.6,0.9,1.3,1.1,2.4,0.7c-0.4-0.2-0.7-0.3-0.9-0.5c0,0.1,0,0.1,0,0.2c-0.2,0-0.4,0-0.7,0.1c0.1-0.2,0.2-0.4,0.3-0.6
			C357.6,416.5,357.3,416.5,356.9,416.5z M335.1,428.5c-0.3-0.1-0.5-0.2-0.7-0.2c-0.3,0-0.5,0-0.7-0.4c-0.2-0.3-0.7-0.5-1.1-0.7
			c-0.1,0.1-0.1,0.2-0.2,0.3c0.4,0.2,0.7,0.5,1.1,0.7C334,428.4,334.3,428.8,335.1,428.5z M395.7,431.2c0-0.1,0.1-0.1,0.1-0.2
			c-0.6-0.6-1.8-0.4-2.1-1.3c-0.2,0.1-0.4,0.2-0.8,0.3C393.9,430.5,394.8,430.9,395.7,431.2z M338.4,423.8c0,0.1-0.1,0.2-0.1,0.3
			c1,0.3,1.8,1.3,3.1,1.1C340.4,424.7,339.4,424.3,338.4,423.8z M358.2,432.3c0.4,0.3,0.9,0.6,1.3,0.8c-0.6-0.9-1.5-1.4-2.2-1.3
			c0.2,0.2,0.4,0.4,0.6,0.7C357.9,432.5,358.1,432.4,358.2,432.3z M393.6,421.5c-0.7-0.6-1.6-0.4-2.4-0.3
			C392,421.7,392.8,421.5,393.6,421.5z M305.9,416.2c0,0.1-0.1,0.1-0.1,0.2c0.8,0.9,2,1.5,2.9,1.3c-0.3-0.1-0.5-0.2-0.7-0.2
			c-0.3-0.1-0.5-0.2-0.8-0.3C306.8,416.9,306.3,416.6,305.9,416.2z M328.5,418.8c0,0.1,0,0.1-0.1,0.2c0.4,0.3,0.8,0.7,1.3,1
			c0.5,0.3,1,0.6,1.5,0.8c0-0.1,0.1-0.1,0.1-0.2c-0.6-0.4-1.2-0.7-1.9-1.1c0.1-0.1,0.2-0.1,0.4-0.2
			C329.4,419.1,328.9,419,328.5,418.8z M347.6,426.9c0,0.6,0.9,0.4,0.6,1.1c0.4,0.1,0.7,0.2,1.2,0.3
			C349.1,427.3,348.2,427.4,347.6,426.9z M337.4,416.9c0,0,0-0.1,0-0.1c-0.9-0.1-1.7-0.3-2.6-0.4c0,0.2,0,0.4,0,0.6
			c0.7-0.5,1.2,0,1.8,0.1C336.9,417,337.2,417,337.4,416.9z M275.9,415.1c0.9,0.4,1.8,0.8,2.7,1.2
			C277.9,415.3,276.9,415.3,275.9,415.1z M384.6,435.2c0,0,0.1-0.1,0.1-0.1c-0.8-0.4-1.5-0.8-2.4-1.3
			C382.7,435,383.8,434.7,384.6,435.2z M292,385.1c0.7,0.1,1.3,0.1,1.9,0.1c0,0.1,0.1,0.2,0.2,0.4c0.2-0.1,0.4-0.1,0.6-0.2
			C294.5,385,292.7,384.8,292,385.1z M322.3,418c0,0.1,0,0.2-0.1,0.3c0.6,0.2,1.2,0.5,1.8,0.7c0.1,0,0.2-0.1,0.3-0.1
			c0,0,0-0.2-0.1-0.2C323.7,418.5,323,418.3,322.3,418z M280.3,415.9c-0.6-0.2-1-1-1.8-0.7C279.1,415.6,279.6,416.1,280.3,415.9z
			 M321.7,417c-0.5-0.7-1.2-1.1-2.1-1.1c0.1,0.2,0.2,0.3,0.4,0.3c0.4,0.2,1,0.2,1.1,0.4C321.2,417.1,321.4,417,321.7,417z
			 M351.2,429.4c-0.6-0.3-1.1-1-1.8-0.5C350,429.1,350.5,429.6,351.2,429.4z M356.7,430.9c0,0.1,0,0.1,0,0.2
			c0.6,0.2,1.3,0.3,1.9,0.5c0-0.1,0-0.1,0.1-0.2C358.1,430.8,357.4,430.8,356.7,430.9z M323.3,424.9
			C323.3,424.9,323.3,424.9,323.3,424.9c0.3,0.2,0.6,0.5,1,0.5c0.3,0.1,0.7-0.1,1.1-0.1c0,0,0-0.2,0-0.2
			C324.7,425,324,425,323.3,424.9z M269.8,411.6c0.6,0.4,1.1,0.7,1.6,1c0-0.1,0.1-0.3,0-0.3C271,412,270.6,411.3,269.8,411.6z
			 M271.4,413.4c-0.5-0.9-1.3-1.5-1.8-1.2C270.2,412.6,270.7,412.9,271.4,413.4z M306,385.6c0,0.1,0.1,0.2,0.1,0.2
			c0.2-0.1,0.4-0.2,0.6-0.3c0.1-0.1,0.3-0.1,0.5-0.2c0.1,0,0.3-0.1,0.4-0.1c0,0,0-0.2-0.1-0.2c-0.1-0.1-0.3-0.1-0.4-0.1
			C306.7,385.1,306.4,385.4,306,385.6z M378.8,432.8c0-0.1,0-0.2,0-0.2c-0.6-0.1-1.2-0.2-1.9-0.3c0.1,0.2,0.1,0.3,0.1,0.4
			C377.7,432.7,378.3,432.7,378.8,432.8z M304.9,384.8c-0.3,0.2-0.6,0.3-0.9,0.5c0,0.1,0,0.1,0,0.2c0.4,0,0.9,0,1.3,0
			C305.2,385.2,305.1,385,304.9,384.8z M332.7,421.7c-0.1,0.2-0.2,0.3-0.3,0.5c0.5,0.2,0.9,0.3,1.3,0.5c0-0.1,0.1-0.1,0.1-0.2
			C333.4,422.3,333.1,422,332.7,421.7z M379.1,422.9c0,0.1-0.1,0.2-0.1,0.3c0.7,0.3,1.3,0.6,2,0.9c0-0.1,0.1-0.1,0.1-0.2
			C380.4,423.5,379.7,423.2,379.1,422.9z M384.4,426.3c0.3,0.7,1,0.9,1.6,0.5C385.4,426.6,384.9,426.4,384.4,426.3z M314.2,410.1
			c0,0.1-0.1,0.2-0.1,0.3c0.5,0.2,1.1,0.3,1.6,0.5c0-0.1,0-0.1,0.1-0.2C315.3,410.5,314.9,410,314.2,410.1z M320.5,423.3
			c-0.6,0.2-0.8-0.4-1.1-0.8c0,0.8,0.4,1.1,1.4,1.3C320.7,423.7,320.6,423.5,320.5,423.3z M331.7,416.6c-0.1-0.2-0.1-0.5-0.2-0.5
			c-0.5-0.1-1.1-0.1-1.6-0.2c0,0,0,0.1,0,0.1C330.4,416.2,331,416.4,331.7,416.6z M286.9,386.6c0.5,0.1,0.9,0.2,1.1,0.2
			c0.1-0.3,0.2-0.5,0.3-0.9C287.9,386.2,287.5,386.4,286.9,386.6z M312.1,420c0,0.1,0,0.1,0,0.2c0.6,0.2,1.1,0.3,1.8,0.5
			c-0.2-0.3-0.2-0.4-0.2-0.4C313,420.1,312.6,420.1,312.1,420z M310.2,418c-0.5-0.2-0.9-0.4-1.3-0.5
			C309,418.1,309.4,418.3,310.2,418z M395.8,409.2c0.4,0.4,0.7,0.7,1,1c0-0.2,0.1-0.7-0.1-0.8C396.5,409.3,396.1,409.3,395.8,409.2z
			 M308.5,384.9c-0.3-0.4-1.3-0.6-1.8-0.3C307.3,384.7,307.9,384.8,308.5,384.9z M288.9,420.8c0,0.1-0.1,0.2-0.1,0.3
			c0.5,0.2,0.9,0.4,1.4,0.6c0-0.1,0.1-0.1,0.1-0.2C289.7,421.2,289.3,421,288.9,420.8z M303.7,415.5c-0.5-0.2-1-0.3-1.5-0.5
			c0,0.1-0.1,0.1-0.1,0.2c0.4,0.2,0.9,0.4,1.3,0.6C303.5,415.8,303.6,415.6,303.7,415.5z M392.7,429.7c-0.4,0-0.8-0.6-1.3-0.1
			C391.9,429.7,392.2,430.1,392.7,429.7z M319,423c-0.5-0.1-1-0.3-1.5-0.4C317.8,423.1,318.2,423.2,319,423z M311.5,418.6
			c0.4,0.6,1.3,0.1,1.5,1c0.2-0.1,0.3-0.2,0.6-0.4C312.9,419,312.3,418.8,311.5,418.6z M290.4,386.5c-0.6,0.1-1.1,0.2-1.6,0.3
			C289.3,387.1,290.1,387,290.4,386.5z M393.8,422.8c0,0,0,0.1,0,0.1c0.5,0.3,0.9,0.6,1.5,0.9c-0.2-0.3-0.2-0.5-0.3-0.7
			C394.6,423,394.2,422.9,393.8,422.8z M369.7,429c0,0.1,0,0.1-0.1,0.2c0.6,0.2,1.1,0.3,1.7,0.5c0-0.1,0-0.1,0.1-0.2
			C370.9,429.3,370.3,429.1,369.7,429z M268.4,411.9c0-0.1,0.1-0.1,0.1-0.2c-0.4-0.2-0.8-0.4-1.2-0.7
			C267.4,411.8,268,411.7,268.4,411.9z M289.2,419.7c0,0.1-0.1,0.1-0.1,0.2c0.5,0.3,1,0.6,1.5,0.8c0-0.1,0.1-0.1,0.1-0.2
			C290.2,420.3,289.7,420,289.2,419.7z M302.2,387.1c-0.2-0.1-0.3-0.2-0.4-0.3c-0.1,0-0.3,0-0.5,0c-0.1,0-0.2,0-0.3,0.1
			c0,0,0,0.2,0,0.2c0.1,0.1,0.2,0.2,0.3,0.1C301.6,387.3,301.8,387.2,302.2,387.1z M281.3,416.5c-0.1,0-0.2,0.1-0.3,0.1
			c0.1,0.2,0.2,0.5,0.3,0.7c0,0,0.3-0.1,0.4-0.1C281.6,416.9,281.5,416.7,281.3,416.5z M285.3,418.6c-0.1,0-0.1,0.1-0.2,0.1
			c0.3,0.3,0.5,0.7,0.8,1.1C286.1,419.1,285.5,419,285.3,418.6z M271.9,413.1c0,0.1-0.1,0.1-0.1,0.2c0.5,0.2,1,0.4,1.5,0.6
			c0-0.1,0.1-0.1,0.1-0.2C272.9,413.6,272.4,413.3,271.9,413.1z"/>
		<path d="M302.3,409.9c0.4,0.1,0.8,0.1,1.1,0.3c0.2,0.1,0.3,0.4,0.5,0.6c-0.1,0-0.1,0.1-0.2,0.1c-0.1-0.2-0.2-0.3-0.3-0.4
			c-0.3,0-0.6,0-0.9,0c0.6,0.2,1.2,0.4,1.5,1c-0.7-0.3-1.3-0.5-2-0.8c-0.1,0-0.1,0-0.2,0c-0.6,0-0.9-0.2-1-0.9c-0.1,0-0.2,0-0.2,0
			c-0.5,0.6-1,0.3-1.5,0.1c-0.4-0.2-0.9-0.3-1.4-0.5c-0.3,1.4-0.7,2.7-1,3.9c1.1,0.3,2.2,0.6,3.3,0.9c-0.4,0.8-0.1,1.2,0.9,1.3
			c-0.6,0.3-1.3,0.1-2.2-0.5c0.4-0.1,0.7-0.1,1.1-0.2c0-0.1,0-0.1,0-0.2c-0.1-0.1-0.3-0.3-0.4-0.2c-1,0.3-1.6-0.8-2.4-0.6
			c-0.9,2.2-1.8,4.4-2.8,6.6c-0.9,2.2-1.9,4.3-2.9,6.5c-0.1,0-0.2-0.1-0.3-0.1c0.2-0.4,0.4-0.8,0.6-1.3c0.4-0.9,0.8-1.9,1.2-2.8
			c0.1-0.4,0.3-0.7,0.4-1.1c1-2.2,1.9-4.4,2.9-6.5c0.5-1,0.3-1.4-0.9-1.7c-0.2-0.1-0.5-0.2-0.7-0.3c0-0.1,0.1-0.1,0.1-0.2
			c0.3,0.1,0.5,0.2,0.8,0.3c0.3,0.1,0.6,0.2,1,0.4c0.3-1.1,0.6-2.2,0.9-3.3c0.2-1,0.2-1-0.1-1.5c-0.2,0.1-0.4,0.1-0.6,0.2
			c-0.1-0.9-0.8-0.4-1.2-0.6c-0.2-0.1-0.5-0.1-0.9-0.2c0.4-0.4,0.6-0.5,1-0.4c0.5,0.2,1,0.2,1.5,0.3c0.5,0,0.7,0.2,0.8,0.7
			c0.1-0.5,0.3-1,0.4-1.5c-2.1-0.2-4.1-0.4-6.2-0.5c0,0,0,0.1,0,0.1c0.3,0.2,0.5,0.3,0.8,0.5c0,0,0-0.1,0-0.1
			c0.6,0.1,1.2,0.1,1.8,0.2c-0.1,0.3-0.1,0.4-0.1,0.6c-0.3,0-0.6,0-0.8,0c0,0,0-0.1,0-0.1c0.2,0,0.5,0,0.7,0c0,0,0-0.1,0-0.1
			c-0.1,0-0.2-0.1-0.3-0.1c-0.8,0.2-1.5,0.2-2.2-0.1c-1-0.3-2.2-0.1-3.1-0.9c-0.1-0.1-0.4,0.1-0.6,0.1c-0.3,0-0.6,0-0.9-0.1
			c-0.4-0.1-0.8-0.2-1.2-0.3c-0.9-0.1-1.7-0.2-2.6-0.3c-0.8-0.1-1.6-0.1-2.4-0.1c-1.5-0.1-3-0.3-4.4-0.5c-0.4,0-0.8,0-1.3-0.1
			c-0.1,0.1-0.2,0.3-0.3,0.5c0.3,0,0.5,0.1,0.7,0.1c0.8-0.3,1.5-0.2,1.9,0.4c0.2,0.3,0.5,0.3,0.8,0.2c0.3-0.2,0.5-0.1,0.7,0.1
			c0.2,0.3,0.4,0.5,0.7,0.7c0.2-0.7,0.6-0.6,1.5,0.2c-0.9,0-1.7,0-2.5-0.2c-0.5-0.1-1.1-0.3-1.6-0.5c-0.1,0-0.1-0.2-0.2-0.4
			c-1.4-0.1-2.9-0.3-4.4-1.1c-0.5,0.5-0.8-0.3-1.3-0.5c0,0.1,0,0.1,0,0.2c-0.2,0.1-0.5,0.2-0.7,0.2c-0.7-0.1-1.4-0.2-2-0.3
			c-0.9-0.1-1.7-0.2-2.6-0.3c-0.6,0-1.2,0-1.7,0c-1.7-0.1-3.3-0.2-5-0.4c-2.3-0.2-4.6-0.5-6.8-0.8c-1-0.1-2.1-0.2-3.1-0.3
			c0,0.1,0,0.1-0.1,0.2c0.1,0.1,0.3,0.2,0.4,0.2c0.5-0.3,0.6,0,0.8,0.5c0.1-0.2,0.2-0.4,0.2-0.5c0.3,0.1,0.6,0.1,0.9,0.2
			c0.1,0,0.3,0.1,0.4,0.2c0,0.1,0,0.3-0.1,0.4c-0.1,0.1-0.3,0.1-0.4,0.1c-0.9-0.3-1.9-0.6-2.8-1c-0.1-0.1-0.2-0.3-0.2-0.4
			c-0.3,0-0.5,0.1-0.7,0.1c-2-0.4-4-0.8-6-1.2c-1-0.2-2-0.4-3-0.6c-1.4-0.3-2.9-0.5-4.3-0.8c-1.5-0.3-3.1-0.7-4.6-1
			c-0.2,0-0.5,0-0.7,0.1c-0.4,0.4-0.9,0.4-1.4,0.4c-0.3,0-0.7,0-1,0c-0.1,0-0.3-0.1-0.4-0.3c0.2,0,0.3,0,0.4-0.1
			c0.2-0.1,0.4-0.3,0.4-0.4c0-0.2-0.2-0.5-0.3-0.6c-0.6-0.5-1.4-0.8-2-1.3c-0.6-0.5-0.1-1.6,0.8-2.2c0.4-0.2,0.9-0.4,1.4-0.6
			c1.9-0.7,3.8-1.3,5.8-1.7c1.5-0.3,3.1-0.6,4.6-0.8c1.8-0.3,3.7-0.6,5.5-0.9c0.9-0.1,1.9-0.2,2.8-0.3c1-0.1,2.1-0.3,3.1-0.4
			c1.3-0.1,2.7-0.2,4-0.3c1.7-0.2,3.3-0.4,5-0.6c1.1-0.1,2.2-0.1,3.3-0.2c1.1-0.1,2.2,0,3.2-0.2c1.4-0.3,2.9-0.4,4.3-0.5
			c0.9,0,1.9-0.2,2.8-0.3c0.2,0,0.3-0.2,0.4-0.3c0.4,0.5,1,0,1.5,0.1c0.2,0,0.4-0.2,0.6-0.2c2.1-0.2,4.2-0.3,6.3-0.5
			c1.2-0.1,2.4-0.3,3.6-0.4c0.1,0,0.3-0.1,0.4-0.2c0.4-0.9,1.1-0.3,1.6-0.5c-0.2,0.3-0.4,0.5-0.5,0.7c-0.2-0.1-0.3-0.3-0.5-0.4
			c0,0-0.2,0.2-0.3,0.3c0.3,0.1,0.6,0.3,0.8,0.4c0,0.1,0,0.1,0,0.2c-0.3,0-0.7,0.1-1,0.1c0-0.2,0.1-0.3,0.1-0.4
			c-0.5,0-0.9,0.1-1.3,0.1c-1.1,0.1-2.2,0.3-3.3,0.4c-1.4,0.2-2.8,0.3-4.2,0.4c-0.2,0-0.4,0-0.5,0c-2.1,0.2-4.2,0.5-6.4,0.7
			c-1.2,0.1-2.4,0.2-3.7,0.3c-1.5,0.1-3.1,0.3-4.6,0.5c-0.8,0.1-1.5,0.1-2.3,0.1c-0.8,0-1.5,0.1-2.3,0.1c-1,0.1-2,0.3-3.1,0.4
			c-1,0.1-1.9,0.2-2.9,0.2c-1.2,0.1-2.5,0.1-3.7,0.5c-0.5,0.2-1.1,0.1-1.6,0.2c-1.5,0.2-2.9,0.3-4.4,0.5c-0.8,0.1-1.6,0.1-2.4,0.3
			c-0.9,0.2-1.9,0.4-2.8,0.6c-2,0.4-3.9,0.8-5.9,1.3c-1.2,0.3-2.3,0.8-3.4,1.3c-0.4,0.2-0.8,0.5-0.8,1.1c0,0.5,0.2,0.8,0.7,1.1
			c0.5,0.2,0.9,0.6,1.4,0.9c0.1-0.6,0.2-1-0.7-1c0.1-0.1,0.2-0.2,0.2-0.2c0.8,0.1,1.6,0.1,2.5,0.2c0.5,0.1,0.8,0.7,0.6,1.3
			c-0.1,0.4,0,0.4,0.3,0.5c1.9,0.4,3.9,0.9,5.8,1.3c1.4,0.3,2.9,0.5,4.3,0.8c1.3,0.2,2.5,0.5,3.8,0.7c0.7,0.1,1.4,0,2,0.1
			c0.4,0.1,0.8,0.3,1.1,0.5c0.5,0,0.8,0,1.2,0.1c0.2,0,0.5,0.1,0.7,0.1c1.9,0.2,3.7,0.3,5.6,0.5c1.1,0.1,2.2,0.2,3.3,0.3
			c1.6,0.2,3.2,0.4,4.8,0.5c0.8,0.1,1.5,0,2.3,0c1,0.1,2,0.2,3,0.2c1,0.1,1.9,0.1,2.9,0.2c0-0.1,0.1-0.2,0.1-0.2
			c-0.6-0.6-1.3-1.2-2-1.9c0,0.7,0,1.2,0,1.8c-0.2,0-0.4-0.1-0.7-0.1c0.8-0.6,0.5-1.9-0.5-2.5c0.6-0.1,1-0.1,1.4,0.3
			c0.6,0.6,1.2,1.1,1.8,1.7c0.4-0.6,0.1-1.6-0.5-1.9c0.5,0,1,0.1,1.7,0.1c-0.2,0.2-0.3,0.3-0.4,0.3c-0.6-0.2-0.5,0.2-0.5,0.6
			c0,0.6,0,1.2,0,2c5.2,0.4,10.5,0.8,15.8,1.2c-0.4-0.4-0.9-0.6-1-1c-0.3-0.9,0-1.5,0.9-1.7c0.7-0.2,1.6,0.4,1.7,1.2
			c0.1,0.5-0.3,0.9-0.7,1.1c-0.1,0.1-0.3,0.3-0.3,0.4c0.1,0.2,0.3,0.2,0.5,0c0.1-0.1,0.2,0,0.3,0c0.7,0.2,1.5,0.4,2.3,0.5
			c0.4,0.1,0.7-0.1,1.1-0.1c0.7,0,1.5,0.1,2.2,0.1c1,0.1,2,0.2,3,0.2c0.2,0,0.4,0.1,0.6,0c0.1,0,0.4-0.1,0.4-0.2
			c0.2-1.5,0.4-3.1,0.5-4.6c0.1-1.3,0.3-2.7,0.4-4.1c0.4,0.8-0.3,7.5-0.9,9.1c0.8-0.2,1.5,0.5,2.2-0.2c0.1-0.1,0.4-0.1,0.5-0.1
			c0.5,0.2,1.1,0.4,1.6,0.6c0.1,0,0.2,0,0.2,0c0.5-0.2,1-0.1,1.4,0.4c0.1,0.1,0.3,0.1,0.5,0.2c0-0.1,0-0.2,0-0.4
			c0.9,0,1.7,0.1,2.6,0.1c1,0.1,2,0.2,3,0.3c1.8,0.2,3.7,0.4,5.5,0.5c1,0.1,2.1,0.1,3.1,0.1c1.4,0.1,2.7,0.3,4.1,0.4
			c0.8,0.1,1.7,0.1,2.5,0.1c1.4,0.1,2.7,0.1,4.1,0.1c0.8,0,1.6,0,2.4,0.2c0.7,0.2,1.2-0.3,1.9-0.4c-0.4-0.3-0.8-0.5-1.1-0.7
			c-0.4-0.3-0.9-0.5-0.8-1.2c0.1-0.6,0.3-1,1-1.2c1-0.3,2.1,0.3,2.1,1.3c0,0.3-0.3,0.6-0.5,0.9c-0.1,0.1-0.3,0.2-0.5,0.4
			c0.5,0.2,0.8,0.3,1.3,0.5c-0.5,0-0.9,0-1.3,0c0.1,0.2,0.2,0.5,0.3,0.6c0.4,0.1,0.7,0.1,1.1,0.2c0.1-0.3,0.3-0.4,0.6-0.2
			c0.2,0.1,0.4,0.1,0.6,0.3c0.4,0.4,0.8,0.4,1.4,0.3c0.6-0.1,1.2,0,1.9,0.1c0.5,0.1,0.9,0.4,1.2,0.8c0.2,0.2,0.5,0.3,0.8,0.4
			c0.2,0.1,0.4,0,0.7-0.1c-0.4-0.2-0.9-0.4-1.4-0.6c1-0.2,3.1,0.9,4.1,2c-1,0-1.6-0.3-1.7-0.7c-0.3,0.2-0.3,0.2-0.7-0.1
			c-0.3-0.2-0.8-0.2-1.2-0.3c-0.2,0-0.5,0-0.6-0.1c-0.5-0.5-1-0.5-1.6-0.5c-0.4,0-0.7-0.1-1.1-0.2c0.5-0.2,1.1,0.5,1.5-0.4
			c-0.5,0-1.1,0-1.6,0c-0.5,0-1.1,0.1-1.6,0.2c0-0.6-0.5-0.7-1-0.6c-0.2,0.1-0.6,0.2-0.8,0.1c-1.3-0.4-2.6-0.6-4-0.6
			c-0.8,0-1.7-0.2-2.5-0.2c-0.7,0-1.5,0-2.2,0c-1.9-0.1-3.8-0.3-5.8-0.5c-0.5,0-0.9,0-1.4,0c-1.9-0.2-3.8-0.3-5.7-0.5
			c-0.8-0.1-1.5-0.1-2.3-0.1c-1.6-0.1-3.3-0.3-4.9-0.4c-0.3,0-0.5,0-0.8,0.1c0,0-0.1,0.3-0.1,0.3c0.3,0.1,0.6,0.3,0.9,0.3
			c0.4,0,0.8-0.2,1.2-0.1c0.5,0.1,1,0.4,1.6,0.6c0.5-0.6,1.3-0.3,2,0c0.4,0.1,0.9,0.3,1,0.5c0,0.4,0.2,0.5,0.5,0.5
			c0.3,0.1,0.7,0.2,0.8-0.3c0-0.1,0.3-0.1,0.5-0.1c0,0.1,0,0.3,0.1,0.5c0.7,1.1,2,0.7,3.2,1c0-0.2,0-0.4-0.1-0.6
			c1,0.2,1.9,0.4,2.9,0.6c0.2,0.1,0.4,0.3,0.5,0.4c0,0.1-0.1,0.1-0.1,0.2c0.4,0,0.8,0,1.2,0c0,0,0,0.1,0.1,0.1
			c-0.1,0.1-0.2,0.2-0.3,0.2c-0.5-0.2-1-0.3-1.5-0.5c-0.4-0.2-0.7-0.5-1.3-0.1c0.3,0,0.5,0,0.6,0c0.4,0.4,0.8,0.7,1.1,1
			c-0.4-0.1-1,0.1-1.2-0.6c-0.3,0.7-0.8,0.2-1.2,0.1c-0.2,0-0.3-0.3-0.6-0.6c0.4,0,0.7,0,1.1,0c-0.5-0.4-0.9-0.7-1.2-0.1
			c0,0.1-0.2,0.2-0.3,0.1c-0.7-0.1-1.4-0.2-2-0.4c-0.4-0.1-0.7-0.3-1-0.7c-0.1-0.1-0.7,0.1-1,0c-0.5-0.1-1-0.3-1.6-0.5
			c0-0.1,0.1-0.2,0.2-0.4c-0.2-0.1-0.5-0.3-0.7-0.4c-0.2-0.1-0.5-0.1-0.8-0.1c0.3,0.2,0.7,0.5,1,0.7c0,0.1-0.1,0.1-0.1,0.2
			c-0.5-0.2-1-0.5-1.6-0.6c-0.5-0.2-1.1-0.2-1.7-0.4c0.1,0,0.2,0,0.3,0c0-0.1,0-0.1,0-0.2c-0.2-0.1-0.3-0.1-0.5-0.1
			c-0.6,0-1.3,0.1-1.9,0.1c-0.1,0-0.3-0.2-0.4-0.3c-0.2-0.1-0.5-0.2-0.8-0.3c-0.3,0-0.6,0-0.9,0c0-0.1,0-0.1,0-0.2
			c0.2,0,0.3,0,0.6-0.1c-0.2-0.2-0.4-0.3-0.7-0.5c-0.4,0.6-0.9,0.4-1.5,0.3c-1-0.2-2-0.3-3-0.4c-0.1,0-0.3,0.2-0.4,0.3
			c-0.1,0.3-0.1,0.6-0.1,0.9c0.7,0.3,1.5,0.5,2.3,0.8c0.2,0.1,0.3,0.2,0.5,0.3c0.2,0.1,0.4,0,0.7,0
			C301.7,409.8,302,409.9,302.3,409.9c-0.3,0.1-0.8-0.2-1,0.4c0.4,0.1,0.8,0.1,1.2,0.1C302.4,410.2,302.4,410,302.3,409.9z
			 M333.2,406.2c-0.4,0-0.8,0.5-0.8,0.9c0,0.6,0.7,1.3,1.2,1.3c0.4,0,0.8-0.6,0.7-1.2C334.3,406.7,333.7,406.2,333.2,406.2z
			 M286.3,404.6c0,0.6,0.2,1.1,0.6,1.1c0.6,0,0.9-0.3,0.9-0.9c0-0.6-0.4-1.2-0.7-1.2C286.6,403.7,286.3,404,286.3,404.6z
			 M228.3,399.5c0.4-0.2,0.5-0.7,0.3-1c-0.2-0.3-0.6-0.4-1-0.5c-0.1,0-0.2,0.1-0.3,0.2c-0.2,0.4,0,0.9,0.5,1.1
			C228,399.3,228.1,399.4,228.3,399.5z M228.4,399.9c0-0.1,0-0.1,0-0.2c-0.4-0.1-0.8-0.2-1.3-0.3c0.1,0.3,0.2,0.5,0.3,0.7
			C227.7,400.1,228.1,400,228.4,399.9z"/>
		<path d="M310.2,386.4c0.3,0,0.6-0.1,1-0.1c-1.2,0.3-0.3,1.4-0.8,1.9c0.2,0.1,0.4,0.2,0.5,0.3c0,0.1,0,0.1,0,0.2
			c-0.4,0-0.9-0.1-1.3-0.1c0.7-0.7,0.4-1.6,0.3-2.5c-3.4,0.5-7,0.2-10.5,0.6c0,0.1,0,0.2,0,0.3c0.3,0,0.6,0.1,0.8,0.1
			c-0.1,0.3-0.1,0.6-0.2,1.1c0.3-0.2,0.5-0.3,0.7-0.3c0.7,0.5,1.4,0.9,2.1,1.4c-0.8,0.4-1.4,0-1.9-0.5c-0.2-0.2-0.4-0.3-0.6-0.4
			c-0.4,0.5-0.4,0.7,0.6,1.1c-0.6,0.1-1,0.2-1.3,0.2c0-0.8,0.1-1.6-0.1-2.3c-0.1-0.3-0.7-0.4-1.1-0.6c-0.1,0.1-0.1,0.1-0.2,0.2
			c0.2,0.9,0.5,1.8,0.6,2.8c0.1,0.7,0.1,1.3,0.2,2c0.1,0.9,0.1,1.7,0.1,2.6c0,0.6,0,1.3-0.1,1.9c-0.1,0.7,0.1,0.8,0.8,0.7
			c0.6-0.1,1.2-0.1,1.7-0.1c1.2,0,2.5,0,3.7,0c1.1,0,2.2,0.1,3.3,0.1c0.4,0,0.8-0.1,1.3-0.1c2,0,4,0.1,6.1,0.1c2.3,0,4.6-0.1,7-0.1
			c1.3,0,2.6,0.1,4,0.1c0.1,0,0.2,0.1,0.2,0.2c-12.8,0-25.6,0-38.4,0c0-0.1,0-0.2,0-0.3c3.3,0,6.6,0,10,0c0.1-3.4-0.1-6.7-0.8-10
			c-0.2,0-0.6,0-0.9,0c-1.1,0-2.3,0-3.4,0.1c-0.9,0.1-1.8,0.3-2.6,0.5c-0.5,0.1-0.9,0.1-1.4,0.1c-1.3,0.2-2.7,0.4-4,0.5
			c-0.1,0-0.2,0-0.2,0c0-0.1,0-0.1,0-0.2c0.5-0.1,1-0.3,1.5-0.4c-0.3-0.5,0.1-0.5,0.5-0.4c1.4,0.2,2.8,0.2,4.2-0.3
			c0.6-0.2,1.3-0.1,1.9-0.2c1.4-0.2,2.8-0.4,4.2-0.7c0.1,0,0.3-0.3,0.2-0.4c-0.6-2.4-1-4.7-1.7-7.1c-0.6-2-1.3-4-2.2-5.9
			c-1.5-3.1-3.2-6.2-4.9-9.2c-0.7-1.3-1.7-2.4-2.5-3.6c-0.2-0.2-0.3-0.5-0.4-0.7c0.1,0,0.1-0.1,0.2-0.1c0.5,0.7,1,1.3,1.5,2
			c0.8,1.2,1.7,2.4,2.5,3.6c0.7,1.2,1.3,2.5,1.9,3.8c0.8,1.7,1.8,3.4,2.5,5.1c0.6,1.4,1.1,2.9,1.6,4.4c0.6,2.1,1.1,4.3,1.7,6.4
			c0.1,0.3,0.2,0.6,0.2,0.9c0,0.6,0.3,0.5,0.7,0.4c1.3-0.3,2.6-0.5,3.9-0.7c0.1,0,0.3,0.1,0.5,0.1c-0.4,0.2-0.7,0.4-1.1,0.5
			c0,0,0-0.1,0-0.1c-1.3,0.1-2.6,0.3-3.8,0.4c0,0.1,0,0.1,0,0.2c0.1,0.1,0.2,0.2,0.4,0.2c0.7-0.1,1.5-0.1,2.2-0.2c0.2,0,0.4,0,0.6,0
			c0.6,0,1.2,0.2,1.7,0c0.6-0.3,1.1,0.1,1.6,0c1.4-0.1,2.7-0.2,4.1-0.3c0.1,0,0.1,0,0.2,0c0.9-1,2.1-0.3,3.2-0.4
			c1.7-0.2,3.5,0,5.2-0.2c2.4-0.3,4.7-0.3,7.1-0.4c1.6,0,3.2-0.3,4.9-0.4c1.9-0.1,3.9-0.2,5.8-0.3c2.1-0.1,4.3-0.3,6.4-0.4
			c0.9-0.1,1.7-0.1,2.6-0.1c2-0.1,3.9-0.2,5.9-0.3c1.6-0.1,3.2-0.3,4.8-0.4c1.7-0.1,3.4-0.1,5.1-0.3c1.7-0.1,3.4-0.4,5.1-0.5
			c0.9-0.1,1.7,0,2.6,0c1.5-0.1,2.9-0.1,4.4-0.2c0.8,0,1.6-0.1,2.4-0.1c1.4,0,2.7-0.1,4.1-0.1c3.2-0.1,6.4-0.2,9.6-0.2
			c2.1,0,4.1,0,6.2,0c0.2,0,0.4,0.1,0.6,0.1c0,0.1,0,0.2,0,0.2c-0.7,0-1.4,0-2.1,0c-0.9,0-1.8,0-2.7,0c-0.6,0-1.2,0-1.7,0
			c-2.3,0-4.6-0.2-6.9,0.1c-1.9,0.2-3.7,0.1-5.6,0.2c-1,0-2.1,0.1-3.1,0.1c-2.6,0.1-5.2,0.2-7.8,0.3c-0.5,0-1,0.1-1.5,0.1
			c-1.9,0.2-3.7,0.3-5.6,0.5c-0.3,0-0.6,0-0.9,0c-2.1,0.2-4.3,0.3-6.4,0.5c-0.1,0-0.2,0-0.3,0c-2.5,0.1-5.1,0.2-7.6,0.3
			c-0.9,0-1.9,0-2.8,0.1c-1.5,0.1-3,0.2-4.5,0.4c-0.2,0-0.3,0-0.5,0c-2.5,0.1-5,0.1-7.5,0.3c-2.1,0.1-4.2,0.3-6.3,0.4
			c-0.9,0.1-1.8,0-2.6,0.1c-2.4,0.4-4.8,0.3-7.2,0.4c-0.3,0-0.6,0.3-1,0.4C310.2,386.3,310.2,386.4,310.2,386.4z M296.3,386.4
			c0,0.1,0,0.1,0,0.2c0.5-0.2,1.2,0.2,1.6-0.2c0-0.1,0-0.1,0-0.2C297.4,386.2,296.8,386.3,296.3,386.4z"/>
		<path d="M283.7,388.4c-18.5,2.8-36.9,5.6-55.4,8.3c0.1,0,0.2,0.1,0.3,0.1c0.6,0,1.2,0,1.8,0c3.3,0,6.6,0,9.9,0
			c1.4,0,2.8,0.1,4.2,0.1c1.4,0,2.7-0.1,4.1-0.1c1.8,0,3.5,0.2,5.3,0.2c0.6,0,1.2-0.1,1.8-0.1c1.3,0,2.6,0,3.9,0c3.5,0,7,0,10.5,0
			c0.8,0,1.7,0.1,2.5,0.1c3,0,6.1,0,9.1-0.1c2,0,4-0.1,6-0.1c0.2,0,0.4,0.1,0.6,0.1c0,0.1,0,0.2,0,0.3c-1.5,0-3.1,0-4.6,0
			c-0.9,0-1.9,0-2.8,0c-0.4,0-0.8,0-1.2,0c-1.9,0-3.9,0-5.8,0c-0.9,0-1.9,0.1-2.8,0.1c-0.6,0-1.1,0-1.7,0c-1,0-1.9-0.1-2.9-0.1
			c-2.1,0-4.3,0.1-6.4,0.1c-1.4,0-2.8-0.1-4.2-0.1c-1.3,0-2.6,0.1-4,0.1c-1.5,0-3-0.1-4.5-0.1c-0.7,0-1.4,0.1-2.2,0.1
			c-2.3,0-4.7-0.1-7-0.1c-2.7,0-5.4,0-8.1,0c-1.1,0-2.1,0-3.2,0c-0.5,0-1,0.2-1.6,0.3c-0.1,0-0.3,0-0.4-0.1
			c-0.1-0.1-0.1-0.3-0.1-0.4c0.1-0.1,0.2-0.2,0.4-0.3c0.8-0.1,1.7-0.1,2.5-0.3c0.9-0.1,1.9-0.4,2.8-0.5c1.1-0.2,2.3-0.3,3.4-0.5
			c1-0.1,2-0.2,2.9-0.4c1.4-0.2,2.7-0.4,4.1-0.6c1.3-0.2,2.7-0.4,4-0.6c1.5-0.2,3-0.4,4.5-0.7c1.6-0.2,3.2-0.5,4.8-0.8
			c1.8-0.3,3.6-0.5,5.4-0.8c1.3-0.2,2.6-0.3,3.9-0.5c1.8-0.3,3.6-0.6,5.4-0.9c1.2-0.2,2.5-0.3,3.7-0.5c2.3-0.3,4.6-0.7,6.9-1
			c1.1-0.2,2.1-0.4,3.1-0.6c0.3-0.1,0.6,0,0.9,0C283.7,388.2,283.7,388.3,283.7,388.4z"/>
		<path d="M353.8,410.9c0.5,0.1,1.1,0.2,1.7,0.3c-0.5,0.3-1.4,0.3-2,0c-0.3-0.2-0.6-0.4-1.1-0.1c-0.3,0.2-0.9-0.1-1.4-0.2
			c-0.1,0-0.1-0.1-0.1-0.2c0-0.4-0.1-0.3-0.4-0.2c-0.2,0.1-0.5,0.1-0.7,0.1c-1.1-0.1-2.1-0.3-3.2-0.4c-0.9-0.1-1.8,0-2.8,0
			c-1.1,0-2.1-0.1-3.2-0.1c-0.9-0.1-1.7-0.2-2.6-0.2c-0.5,0-0.9,0.2-1.3,0c-0.1-0.1-0.2-0.1-0.3-0.4c0.3,0,0.5,0.1,0.8,0.1
			c1.4,0.1,2.8,0.1,4.2,0.1c1.2,0.1,2.3,0.2,3.5,0.2c0.6,0,1.1-0.1,1.7-0.1c0.8,0,1.5,0.2,2.3,0.2c0.2,0,0.4-0.1,0.6-0.1
			c0.3,0,0.6-0.1,0.8,0c0.3,0.1,0.6,0.2,0.9,0.3c0.2,0.1,0.5,0.1,0.7,0.2c0.2,0.1,0.5,0.5,0.7,0c0-0.1,0.3,0,0.4,0
			c1.4,0,2.9,0,4.3,0.1c1.8,0.1,3.6,0.3,5.4,0.5c0.6,0.1,1.3,0,1.9,0c2,0.1,3.9,0.2,5.9,0.3c1.1,0,2.2,0.1,3.3,0.1
			c0.1,0,0.2,0,0.3,0c0.5-0.4,1.1-0.2,1.7-0.2c1.3,0.2,2.6,0.1,3.9,0.2c1.6,0,3.3,0,4.9,0c0.3,0,0.6-0.2,1-0.2c0.2,0,0.4,0,0.6,0
			c1,0.4,2,0.5,3,0.1c0.2-0.1,0.4-0.1,0.6,0c0.8,0.4,1.7,0.3,2.5,0.4c0.6,0,1.2,0.1,1.8,0.1c0.1,0,0.2,0.1,0.4,0.2
			c0,0,0,0.1-0.1,0.1c-0.7,0-1.3-0.1-2-0.1c-0.9-0.1-1.8-0.4-2.7,0.2c-0.1,0.1-0.5,0.1-0.6,0c-0.7-0.6-1.6-0.2-2.4-0.4
			c-0.1,0-0.3,0.2-0.4,0.2c-0.2,0-0.4,0.1-0.6,0c-0.3-0.1-0.6-0.2-0.9-0.3c-1.1-0.1-2.2-0.1-3.4-0.1c-1.5,0-3.1,0.1-4.6,0.1
			c-0.3,0-0.7-0.2-0.9-0.1c-0.7,0.4-1.3,0.1-2,0c-0.6-0.1-1.3,0.1-1.9,0.1c-0.9,0-1.8-0.1-2.7-0.2c-0.1,0-0.2-0.1-0.2-0.1
			c-1.7-0.1-3.3-0.2-5-0.3c-2.2-0.1-4.5-0.2-6.7-0.4c-1.1-0.1-2.1-0.2-3.2-0.2c-0.1,0-0.3,0-0.4,0
			C353.8,410.8,353.8,410.8,353.8,410.9z"/>
		<path d="M327.4,396.9c0.2,0,0.4-0.1,0.7-0.1c2.1,0,4.2,0,6.4,0c2.5,0,5,0,7.5,0c0.8,0,1.5,0.1,2.3,0.1c2.9,0,5.8-0.1,8.7-0.1
			c1.9,0,3.8,0.1,5.7,0.1c0.7,0,1.4,0,2.1,0c1.2,0,2.4-0.1,3.6-0.1c2.3,0,4.6,0.1,6.8,0.1c1.6,0,3.1-0.1,4.7-0.1
			c1.5,0,3,0.1,4.6,0.1c3.1,0,6.1-0.1,9.2-0.2c2,0,3.9,0,5.9,0c0.1,0,0.2,0,0.3,0.2c-0.1,0-0.3,0.1-0.4,0.1c-3.5,0-7,0.1-10.5,0.1
			c-1,0-2.1,0-3.1,0c-0.9,0-1.9,0.1-2.8,0.1c-1.8,0-3.5-0.1-5.3-0.1c-0.9,0-1.9,0.1-2.8,0.1c-1.1,0-2.2-0.1-3.2-0.1c-1,0-2,0-3,0
			c-0.7,0-1.4,0.1-2.1,0.1c-1.7,0-3.4-0.2-5.1-0.2c-1.2,0-2.3,0.1-3.5,0.1c-1.7,0-3.5,0-5.2,0c-0.8,0-1.5,0-2.3,0
			c-1.2,0-2.5,0-3.7,0c-1.1,0-2.2,0-3.3,0c-0.4,0-0.7-0.1-1.1-0.1c-1.2,0-2.5,0.1-3.7,0.1c-1.3,0-2.5-0.1-3.8-0.1
			c-0.9,0-1.9,0.1-2.8,0.1c-0.2,0-0.3-0.1-0.5-0.2C327.4,397,327.4,397,327.4,396.9z"/>
		<path d="M367.7,420.3c-0.2-0.1-0.4-0.2-0.7-0.3c0.3,0,0.5,0,0.7-0.1c0,0-0.1-0.1-0.1-0.1c0.2-0.2,0.3-0.5,0.5-0.5
			c0.6,0,1.3,0.1,1.9,0.3c0.5,0.2,0.8,0.6,1.3,0.9c0.1,0.1,0.3,0.1,0.5,0.3c-0.1-0.2-0.1-0.3-0.2-0.4c0.4,0,0.8,0.1,1.2,0.1
			c-0.4,0.8-1.1,0.5-1.5,0.4c-0.5-0.1-0.9-0.6-1.2-0.8c-0.6-0.1-1.3-0.2-2-0.3c0,0.2,0,0.3-0.1,0.4c0.6,0.1,1.2,0.1,1.8,0.2
			c0.4,0.1,0.8,0.5,1.2,0.8c0.2,0.1,0.5,0.2,0.8,0.2c0.5,0.1,1,0.3,1.5,0.4c0.1,0,0,0.2,0.1,0.3c0.1,0.1,0.3,0.4,0.4,0.3
			c1,0,1.8,0.7,2.7,1.1c0-0.2-0.1-0.4-0.1-0.7c0.6,0.3,1.1,0.7,1.8,0.3c-0.6-0.4-1.2-0.8-1.8-1.1c1-0.3,1.4,0.8,2.2,1
			c-0.3,0.8,0.8,0.2,0.7,0.8c-0.5-0.1-1-0.3-1.6-0.4c0,0,0,0.1,0,0.1c0.2,0.1,0.5,0.2,0.7,0.3c0,0,0,0.1,0,0.1
			c-0.5-0.1-0.9-0.2-1.4-0.3c-0.1,0-0.3-0.1-0.4-0.1c-0.7,0.4-1.1-0.2-1.6-0.5c-0.1-0.1-0.2-0.2-0.3-0.2c-0.6-0.2-1.2-0.1-1.7-0.7
			c-0.1-0.1-0.4-0.1-0.7-0.1c-0.5,0.1-1.8-0.5-1.9-0.7c-0.4-0.2-0.6-0.3-0.9-0.4c-0.5-0.1-1-0.2-1.5-0.3
			C367.8,420.8,367.4,420.8,367.7,420.3z"/>
		<path d="M263.1,408.8c-0.5,0-1,0-1.5,0.1c0,0,0,0.1,0,0.1c0.4,0.2,0.9,0.3,1.3,0.5c0,0.1-0.1,0.2-0.1,0.2
			c-1.1-0.2-1.9-0.9-2.6-1.6c-0.3,0.4-0.7,0.5-1,0c-0.2-0.3-0.3-0.5-0.7-0.3c-0.5,0.2-1.3-0.6-1.3-0.9c-0.4-0.1-0.8-0.1-1.2-0.2
			c-0.4,0-0.7-0.2-0.8-0.6c0-0.1-0.2-0.2-0.4-0.3c0,0.1-0.1,0.2-0.2,0.4c-1-0.4-2-0.8-3-1.2c0.1-0.2,0.1-0.4,0.2-0.7
			c2.6,1,5.1,1.9,7.6,2.9c0,0.2,0,0.4-0.1,0.5c0.1,0,0.1,0,0.2,0c0-0.1,0.1-0.2,0.1-0.3c0.8,0.1,1,1.3,2.1,1c-0.4-0.2-0.7-0.3-1-0.4
			c0.5-0.4,0.8,0.1,1.2,0.2C262.3,408.4,262.7,408.6,263.1,408.8L263.1,408.8z"/>
		<path d="M290.8,411.7c-0.5-0.1-1.1-0.4-1.6-0.4c-0.8,0-1.3-0.7-2-0.9c-1.5-0.3-2.9-0.9-4.3-1.4c-0.1,0-0.2-0.2-0.3-0.2
			c0-0.1,0-0.1,0.1-0.2c0.6,0.1,1.2,0.3,1.8,0.4c-0.4-0.5-0.9-0.7-1.5-0.6c-1,0.3-1.9,0.1-2.9-0.4c0.5-0.2,1-0.3,1.5-0.4
			c0,0,0.6-0.1,0.5,0.4c0,0,0.2,0.2,0.3,0.2c0.8-0.3,1.5-0.1,2.1,0.3c0.2,0.1,0.3,0.3,0.4,0.5c0,0.1-0.1,0.1-0.1,0.2
			c0.5,0,0.9,0,1.4,0c0.1,0,0.3,0.2,0.4,0.3c0.1,0.1,0.2,0.2,0.3,0.2c0.9-0.2,1.6,0.3,2.4,0.5c0.1,0,0.3,0.2,0.3,0.4
			c0.1,0.6,0.2,0.7,1.1,0.3c-0.2-0.1-0.3-0.1-0.4-0.1c-0.1,0-0.1,0-0.3-0.1c0.7-0.1,1,0.3,1.2,0.7
			C291,411.6,290.9,411.6,290.8,411.7z"/>
		<path d="M293.2,432.4c-0.6,0-1.1,0.1-1.6,0.1c0.1-0.3,0.3-0.7,0.5-1.1c0.1-0.3,0-0.5-0.4-0.4c-0.3,0.1-0.6,0-1,0.1
			c-0.2,0-0.4,0.2-0.4,0.3c0.1,0.4,0.2,0.8,0.3,1.1c-0.4,0-0.9,0-1.2,0c0.1-0.4,0.3-0.8,0.3-1.2c0.1-0.5,0-0.9,0-1.4
			c-0.1-0.3-0.5-0.3-0.7,0.1c-0.8,1.1-1.5,2.1-2.4,3.2c0-0.1,0-0.3,0-0.3c0.9-1.2,1.7-2.4,2.6-3.6c0.4-0.6,0.9-1.2,1.3-1.8
			c0.1-0.1,0.2-0.2,0.3-0.4c0.1,0,0.1,0.1,0.2,0.1c-0.5,0.7-0.9,1.5-1.5,2.3c0.4,0,0.7,0.1,1.2,0.1c-0.1,0.1-0.2,0.2-0.2,0.2
			c-0.1,0.3-0.1,0.6-0.2,0.9c0.2,0,0.5,0,0.7,0.1c0.6,0.1,0.9-0.1,1-0.7c0-0.3,0-0.4-0.3-0.3c-0.1,0-0.2,0-0.4-0.1
			c0.2-0.1,0.4-0.2,0.6-0.2c0.4-0.1,0.7,0.1,0.7,0.6c0,0.5,0,1.1,0,1.6c0,0.5,0.1,0.8,0.7,0.6C293.3,432.2,293.2,432.3,293.2,432.4z
			"/>
		<path d="M367.9,414.4c-0.1-0.1-0.3-0.1-0.4-0.2c0.6-0.5,2.9-0.1,4,0.7c-0.7-0.2-1.4-0.5-2-0.7c0,0.1-0.1,0.1-0.1,0.2
			c0.2,0.1,0.4,0.4,0.6,0.4c0.6-0.1,1.1,0.4,1.9,0.2c0.6-0.2,1.4,0.1,2.1,0.2c0,0.1,0,0.1,0,0.2c-0.8,0-1.6,0-2.4,0
			c0,0-0.1,0.1-0.1,0.1c0.2,0.1,0.3,0.2,0.5,0.2c1,0.3,2,0.7,3.1,1c-0.2,0.2-0.4,0.3-0.4,0.3c-0.4-0.1-0.8-0.3-1.2-0.4
			c-0.4-0.1-0.7-0.1-1.1-0.2c-0.3-0.1-0.5-0.2-0.7-0.3c-0.3-0.1-0.5-0.2-0.7-0.3c-0.3-0.1-0.5-0.1-0.8-0.2c-0.4-0.1-0.7-0.5-1.2-0.3
			c-0.1,0-0.2,0-0.3,0c-1-0.3-2.1-0.7-3.1-1c-0.4-0.1-0.9-0.2-1.3-0.5c1.2,0.2,2.4,0.4,3.6,0.6C367.9,414.5,367.9,414.5,367.9,414.4
			z M371.3,415.7c0-0.1,0.1-0.1,0.1-0.2c-0.2-0.1-0.3-0.3-0.5-0.4c-0.3-0.1-0.7,0-1-0.1c-0.3,0-0.7-0.2-0.7-0.3
			c0-0.5-0.3-0.2-0.5-0.3c-0.1,0.3-0.2,0.3-0.5,0.1c0,0-0.2,0.1-0.4,0.2C369.1,415.1,370.2,415.4,371.3,415.7z"/>
		<path d="M348.2,413.9c1.1,0.2,2.1,0.4,3.2,0.6c0-0.1,0-0.3,0-0.5c0.4,0.1,0.8,0.1,1.3,0.2c-0.4,0.2-0.6,0.3-0.9,0.5
			c0.5,0.3,1,0.5,1.4,0.7c0.1,0,0.3,0,0.4,0c-0.1-0.1-0.2-0.2-0.3-0.3c-0.2-0.2-0.8-0.2-0.6-0.7c1.4,0.5,2.9,0.5,4.1,1.7
			c-0.3,0-0.5,0-0.8,0c0,0.1,0,0.1,0,0.2c0.2,0,0.3,0.1,0.5,0.1c0,0.1,0,0.2,0,0.2c-0.2,0-0.5,0.1-0.7,0.1c-0.5-0.1-1.2-0.1-1.5-0.8
			c-0.1-0.2-0.4-0.3-0.7-0.4c0,0.1-0.1,0.1-0.1,0.2c0.2,0.1,0.4,0.2,0.6,0.3c0,0.1,0,0.1-0.1,0.2c-2.1-0.7-4-1.7-6.2-2
			C348.2,414,348.2,413.9,348.2,413.9z M355.2,415.7c-0.3-0.8-0.8-0.5-1.4-0.5C354.3,415.4,354.8,415.5,355.2,415.7z"/>
		<path d="M348.6,421.1c0.4,0.3,0.9,0.6,1.2,0.9c-0.1,0-0.3,0-0.5,0.1c0,0.1,0,0.1-0.1,0.2c1.1,0.4,2.4,0.5,3.1,1.6
			c-0.3,0.1-1.2-0.3-1.5-0.6c-0.1-0.2-0.5-0.3-0.8-0.4c-0.1,0-0.3,0.1-0.3,0.1c-0.6-0.3-1.1-0.6-1.8-0.9c-0.4,0.2-1.4-0.1-1.5-0.6
			l0,0c0.2,0.1,0.4,0.2,0.6,0.3c0.1-0.1,0.1-0.3,0.2-0.4c0.4,0.2,0.7,0.4,1,0.6c0.4,0.3,0.6,0.4,0.9,0.1c-1-0.7-2-1.2-3.3-1.1l0,0
			c-0.2-0.1-0.4-0.1-0.6-0.2c0,0,0-0.1,0-0.1c0.8,0,1.5,0.1,2.3,0.1c0-0.1,0-0.1,0-0.2c-0.4,0-0.9-0.1-1.3-0.2
			c-0.9-0.2-1.8-0.5-2.6-0.7l0,0c0.8-0.4,1.5-0.1,2.3,0.2c0.3,0.1,0.6,0.1,0.8,0.2c0.5,0.2,1,0.5,1.5,0.8c-0.2,0.1-0.2,0.1-0.4,0.2
			C348.2,421,348.4,421.1,348.6,421.1L348.6,421.1z"/>
		<path d="M358.4,411.7c1-0.3,1.6,0.4,2.4,0.7c0.2-0.4,0.8-0.3,2.2,0.3c-0.1,0.1-0.2,0.2-0.3,0.4c0.4,0,0.8,0,1.1,0
			c0,0.1-0.1,0.1-0.1,0.2c0.2,0.2,0.3,0.4,0.5,0.5c0.4,0.1,0.9,0.2,1.1,0.1c0.4-0.4,0.8-0.1,1.1-0.2c0.6-0.1,1.1-0.1,1.7-0.1
			c0,0.1,0,0.2,0,0.2c-0.5,0-1.1-0.1-1.6,0.1c-0.7,0.3-1.3,0.1-2,0c-0.3,0-0.6,0.1-1,0.2c-0.1-0.2-0.4-0.4-0.9-0.2
			c-0.6,0.2-1.4-0.4-1.4-1.1c-0.7,0.6-1.1-0.2-1.5-0.5c-0.4-0.2-0.6-0.5-1.1-0.3C358.7,411.9,358.6,411.7,358.4,411.7z M363.1,413.4
			c-0.1-0.1-0.1-0.2-0.2-0.2c-0.2-0.1-0.7,0-0.5-0.5c-0.2-0.1-0.5-0.1-0.7-0.2c0,0-0.1,0.1-0.1,0.2c0.2,0.1,0.3,0.1,0.5,0.2
			c0,0,0,0,0,0C362.1,413.6,362.7,413.4,363.1,413.4z"/>
		<path d="M367.3,429.3c0.4,0.1,0.9,0.2,1.3,0.4c0.4,0.1,0.7,0.3,1.1,0c0.1-0.1,0.4,0.1,0.7,0.2c-0.2,0.1-0.3,0.1-0.5,0.2
			c0.3,0.3,0.5,0.8,1,0.2c0,0,0.1,0,0.2,0c0.9,0.3,1.8,0.5,2.7,0.9c-0.4-0.1-0.7-0.1-1.1-0.2c0,0.1,0,0.2-0.1,0.3
			c0.4,0.1,0.8,0.4,1.1,0.3c1.2-0.2,1.5,0.8,2.1,1.3c0,0-0.1,0.1-0.1,0.1c-0.4-0.2-0.7-0.4-1.1-0.6c-0.7-0.3-1.3-0.5-2-0.7
			c-0.2-0.1-0.6,0-0.6-0.5c0-0.2-0.5-0.3-0.8-0.5c0,0.1,0,0.1,0,0.2c-0.3-0.1-0.6,0-0.8-0.2c-0.7-0.6-1.6-0.6-2.4-0.9
			C367.7,429.7,367.5,429.5,367.3,429.3C367.4,429.3,367.3,429.3,367.3,429.3z"/>
		<path d="M312.2,414.2c-0.3,0-0.6,0.1-1,0c-0.3,0-0.7-0.2-1-0.3c-0.3-0.1-0.4-0.2-0.4-0.6c0.1-0.4,0.1-0.8-0.5-0.4
			c-0.1,0.1-0.4-0.1-0.5-0.2c-1-0.4-2.1-0.4-3.2-0.5c-0.4,0-0.9-0.4-1.3-0.6c0-0.1,0-0.1,0-0.2c0.7,0.2,1.3,0.3,2,0.5
			c-0.5-0.8-1.4-0.6-2.2-0.9c0-0.1,0-0.2,0-0.4c0.5,0.1,0.9,0.2,1.4,0.4c0.4,0.2,0.9,0.4,1.3,0.6c0.1,0.1,0.2,0.2,0.2,0.3
			c-0.1,0.5,0.3,0.3,0.5,0.3c1.1,0.1,2.2,0.3,3.3,0.4c0,0.1,0,0.1,0,0.2c-0.1,0-0.2,0.1-0.4,0.2c0.2,0.1,0.4,0.2,0.7,0.4
			c-0.3,0-0.5,0-0.7,0c0,0,0,0.1,0,0.1c0.5,0.2,1,0.3,1.5,0.5C312,414.1,312.1,414.1,312.2,414.2z"/>
		<path d="M349.7,409.1c0.3,0.1,0.5,0.1,0.7,0.1c0,0.1,0,0.1,0,0.2c-0.6,0-1.2,0-1.8,0c0.7-0.6,0.9-1.6,0.4-2.9c0.5,0,1,0,1.5,0.1
			c0.9,0.2,1.1,0.7,0.4,1.4c0.5,0.3,0.4,1.2,1.3,1.1c-0.3,0.5-1,0.5-1.3,0c0-0.1-0.1-0.1-0.1-0.2c-0.1-0.5-0.4-0.7-0.8-0.6
			C349.9,408.3,349.9,408.8,349.7,409.1z M350.2,406.7c-0.1,0-0.2,0-0.2,0.1c-0.1,0.4-0.1,0.8-0.2,1.2c0.4-0.1,0.6-0.1,0.9-0.2
			C350.6,407.4,350.4,407,350.2,406.7z"/>
		<path d="M220.4,397.7c0.2,0,0.3-0.1,0.5-0.1c0.3-1.9,0.3-1.9-0.1-2.5c0.5,0,1,0,1.5,0c0.3,0,0.6,0.2,0.7,0.4
			c0.1,0.2,0.1,0.6,0.1,1.1c0.5,0.5,0.4,1.1-0.4,1.4c-0.7,0.3-1.5,0.2-2.3,0C220.4,397.8,220.4,397.7,220.4,397.7z M221.5,396.5
			c0,0.5,0,0.8,0.1,1.2c0.5,0.1,0.9,0.1,1-0.5C222.7,396.4,222,396.7,221.5,396.5z M222.6,396.1c-0.1-0.3-0.2-0.5-0.3-0.7
			c-0.1-0.1-0.5-0.1-0.5-0.1c-0.1,0.3-0.1,0.6-0.2,0.9C221.9,396.2,222.2,396.2,222.6,396.1z"/>
		<path d="M242.8,400c1.7-0.7,1.9,1.1,2.8,1.6c0.2-0.5,0.5-1,0.7-1.5c0.2-0.4,0.9-0.4,1.2,0c-0.2,0-0.4,0-0.6,0.1c0,0.6,0,1.2,0,1.8
			c0.1,0,0.3,0.1,0.5,0.1c0,0,0,0.1,0,0.1c-0.4,0-0.7,0.1-1.1,0.1c0-0.5,0.1-0.9,0.1-1.4c-0.1,0-0.1,0-0.2,0c-0.2,0.3-0.3,0.7-0.5,1
			c-0.2,0.4-0.5,0.5-0.7,0c-0.2-0.3-0.4-0.7-0.7-1.1c-0.1,0.7-0.2,1.2,0.4,1.5c-0.3-0.1-0.7-0.1-1.1-0.2
			C244.3,401.1,244,400.4,242.8,400z"/>
		<path d="M289.6,366.9c0.2,0,0.5,0,0.9,0c-0.1,0.3-0.2,0.6-0.2,0.8c0.1,0.5-0.2,0.7-0.6,0.8c-1,0.1-2.2-0.1-2.4-1.3
			c-0.1-0.8,0.5-1.6,1.4-1.7c0.3,0,0.6,0,0.9,0c0.2,0,0.4,0.1,0.5,0.3c0.1,0.2,0,0.4-0.1,0.6c-0.3-0.5-0.8-0.7-1.3-0.6
			c-0.7,0.1-0.9,0.7-0.9,1.2c0,0.4,0.4,0.7,0.7,1.1c0,0,0.1,0,0.1,0c0.3,0,0.7,0.1,1,0.1C289.6,367.8,289.6,367.4,289.6,366.9z"/>
		<path d="M367.4,429.3c-0.6,0.2-1.1,0-1.5-0.4c-0.3-0.2-0.5-0.6-0.7-0.8c-0.1-0.1-0.4-0.2-0.6-0.1c0.2,0.2,0.4,0.3,0.6,0.5
			c0,0,0,0.1,0,0.1c-0.3-0.1-0.7-0.2-1-0.5c-0.1-0.1,0-0.4,0.1-0.6c0.4,0.1,0.8,0.2,1.1,0.2c0.4,0,0.8,0,0.7,0.7
			c0.7-0.9,1.1,0,1.6,0c0-0.1,0-0.2,0-0.5c0.7,0.3,1.3,0.6,1.9,0.9c0,0.1-0.1,0.2-0.1,0.3c-0.5-0.1-0.9-0.1-1.4-0.2
			c-0.5-0.2-1-0.4-1.4-0.7c0,0.1-0.1,0.1-0.1,0.2c0.2,0.2,0.5,0.3,0.7,0.5c0,0,0.1-0.1,0.1-0.1C367.3,429,367.3,429.1,367.4,429.3
			C367.3,429.3,367.4,429.3,367.4,429.3z"/>
		<path d="M363,417.8c-0.6-0.2-1.2-0.4-1.7-0.5c0-0.1,0-0.1,0-0.2c0.2,0,0.4-0.2,0.5-0.1c0.5,0.3,1.3,0,1.6,0.8
			c0.1,0.1,0.5,0.1,0.8,0.1c0.4,0,0.9,0.1,1.3,0.1c0,0.1,0,0.1,0,0.2c-1,0-2.1,0-3.3,0c0.6,0.7,1.5,0.2,2,0.7
			c-1.4,0.3-2.1,0.1-2.2-0.5c-1.2,0.4-1.8-0.6-2.6-1C360.6,417.7,361.7,418.3,363,417.8z"/>
		<path d="M354.3,424.4c-0.2-0.2-0.4-0.3-0.5-0.6c-0.1-0.3-0.6-0.4-1-0.5c-0.2-0.1-0.4-0.1-0.6-0.2c0-0.1,0-0.2,0.1-0.2
			c0.2,0,0.4,0,0.5,0c0,0,0-0.1,0.1-0.1c-0.6-0.4-1.3-0.7-1.9-1.1c0.1,0,0.3-0.1,0.3-0.1c0.5,0.3,1.2,0.2,1.6,0.8
			c0,0.1,0.2,0,0.3,0.1c0.6,0.1,1.1,0.2,1.6,0.6c0.3,0.3,0.8,0.3,1.2,0.4c0.3,0.1,0.7,0.2,1,0.4c-0.3,0-0.6,0.1-1,0.2
			c-0.2-0.1-0.5-0.2-0.7-0.3c-0.3-0.1-0.5-0.3-0.8-0.4c-0.1,0.1-0.2,0.3-0.3,0.5c0.3,0.1,0.7,0.3,1,0.4
			C355,424.4,354.4,423.5,354.3,424.4L354.3,424.4z M353.1,422.7c0,0.1,0,0.1,0,0.2c0.3,0.2,0.6,0.3,0.9,0.5c0.1,0,0.2,0,0.3,0
			c0-0.1-0.1-0.3-0.1-0.3C353.8,422.8,353.4,422.8,353.1,422.7z"/>
		<path d="M382.7,418.5c0-0.2,0-0.5-0.1-0.5c-0.5-0.2-0.9-0.7-1.6-0.5c-0.2,0-0.4-0.1-0.6-0.2c1.3-0.5,2.4,0.6,3.6,0.5
			c0,0.1,0,0.1,0,0.2c-0.4,0-0.7,0-1.1,0c0,0.1,0,0.1,0,0.2c0.4,0.1,0.8,0.2,1.2,0.2c0.9-0.1,1.7,0.1,2.4,0.5
			c0.2,0.1,0.3,0.4,0.5,0.6c0.1,0.1,0.3,0.2,0.4,0.2c0.3,0.1,0.5,0.1,0.9,0.2c-0.7,0.2-1.5,0-1.7-0.5c-0.1-0.3-1-0.5-1.3-0.4
			c-0.3,0.1-0.6,0-0.8-0.1C383.9,418.8,383.2,418.6,382.7,418.5z"/>
		<path d="M335.9,422c0.2,0.2,0.4,0.3,0.7,0.5c0.2,0.1,0.4,0.2,0.4,0.4c0.5,0.9,0.5,1,1.2,1.3c-0.4,0.2-1-0.1-1.2-0.5
			c-0.2-0.4-0.5-0.7-1.1-0.8c0.2-0.1,0.3-0.2,0.5-0.3c-0.4-0.2-0.8-0.4-1.2-0.6c0,0,0,0.1-0.1,0.1c0.2,0.2,0.4,0.3,0.6,0.5
			c-0.2,0.1-0.4,0.1-0.7,0.2c0.1-0.2,0.1-0.2,0.1-0.3c-0.2-0.1-0.4-0.3-0.6-0.4c-0.1,0.1-0.1,0.3-0.2,0.4c-0.2-0.3-0.4-0.5-0.6-0.8
			c0,0,0.1-0.1,0.1-0.1c0.3,0.1,0.7,0.3,1.1,0.5c-0.1-0.3-0.1-0.5-0.2-0.5c-0.8-0.4-1.4-1-2.4-1c-0.5,0-0.8-0.2-1-0.8
			c1.2,0.6,2.6,0.6,3.5,1.6C335.2,421.8,335.6,421.9,335.9,422L335.9,422z"/>
		<path d="M391.3,428.4c0,0.1,0,0.2,0,0.4c-0.6-0.1-1.2-0.2-1.8-0.3c-0.1,0.2-0.1,0.4-0.2,0.5c-0.5-0.4-1-0.8-1.5-1.2
			c0.7-0.5,1.2,0.3,1.8,0.4c0.4,0.1,0.9,0.5,1.3-0.1c0,0,0.1,0,0.2,0c1,0.2,2.1,0.4,3.1,0.7c0.3,0.1,0.4,0.4,0.7,0.6
			c0,0.1-0.1,0.1-0.1,0.2C393.6,429.1,392.4,428.7,391.3,428.4z"/>
		<path d="M312.2,414.2c-0.1,0-0.3-0.1-0.4-0.1c0-0.2,0-0.3,0-0.4c0.5,0.2,1,0.4,1.6,0.7c0-0.3,0-0.4-0.1-0.5c0.5,0.3,1,0.5,1.4,0.7
			c-0.1,0.1-0.2,0.2-0.2,0.3c0.1,0.6,0.5,0.8,1.1,0.8c-0.1-0.1-0.1-0.2-0.1-0.3c0.4,0,0.8-0.1,1.2-0.1c0-0.1,0-0.1,0-0.2
			c0.2,0.2,0.3,0.3,0.5,0.5c-0.3,0.3-1-0.4-1,0.5c-0.7-0.1-1.3-0.3-1.8-0.9c-0.1-0.1-0.3-0.1-0.5-0.1c-0.4-0.1-0.7-0.2-1.2-0.3
			c0.2-0.2,0.2-0.2,0.3-0.2c0.2,0.1,0.4,0.1,0.6,0.2c0-0.1,0.1-0.2,0-0.2c-0.2-0.1-0.4-0.2-0.6-0.3
			C312.8,414.2,312.5,414.2,312.2,414.2z"/>
		<path d="M324.5,413.1c-0.8,0-1.7,0-2.5,0c0,0,0,0,0,0.1c0.6,0.2,1.3,0.4,1.8,0.6c0.3-0.1,0.5-0.3,0.7-0.3c0.1,0,0.3,0.2,0.4,0.3
			c-0.1,0-0.2,0-0.4,0c-0.5,0-1,0.1-1.5,0.1c-0.1,0-0.2,0-0.3-0.1c-0.6-0.2-1.3-0.4-1.9-0.7c-0.3-0.1-0.5-0.3-0.7-0.5
			c1.5,0.1,2.9-0.1,4.3,0.4C324.5,413,324.5,413.1,324.5,413.1z"/>
		<path d="M283.4,383.4c0.4,0,1,0,1.6,0c-1,0.8-0.4,1.7-0.6,2.5c1.2,0.2,1.2,0.2,1.9-0.8c0.4,0.7,0.2,1.1-0.5,1.1
			c-0.9,0-1.8,0-2.7-0.1c0.4-0.2,1-0.1,1-0.8c0-0.5,0-1-0.1-1.4C283.9,383.8,283.6,383.7,283.4,383.4z"/>
		<path d="M305.3,382.3c-0.4-0.1-0.8-0.3-1.2-0.3c-0.1,0-0.2,0.6-0.3,0.9c0.1,0,0.1,0.1,0.2,0.1c0.3-0.1,0.5-0.2,0.9-0.4
			c0,0.3-0.1,0.5-0.1,0.9c-0.2-0.2-0.4-0.3-0.7-0.5c-0.4,0.5-0.3,1,0.1,1.5c-0.4,0-0.7,0-0.9,0c0-0.5,0.1-1,0.1-1.5
			c0-0.5,0.3-1-0.5-1.3c0.8-0.1,1.5-0.1,2.2-0.1c0.1,0,0.3,0.2,0.3,0.3C305.4,382.1,305.3,382.3,305.3,382.3z"/>
		<path d="M375.7,408.5c-0.4-0.2-0.7-0.5-1-0.6c-0.1,0-0.4,0.1-0.5,0.2c0.1,0.2,0.2,0.4,0.4,0.5c0.3,0.2,0.7,0.4,0.9,0.6
			c0.5,0.4,0.2,0.9-0.1,1.2c-0.3,0.3-1.2,0.3-1.4,0c-0.1-0.1-0.1-0.4-0.1-0.7c0.4,0.2,0.6,0.4,0.9,0.5c0.2,0,0.4-0.2,0.6-0.3
			c-0.1-0.2-0.2-0.5-0.4-0.7c-0.1-0.1-0.4-0.1-0.5-0.1c-0.5-0.1-0.6-0.4-0.6-0.8c0.1-0.4,0.6-0.9,1-0.8c0.3,0.1,0.6,0.1,0.8,0.3
			C375.7,408,375.7,408.2,375.7,408.5z"/>
		<path d="M344.2,424.9c0.9,0.4,1.8,0.8,2.7,1.1c1,0.4,2,0.8,3.1,1.2c0.1,0,0.2,0.1,0.4,0.2c-0.5,0.2-0.5,0.4,0.1,0.6
			c-0.3,0.1-0.5,0.3-0.8,0.4c0-0.3,0.1-0.5,0.1-0.8c-1-0.5-2.1-1-3.2-1.5c0,0-0.1,0.1-0.1,0.1c0.1,0.2,0.1,0.3,0.3,0.6
			c-0.4,0-0.7,0-1,0c0.4-0.4,0.4-0.6-0.1-0.9c-0.4-0.2-0.8-0.4-1.2-0.6C344.3,425.2,344.3,425,344.2,424.9L344.2,424.9z"/>
		<path d="M301,406.4c-0.4,0-0.8,0.1-1.4,0.2c0.8-0.6,0.9-1.9,0.2-2.5c0.5-0.1,0.9-0.2,1.4-0.3c0.5-0.1,1,0.2,1,0.7
			c0,0.3-0.6,0.6-0.9,0.9c-0.1,0.1-0.4,0.1-0.7,0.1C300.8,405.8,300.9,406.1,301,406.4z M300.7,405c0.5,0.1,0.9,0,0.8-0.5
			c0-0.2-0.3-0.5-0.5-0.5C300.6,404.2,300.7,404.6,300.7,405z"/>
		<path d="M389.8,411.1c-0.7-0.9-0.6-2.1-1.8-2.8c0.5,0,1,0,1.4,0c-0.1,0.5,0,1,0.7,1.9c0.3-0.6,0.5-1.1,0.8-1.8
			c-0.2,0-0.4-0.1-0.5-0.1c0,0,0-0.1,0-0.1c0.5,0,1,0,1.7,0c-0.2,0.1-0.3,0.1-0.4,0.2c-0.2,0.2-0.5,0.3-0.6,0.5
			c-0.4,0.7-0.7,1.4-1,2.1C389.9,411,389.8,411,389.8,411.1z"/>
		<path d="M385.7,408.3c-0.4,0.3-0.7,0.6-1.1,0.9c0-0.3,0-0.6-0.1-0.9c1-0.1,1.8-0.1,2.7-0.1c0.1,0,0.3,0.1,0.3,0.2
			c0,0.3-0.1,0.5-0.1,0.8c-0.3-0.3-0.6-0.5-0.8-0.7c-0.1,0-0.2,0.1-0.3,0.1c0,0.6,0.1,1.1,0,1.7c-0.1,0.6,0.2,0.5,0.6,0.4
			c-0.2,0.4-0.7,0.4-1.4,0.1C386,410.5,386.1,409,385.7,408.3z"/>
		<path d="M327.7,415c-0.8-0.1-1.5-0.2-2.3-0.2c0.7-0.3,1.4-0.4,2,0.1c-0.3-0.8-0.8-1-2.1-0.7c0.1-0.3,0.1-0.5,0.2-0.9
			c0.5,0.2,0.9,0.5,1.4,0.6c0.2,0.1,0.4,0.1,0.6,0.1c0.8-0.2,1.3,0.2,1.9,0.6c-0.3,0-0.6-0.1-0.8-0.1c0,0,0,0.1,0,0.1
			c0.2,0.1,0.3,0.1,0.5,0.2c0,0.1,0,0.1,0,0.2c-0.3-0.1-0.6-0.2-0.9-0.3c-0.1,0-0.3-0.1-0.4-0.2C327.7,414.7,327.7,414.8,327.7,415
			L327.7,415z"/>
		<path d="M363.6,426.7c-0.5-0.2-0.9-0.3-1.4-0.5c1.2-0.2,1.2-0.2,2.2,0.6c0.2,0.2,0.6,0.2,0.9,0.3c0,0.1,0,0.1,0,0.2
			c-0.4-0.1-0.8-0.1-1.1-0.2c-0.3,0-0.7,0-1,0c0,0.1,0,0.1,0,0.2c0.3,0.1,0.6,0.2,0.9,0.3c0,0.1,0,0.1,0,0.2c-0.5,0-1,0-1.4-0.1
			c-0.4-0.2-1.1-0.2-1.1-0.8c0.3-0.1,0.6-0.1,0.9-0.1c0.2,0,0.4,0,0.5,0.1C363.1,426.9,363.3,427.2,363.6,426.7z"/>
		<path d="M341.6,425.6c0.7,0.1,1.3,0.2,2,0.3c0.1,0,0.3,0.1,0.3,0.2c0.1,0.6,0.5,0.5,0.8,0.4c0.3-0.1,0.5,0,0.6,0.3
			c0.1,0.2,0.5,0.2,0.7,0.4c0.8,0.3,1.6,0.7,2.3,1c0,0.1-0.1,0.2-0.1,0.3c-0.4-0.2-1-0.3-1.3-0.6c-0.2-0.3-0.5-0.4-0.7-0.4
			c-0.6,0-1.1-0.2-1.6-0.5c-0.7-0.4-1.2-1.1-2.2-0.8c-0.3,0.1-0.6-0.2-0.9-0.3C341.5,425.7,341.6,425.6,341.6,425.6z"/>
		<path d="M347.2,413.8c-0.1-0.2-0.2-0.4-0.5-0.8c-0.1,0.3-0.2,0.4-0.2,0.6c-0.4-0.2-0.7-0.3-1.2-0.5c0.2-0.1,0.2-0.1,0.4-0.2
			c-0.4-0.2-0.7-0.3-0.9-0.5c0.9-0.5,1.6-0.3,2,0.5c0.7,0.1,1.4-0.5,2,0.1c-0.1,0.2-0.6,0-0.6,0.5c-0.1-0.1-0.3-0.1-0.4-0.2
			c-0.2,0-0.4,0-0.5,0c0,0.1,0.1,0.3,0.1,0.4C347.3,413.8,347.3,413.8,347.2,413.8z"/>
		<path d="M346.5,421.3c-0.7-0.1-1.4-0.1-2-0.3c-0.4-0.2-0.6-0.6-1.1-0.7c-0.5,0-0.9-0.1-1.5-0.1c0.1-0.3,0.2-0.4,0.3-0.7
			c0.4,0,0.9,0,1.4,0l0,0c0.4,0.3,0.8,0.5,1.2,0.8c-0.1,0.1-0.2,0.2-0.3,0.2c0.4,0.5,0.8,0.4,1.3,0.3l0,0
			C346.1,421,346.3,421.2,346.5,421.3L346.5,421.3z"/>
		<path d="M325.9,419.6c0.1,0,0.3,0,0.5,0c-0.2-0.2-0.4-0.3-0.5-0.5c0,0,0.1-0.1,0.1-0.1c0.2,0.1,0.4,0.2,0.5,0.4
			c0.3,0.3,0.6,0.6,1.1,0.3c0.1,0,0.2,0,0.3,0c1.1,0.5,2.1,0.9,3.2,1.4c0.2,0.1,0.3,0.5,0.4,0.8c-0.3-0.2-0.7,0-0.8-0.6
			c-0.1-0.3-0.8-0.4-1.3-0.5c-0.5-0.1-0.9,0-1.4-0.5c-0.2-0.3-0.8-0.2-1.3-0.3c-0.3-0.1-0.5-0.1-0.8-0.2
			C325.8,419.7,325.9,419.7,325.9,419.6z"/>
		<path d="M376.5,416.9c0.6,0.1,1.3,0.3,2,0.4c-0.3,0-0.4,0.1-0.5,0.1c0,0,0,0.1,0,0.1c0.7,0.2,1.5,0.5,2.2,0.7
			c0.5,0.2,1.1,0.6,1.6,0.6c0.7-0.1,0.9,0.5,1.4,0.6c0,0.1,0,0.1-0.1,0.2c-0.2,0-0.4,0.1-0.4,0c-0.5-0.6-1.2-0.5-1.9-0.6
			c-0.2,0-0.5-0.1-0.5-0.2c-0.4-0.8-1.2-0.5-1.8-0.6c-0.1,0-0.2,0-0.2-0.1C377.9,417.3,377,417.4,376.5,416.9z"/>
		<path d="M273.7,412.8c0.1,0.9,0.8,0.6,1.3,0.8c0.4,0.2,0.9,0.3,1.3,0.5c0.5,0.2,0.5,0.5,0.4,1c-0.2-1-1.1-1.1-1.7-1.4
			c0,0.1-0.1,0.1-0.1,0.2c0.4,0.2,0.8,0.4,1.2,0.6c0,0.1,0,0.1-0.1,0.2c-0.3-0.1-0.6-0.3-0.9-0.4c0,0.1-0.1,0.2-0.1,0.4
			c-0.4-0.2-0.8-0.4-1.2-0.6c0,0,0-0.1,0-0.1c0.3,0.1,0.5,0.2,0.8,0.3c0-0.1,0-0.1,0.1-0.2c-0.8-0.6-1.8-0.6-2.7-1
			C272.5,412.2,273.1,413,273.7,412.8z"/>
		<path d="M356.5,425.2c0.2,0,0.3,0.1,0.5,0.1c0-0.2,0-0.3,0.1-0.4c0-0.1,0.1-0.1,0.2-0.2c0.1,0.1,0.1,0.1,0.2,0.2
			c0.1,0.1,0.2,0.3,0.4,0.4c0.5,0.2,1,0.9,1.7,0.5c0,0,0.1,0.1,0.1,0.2c0.3,0.3,0.7,0.6,1.1,1c-0.1-0.4-0.2-0.5-0.3-0.7
			c0.1,0,0.1-0.1,0.2-0.1c0.1,0.2,0.4,0.3,0.4,0.6c0.1,0.5-0.1,0.6-0.6,0.4c-0.4-0.2-0.8-0.2-1-0.7c-0.1-0.2-0.6-0.4-0.8-0.3
			c-0.7,0.3-1-0.3-1.6-0.4c-0.3,0-0.5-0.2-0.7-0.3C356.4,425.3,356.5,425.3,356.5,425.2z"/>
		<path d="M367.3,419.7c-0.2,0-0.4,0-0.6,0c0,0.1,0,0.1,0.1,0.2c-0.1,0.1-0.2,0.2-0.3,0.2c-0.4-0.1-0.8-0.2-1.1-0.4
			c-0.2-0.1-0.2-0.4-0.3-0.5c-0.1-0.2-0.3-0.4-0.4-0.5c0.8,0,1.8,0,2.7,0c0,0.1,0,0.1,0,0.2c-0.4,0-0.8,0.1-1.2,0.1
			c0,0.1,0,0.1,0,0.2c0.4,0.1,0.8,0.3,1.2,0.4C367.3,419.6,367.3,419.7,367.3,419.7z"/>
		<path d="M393.5,380.6c0.3-0.4,0.6-0.7,0.8-1c0.2-0.4,0.4-0.8,0.6-1.2c0.8,0.7,0.5,2,1.8,2.3c0,0,0,0.1-0.1,0.1
			c-0.4,0-0.9-0.1-1.3-0.1c0.2-0.9,0-1.1-0.9-0.8c0.1,0.2,0.2,0.5,0.3,0.7C394.2,380.6,393.8,380.6,393.5,380.6z"/>
		<path d="M322,422.8c-0.1,0.2-0.2,0.3-0.3,0.5c-0.4-0.1-0.8-0.3-1.2-0.4c0,0,0-0.1,0-0.1c0.4,0.1,0.7,0.1,1.1,0.2c0,0,0,0,0.1-0.1
			c-0.7-0.3-1.5-0.7-2.2-1c0-0.1,0.1-0.1,0.1-0.2c1.7,0.6,3.4,1.3,5.2,2c-0.5,0.3-1.1-0.6-1.4,0.2c-0.4-0.1-0.8-0.3-1.2-0.4
			c0,0,0-0.1,0-0.1c0.2,0,0.3,0,0.5-0.1c0,0,0-0.1,0-0.1C322.4,422.9,322.2,422.9,322,422.8z"/>
		<path d="M377.8,432.1c-0.4-0.1-0.8-0.3-1.2-0.3c-0.9-0.2-1.6-0.7-2.3-1c-0.6-0.3-1.3-0.6-2-0.4c-0.1,0-0.2,0-0.3,0
			c-0.1,0-0.1-0.1-0.2-0.1c1-0.4,1.9-0.2,2.8,0.2c0.3,0.1,0.6,0.5,0.9,0.7c0.8,0.3,1.5,0.6,2.3,0.8
			C377.8,431.9,377.8,432,377.8,432.1z"/>
		<path d="M342.1,424.2c-0.2,0.1-0.3,0.1-0.4,0.2c0.2,0.2,0.5,0.4,0.7,0.7c0,0.1-0.1,0.1-0.1,0.2c-0.8-0.5-1.8-0.7-2.6-1.3
			c-0.7-0.5-1.6-0.8-2.3-1.4c0.7,0.3,1.4,0.5,2.1,0.8c0.7,0.4,1.1,1.1,2,1.1c0-0.7-0.8-0.6-0.9-1.2
			C341.1,423.5,341.5,423.8,342.1,424.2z"/>
		<path d="M332.1,415.7c0.1,0,0.4-0.1,0.4,0c0.4,0.9,1.5,0.8,2.1,1.4c0.3,0.3,0.6,0.4,1,0.6c0,0.1-0.1,0.1-0.1,0.2
			c-0.6-0.3-1.1-0.7-1.7-0.9c-0.6-0.2-1.2-0.2-1.8-0.2C332,416.4,332.1,416,332.1,415.7L332.1,415.7z"/>
		<path d="M356.1,411.8c0.2,0,0.4,0,0.7-0.1c0-0.1,0-0.3-0.1-0.4c0,0,0.1-0.1,0.1-0.1c0.3,0.2,0.5,0.5,0.8,0.7
			c0.3,0.2,0.7,0.3,1.2,0.5c0.5-0.7,0.5,0.2,0.8,0.3c0.4,0.2,0.7,0.3,1.1,0.5c0,0.1-0.1,0.2-0.1,0.2
			C359.1,412.8,357.6,412.3,356.1,411.8C356.1,411.8,356.1,411.8,356.1,411.8z"/>
		<path d="M388.4,420.9c-2,0.1-2.1,0.1-2.3-0.5c-0.8,0.3-1.5-0.2-2.2-0.5c0.2,0,0.5-0.1,0.6,0c0.4,0.4,0.7,0.2,1-0.1
			c0.5,0.2,1,0.3,1.6,0.5c-0.2,0.1-0.3,0.2-0.5,0.3c0,0,0,0.1,0,0.1c0.2,0,0.4-0.1,0.6,0C387.6,420.7,388.1,420.3,388.4,420.9z"/>
		<path d="M393.7,395.8c0.5-0.8,0.4-1.8-0.1-2.3c0.6,0,1.3,0.1,1.9,0.1c0,0.2,0,0.4,0,0.8c-0.2-0.2-0.2-0.3-0.3-0.4
			c-0.2-0.1-0.4-0.2-0.7-0.2c-0.1,0.2-0.1,0.4-0.2,0.6c0,0.3,0,0.7,0,1.1c0.6,0.1,1.1,0.1,1.3-0.5c0.2,0.8,0.1,0.8-0.6,0.9
			C394.7,395.8,394.3,395.8,393.7,395.8z"/>
		<path d="M321.5,417.8c-0.7-0.2-1.5-0.4-2.2-0.6c-0.2-0.1-0.4-0.3-0.6-0.5c0,0-0.1-0.1-0.2,0c-0.7,0.4-1-0.1-1.4-0.6
			c1,0.1,1.9,0.2,2.8,0.3c0,0.1,0,0.1,0,0.2c-0.2,0-0.5-0.1-0.7-0.1c0,0.1,0,0.1-0.1,0.2c0.8,0.3,1.7,0.5,2.5,0.8
			C321.5,417.7,321.5,417.8,321.5,417.8z"/>
		<path d="M374.3,415.4c0.5-0.3,0.9,0,1.4,0.2c0.3,0.2,0.6,0.2,1,0.3c0.4,0.1,0.7,0.1,1.1,0.2c0.7,0.2,1.4,0.4,2.3,0.7
			c-0.7,0-1.3,0-1.6,0c-0.3-0.2-0.4-0.4-0.6-0.4c-0.9,0-1.8-0.2-2.6-0.7C375,415.5,374.6,415.5,374.3,415.4z"/>
		<path d="M290.8,411.7c0.1-0.1,0.2-0.2,0.3-0.3c0.2,0,0.4,0,0.6,0c-0.2,0.2-0.3,0.3-0.5,0.5c1.3,0.2,2.7-0.2,3.9,0.9
			c-0.5,0-0.8,0-1.1,0c-0.1-0.3-0.6-0.6-1-0.6c-0.5,0.1-1.1,0.1-1.6,0C291.1,412.2,290.9,411.9,290.8,411.7z"/>
		<path d="M361.6,426c-1.5-0.5-3.2-0.6-4.4-2c0.6,0.1,1.1,0.2,1.6,0.3c-0.1,0.2-0.2,0.3-0.3,0.5c0.1,0,0.3-0.1,0.4,0
			c0.3,0.1,0.5,0.2,0.8,0.3c0.6,0.3,1.3,0.5,1.9,0.7C361.6,425.9,361.6,425.9,361.6,426z"/>
		<path d="M376.7,433c0.3,0.1,0.7,0.2,1.1,0.4c-0.1-0.3-0.2-0.4-0.3-0.5c0.9,0.4,1.7,0.8,2.5,1.2c-0.9-0.3-1.9,0.1-2.8-0.4
			C377.1,433.5,376.9,433.2,376.7,433L376.7,433z"/>
		<path d="M389.1,427.2c-0.6-0.1-1.1-0.2-1.7,0c-0.1,0-0.3-0.1-0.4-0.2c0,0,0-0.2,0-0.2c0.2,0,0.3-0.1,0.5,0c0.2,0,0.4,0.1,0.5,0.1
			c0-0.1,0.1-0.2,0.1-0.2c-0.7-0.3-1.4-0.6-2.2-0.9C386.6,425.4,386.8,425.5,389.1,427.2z"/>
		<path d="M269.6,411.6c-0.4-0.2-0.9-0.4-1.3-0.5c-0.5-0.2-0.8-0.4-1.4-0.1c-0.4,0.2-0.9-0.1-1.4-0.1c0-0.1,0-0.2,0-0.3
			c0.2,0,0.3,0,0.5,0c0.4,0.1,0.9,0.5,1.1-0.3c0.9,0.4,1.8,0.7,2.6,1.1C269.7,411.4,269.7,411.5,269.6,411.6z"/>
		<path d="M327.5,418.7c-0.3-0.1-0.5-0.1-0.9-0.2c0.4,0.4,0.8,0.7,1.1,1c-1,0.1-1.5-1-2.4-1.1C325.8,417.8,327.1,418,327.5,418.7z"
			/>
		<path d="M263,408.8c0.8,0.4,1.8,0.2,2.3,1.3c-1.7,0.1-1.7,0.1-2-0.5c0.3,0.1,0.5,0.2,0.8,0.4c0.3,0.2,0.5,0.1,0.5-0.3
			c-0.4-0.2-0.8-0.3-1.2-0.5C263.2,409,263.2,408.9,263,408.8C263.1,408.8,263,408.8,263,408.8z"/>
		<path d="M335.9,417.6c1.3,0.3,2.4,0.5,3.6,0.7c0,0,0,0,0,0.1c-0.5,0-1.1,0.1-1.6,0.1c-0.1,0-0.2,0-0.3-0.1
			c-0.4-0.3-0.7-0.5-1.2-0.3c-0.1,0.1-0.4,0-0.5-0.1C335.7,417.9,335.8,417.7,335.9,417.6z"/>
		<path d="M306.9,418c1.6,0.6,3,1.1,4.4,1.6c0,0.1-0.1,0.2-0.1,0.2c-0.3-0.1-0.6-0.3-0.9-0.4c-0.7-0.2-1.4-0.4-2.1-0.6
			C307.7,418.8,307.3,418.6,306.9,418z"/>
		<path d="M378,424.3c0.5,0,1.1-0.1,1.7,0c0.7,0.2,1.3,0.7,1.9,1.1c0,0-0.1,0.1-0.1,0.1C380.3,425.1,379.1,424.7,378,424.3z"/>
		<path d="M360.5,416.7c-0.3,0-0.5-0.1-0.9-0.1c0.1,0.2,0.2,0.3,0.2,0.4c0,0-0.1,0.1-0.1,0.1c-0.1-0.1-0.3-0.3-0.4-0.4
			c-0.1-0.1-0.3-0.3-0.4-0.3c-0.9,0.1-1.3-0.6-1.9-1c0.4,0.1,0.8,0.2,1.1,0.4c0.4,0.2,0.7,0.3,1.2,0.3c0.4,0,0.8,0.3,1.2,0.5
			C360.5,416.6,360.5,416.7,360.5,416.7z"/>
		<path d="M379.3,432.7c0.9,0.4,1.9,0.9,2.8,1.4c-0.6,0.3-2.6-0.5-2.9-1.2C379.2,432.8,379.2,432.7,379.3,432.7z"/>
		<path d="M329,425.5c-1.7-0.4-3.3-0.9-5-1.3c0-0.1,0-0.2,0.1-0.2c0.5,0.4,1.3,0,1.8,0.6c0.1,0.1,0.5-0.1,0.8-0.1
			c0.8,0.2,1.6,0.5,2.4,0.7C329,425.4,329,425.5,329,425.5z"/>
		<path d="M388.6,420.2c0.3-0.2,0.5-0.4,0.7-0.6c0.3,0.5,0.9,0.8,1.6,0.7c-0.1-0.1-0.3-0.2-0.4-0.4c0,0,0.1-0.1,0.1-0.1
			c0.5,0.2,1,0.5,1.5,0.7C390.9,420.8,389.8,420.4,388.6,420.2z"/>
		<path d="M327.7,415c0.4,0.1,0.8,0.3,1.3,0.5c0.8-1.2,1.3,0.2,2,0.1c-0.6,0.1-1.2,0.2-1.8,0.2C328.7,415.7,328,415.6,327.7,415
			C327.7,415,327.7,415,327.7,415z"/>
		<path d="M381.5,424.8c0.6-0.2,1,0.2,1.3,0.7c0.2,0.2,0.5,0.2,0.8,0.3c0.2,0.1,0.4,0.2,0.6,0.3
			C382.8,426.6,382.2,425.7,381.5,424.8L381.5,424.8z"/>
		<path d="M348.6,421.1c-0.3-0.5,0.2-0.5,0.4-0.4c0.6,0.2,1.1,0.5,1.6,0.8c0.3,0.2,0.4,0.6,0.6,0.9c0.1,0,0.1-0.1,0.2-0.1
			c-0.1,0-0.2,0.1-0.3,0c-0.5-0.4-1.1-0.4-1.4-1C349.5,421.1,348.9,421.2,348.6,421.1C348.6,421.1,348.6,421.1,348.6,421.1z"/>
		<path d="M314.9,420.5c0.1,0.1,0.3,0.2,0.4,0.3c-0.3,0.1-0.6,0.1-1,0.2c0.3-0.5,0.5-0.8,0.6-1.1c0.9,0.3,1.7,0.7,2.6,1
			c0,0,0,0.1,0,0.1c-0.9-0.2-1.7-0.4-2.6-0.7C315,420.4,314.9,420.4,314.9,420.5z"/>
		<path d="M315.7,421c0.9,0.2,1.9,0.4,2.8,0.6c0,0.1,0,0.1,0,0.2c-0.4-0.1-0.7-0.1-1.1-0.2c0,0.1,0,0.1-0.1,0.2
			c0.3,0.2,0.6,0.3,0.9,0.5c0,0-0.1,0.1-0.1,0.1c-0.8-0.4-1.7-0.8-2.5-1.2C315.7,421.1,315.7,421.1,315.7,421z"/>
		<path d="M329.9,426.3c-0.2,0.1-0.3,0.2-0.5,0.3c-0.2,0-0.5-0.1-0.7-0.1c-0.7-0.2-1.5-0.4-2.2-0.6c0-0.1,0-0.1,0.1-0.2
			c0.5,0.1,1,0.1,1.4,0.3c0.5,0.3,0.9,0.2,1.4,0.1c0.2,0,0.3,0,0.5,0C329.9,426.2,329.9,426.3,329.9,426.3z"/>
		<path d="M395.5,409.5c-0.5,1.4-0.2,1.9,1.2,1.7c-0.3,0.3-0.9,0.5-1.3,0.2c-0.3-0.2-0.6-0.7-0.6-1c0-0.3,0.3-0.7,0.5-1
			C395.4,409.4,395.4,409.4,395.5,409.5z"/>
		<path d="M382.2,418.5c-1.2-0.4-2.4-0.7-3.6-1.1c0.6-0.5,1-0.2,1.5,0.1c0.4,0.2,1,0.4,1.4,0.5c0.2,0.1,0.5,0.2,0.7,0.3
			C382.2,418.4,382.2,418.4,382.2,418.5z"/>
		<path d="M342,419.6c-0.3,0-0.7,0-1,0c0,0,0,0,0,0.1c-0.6-0.2-1.2-0.4-1.8-0.6c0-0.1,0-0.2,0.1-0.3c0.5,0.1,0.9,0.2,1.4,0.3
			c0.5,0.1,0.9,0.3,1.4,0.5C342,419.5,342,419.5,342,419.6z"/>
		<path d="M388.9,426.6c1.1,0.4,2.2,0.9,3.4,1.4C390.9,428.1,389.9,427.3,388.9,426.6z"/>
		<path d="M354.4,430.7c-0.9-0.2-1.9-0.5-2.8-0.7C352.3,429.6,353.8,430,354.4,430.7z"/>
		<path d="M350.6,428.6c0.9-0.1,1.7,0.7,2.5-0.1c0.3,0.2,0.6,0.3,0.8,0.4c-0.4,0.1-0.8,0.2-1.3,0.3c-0.1,0-0.3,0-0.4,0
			c-0.4-0.1-0.9-0.2-1.3-0.4C350.8,428.9,350.7,428.7,350.6,428.6z"/>
		<path d="M390.5,422c0.2,0,0.4-0.1,0.5-0.1c-0.2-0.3-0.3-0.6-0.5-0.8c0.1-0.1,0.1-0.1,0.2-0.2c0.3,1.1,1.5,0.8,2.1,1.4
			c-0.3,0.3-0.3,0.2-0.8,0c-0.2-0.1-0.5,0-0.8,0c-0.2,0-0.4-0.1-0.7-0.1C390.5,422.1,390.5,422.1,390.5,422z"/>
		<path d="M373.6,421.9c0.4-0.3,0.7-0.5,1-0.7c0.1,0,0.2,0,0.3,0.1c0.4,0.3,0.7,0.7,1.1,1c0.1,0.1,0.2,0,0.3,0.1
			c-0.4,0.4-0.8-0.1-1.3-0.1c0.1-0.1,0.2-0.3,0.4-0.5C374.7,421.9,374.2,421.9,373.6,421.9z"/>
		<path d="M351.1,414.2c-2.1-0.4-2.2-0.4-2.2-0.9c0.8,0.2,1.5,0.3,2.2,0.5C351.1,413.8,351.1,414,351.1,414.2z"/>
		<path d="M383.5,425.2c0.1-0.2,0.2-0.2,0.2-0.3c0-0.1,0-0.2,0.1-0.4c0.4,0.2,0.7,0.3,1.1,0.5c-0.2,0.1-0.3,0.1-0.5,0.1
			c0.5,0.2,1,0.4,1.4,0.5c0,0.1,0,0.1,0,0.2C385,425.6,384.3,425.4,383.5,425.2z"/>
		<path d="M302.5,416.3c-0.9,0-1.3-0.3-1.4-1.1c-0.3,0-0.6,0-1,0c0.8-0.5,0.9-0.5,1.3,0.3c0.1,0.2,0.4,0.4,0.7,0.6
			C302.3,416.2,302.4,416.3,302.5,416.3z"/>
		<path d="M356.9,416.5c0.3,0,0.6,0,1,0c-0.1,0.2-0.2,0.3-0.3,0.6c0.3,0,0.5,0,0.7-0.1c0-0.1,0-0.1,0-0.2c0.3,0.1,0.6,0.3,0.9,0.5
			C358.3,417.6,357.5,417.4,356.9,416.5z"/>
		<path d="M335.1,428.5c-0.8,0.3-1.2-0.2-1.6-0.4c-0.4-0.2-0.7-0.4-1.1-0.7c0.1-0.1,0.1-0.2,0.2-0.3c0.4,0.2,0.9,0.4,1.1,0.7
			c0.2,0.4,0.4,0.4,0.7,0.4C334.6,428.3,334.8,428.4,335.1,428.5z"/>
		<path d="M395.7,431.2c-0.9-0.4-1.8-0.8-2.8-1.2c0.4-0.1,0.6-0.2,0.8-0.3c0.3,0.9,1.4,0.8,2.1,1.3
			C395.8,431.1,395.7,431.2,395.7,431.2z"/>
		<path d="M338.4,423.8c1,0.4,2,0.9,3,1.4c-1.3,0.2-2.1-0.8-3.1-1.1C338.3,424,338.4,423.9,338.4,423.8z"/>
		<path d="M358.2,432.3c-0.1,0.1-0.2,0.2-0.3,0.2c-0.2-0.3-0.4-0.5-0.6-0.7c0.7-0.1,1.6,0.4,2.2,1.3
			C359,432.8,358.6,432.6,358.2,432.3z"/>
		<path d="M393.6,421.5c-0.8,0-1.6,0.2-2.4-0.3C392,421.1,392.9,420.9,393.6,421.5z"/>
		<path d="M305.9,416.2c0.4,0.3,0.9,0.7,1.3,1c0.2,0.1,0.5,0.2,0.8,0.3c0.2,0.1,0.4,0.1,0.7,0.2c-0.9,0.2-2.1-0.4-2.9-1.3
			C305.8,416.3,305.8,416.3,305.9,416.2z"/>
		<path d="M328.5,418.8c0.4,0.2,0.8,0.3,1.3,0.5c-0.2,0.1-0.3,0.1-0.4,0.2c0.6,0.4,1.3,0.7,1.9,1.1c0,0.1-0.1,0.1-0.1,0.2
			c-0.5-0.3-1-0.5-1.5-0.8c-0.4-0.3-0.9-0.6-1.3-1C328.5,418.9,328.5,418.9,328.5,418.8z"/>
		<path d="M340.8,418.3c0.9,0.1,1.8,0,2.5,0.6c-0.4-0.1-0.8-0.2-1.2-0.3c0,0.1-0.1,0.2-0.1,0.4C341.6,418.8,341.2,418.6,340.8,418.3
			L340.8,418.3z"/>
		<path d="M347.6,426.9c0.6,0.5,1.5,0.4,1.8,1.5c-0.5-0.1-0.8-0.2-1.2-0.3C348.5,427.3,347.6,427.5,347.6,426.9z"/>
		<path d="M337.4,416.9c-0.3,0-0.5,0.1-0.8,0.1c-0.5-0.1-1-0.6-1.8-0.1c0-0.2,0-0.4,0-0.6c0.9,0.1,1.8,0.3,2.6,0.4
			C337.5,416.9,337.4,416.9,337.4,416.9z"/>
		<path d="M275.9,415.1c1,0.2,2.1,0.2,2.7,1.2C277.7,415.9,276.8,415.5,275.9,415.1z"/>
		<path d="M384.6,435.2c-0.8-0.4-1.9-0.2-2.3-1.4c0.8,0.4,1.6,0.9,2.4,1.3C384.6,435.1,384.6,435.1,384.6,435.2z"/>
		<path d="M292,385.1c0.7-0.4,2.5-0.1,2.8,0.3c-0.2,0.1-0.4,0.1-0.6,0.2c-0.1-0.2-0.2-0.3-0.2-0.4
			C293.3,385.2,292.7,385.2,292,385.1z"/>
		<path d="M304.9,416.9c-0.1,0.2-0.3,0.3-0.4,0.5c-0.5-0.2-1.1-0.3-1.6-0.5c0-0.1,0-0.1,0-0.2C303.6,416.8,304.3,416.8,304.9,416.9
			L304.9,416.9z"/>
		<path d="M322.3,418c0.7,0.2,1.3,0.4,2,0.6c0,0,0.1,0.2,0.1,0.2c-0.1,0.1-0.2,0.2-0.3,0.1c-0.6-0.2-1.2-0.5-1.8-0.7
			C322.3,418.2,322.3,418.1,322.3,418z"/>
		<path d="M280.3,415.9c-0.7,0.2-1.2-0.4-1.8-0.7C279.3,414.9,279.7,415.7,280.3,415.9z"/>
		<path d="M321.7,417c-0.3,0-0.5,0.1-0.7-0.3c-0.1-0.2-0.7-0.3-1.1-0.4c-0.2-0.1-0.3-0.2-0.4-0.3C320.5,415.8,321.1,416.3,321.7,417
			z"/>
		<path d="M351.2,429.4c-0.7,0.2-1.2-0.4-1.8-0.5C350.1,428.5,350.6,429.1,351.2,429.4z"/>
		<path d="M356.7,430.9c0.7,0,1.4-0.1,1.9,0.5c0,0.1,0,0.1-0.1,0.2c-0.6-0.2-1.3-0.3-1.9-0.5C356.7,431,356.7,430.9,356.7,430.9z"/>
		<path d="M323.3,424.9c0.7,0.1,1.4,0.2,2.1,0.2c0,0,0,0.1,0,0.2c-0.4,0-0.8,0.2-1.1,0.1C323.9,425.4,323.6,425.1,323.3,424.9
			C323.3,424.9,323.3,424.9,323.3,424.9z"/>
		<path d="M269.8,411.6c0.8-0.3,1.2,0.4,1.7,0.7c0,0,0,0.2,0,0.3C270.9,412.2,270.4,411.9,269.8,411.6z"/>
		<path d="M271.4,413.4c-0.7-0.4-1.2-0.8-1.8-1.2C270.1,411.9,271,412.4,271.4,413.4z"/>
		<path d="M376.7,433c-0.3-0.1-0.6-0.2-1-0.3c0.5-0.1,0.5-0.2,0.1-0.8c0.4,0.1,0.7,0.2,1.3,0.3C376.4,432.5,376.4,432.7,376.7,433
			C376.7,433,376.7,433,376.7,433z"/>
		<path d="M306,385.6c0.4-0.2,0.7-0.4,1.1-0.6c0.1,0,0.2,0,0.4,0.1c0,0,0.1,0.2,0.1,0.2c-0.1,0.1-0.2,0.1-0.4,0.1
			c-0.2,0.1-0.3,0.1-0.5,0.2c-0.2,0.1-0.4,0.2-0.6,0.3C306.1,385.7,306.1,385.7,306,385.6z"/>
		<path d="M378.8,432.8c-0.6,0-1.1-0.1-1.7-0.1c0-0.1-0.1-0.2-0.1-0.4c0.6,0.1,1.3,0.2,1.9,0.3C378.8,432.6,378.8,432.7,378.8,432.8
			z"/>
		<path d="M304.9,384.8c0.1,0.2,0.3,0.4,0.4,0.6c-0.4,0-0.9,0-1.3,0c0-0.1,0-0.1,0-0.2C304.3,385.1,304.6,384.9,304.9,384.8z"/>
		<path d="M332.1,415.7c-0.3,0-0.5,0-1,0c0.2-0.1,0.3-0.2,0.3-0.2c0.1,0,0.2,0,0.3-0.1c-0.1-0.1-0.1-0.3-0.2-0.3
			c-0.3-0.1-0.7-0.1-1-0.2c0-0.1,0-0.1,0-0.2c0.4,0.1,0.7,0.2,1.1,0.2C332.4,415,332,415.4,332.1,415.7
			C332.1,415.7,332.1,415.7,332.1,415.7z"/>
		<path d="M332.7,421.7c0.4,0.3,0.7,0.6,1.1,0.9c0,0.1-0.1,0.1-0.1,0.2c-0.4-0.2-0.9-0.3-1.3-0.5C332.5,422,332.6,421.9,332.7,421.7
			z"/>
		<path d="M379.1,422.9c0.6,0.3,1.3,0.6,1.9,1c0,0.1-0.1,0.1-0.1,0.2c-0.7-0.3-1.3-0.6-2-0.9C379,423,379,422.9,379.1,422.9z"/>
		<path d="M384.4,426.3c0.6,0.2,1.1,0.4,1.6,0.5C385.4,427.1,384.6,426.9,384.4,426.3z"/>
		<path d="M314.2,410.1c0.6-0.1,1,0.4,1.6,0.5c0,0.1,0,0.1-0.1,0.2c-0.5-0.2-1.1-0.3-1.6-0.5C314.2,410.3,314.2,410.2,314.2,410.1z"
			/>
		<path d="M354.3,424.4c0.5-0.3,1,0,1.5,0.8c-0.5-0.1-0.9-0.1-1.1-0.6C354.7,424.5,354.4,424.4,354.3,424.4
			C354.3,424.4,354.3,424.4,354.3,424.4z"/>
		<path d="M320.5,423.3c0.1,0.2,0.2,0.4,0.3,0.5c-1-0.2-1.4-0.5-1.4-1.3C319.7,423,319.9,423.6,320.5,423.3z"/>
		<path d="M331.7,416.6c-0.7-0.2-1.3-0.4-1.9-0.6c0,0,0-0.1,0-0.1c0.5,0.1,1.1,0.1,1.6,0.2C331.5,416.1,331.6,416.4,331.7,416.6z"/>
		<path d="M304.9,416.9c-0.1-0.1-0.2-0.2-0.3-0.4c0.9-0.2,1,0.9,1.7,0.9c-0.5,0.2-0.5,0.2-0.9-0.2C305.4,417,305.1,417,304.9,416.9
			C304.9,416.9,304.9,416.9,304.9,416.9z"/>
		<path d="M286.9,386.6c0.6-0.3,1-0.4,1.4-0.6c-0.1,0.3-0.2,0.5-0.3,0.9C287.8,386.8,287.4,386.7,286.9,386.6z"/>
		<path d="M312.1,420c0.5,0.1,0.9,0.2,1.5,0.3c0,0,0.1,0.2,0.2,0.4c-0.7-0.2-1.2-0.4-1.8-0.5C312.1,420.1,312.1,420,312.1,420z"/>
		<path d="M310.2,418c-0.8,0.3-1.1,0.1-1.3-0.5C309.2,417.6,309.6,417.8,310.2,418z"/>
		<path d="M340.8,418.3c-0.4-0.1-0.7-0.2-1.1-0.3c-0.2-0.1-0.3-0.2-0.4-0.3c0-0.1,0.1-0.1,0.1-0.2c0.4,0.1,0.8,0.2,1.2,0.4
			C340.7,418,340.8,418.2,340.8,418.3C340.8,418.3,340.8,418.3,340.8,418.3z"/>
		<path d="M335.9,422c-0.1-0.1-0.1-0.2-0.2-0.3c0,0,0-0.1,0.1-0.1c0.5,0.2,1,0.4,1.5,0.6c0,0.1,0,0.1-0.1,0.2
			C336.8,422.3,336.3,422.1,335.9,422C335.9,422,335.9,422,335.9,422z"/>
		<path d="M395.8,409.2c0.3,0.1,0.7,0.1,0.9,0.3c0.1,0.1,0.1,0.5,0.1,0.8C396.5,409.9,396.1,409.6,395.8,409.2z"/>
		<path d="M308.5,384.9c-0.6-0.1-1.2-0.2-1.8-0.3C307.2,384.3,308.2,384.4,308.5,384.9z"/>
		<path d="M288.9,420.8c0.4,0.2,0.9,0.5,1.3,0.7c0,0.1-0.1,0.1-0.1,0.2c-0.5-0.2-0.9-0.4-1.4-0.6C288.8,421,288.8,420.9,288.9,420.8
			z"/>
		<path d="M303.7,415.5c-0.1,0.1-0.2,0.3-0.2,0.3c-0.4-0.2-0.9-0.4-1.3-0.6c0-0.1,0.1-0.1,0.1-0.2
			C302.8,415.2,303.2,415.3,303.7,415.5z"/>
		<path d="M392.7,429.7c-0.5,0.5-0.8,0.1-1.3-0.1C391.9,429.1,392.3,429.7,392.7,429.7z"/>
		<path d="M319,423c-0.8,0.2-1.2,0.1-1.5-0.4C318,422.7,318.5,422.8,319,423z"/>
		<path d="M311.5,418.6c0.7,0.2,1.3,0.4,2.1,0.6c-0.3,0.2-0.4,0.3-0.6,0.4C312.9,418.7,312,419.2,311.5,418.6z"/>
		<path d="M290.4,386.5c-0.4,0.5-1.2,0.6-1.6,0.3C289.3,386.7,289.8,386.6,290.4,386.5z"/>
		<path d="M381.6,424.8c-1-0.3-1-0.3-1.1-0.7c0.4,0.1,0.8,0.2,1.2,0.3C381.6,424.6,381.6,424.7,381.6,424.8
			C381.5,424.8,381.6,424.8,381.6,424.8z"/>
		<path d="M393.8,422.8c0.4,0.1,0.8,0.2,1.2,0.4c0.1,0.1,0.1,0.3,0.3,0.7c-0.6-0.3-1-0.6-1.5-0.9
			C393.8,422.8,393.8,422.8,393.8,422.8z"/>
		<path d="M369.7,429c0.6,0.2,1.1,0.3,1.7,0.5c0,0.1,0,0.1-0.1,0.2c-0.6-0.2-1.1-0.3-1.7-0.5C369.7,429.1,369.7,429,369.7,429z"/>
		<path d="M268.4,411.9c-0.4-0.1-1-0.1-1.1-0.9c0.5,0.3,0.9,0.5,1.2,0.7C268.5,411.8,268.5,411.8,268.4,411.9z"/>
		<path d="M344.2,424.9c-0.6-0.1-1.1-0.3-1.7-0.4c0-0.1,0.1-0.2,0.1-0.3C343.2,424.4,343.7,424.7,344.2,424.9
			C344.2,424.9,344.2,424.9,344.2,424.9z"/>
		<path d="M289.2,419.7c0.5,0.3,1,0.5,1.5,0.8c0,0.1-0.1,0.1-0.1,0.2c-0.5-0.3-1-0.6-1.5-0.8C289.1,419.8,289.2,419.8,289.2,419.7z"
			/>
		<path d="M302.2,387.1c-0.4,0.1-0.6,0.2-0.9,0.2c-0.1,0-0.2-0.1-0.3-0.1c0,0-0.1-0.2,0-0.2c0.1,0,0.2-0.1,0.3-0.1
			c0.2,0,0.3-0.1,0.5,0C301.9,386.9,302,387,302.2,387.1z"/>
		<path d="M281.3,416.5c0.2,0.2,0.3,0.5,0.5,0.7c-0.1,0.1-0.4,0.2-0.4,0.1c-0.1-0.2-0.2-0.5-0.3-0.7
			C281.1,416.5,281.2,416.5,281.3,416.5z"/>
		<path d="M285.3,418.6c0.2,0.4,0.8,0.5,0.6,1.2c-0.3-0.4-0.6-0.7-0.8-1.1C285.2,418.7,285.2,418.7,285.3,418.6z"/>
		<path d="M271.9,413.1c0.5,0.2,1,0.4,1.5,0.7c0,0.1-0.1,0.1-0.1,0.2c-0.5-0.2-1-0.4-1.5-0.6C271.8,413.3,271.8,413.2,271.9,413.1z"
			/>
		<path class="st0" d="M333.2,406.2c0.5,0,1.1,0.5,1.1,0.9c0,0.6-0.3,1.2-0.7,1.2c-0.5,0-1.1-0.7-1.2-1.3
			C332.4,406.7,332.8,406.3,333.2,406.2z"/>
		<path class="st0" d="M286.3,404.6c0-0.6,0.3-1,0.8-1c0.4,0,0.8,0.6,0.7,1.2c0,0.6-0.3,0.9-0.9,0.9
			C286.5,405.7,286.3,405.3,286.3,404.6z"/>
		<path class="st0" d="M228.3,399.5c-0.2-0.1-0.3-0.2-0.5-0.2c-0.5-0.2-0.7-0.6-0.5-1.1c0-0.1,0.2-0.2,0.3-0.2
			c0.3,0.1,0.8,0.2,1,0.5C228.8,398.8,228.7,399.3,228.3,399.5z"/>
		<path class="st0" d="M228.4,399.9c-0.3,0.1-0.7,0.2-1.1,0.2c-0.1-0.2-0.2-0.4-0.3-0.7c0.5,0.1,0.9,0.2,1.3,0.3
			C228.4,399.8,228.4,399.8,228.4,399.9z"/>
		<path class="st0" d="M302.3,409.9c0.1,0.2,0.1,0.3,0.2,0.5c-0.4-0.1-0.8-0.1-1.2-0.1C301.5,409.7,302,410,302.3,409.9
			C302.3,409.9,302.3,409.9,302.3,409.9z"/>
		<path class="st0" d="M296.3,386.4c0.5-0.1,1.1-0.2,1.6-0.3c0,0.1,0,0.1,0,0.2c-0.5,0.4-1.1,0-1.6,0.2
			C296.3,386.6,296.3,386.5,296.3,386.4z"/>
		<path class="st0" d="M371.3,415.7c-1.1-0.3-2.2-0.5-3.5-0.8c0.2-0.1,0.3-0.3,0.4-0.2c0.2,0.1,0.4,0.2,0.5-0.1
			c0.2,0.1,0.5-0.2,0.5,0.3c0,0.1,0.5,0.3,0.7,0.3c0.3,0.1,0.7,0,1,0.1c0.2,0,0.4,0.2,0.5,0.4C371.4,415.5,371.4,415.6,371.3,415.7z
			"/>
		<path class="st0" d="M355.2,415.7c-0.5-0.2-0.9-0.3-1.4-0.5C354.4,415.1,355,414.9,355.2,415.7z"/>
		<path class="st0" d="M345.9,420.9c-0.5,0.2-0.9,0.3-1.3-0.3c0.1-0.1,0.2-0.2,0.3-0.2c-0.4-0.3-0.8-0.5-1.2-0.8
			c0.9,0.2,1.7,0.5,2.6,0.7c0.4,0.1,0.9,0.1,1.3,0.2c0,0.1,0,0.1,0,0.2c-0.8,0-1.5-0.1-2.3-0.1c0,0,0,0.1,0,0.1
			C345.5,420.7,345.7,420.8,345.9,420.9z"/>
		<path class="st0" d="M346.5,421.4c-0.2-0.2-0.4-0.4-0.6-0.5c1.2-0.1,2.3,0.4,3.3,1.1c-0.3,0.2-0.5,0.2-0.9-0.1
			c-0.3-0.2-0.6-0.4-1-0.6c-0.1,0.2-0.1,0.3-0.2,0.4C346.9,421.5,346.7,421.4,346.5,421.4z"/>
		<path class="st0" d="M363.1,413.4c-0.4-0.1-1,0.2-1-0.5c0.1,0,0,0,0,0c-0.2-0.1-0.3-0.1-0.5-0.2c0-0.1,0.1-0.2,0.1-0.2
			c0.2,0,0.5,0.1,0.7,0.2c-0.2,0.5,0.3,0.4,0.5,0.5C363,413.2,363,413.4,363.1,413.4z"/>
		<path class="st0" d="M350.2,406.7c0.2,0.3,0.3,0.7,0.5,1.1c-0.4,0.1-0.6,0.1-0.9,0.2c0.1-0.5,0.1-0.8,0.2-1.2
			C350.1,406.7,350.1,406.7,350.2,406.7z"/>
		<path class="st0" d="M221.5,396.5c0.5,0.2,1.2-0.1,1.1,0.7c-0.1,0.6-0.5,0.6-1,0.5C221.6,397.3,221.5,396.9,221.5,396.5z"/>
		<path class="st0" d="M222.6,396.1c-0.4,0.1-0.6,0.1-1,0.2c0.1-0.3,0.1-0.7,0.2-0.9c0,0,0.4,0,0.5,0.1
			C222.4,395.6,222.4,395.9,222.6,396.1z"/>
		<path class="st0" d="M353.1,422.7c0.4,0.1,0.7,0.2,1.1,0.3c0.1,0,0.1,0.2,0.1,0.3c-0.1,0-0.2,0.1-0.3,0c-0.3-0.1-0.6-0.3-0.9-0.5
			C353.1,422.8,353.1,422.7,353.1,422.7z"/>
		<path class="st0" d="M300.7,405c0-0.4-0.1-0.9,0.4-1c0.1,0,0.5,0.3,0.5,0.5C301.6,405.1,301.2,405.1,300.7,405z"/>
	</g>
</g>
</svg>
