<?xml version="1.0" encoding="utf-8"?>
<!-- Generator: Adobe Illustrator 17.1.0, SVG Export Plug-In . SVG Version: 6.00 Build 0)  -->
<!DOCTYPE svg PUBLIC "-//W3C//DTD SVG 1.1//EN" "http://www.w3.org/Graphics/SVG/1.1/DTD/svg11.dtd">
<svg version="1.1" id="icon" xmlns="http://www.w3.org/2000/svg" xmlns:xlink="http://www.w3.org/1999/xlink" x="0px" y="0px"
	 viewBox="0 0 40 40" enable-background="new 0 0 40 40" xml:space="preserve">
<path id="taxsonomy" d="M38,28l-6.5,0v-1.7c0-4.1-3.2-7.3-7.2-7.3H10.5v-7h6.3C18,12,19,11,19,9.8V2.2C19,1,18.2,0,17,0L2,0.1
	C0.8,0.1,0,0.8,0,2v8c0,1.2,0.8,2,2,2h6.5v16l-6.5,0c-1.2,0-2,0.7-2,1.9v8c0,1.2,0.8,2,2,2h14.8c1.2,0,2.2-1,2.2-2.2v-7.6
	c0-1.2-0.8-2.2-2-2.2l-6.5,0v-7h13.7c2.9,0,5.2,2.3,5.2,5.3V28l-6.5,0c-1.2,0-2,0.7-2,1.9v8c0,1.2,0.8,2,2,2h14.8
	c1.2,0,2.2-1,2.2-2.2v-7.6C40,29,39.2,28,38,28z M16,31v6L3,37v-6L16,31z M3,9V3l13,0v6L3,9z M37,37l-13,0v-6l13,0V37z"/>
</svg>
