<?xml version="1.0" encoding="utf-8"?>
<!-- Generator: Adobe Illustrator 17.1.0, SVG Export Plug-In . SVG Version: 6.00 Build 0)  -->
<!DOCTYPE svg PUBLIC "-//W3C//DTD SVG 1.1//EN" "http://www.w3.org/Graphics/SVG/1.1/DTD/svg11.dtd">
<svg version="1.1" id="icon" xmlns="http://www.w3.org/2000/svg" xmlns:xlink="http://www.w3.org/1999/xlink" x="0px" y="0px"
	 viewBox="0 0 40 40" enable-background="new 0 0 40 40" xml:space="preserve">
<g>
	<g>
		<path d="M39.3,35.4l-9.2-8.8c1.9-2.7,3.1-5.9,3.1-9.5C33.2,8.2,26,1,17.1,1S1.1,8.2,1.1,17.1s7.2,16.1,16.1,16.1
			c3.6,0,6.9-1.2,9.6-3.2l9.2,8.8c0.5,0.5,1.1,0.7,1.7,0.7s1.2-0.2,1.7-0.7C40.2,37.8,40.2,36.3,39.3,35.4z M17.1,30.1
			c-7.2,0-13.1-5.9-13.1-13.1S9.9,4,17.1,4s13.1,5.9,13.1,13.1S24.3,30.1,17.1,30.1z"/>
	</g>
</g>
</svg>
